%TF.GenerationSoftware,KiCad,Pcbnew,7.0.11*%
%TF.CreationDate,2024-08-15T23:53:51-03:00*%
%TF.ProjectId,amplifiers,616d706c-6966-4696-9572-732e6b696361,0.1*%
%TF.SameCoordinates,Original*%
%TF.FileFunction,Legend,Top*%
%TF.FilePolarity,Positive*%
%FSLAX46Y46*%
G04 Gerber Fmt 4.6, Leading zero omitted, Abs format (unit mm)*
G04 Created by KiCad (PCBNEW 7.0.11) date 2024-08-15 23:53:51*
%MOMM*%
%LPD*%
G01*
G04 APERTURE LIST*
%ADD10C,0.200000*%
%ADD11C,0.120000*%
G04 APERTURE END LIST*
D10*
X143472054Y-94331504D02*
X143948244Y-94331504D01*
X143376816Y-94617219D02*
X143710149Y-93617219D01*
X143710149Y-93617219D02*
X144043482Y-94617219D01*
X144376816Y-93950552D02*
X144376816Y-94617219D01*
X144376816Y-94045790D02*
X144424435Y-93998171D01*
X144424435Y-93998171D02*
X144519673Y-93950552D01*
X144519673Y-93950552D02*
X144662530Y-93950552D01*
X144662530Y-93950552D02*
X144757768Y-93998171D01*
X144757768Y-93998171D02*
X144805387Y-94093409D01*
X144805387Y-94093409D02*
X144805387Y-94617219D01*
X145710149Y-94617219D02*
X145710149Y-94093409D01*
X145710149Y-94093409D02*
X145662530Y-93998171D01*
X145662530Y-93998171D02*
X145567292Y-93950552D01*
X145567292Y-93950552D02*
X145376816Y-93950552D01*
X145376816Y-93950552D02*
X145281578Y-93998171D01*
X145710149Y-94569600D02*
X145614911Y-94617219D01*
X145614911Y-94617219D02*
X145376816Y-94617219D01*
X145376816Y-94617219D02*
X145281578Y-94569600D01*
X145281578Y-94569600D02*
X145233959Y-94474361D01*
X145233959Y-94474361D02*
X145233959Y-94379123D01*
X145233959Y-94379123D02*
X145281578Y-94283885D01*
X145281578Y-94283885D02*
X145376816Y-94236266D01*
X145376816Y-94236266D02*
X145614911Y-94236266D01*
X145614911Y-94236266D02*
X145710149Y-94188647D01*
X146329197Y-94617219D02*
X146233959Y-94569600D01*
X146233959Y-94569600D02*
X146186340Y-94474361D01*
X146186340Y-94474361D02*
X146186340Y-93617219D01*
X146853007Y-94617219D02*
X146757769Y-94569600D01*
X146757769Y-94569600D02*
X146710150Y-94521980D01*
X146710150Y-94521980D02*
X146662531Y-94426742D01*
X146662531Y-94426742D02*
X146662531Y-94141028D01*
X146662531Y-94141028D02*
X146710150Y-94045790D01*
X146710150Y-94045790D02*
X146757769Y-93998171D01*
X146757769Y-93998171D02*
X146853007Y-93950552D01*
X146853007Y-93950552D02*
X146995864Y-93950552D01*
X146995864Y-93950552D02*
X147091102Y-93998171D01*
X147091102Y-93998171D02*
X147138721Y-94045790D01*
X147138721Y-94045790D02*
X147186340Y-94141028D01*
X147186340Y-94141028D02*
X147186340Y-94426742D01*
X147186340Y-94426742D02*
X147138721Y-94521980D01*
X147138721Y-94521980D02*
X147091102Y-94569600D01*
X147091102Y-94569600D02*
X146995864Y-94617219D01*
X146995864Y-94617219D02*
X146853007Y-94617219D01*
X148043483Y-93950552D02*
X148043483Y-94760076D01*
X148043483Y-94760076D02*
X147995864Y-94855314D01*
X147995864Y-94855314D02*
X147948245Y-94902933D01*
X147948245Y-94902933D02*
X147853007Y-94950552D01*
X147853007Y-94950552D02*
X147710150Y-94950552D01*
X147710150Y-94950552D02*
X147614912Y-94902933D01*
X148043483Y-94569600D02*
X147948245Y-94617219D01*
X147948245Y-94617219D02*
X147757769Y-94617219D01*
X147757769Y-94617219D02*
X147662531Y-94569600D01*
X147662531Y-94569600D02*
X147614912Y-94521980D01*
X147614912Y-94521980D02*
X147567293Y-94426742D01*
X147567293Y-94426742D02*
X147567293Y-94141028D01*
X147567293Y-94141028D02*
X147614912Y-94045790D01*
X147614912Y-94045790D02*
X147662531Y-93998171D01*
X147662531Y-93998171D02*
X147757769Y-93950552D01*
X147757769Y-93950552D02*
X147948245Y-93950552D01*
X147948245Y-93950552D02*
X148043483Y-93998171D01*
X149233960Y-94331504D02*
X149710150Y-94331504D01*
X149138722Y-94617219D02*
X149472055Y-93617219D01*
X149472055Y-93617219D02*
X149805388Y-94617219D01*
X150138722Y-94617219D02*
X150138722Y-93950552D01*
X150138722Y-94045790D02*
X150186341Y-93998171D01*
X150186341Y-93998171D02*
X150281579Y-93950552D01*
X150281579Y-93950552D02*
X150424436Y-93950552D01*
X150424436Y-93950552D02*
X150519674Y-93998171D01*
X150519674Y-93998171D02*
X150567293Y-94093409D01*
X150567293Y-94093409D02*
X150567293Y-94617219D01*
X150567293Y-94093409D02*
X150614912Y-93998171D01*
X150614912Y-93998171D02*
X150710150Y-93950552D01*
X150710150Y-93950552D02*
X150853007Y-93950552D01*
X150853007Y-93950552D02*
X150948246Y-93998171D01*
X150948246Y-93998171D02*
X150995865Y-94093409D01*
X150995865Y-94093409D02*
X150995865Y-94617219D01*
X151472055Y-93950552D02*
X151472055Y-94950552D01*
X151472055Y-93998171D02*
X151567293Y-93950552D01*
X151567293Y-93950552D02*
X151757769Y-93950552D01*
X151757769Y-93950552D02*
X151853007Y-93998171D01*
X151853007Y-93998171D02*
X151900626Y-94045790D01*
X151900626Y-94045790D02*
X151948245Y-94141028D01*
X151948245Y-94141028D02*
X151948245Y-94426742D01*
X151948245Y-94426742D02*
X151900626Y-94521980D01*
X151900626Y-94521980D02*
X151853007Y-94569600D01*
X151853007Y-94569600D02*
X151757769Y-94617219D01*
X151757769Y-94617219D02*
X151567293Y-94617219D01*
X151567293Y-94617219D02*
X151472055Y-94569600D01*
X152519674Y-94617219D02*
X152424436Y-94569600D01*
X152424436Y-94569600D02*
X152376817Y-94474361D01*
X152376817Y-94474361D02*
X152376817Y-93617219D01*
X152900627Y-94617219D02*
X152900627Y-93950552D01*
X152900627Y-93617219D02*
X152853008Y-93664838D01*
X152853008Y-93664838D02*
X152900627Y-93712457D01*
X152900627Y-93712457D02*
X152948246Y-93664838D01*
X152948246Y-93664838D02*
X152900627Y-93617219D01*
X152900627Y-93617219D02*
X152900627Y-93712457D01*
X153233960Y-93950552D02*
X153614912Y-93950552D01*
X153376817Y-94617219D02*
X153376817Y-93760076D01*
X153376817Y-93760076D02*
X153424436Y-93664838D01*
X153424436Y-93664838D02*
X153519674Y-93617219D01*
X153519674Y-93617219D02*
X153614912Y-93617219D01*
X153948246Y-94617219D02*
X153948246Y-93950552D01*
X153948246Y-93617219D02*
X153900627Y-93664838D01*
X153900627Y-93664838D02*
X153948246Y-93712457D01*
X153948246Y-93712457D02*
X153995865Y-93664838D01*
X153995865Y-93664838D02*
X153948246Y-93617219D01*
X153948246Y-93617219D02*
X153948246Y-93712457D01*
X154805388Y-94569600D02*
X154710150Y-94617219D01*
X154710150Y-94617219D02*
X154519674Y-94617219D01*
X154519674Y-94617219D02*
X154424436Y-94569600D01*
X154424436Y-94569600D02*
X154376817Y-94474361D01*
X154376817Y-94474361D02*
X154376817Y-94093409D01*
X154376817Y-94093409D02*
X154424436Y-93998171D01*
X154424436Y-93998171D02*
X154519674Y-93950552D01*
X154519674Y-93950552D02*
X154710150Y-93950552D01*
X154710150Y-93950552D02*
X154805388Y-93998171D01*
X154805388Y-93998171D02*
X154853007Y-94093409D01*
X154853007Y-94093409D02*
X154853007Y-94188647D01*
X154853007Y-94188647D02*
X154376817Y-94283885D01*
X155281579Y-94617219D02*
X155281579Y-93950552D01*
X155281579Y-94141028D02*
X155329198Y-94045790D01*
X155329198Y-94045790D02*
X155376817Y-93998171D01*
X155376817Y-93998171D02*
X155472055Y-93950552D01*
X155472055Y-93950552D02*
X155567293Y-93950552D01*
X155853008Y-94569600D02*
X155948246Y-94617219D01*
X155948246Y-94617219D02*
X156138722Y-94617219D01*
X156138722Y-94617219D02*
X156233960Y-94569600D01*
X156233960Y-94569600D02*
X156281579Y-94474361D01*
X156281579Y-94474361D02*
X156281579Y-94426742D01*
X156281579Y-94426742D02*
X156233960Y-94331504D01*
X156233960Y-94331504D02*
X156138722Y-94283885D01*
X156138722Y-94283885D02*
X155995865Y-94283885D01*
X155995865Y-94283885D02*
X155900627Y-94236266D01*
X155900627Y-94236266D02*
X155853008Y-94141028D01*
X155853008Y-94141028D02*
X155853008Y-94093409D01*
X155853008Y-94093409D02*
X155900627Y-93998171D01*
X155900627Y-93998171D02*
X155995865Y-93950552D01*
X155995865Y-93950552D02*
X156138722Y-93950552D01*
X156138722Y-93950552D02*
X156233960Y-93998171D01*
D11*
%TO.C,U1*%
X149510000Y-87190000D02*
X146060000Y-87190000D01*
X149510000Y-87190000D02*
X151460000Y-87190000D01*
X149510000Y-92310000D02*
X147560000Y-92310000D01*
X149510000Y-92310000D02*
X151460000Y-92310000D01*
%TD*%
M02*
