%TF.GenerationSoftware,KiCad,Pcbnew,7.0.11*%
%TF.CreationDate,2024-08-15T23:53:51-03:00*%
%TF.ProjectId,amplifiers,616d706c-6966-4696-9572-732e6b696361,0.1*%
%TF.SameCoordinates,Original*%
%TF.FileFunction,Copper,L1,Top*%
%TF.FilePolarity,Positive*%
%FSLAX46Y46*%
G04 Gerber Fmt 4.6, Leading zero omitted, Abs format (unit mm)*
G04 Created by KiCad (PCBNEW 7.0.11) date 2024-08-15 23:53:51*
%MOMM*%
%LPD*%
G01*
G04 APERTURE LIST*
G04 Aperture macros list*
%AMRoundRect*
0 Rectangle with rounded corners*
0 $1 Rounding radius*
0 $2 $3 $4 $5 $6 $7 $8 $9 X,Y pos of 4 corners*
0 Add a 4 corners polygon primitive as box body*
4,1,4,$2,$3,$4,$5,$6,$7,$8,$9,$2,$3,0*
0 Add four circle primitives for the rounded corners*
1,1,$1+$1,$2,$3*
1,1,$1+$1,$4,$5*
1,1,$1+$1,$6,$7*
1,1,$1+$1,$8,$9*
0 Add four rect primitives between the rounded corners*
20,1,$1+$1,$2,$3,$4,$5,0*
20,1,$1+$1,$4,$5,$6,$7,0*
20,1,$1+$1,$6,$7,$8,$9,0*
20,1,$1+$1,$8,$9,$2,$3,0*%
G04 Aperture macros list end*
%TA.AperFunction,SMDPad,CuDef*%
%ADD10RoundRect,0.150000X-0.825000X-0.150000X0.825000X-0.150000X0.825000X0.150000X-0.825000X0.150000X0*%
%TD*%
%TA.AperFunction,SMDPad,CuDef*%
%ADD11R,2.410000X3.810000*%
%TD*%
%TA.AperFunction,ComponentPad*%
%ADD12R,1.700000X1.700000*%
%TD*%
%TA.AperFunction,ComponentPad*%
%ADD13O,1.700000X1.700000*%
%TD*%
%TA.AperFunction,ViaPad*%
%ADD14C,0.800000*%
%TD*%
%TA.AperFunction,ViaPad*%
%ADD15C,1.400000*%
%TD*%
%TA.AperFunction,Conductor*%
%ADD16C,0.500000*%
%TD*%
%TA.AperFunction,Conductor*%
%ADD17C,0.800000*%
%TD*%
G04 APERTURE END LIST*
D10*
%TO.P,U1,1*%
%TO.N,Net-(J2-Pin_1)*%
X147035000Y-87845000D03*
%TO.P,U1,2,-*%
%TO.N,Net-(J1-Pin_3)*%
X147035000Y-89115000D03*
%TO.P,U1,3,+*%
%TO.N,Net-(J1-Pin_2)*%
X147035000Y-90385000D03*
%TO.P,U1,4,V-*%
%TO.N,-9V*%
X147035000Y-91655000D03*
%TO.P,U1,5,+*%
%TO.N,Net-(J3-Pin_3)*%
X151985000Y-91655000D03*
%TO.P,U1,6,-*%
%TO.N,Net-(J3-Pin_2)*%
X151985000Y-90385000D03*
%TO.P,U1,7*%
%TO.N,Net-(J2-Pin_2)*%
X151985000Y-89115000D03*
%TO.P,U1,8,V+*%
%TO.N,+9V*%
X151985000Y-87845000D03*
D11*
%TO.P,U1,9,EP*%
%TO.N,-9V*%
X149510000Y-89750000D03*
%TD*%
D12*
%TO.P,J3,1,Pin_1*%
%TO.N,+9V*%
X158800000Y-86500000D03*
D13*
%TO.P,J3,2,Pin_2*%
%TO.N,Net-(J3-Pin_2)*%
X158800000Y-89040000D03*
%TO.P,J3,3,Pin_3*%
%TO.N,Net-(J3-Pin_3)*%
X158800000Y-91580000D03*
%TD*%
D12*
%TO.P,J1,1,Pin_1*%
%TO.N,-9V*%
X140200000Y-91580000D03*
D13*
%TO.P,J1,2,Pin_2*%
%TO.N,Net-(J1-Pin_2)*%
X140200000Y-89040000D03*
%TO.P,J1,3,Pin_3*%
%TO.N,Net-(J1-Pin_3)*%
X140200000Y-86500000D03*
%TD*%
D12*
%TO.P,J2,1,Pin_1*%
%TO.N,Net-(J2-Pin_1)*%
X148230000Y-82300000D03*
D13*
%TO.P,J2,2,Pin_2*%
%TO.N,Net-(J2-Pin_2)*%
X150770000Y-82300000D03*
%TD*%
D14*
%TO.N,-9V*%
X143410000Y-90430000D03*
X157150000Y-94700000D03*
X144660000Y-85080000D03*
X140870000Y-81860000D03*
X150050000Y-93150000D03*
X157630000Y-82630000D03*
X141860000Y-94900000D03*
X149550000Y-85880000D03*
D15*
%TO.N,+9V*%
X152100000Y-85870000D03*
%TD*%
D16*
%TO.N,Net-(J1-Pin_2)*%
X140200000Y-89040000D02*
X144289524Y-89040000D01*
X144289524Y-89040000D02*
X145634524Y-90385000D01*
X145634524Y-90385000D02*
X147035000Y-90385000D01*
%TO.N,Net-(J1-Pin_3)*%
X142880894Y-86500000D02*
X145495894Y-89115000D01*
X145495894Y-89115000D02*
X147035000Y-89115000D01*
X140200000Y-86500000D02*
X142880894Y-86500000D01*
%TO.N,Net-(J2-Pin_1)*%
X146735001Y-83794999D02*
X148230000Y-82300000D01*
X146735001Y-87545001D02*
X146735001Y-83794999D01*
X147035000Y-87845000D02*
X146735001Y-87545001D01*
%TO.N,Net-(J2-Pin_2)*%
X155170000Y-88234925D02*
X155170000Y-84790000D01*
X154289925Y-89115000D02*
X155170000Y-88234925D01*
X151985000Y-89115000D02*
X154289925Y-89115000D01*
X155170000Y-84790000D02*
X152680000Y-82300000D01*
X152680000Y-82300000D02*
X150770000Y-82300000D01*
%TO.N,Net-(J3-Pin_2)*%
X157455000Y-90385000D02*
X158800000Y-89040000D01*
X151985000Y-90385000D02*
X157455000Y-90385000D01*
%TO.N,Net-(J3-Pin_3)*%
X158725000Y-91655000D02*
X158800000Y-91580000D01*
X151985000Y-91655000D02*
X158725000Y-91655000D01*
%TO.N,-9V*%
X148900000Y-88405000D02*
X149000000Y-88505000D01*
X149500000Y-91100000D02*
X148945000Y-91655000D01*
X149510000Y-89750000D02*
X149500000Y-89760000D01*
X148945000Y-91655000D02*
X147035000Y-91655000D01*
X149500000Y-89760000D02*
X149500000Y-91100000D01*
%TO.N,+9V*%
X151985000Y-87845000D02*
X152355000Y-87845000D01*
D17*
X152100000Y-85870000D02*
X152100000Y-87730000D01*
D16*
X151985000Y-87845000D02*
X152100000Y-87730000D01*
%TD*%
%TA.AperFunction,Conductor*%
%TO.N,-9V*%
G36*
X158003472Y-80200695D02*
G01*
X158306503Y-80217713D01*
X158320301Y-80219267D01*
X158616080Y-80269522D01*
X158629636Y-80272616D01*
X158917927Y-80355672D01*
X158931051Y-80360265D01*
X159208222Y-80475072D01*
X159220744Y-80481101D01*
X159423184Y-80592986D01*
X159483328Y-80626227D01*
X159495102Y-80633625D01*
X159739789Y-80807239D01*
X159750657Y-80815907D01*
X159974352Y-81015815D01*
X159984184Y-81025647D01*
X160184092Y-81249342D01*
X160192763Y-81260214D01*
X160366374Y-81504897D01*
X160373772Y-81516671D01*
X160518894Y-81779248D01*
X160524927Y-81791777D01*
X160639734Y-82068948D01*
X160644327Y-82082072D01*
X160727383Y-82370363D01*
X160730477Y-82383920D01*
X160780730Y-82679688D01*
X160782287Y-82693506D01*
X160799305Y-82996527D01*
X160799500Y-83003480D01*
X160799500Y-92996519D01*
X160799305Y-93003472D01*
X160782287Y-93306493D01*
X160780730Y-93320311D01*
X160730477Y-93616079D01*
X160727383Y-93629636D01*
X160644327Y-93917927D01*
X160639734Y-93931051D01*
X160524927Y-94208222D01*
X160518894Y-94220751D01*
X160373772Y-94483328D01*
X160366374Y-94495102D01*
X160192763Y-94739785D01*
X160184092Y-94750657D01*
X159984184Y-94974352D01*
X159974352Y-94984184D01*
X159750657Y-95184092D01*
X159739785Y-95192763D01*
X159495102Y-95366374D01*
X159483328Y-95373772D01*
X159220751Y-95518894D01*
X159208222Y-95524927D01*
X158931051Y-95639734D01*
X158917927Y-95644327D01*
X158629636Y-95727383D01*
X158616079Y-95730477D01*
X158320311Y-95780730D01*
X158306493Y-95782287D01*
X158003472Y-95799305D01*
X157996519Y-95799500D01*
X141003481Y-95799500D01*
X140996528Y-95799305D01*
X140693506Y-95782287D01*
X140679688Y-95780730D01*
X140383920Y-95730477D01*
X140370363Y-95727383D01*
X140082072Y-95644327D01*
X140068948Y-95639734D01*
X139791777Y-95524927D01*
X139779248Y-95518894D01*
X139516671Y-95373772D01*
X139504897Y-95366374D01*
X139260214Y-95192763D01*
X139249342Y-95184092D01*
X139025647Y-94984184D01*
X139015815Y-94974352D01*
X138815907Y-94750657D01*
X138807236Y-94739785D01*
X138633625Y-94495102D01*
X138626227Y-94483328D01*
X138481105Y-94220751D01*
X138475072Y-94208222D01*
X138360265Y-93931051D01*
X138355672Y-93917927D01*
X138272616Y-93629636D01*
X138269522Y-93616079D01*
X138250030Y-93501356D01*
X138219267Y-93320301D01*
X138217713Y-93306503D01*
X138200695Y-93003472D01*
X138200500Y-92996519D01*
X138200500Y-89040000D01*
X138844341Y-89040000D01*
X138864936Y-89275403D01*
X138864938Y-89275413D01*
X138926094Y-89503655D01*
X138926096Y-89503659D01*
X138926097Y-89503663D01*
X139002200Y-89666865D01*
X139025965Y-89717830D01*
X139025967Y-89717834D01*
X139161501Y-89911395D01*
X139161506Y-89911402D01*
X139283818Y-90033714D01*
X139317303Y-90095037D01*
X139312319Y-90164729D01*
X139270447Y-90220662D01*
X139239471Y-90237577D01*
X139107912Y-90286646D01*
X139107906Y-90286649D01*
X138992812Y-90372809D01*
X138992809Y-90372812D01*
X138906649Y-90487906D01*
X138906645Y-90487913D01*
X138856403Y-90622620D01*
X138856401Y-90622627D01*
X138850000Y-90682155D01*
X138850000Y-91330000D01*
X139766314Y-91330000D01*
X139740507Y-91370156D01*
X139700000Y-91508111D01*
X139700000Y-91651889D01*
X139740507Y-91789844D01*
X139766314Y-91830000D01*
X138850000Y-91830000D01*
X138850000Y-92477844D01*
X138856401Y-92537372D01*
X138856403Y-92537379D01*
X138906645Y-92672086D01*
X138906649Y-92672093D01*
X138992809Y-92787187D01*
X138992812Y-92787190D01*
X139107906Y-92873350D01*
X139107913Y-92873354D01*
X139242620Y-92923596D01*
X139242627Y-92923598D01*
X139302155Y-92929999D01*
X139302172Y-92930000D01*
X139950000Y-92930000D01*
X139950000Y-92015501D01*
X140057685Y-92064680D01*
X140164237Y-92080000D01*
X140235763Y-92080000D01*
X140342315Y-92064680D01*
X140450000Y-92015501D01*
X140450000Y-92930000D01*
X141097828Y-92930000D01*
X141097844Y-92929999D01*
X141157372Y-92923598D01*
X141157379Y-92923596D01*
X141292086Y-92873354D01*
X141292093Y-92873350D01*
X141407187Y-92787190D01*
X141407190Y-92787187D01*
X141493350Y-92672093D01*
X141493354Y-92672086D01*
X141543596Y-92537379D01*
X141543598Y-92537372D01*
X141549999Y-92477844D01*
X141550000Y-92477827D01*
X141550000Y-91905001D01*
X145562704Y-91905001D01*
X145562899Y-91907486D01*
X145608718Y-92065198D01*
X145692314Y-92206552D01*
X145692321Y-92206561D01*
X145808438Y-92322678D01*
X145808447Y-92322685D01*
X145949803Y-92406282D01*
X145949806Y-92406283D01*
X146107504Y-92452099D01*
X146107510Y-92452100D01*
X146144350Y-92454999D01*
X146144366Y-92455000D01*
X146785000Y-92455000D01*
X146785000Y-91905000D01*
X145562705Y-91905000D01*
X145562704Y-91905001D01*
X141550000Y-91905001D01*
X141550000Y-91830000D01*
X140633686Y-91830000D01*
X140659493Y-91789844D01*
X140700000Y-91651889D01*
X140700000Y-91508111D01*
X140659493Y-91370156D01*
X140633686Y-91330000D01*
X141550000Y-91330000D01*
X141550000Y-90682172D01*
X141549999Y-90682155D01*
X141543598Y-90622627D01*
X141543596Y-90622620D01*
X141493354Y-90487913D01*
X141493350Y-90487906D01*
X141407190Y-90372812D01*
X141407187Y-90372809D01*
X141292093Y-90286649D01*
X141292088Y-90286646D01*
X141160528Y-90237577D01*
X141104595Y-90195705D01*
X141080178Y-90130241D01*
X141095030Y-90061968D01*
X141116175Y-90033720D01*
X141238495Y-89911401D01*
X141286127Y-89843376D01*
X141340704Y-89799751D01*
X141387701Y-89790500D01*
X143927294Y-89790500D01*
X143994333Y-89810185D01*
X144014975Y-89826819D01*
X145058791Y-90870634D01*
X145070572Y-90884266D01*
X145084914Y-90903530D01*
X145122867Y-90935376D01*
X145130843Y-90942686D01*
X145134743Y-90946587D01*
X145159068Y-90965821D01*
X145161864Y-90968099D01*
X145189586Y-90991360D01*
X145219310Y-91016302D01*
X145219318Y-91016306D01*
X145225348Y-91020273D01*
X145225314Y-91020323D01*
X145231661Y-91024366D01*
X145231693Y-91024316D01*
X145237845Y-91028110D01*
X145305818Y-91059806D01*
X145309034Y-91061362D01*
X145376091Y-91095040D01*
X145376100Y-91095042D01*
X145382879Y-91097510D01*
X145382858Y-91097567D01*
X145389975Y-91100040D01*
X145389994Y-91099984D01*
X145396848Y-91102255D01*
X145396849Y-91102255D01*
X145396851Y-91102256D01*
X145470373Y-91117436D01*
X145473705Y-91118175D01*
X145507595Y-91126207D01*
X145568284Y-91160823D01*
X145600626Y-91222756D01*
X145598069Y-91281458D01*
X145562899Y-91402513D01*
X145562704Y-91404998D01*
X145562705Y-91405000D01*
X147161000Y-91405000D01*
X147228039Y-91424685D01*
X147273794Y-91477489D01*
X147285000Y-91529000D01*
X147285000Y-92455000D01*
X147925634Y-92455000D01*
X147925649Y-92454999D01*
X147962489Y-92452100D01*
X147962495Y-92452099D01*
X148120193Y-92406283D01*
X148120196Y-92406282D01*
X148261552Y-92322685D01*
X148261561Y-92322678D01*
X148377681Y-92206558D01*
X148380440Y-92203002D01*
X148437082Y-92162094D01*
X148478421Y-92155000D01*
X149260000Y-92155000D01*
X149260000Y-87345000D01*
X148479059Y-87345000D01*
X148412020Y-87325315D01*
X148381079Y-87297000D01*
X148378077Y-87293130D01*
X148261870Y-87176923D01*
X148261862Y-87176917D01*
X148120396Y-87093255D01*
X148120393Y-87093254D01*
X147962573Y-87047402D01*
X147962567Y-87047401D01*
X147925701Y-87044500D01*
X147925694Y-87044500D01*
X147609501Y-87044500D01*
X147542462Y-87024815D01*
X147496707Y-86972011D01*
X147485501Y-86920500D01*
X147485501Y-84157228D01*
X147505186Y-84090189D01*
X147521816Y-84069551D01*
X147904549Y-83686817D01*
X147965872Y-83653333D01*
X147992230Y-83650499D01*
X149127871Y-83650499D01*
X149127872Y-83650499D01*
X149187483Y-83644091D01*
X149322331Y-83593796D01*
X149437546Y-83507546D01*
X149523796Y-83392331D01*
X149572810Y-83260916D01*
X149614681Y-83204984D01*
X149680145Y-83180566D01*
X149748418Y-83195417D01*
X149776673Y-83216569D01*
X149898599Y-83338495D01*
X149984038Y-83398320D01*
X150092165Y-83474032D01*
X150092167Y-83474033D01*
X150092170Y-83474035D01*
X150306337Y-83573903D01*
X150534592Y-83635063D01*
X150722918Y-83651539D01*
X150769999Y-83655659D01*
X150770000Y-83655659D01*
X150770001Y-83655659D01*
X150809234Y-83652226D01*
X151005408Y-83635063D01*
X151233663Y-83573903D01*
X151447830Y-83474035D01*
X151641401Y-83338495D01*
X151808495Y-83171401D01*
X151856127Y-83103376D01*
X151910704Y-83059751D01*
X151957701Y-83050500D01*
X152317770Y-83050500D01*
X152384809Y-83070185D01*
X152405451Y-83086819D01*
X154383181Y-85064549D01*
X154416666Y-85125872D01*
X154419500Y-85152230D01*
X154419500Y-87872695D01*
X154399815Y-87939734D01*
X154383181Y-87960376D01*
X154015376Y-88328181D01*
X153954053Y-88361666D01*
X153927695Y-88364500D01*
X153545200Y-88364500D01*
X153478161Y-88344815D01*
X153432406Y-88292011D01*
X153422462Y-88222853D01*
X153426124Y-88205905D01*
X153457597Y-88097573D01*
X153457598Y-88097567D01*
X153460499Y-88060701D01*
X153460500Y-88060694D01*
X153460500Y-87629306D01*
X153457598Y-87592431D01*
X153457570Y-87592335D01*
X153411745Y-87434606D01*
X153411744Y-87434603D01*
X153411744Y-87434602D01*
X153328081Y-87293135D01*
X153328079Y-87293133D01*
X153328076Y-87293129D01*
X153211870Y-87176923D01*
X153211862Y-87176917D01*
X153063683Y-87089285D01*
X153065088Y-87086908D01*
X153021521Y-87050630D01*
X153000524Y-86983990D01*
X153000500Y-86981555D01*
X153000500Y-86711190D01*
X153020185Y-86644151D01*
X153025538Y-86636473D01*
X153125058Y-86504689D01*
X153224229Y-86305528D01*
X153285115Y-86091536D01*
X153305643Y-85870000D01*
X153301490Y-85825186D01*
X153285115Y-85648464D01*
X153285114Y-85648462D01*
X153271931Y-85602129D01*
X153224229Y-85434472D01*
X153210883Y-85407669D01*
X153125061Y-85235316D01*
X153125056Y-85235308D01*
X152990979Y-85057761D01*
X152826562Y-84907876D01*
X152826560Y-84907874D01*
X152637404Y-84790754D01*
X152637398Y-84790752D01*
X152429940Y-84710382D01*
X152211243Y-84669500D01*
X151988757Y-84669500D01*
X151770060Y-84710382D01*
X151663091Y-84751822D01*
X151562601Y-84790752D01*
X151562595Y-84790754D01*
X151373439Y-84907874D01*
X151373437Y-84907876D01*
X151209020Y-85057761D01*
X151074943Y-85235308D01*
X151074938Y-85235316D01*
X150975775Y-85434461D01*
X150975769Y-85434476D01*
X150914885Y-85648462D01*
X150914884Y-85648464D01*
X150894357Y-85869999D01*
X150894357Y-85870000D01*
X150914884Y-86091535D01*
X150914885Y-86091537D01*
X150975769Y-86305523D01*
X150975775Y-86305538D01*
X151074938Y-86504683D01*
X151074943Y-86504691D01*
X151119718Y-86563982D01*
X151174454Y-86636464D01*
X151199146Y-86701824D01*
X151199500Y-86711190D01*
X151199500Y-86921596D01*
X151179815Y-86988635D01*
X151127011Y-87034390D01*
X151085230Y-87045214D01*
X151057431Y-87047401D01*
X151057426Y-87047402D01*
X150899606Y-87093254D01*
X150899603Y-87093255D01*
X150758137Y-87176917D01*
X150758129Y-87176923D01*
X150641922Y-87293130D01*
X150638921Y-87297000D01*
X150582278Y-87337907D01*
X150540941Y-87345000D01*
X149760000Y-87345000D01*
X149760000Y-92155000D01*
X150540941Y-92155000D01*
X150607980Y-92174685D01*
X150638921Y-92203000D01*
X150641922Y-92206869D01*
X150758129Y-92323076D01*
X150758133Y-92323079D01*
X150758135Y-92323081D01*
X150899602Y-92406744D01*
X150912269Y-92410424D01*
X151057426Y-92452597D01*
X151057429Y-92452597D01*
X151057431Y-92452598D01*
X151094306Y-92455500D01*
X151094314Y-92455500D01*
X152875686Y-92455500D01*
X152875694Y-92455500D01*
X152912569Y-92452598D01*
X152912571Y-92452597D01*
X152912573Y-92452597D01*
X153057733Y-92410424D01*
X153092328Y-92405500D01*
X157665167Y-92405500D01*
X157732206Y-92425185D01*
X157757655Y-92447593D01*
X157757676Y-92447573D01*
X157757991Y-92447888D01*
X157760158Y-92449796D01*
X157761508Y-92451405D01*
X157847476Y-92537372D01*
X157928599Y-92618495D01*
X158005135Y-92672086D01*
X158122165Y-92754032D01*
X158122167Y-92754033D01*
X158122170Y-92754035D01*
X158336337Y-92853903D01*
X158564592Y-92915063D01*
X158735319Y-92930000D01*
X158799999Y-92935659D01*
X158800000Y-92935659D01*
X158800001Y-92935659D01*
X158864681Y-92930000D01*
X159035408Y-92915063D01*
X159263663Y-92853903D01*
X159477830Y-92754035D01*
X159671401Y-92618495D01*
X159838495Y-92451401D01*
X159974035Y-92257830D01*
X160073903Y-92043663D01*
X160135063Y-91815408D01*
X160155659Y-91580000D01*
X160135063Y-91344592D01*
X160074291Y-91117784D01*
X160073905Y-91116344D01*
X160073904Y-91116343D01*
X160073903Y-91116337D01*
X159974035Y-90902171D01*
X159956427Y-90877023D01*
X159838494Y-90708597D01*
X159671402Y-90541506D01*
X159671396Y-90541501D01*
X159485842Y-90411575D01*
X159442217Y-90356998D01*
X159435023Y-90287500D01*
X159466546Y-90225145D01*
X159485842Y-90208425D01*
X159508026Y-90192891D01*
X159671401Y-90078495D01*
X159838495Y-89911401D01*
X159974035Y-89717830D01*
X160073903Y-89503663D01*
X160135063Y-89275408D01*
X160155659Y-89040000D01*
X160135063Y-88804592D01*
X160073903Y-88576337D01*
X159974035Y-88362171D01*
X159973681Y-88361666D01*
X159838496Y-88168600D01*
X159799280Y-88129384D01*
X159716567Y-88046671D01*
X159683084Y-87985351D01*
X159688068Y-87915659D01*
X159729939Y-87859725D01*
X159760915Y-87842810D01*
X159892331Y-87793796D01*
X160007546Y-87707546D01*
X160093796Y-87592331D01*
X160144091Y-87457483D01*
X160150500Y-87397873D01*
X160150499Y-85602128D01*
X160144091Y-85542517D01*
X160103794Y-85434476D01*
X160093797Y-85407671D01*
X160093793Y-85407664D01*
X160007547Y-85292455D01*
X160007544Y-85292452D01*
X159892335Y-85206206D01*
X159892328Y-85206202D01*
X159757482Y-85155908D01*
X159757483Y-85155908D01*
X159697883Y-85149501D01*
X159697881Y-85149500D01*
X159697873Y-85149500D01*
X159697864Y-85149500D01*
X157902129Y-85149500D01*
X157902123Y-85149501D01*
X157842516Y-85155908D01*
X157707671Y-85206202D01*
X157707664Y-85206206D01*
X157592455Y-85292452D01*
X157592452Y-85292455D01*
X157506206Y-85407664D01*
X157506202Y-85407671D01*
X157455908Y-85542517D01*
X157449501Y-85602116D01*
X157449501Y-85602123D01*
X157449500Y-85602135D01*
X157449500Y-87397870D01*
X157449501Y-87397876D01*
X157455908Y-87457483D01*
X157506202Y-87592328D01*
X157506206Y-87592335D01*
X157592452Y-87707544D01*
X157592455Y-87707547D01*
X157707664Y-87793793D01*
X157707671Y-87793797D01*
X157839081Y-87842810D01*
X157895015Y-87884681D01*
X157919432Y-87950145D01*
X157904580Y-88018418D01*
X157883430Y-88046673D01*
X157761503Y-88168600D01*
X157625965Y-88362169D01*
X157625964Y-88362171D01*
X157526098Y-88576335D01*
X157526094Y-88576344D01*
X157464938Y-88804586D01*
X157464936Y-88804596D01*
X157444341Y-89039999D01*
X157444341Y-89040001D01*
X157462977Y-89253012D01*
X157449210Y-89321512D01*
X157427130Y-89351500D01*
X157180449Y-89598182D01*
X157119129Y-89631666D01*
X157092770Y-89634500D01*
X155131155Y-89634500D01*
X155064116Y-89614815D01*
X155018361Y-89562011D01*
X155008417Y-89492853D01*
X155037442Y-89429297D01*
X155043474Y-89422819D01*
X155190890Y-89275403D01*
X155655642Y-88810649D01*
X155669271Y-88798872D01*
X155688530Y-88784535D01*
X155720360Y-88746601D01*
X155727677Y-88738616D01*
X155731587Y-88734706D01*
X155731587Y-88734705D01*
X155731591Y-88734702D01*
X155750833Y-88710363D01*
X155753069Y-88707618D01*
X155801302Y-88650139D01*
X155801307Y-88650128D01*
X155805274Y-88644100D01*
X155805325Y-88644133D01*
X155809372Y-88637781D01*
X155809320Y-88637749D01*
X155813108Y-88631605D01*
X155813111Y-88631602D01*
X155844821Y-88563598D01*
X155846362Y-88560413D01*
X155880040Y-88493358D01*
X155880043Y-88493342D01*
X155882509Y-88486571D01*
X155882567Y-88486592D01*
X155885043Y-88479471D01*
X155884986Y-88479453D01*
X155887256Y-88472602D01*
X155887257Y-88472598D01*
X155902447Y-88399027D01*
X155903179Y-88395723D01*
X155920500Y-88322646D01*
X155920500Y-88322637D01*
X155921338Y-88315473D01*
X155921398Y-88315480D01*
X155922164Y-88307980D01*
X155922105Y-88307975D01*
X155922734Y-88300785D01*
X155922396Y-88289184D01*
X155920552Y-88225795D01*
X155920500Y-88222188D01*
X155920500Y-84853705D01*
X155921809Y-84835735D01*
X155922129Y-84833547D01*
X155925289Y-84811977D01*
X155923432Y-84790754D01*
X155920972Y-84762630D01*
X155920500Y-84751822D01*
X155920500Y-84746296D01*
X155920500Y-84746291D01*
X155916901Y-84715509D01*
X155916536Y-84711929D01*
X155909999Y-84637201D01*
X155908539Y-84630129D01*
X155908597Y-84630116D01*
X155906965Y-84622757D01*
X155906906Y-84622772D01*
X155905241Y-84615751D01*
X155905241Y-84615745D01*
X155879569Y-84545212D01*
X155878421Y-84541909D01*
X155854814Y-84470666D01*
X155854810Y-84470659D01*
X155851760Y-84464118D01*
X155851815Y-84464091D01*
X155848533Y-84457313D01*
X155848480Y-84457340D01*
X155845235Y-84450880D01*
X155804025Y-84388223D01*
X155802086Y-84385181D01*
X155762710Y-84321342D01*
X155758234Y-84315682D01*
X155758281Y-84315644D01*
X155753519Y-84309799D01*
X155753474Y-84309838D01*
X155748831Y-84304305D01*
X155694272Y-84252831D01*
X155691685Y-84250318D01*
X153255729Y-81814361D01*
X153243949Y-81800730D01*
X153229610Y-81781470D01*
X153191651Y-81749619D01*
X153183686Y-81742318D01*
X153179780Y-81738411D01*
X153155443Y-81719168D01*
X153152647Y-81716890D01*
X153095214Y-81668698D01*
X153089180Y-81664729D01*
X153089212Y-81664680D01*
X153082853Y-81660628D01*
X153082822Y-81660679D01*
X153076680Y-81656891D01*
X153076678Y-81656890D01*
X153076677Y-81656889D01*
X153008688Y-81625184D01*
X153005447Y-81623615D01*
X152974530Y-81608088D01*
X152938433Y-81589960D01*
X152938431Y-81589959D01*
X152938430Y-81589959D01*
X152931645Y-81587489D01*
X152931665Y-81587433D01*
X152924549Y-81584959D01*
X152924531Y-81585015D01*
X152917674Y-81582743D01*
X152844210Y-81567573D01*
X152840693Y-81566793D01*
X152767718Y-81549499D01*
X152760547Y-81548661D01*
X152760553Y-81548601D01*
X152753055Y-81547835D01*
X152753050Y-81547895D01*
X152745860Y-81547265D01*
X152670870Y-81549448D01*
X152667263Y-81549500D01*
X151957701Y-81549500D01*
X151890662Y-81529815D01*
X151856126Y-81496623D01*
X151808494Y-81428597D01*
X151641402Y-81261506D01*
X151641395Y-81261501D01*
X151447834Y-81125967D01*
X151447830Y-81125965D01*
X151447828Y-81125964D01*
X151233663Y-81026097D01*
X151233659Y-81026096D01*
X151233655Y-81026094D01*
X151005413Y-80964938D01*
X151005403Y-80964936D01*
X150770001Y-80944341D01*
X150769999Y-80944341D01*
X150534596Y-80964936D01*
X150534586Y-80964938D01*
X150306344Y-81026094D01*
X150306335Y-81026098D01*
X150092171Y-81125964D01*
X150092169Y-81125965D01*
X149898600Y-81261503D01*
X149776673Y-81383430D01*
X149715350Y-81416914D01*
X149645658Y-81411930D01*
X149589725Y-81370058D01*
X149572810Y-81339081D01*
X149523797Y-81207671D01*
X149523793Y-81207664D01*
X149437547Y-81092455D01*
X149437544Y-81092452D01*
X149322335Y-81006206D01*
X149322328Y-81006202D01*
X149187482Y-80955908D01*
X149187483Y-80955908D01*
X149127883Y-80949501D01*
X149127881Y-80949500D01*
X149127873Y-80949500D01*
X149127864Y-80949500D01*
X147332129Y-80949500D01*
X147332123Y-80949501D01*
X147272516Y-80955908D01*
X147137671Y-81006202D01*
X147137664Y-81006206D01*
X147022455Y-81092452D01*
X147022452Y-81092455D01*
X146936206Y-81207664D01*
X146936202Y-81207671D01*
X146885908Y-81342517D01*
X146879501Y-81402116D01*
X146879500Y-81402135D01*
X146879500Y-82537769D01*
X146859815Y-82604808D01*
X146843181Y-82625450D01*
X146249359Y-83219271D01*
X146235730Y-83231050D01*
X146216470Y-83245389D01*
X146184633Y-83283330D01*
X146177347Y-83291283D01*
X146173408Y-83295223D01*
X146154177Y-83319544D01*
X146151903Y-83322336D01*
X146103695Y-83379789D01*
X146099730Y-83385818D01*
X146099683Y-83385787D01*
X146095631Y-83392146D01*
X146095680Y-83392176D01*
X146091890Y-83398320D01*
X146060193Y-83466293D01*
X146058624Y-83469535D01*
X146024958Y-83536571D01*
X146022489Y-83543356D01*
X146022433Y-83543335D01*
X146019961Y-83550449D01*
X146020016Y-83550468D01*
X146017744Y-83557324D01*
X146002574Y-83630787D01*
X146001794Y-83634303D01*
X145984500Y-83707278D01*
X145983662Y-83714453D01*
X145983602Y-83714446D01*
X145982836Y-83721944D01*
X145982896Y-83721950D01*
X145982266Y-83729139D01*
X145984449Y-83804127D01*
X145984501Y-83807734D01*
X145984501Y-87001888D01*
X145964816Y-87068927D01*
X145923622Y-87108620D01*
X145808138Y-87176916D01*
X145808129Y-87176923D01*
X145691923Y-87293129D01*
X145691917Y-87293137D01*
X145608255Y-87434603D01*
X145608254Y-87434606D01*
X145562402Y-87592426D01*
X145562401Y-87592432D01*
X145559500Y-87629298D01*
X145559500Y-87817876D01*
X145539815Y-87884915D01*
X145487011Y-87930670D01*
X145417853Y-87940614D01*
X145354297Y-87911589D01*
X145347819Y-87905557D01*
X143456623Y-86014361D01*
X143444843Y-86000730D01*
X143430504Y-85981470D01*
X143392545Y-85949619D01*
X143384580Y-85942318D01*
X143380674Y-85938411D01*
X143356337Y-85919168D01*
X143353541Y-85916890D01*
X143296108Y-85868698D01*
X143290074Y-85864729D01*
X143290106Y-85864680D01*
X143283747Y-85860628D01*
X143283716Y-85860679D01*
X143277574Y-85856891D01*
X143277572Y-85856890D01*
X143277571Y-85856889D01*
X143209582Y-85825184D01*
X143206341Y-85823615D01*
X143175424Y-85808088D01*
X143139327Y-85789960D01*
X143139325Y-85789959D01*
X143139324Y-85789959D01*
X143132539Y-85787489D01*
X143132559Y-85787433D01*
X143125443Y-85784959D01*
X143125425Y-85785015D01*
X143118568Y-85782743D01*
X143045104Y-85767573D01*
X143041587Y-85766793D01*
X142968612Y-85749499D01*
X142961441Y-85748661D01*
X142961447Y-85748601D01*
X142953949Y-85747835D01*
X142953944Y-85747895D01*
X142946754Y-85747265D01*
X142871764Y-85749448D01*
X142868157Y-85749500D01*
X141387701Y-85749500D01*
X141320662Y-85729815D01*
X141286126Y-85696623D01*
X141238494Y-85628597D01*
X141071402Y-85461506D01*
X141071395Y-85461501D01*
X140877834Y-85325967D01*
X140877830Y-85325965D01*
X140877828Y-85325964D01*
X140663663Y-85226097D01*
X140663659Y-85226096D01*
X140663655Y-85226094D01*
X140435413Y-85164938D01*
X140435403Y-85164936D01*
X140200001Y-85144341D01*
X140199999Y-85144341D01*
X139964596Y-85164936D01*
X139964586Y-85164938D01*
X139736344Y-85226094D01*
X139736335Y-85226098D01*
X139522171Y-85325964D01*
X139522169Y-85325965D01*
X139328597Y-85461505D01*
X139161505Y-85628597D01*
X139025965Y-85822169D01*
X139025964Y-85822171D01*
X138926098Y-86036335D01*
X138926094Y-86036344D01*
X138864938Y-86264586D01*
X138864936Y-86264596D01*
X138844341Y-86499999D01*
X138844341Y-86500000D01*
X138864936Y-86735403D01*
X138864938Y-86735413D01*
X138926094Y-86963655D01*
X138926096Y-86963659D01*
X138926097Y-86963663D01*
X138993692Y-87108620D01*
X139025965Y-87177830D01*
X139025967Y-87177834D01*
X139161501Y-87371395D01*
X139161506Y-87371402D01*
X139328597Y-87538493D01*
X139328603Y-87538498D01*
X139514158Y-87668425D01*
X139557783Y-87723002D01*
X139564977Y-87792500D01*
X139533454Y-87854855D01*
X139514158Y-87871575D01*
X139328597Y-88001505D01*
X139161505Y-88168597D01*
X139025965Y-88362169D01*
X139025964Y-88362171D01*
X138926098Y-88576335D01*
X138926094Y-88576344D01*
X138864938Y-88804586D01*
X138864936Y-88804596D01*
X138844341Y-89039999D01*
X138844341Y-89040000D01*
X138200500Y-89040000D01*
X138200500Y-83003480D01*
X138200695Y-82996527D01*
X138203608Y-82944664D01*
X138217713Y-82693494D01*
X138219267Y-82679700D01*
X138269523Y-82383915D01*
X138272616Y-82370363D01*
X138330193Y-82170513D01*
X138355673Y-82082068D01*
X138360265Y-82068948D01*
X138450347Y-81851469D01*
X138475075Y-81791768D01*
X138481097Y-81779262D01*
X138626230Y-81516665D01*
X138633625Y-81504897D01*
X138639496Y-81496623D01*
X138807245Y-81260201D01*
X138815896Y-81249354D01*
X139015816Y-81025645D01*
X139025647Y-81015815D01*
X139249354Y-80815896D01*
X139260201Y-80807245D01*
X139504902Y-80633621D01*
X139516665Y-80626230D01*
X139779262Y-80481097D01*
X139791768Y-80475075D01*
X140068948Y-80360265D01*
X140082068Y-80355673D01*
X140370369Y-80272614D01*
X140383915Y-80269523D01*
X140679700Y-80219267D01*
X140693494Y-80217713D01*
X140996528Y-80200695D01*
X141003481Y-80200500D01*
X141039882Y-80200500D01*
X157960118Y-80200500D01*
X157996519Y-80200500D01*
X158003472Y-80200695D01*
G37*
%TD.AperFunction*%
%TD*%
M02*
