%TF.GenerationSoftware,KiCad,Pcbnew,7.0.11*%
%TF.CreationDate,2024-08-15T23:53:51-03:00*%
%TF.ProjectId,amplifiers,616d706c-6966-4696-9572-732e6b696361,0.1*%
%TF.SameCoordinates,Original*%
%TF.FileFunction,Legend,Bot*%
%TF.FilePolarity,Positive*%
%FSLAX46Y46*%
G04 Gerber Fmt 4.6, Leading zero omitted, Abs format (unit mm)*
G04 Created by KiCad (PCBNEW 7.0.11) date 2024-08-15 23:53:51*
%MOMM*%
%LPD*%
G01*
G04 APERTURE LIST*
%ADD10C,0.200000*%
%ADD11C,0.160000*%
%ADD12C,0.120000*%
G04 APERTURE END LIST*
D10*
X145330326Y-89236266D02*
X144568422Y-89236266D01*
X144949374Y-89617219D02*
X144949374Y-88855314D01*
X144092231Y-89617219D02*
X144092231Y-88617219D01*
X143616041Y-88950552D02*
X143616041Y-89617219D01*
X143616041Y-89045790D02*
X143568422Y-88998171D01*
X143568422Y-88998171D02*
X143473184Y-88950552D01*
X143473184Y-88950552D02*
X143330327Y-88950552D01*
X143330327Y-88950552D02*
X143235089Y-88998171D01*
X143235089Y-88998171D02*
X143187470Y-89093409D01*
X143187470Y-89093409D02*
X143187470Y-89617219D01*
X142187470Y-89617219D02*
X142758898Y-89617219D01*
X142473184Y-89617219D02*
X142473184Y-88617219D01*
X142473184Y-88617219D02*
X142568422Y-88760076D01*
X142568422Y-88760076D02*
X142663660Y-88855314D01*
X142663660Y-88855314D02*
X142758898Y-88902933D01*
X146273183Y-81867219D02*
X145939850Y-82867219D01*
X145939850Y-82867219D02*
X145606517Y-81867219D01*
X145130326Y-82867219D02*
X145225564Y-82819600D01*
X145225564Y-82819600D02*
X145273183Y-82771980D01*
X145273183Y-82771980D02*
X145320802Y-82676742D01*
X145320802Y-82676742D02*
X145320802Y-82391028D01*
X145320802Y-82391028D02*
X145273183Y-82295790D01*
X145273183Y-82295790D02*
X145225564Y-82248171D01*
X145225564Y-82248171D02*
X145130326Y-82200552D01*
X145130326Y-82200552D02*
X144987469Y-82200552D01*
X144987469Y-82200552D02*
X144892231Y-82248171D01*
X144892231Y-82248171D02*
X144844612Y-82295790D01*
X144844612Y-82295790D02*
X144796993Y-82391028D01*
X144796993Y-82391028D02*
X144796993Y-82676742D01*
X144796993Y-82676742D02*
X144844612Y-82771980D01*
X144844612Y-82771980D02*
X144892231Y-82819600D01*
X144892231Y-82819600D02*
X144987469Y-82867219D01*
X144987469Y-82867219D02*
X145130326Y-82867219D01*
X143844612Y-82867219D02*
X144416040Y-82867219D01*
X144130326Y-82867219D02*
X144130326Y-81867219D01*
X144130326Y-81867219D02*
X144225564Y-82010076D01*
X144225564Y-82010076D02*
X144320802Y-82105314D01*
X144320802Y-82105314D02*
X144416040Y-82152933D01*
X156830326Y-86736266D02*
X156068422Y-86736266D01*
X156449374Y-87117219D02*
X156449374Y-86355314D01*
X155735088Y-86117219D02*
X155401755Y-87117219D01*
X155401755Y-87117219D02*
X155068422Y-86117219D01*
X154782707Y-87069600D02*
X154687469Y-87117219D01*
X154687469Y-87117219D02*
X154496993Y-87117219D01*
X154496993Y-87117219D02*
X154401755Y-87069600D01*
X154401755Y-87069600D02*
X154354136Y-86974361D01*
X154354136Y-86974361D02*
X154354136Y-86926742D01*
X154354136Y-86926742D02*
X154401755Y-86831504D01*
X154401755Y-86831504D02*
X154496993Y-86783885D01*
X154496993Y-86783885D02*
X154639850Y-86783885D01*
X154639850Y-86783885D02*
X154735088Y-86736266D01*
X154735088Y-86736266D02*
X154782707Y-86641028D01*
X154782707Y-86641028D02*
X154782707Y-86593409D01*
X154782707Y-86593409D02*
X154735088Y-86498171D01*
X154735088Y-86498171D02*
X154639850Y-86450552D01*
X154639850Y-86450552D02*
X154496993Y-86450552D01*
X154496993Y-86450552D02*
X154401755Y-86498171D01*
X156830326Y-89236266D02*
X156068422Y-89236266D01*
X155592231Y-89617219D02*
X155592231Y-88617219D01*
X155116041Y-88950552D02*
X155116041Y-89617219D01*
X155116041Y-89045790D02*
X155068422Y-88998171D01*
X155068422Y-88998171D02*
X154973184Y-88950552D01*
X154973184Y-88950552D02*
X154830327Y-88950552D01*
X154830327Y-88950552D02*
X154735089Y-88998171D01*
X154735089Y-88998171D02*
X154687470Y-89093409D01*
X154687470Y-89093409D02*
X154687470Y-89617219D01*
X154258898Y-88712457D02*
X154211279Y-88664838D01*
X154211279Y-88664838D02*
X154116041Y-88617219D01*
X154116041Y-88617219D02*
X153877946Y-88617219D01*
X153877946Y-88617219D02*
X153782708Y-88664838D01*
X153782708Y-88664838D02*
X153735089Y-88712457D01*
X153735089Y-88712457D02*
X153687470Y-88807695D01*
X153687470Y-88807695D02*
X153687470Y-88902933D01*
X153687470Y-88902933D02*
X153735089Y-89045790D01*
X153735089Y-89045790D02*
X154306517Y-89617219D01*
X154306517Y-89617219D02*
X153687470Y-89617219D01*
D11*
X153900927Y-93759299D02*
X153900927Y-94473584D01*
X153900927Y-94473584D02*
X153948546Y-94616441D01*
X153948546Y-94616441D02*
X154043784Y-94711680D01*
X154043784Y-94711680D02*
X154186641Y-94759299D01*
X154186641Y-94759299D02*
X154281879Y-94759299D01*
X152948546Y-94759299D02*
X153424736Y-94759299D01*
X153424736Y-94759299D02*
X153424736Y-93759299D01*
X152043784Y-94664060D02*
X152091403Y-94711680D01*
X152091403Y-94711680D02*
X152234260Y-94759299D01*
X152234260Y-94759299D02*
X152329498Y-94759299D01*
X152329498Y-94759299D02*
X152472355Y-94711680D01*
X152472355Y-94711680D02*
X152567593Y-94616441D01*
X152567593Y-94616441D02*
X152615212Y-94521203D01*
X152615212Y-94521203D02*
X152662831Y-94330727D01*
X152662831Y-94330727D02*
X152662831Y-94187870D01*
X152662831Y-94187870D02*
X152615212Y-93997394D01*
X152615212Y-93997394D02*
X152567593Y-93902156D01*
X152567593Y-93902156D02*
X152472355Y-93806918D01*
X152472355Y-93806918D02*
X152329498Y-93759299D01*
X152329498Y-93759299D02*
X152234260Y-93759299D01*
X152234260Y-93759299D02*
X152091403Y-93806918D01*
X152091403Y-93806918D02*
X152043784Y-93854537D01*
X151329498Y-93759299D02*
X151329498Y-94473584D01*
X151329498Y-94473584D02*
X151377117Y-94616441D01*
X151377117Y-94616441D02*
X151472355Y-94711680D01*
X151472355Y-94711680D02*
X151615212Y-94759299D01*
X151615212Y-94759299D02*
X151710450Y-94759299D01*
X150377117Y-94759299D02*
X150853307Y-94759299D01*
X150853307Y-94759299D02*
X150853307Y-93759299D01*
X149472355Y-94664060D02*
X149519974Y-94711680D01*
X149519974Y-94711680D02*
X149662831Y-94759299D01*
X149662831Y-94759299D02*
X149758069Y-94759299D01*
X149758069Y-94759299D02*
X149900926Y-94711680D01*
X149900926Y-94711680D02*
X149996164Y-94616441D01*
X149996164Y-94616441D02*
X150043783Y-94521203D01*
X150043783Y-94521203D02*
X150091402Y-94330727D01*
X150091402Y-94330727D02*
X150091402Y-94187870D01*
X150091402Y-94187870D02*
X150043783Y-93997394D01*
X150043783Y-93997394D02*
X149996164Y-93902156D01*
X149996164Y-93902156D02*
X149900926Y-93806918D01*
X149900926Y-93806918D02*
X149758069Y-93759299D01*
X149758069Y-93759299D02*
X149662831Y-93759299D01*
X149662831Y-93759299D02*
X149519974Y-93806918D01*
X149519974Y-93806918D02*
X149472355Y-93854537D01*
X148758069Y-93759299D02*
X148758069Y-94473584D01*
X148758069Y-94473584D02*
X148805688Y-94616441D01*
X148805688Y-94616441D02*
X148900926Y-94711680D01*
X148900926Y-94711680D02*
X149043783Y-94759299D01*
X149043783Y-94759299D02*
X149139021Y-94759299D01*
X147805688Y-94759299D02*
X148281878Y-94759299D01*
X148281878Y-94759299D02*
X148281878Y-93759299D01*
X146900926Y-94664060D02*
X146948545Y-94711680D01*
X146948545Y-94711680D02*
X147091402Y-94759299D01*
X147091402Y-94759299D02*
X147186640Y-94759299D01*
X147186640Y-94759299D02*
X147329497Y-94711680D01*
X147329497Y-94711680D02*
X147424735Y-94616441D01*
X147424735Y-94616441D02*
X147472354Y-94521203D01*
X147472354Y-94521203D02*
X147519973Y-94330727D01*
X147519973Y-94330727D02*
X147519973Y-94187870D01*
X147519973Y-94187870D02*
X147472354Y-93997394D01*
X147472354Y-93997394D02*
X147424735Y-93902156D01*
X147424735Y-93902156D02*
X147329497Y-93806918D01*
X147329497Y-93806918D02*
X147186640Y-93759299D01*
X147186640Y-93759299D02*
X147091402Y-93759299D01*
X147091402Y-93759299D02*
X146948545Y-93806918D01*
X146948545Y-93806918D02*
X146900926Y-93854537D01*
X146186640Y-93759299D02*
X146186640Y-94473584D01*
X146186640Y-94473584D02*
X146234259Y-94616441D01*
X146234259Y-94616441D02*
X146329497Y-94711680D01*
X146329497Y-94711680D02*
X146472354Y-94759299D01*
X146472354Y-94759299D02*
X146567592Y-94759299D01*
X145234259Y-94759299D02*
X145710449Y-94759299D01*
X145710449Y-94759299D02*
X145710449Y-93759299D01*
X144329497Y-94664060D02*
X144377116Y-94711680D01*
X144377116Y-94711680D02*
X144519973Y-94759299D01*
X144519973Y-94759299D02*
X144615211Y-94759299D01*
X144615211Y-94759299D02*
X144758068Y-94711680D01*
X144758068Y-94711680D02*
X144853306Y-94616441D01*
X144853306Y-94616441D02*
X144900925Y-94521203D01*
X144900925Y-94521203D02*
X144948544Y-94330727D01*
X144948544Y-94330727D02*
X144948544Y-94187870D01*
X144948544Y-94187870D02*
X144900925Y-93997394D01*
X144900925Y-93997394D02*
X144853306Y-93902156D01*
X144853306Y-93902156D02*
X144758068Y-93806918D01*
X144758068Y-93806918D02*
X144615211Y-93759299D01*
X144615211Y-93759299D02*
X144519973Y-93759299D01*
X144519973Y-93759299D02*
X144377116Y-93806918D01*
X144377116Y-93806918D02*
X144329497Y-93854537D01*
D10*
X144630326Y-91736266D02*
X143868422Y-91736266D01*
X143535088Y-91117219D02*
X143201755Y-92117219D01*
X143201755Y-92117219D02*
X142868422Y-91117219D01*
X142582707Y-92069600D02*
X142487469Y-92117219D01*
X142487469Y-92117219D02*
X142296993Y-92117219D01*
X142296993Y-92117219D02*
X142201755Y-92069600D01*
X142201755Y-92069600D02*
X142154136Y-91974361D01*
X142154136Y-91974361D02*
X142154136Y-91926742D01*
X142154136Y-91926742D02*
X142201755Y-91831504D01*
X142201755Y-91831504D02*
X142296993Y-91783885D01*
X142296993Y-91783885D02*
X142439850Y-91783885D01*
X142439850Y-91783885D02*
X142535088Y-91736266D01*
X142535088Y-91736266D02*
X142582707Y-91641028D01*
X142582707Y-91641028D02*
X142582707Y-91593409D01*
X142582707Y-91593409D02*
X142535088Y-91498171D01*
X142535088Y-91498171D02*
X142439850Y-91450552D01*
X142439850Y-91450552D02*
X142296993Y-91450552D01*
X142296993Y-91450552D02*
X142201755Y-91498171D01*
X156830326Y-91736266D02*
X156068422Y-91736266D01*
X156449374Y-92117219D02*
X156449374Y-91355314D01*
X155592231Y-92117219D02*
X155592231Y-91117219D01*
X155116041Y-91450552D02*
X155116041Y-92117219D01*
X155116041Y-91545790D02*
X155068422Y-91498171D01*
X155068422Y-91498171D02*
X154973184Y-91450552D01*
X154973184Y-91450552D02*
X154830327Y-91450552D01*
X154830327Y-91450552D02*
X154735089Y-91498171D01*
X154735089Y-91498171D02*
X154687470Y-91593409D01*
X154687470Y-91593409D02*
X154687470Y-92117219D01*
X154258898Y-91212457D02*
X154211279Y-91164838D01*
X154211279Y-91164838D02*
X154116041Y-91117219D01*
X154116041Y-91117219D02*
X153877946Y-91117219D01*
X153877946Y-91117219D02*
X153782708Y-91164838D01*
X153782708Y-91164838D02*
X153735089Y-91212457D01*
X153735089Y-91212457D02*
X153687470Y-91307695D01*
X153687470Y-91307695D02*
X153687470Y-91402933D01*
X153687470Y-91402933D02*
X153735089Y-91545790D01*
X153735089Y-91545790D02*
X154306517Y-92117219D01*
X154306517Y-92117219D02*
X153687470Y-92117219D01*
X155023183Y-81867219D02*
X154689850Y-82867219D01*
X154689850Y-82867219D02*
X154356517Y-81867219D01*
X153880326Y-82867219D02*
X153975564Y-82819600D01*
X153975564Y-82819600D02*
X154023183Y-82771980D01*
X154023183Y-82771980D02*
X154070802Y-82676742D01*
X154070802Y-82676742D02*
X154070802Y-82391028D01*
X154070802Y-82391028D02*
X154023183Y-82295790D01*
X154023183Y-82295790D02*
X153975564Y-82248171D01*
X153975564Y-82248171D02*
X153880326Y-82200552D01*
X153880326Y-82200552D02*
X153737469Y-82200552D01*
X153737469Y-82200552D02*
X153642231Y-82248171D01*
X153642231Y-82248171D02*
X153594612Y-82295790D01*
X153594612Y-82295790D02*
X153546993Y-82391028D01*
X153546993Y-82391028D02*
X153546993Y-82676742D01*
X153546993Y-82676742D02*
X153594612Y-82771980D01*
X153594612Y-82771980D02*
X153642231Y-82819600D01*
X153642231Y-82819600D02*
X153737469Y-82867219D01*
X153737469Y-82867219D02*
X153880326Y-82867219D01*
X153166040Y-81962457D02*
X153118421Y-81914838D01*
X153118421Y-81914838D02*
X153023183Y-81867219D01*
X153023183Y-81867219D02*
X152785088Y-81867219D01*
X152785088Y-81867219D02*
X152689850Y-81914838D01*
X152689850Y-81914838D02*
X152642231Y-81962457D01*
X152642231Y-81962457D02*
X152594612Y-82057695D01*
X152594612Y-82057695D02*
X152594612Y-82152933D01*
X152594612Y-82152933D02*
X152642231Y-82295790D01*
X152642231Y-82295790D02*
X153213659Y-82867219D01*
X153213659Y-82867219D02*
X152594612Y-82867219D01*
X145330326Y-86736266D02*
X144568422Y-86736266D01*
X144092231Y-87117219D02*
X144092231Y-86117219D01*
X143616041Y-86450552D02*
X143616041Y-87117219D01*
X143616041Y-86545790D02*
X143568422Y-86498171D01*
X143568422Y-86498171D02*
X143473184Y-86450552D01*
X143473184Y-86450552D02*
X143330327Y-86450552D01*
X143330327Y-86450552D02*
X143235089Y-86498171D01*
X143235089Y-86498171D02*
X143187470Y-86593409D01*
X143187470Y-86593409D02*
X143187470Y-87117219D01*
X142187470Y-87117219D02*
X142758898Y-87117219D01*
X142473184Y-87117219D02*
X142473184Y-86117219D01*
X142473184Y-86117219D02*
X142568422Y-86260076D01*
X142568422Y-86260076D02*
X142663660Y-86355314D01*
X142663660Y-86355314D02*
X142758898Y-86402933D01*
X159133333Y-93532219D02*
X159133333Y-94246504D01*
X159133333Y-94246504D02*
X159180952Y-94389361D01*
X159180952Y-94389361D02*
X159276190Y-94484600D01*
X159276190Y-94484600D02*
X159419047Y-94532219D01*
X159419047Y-94532219D02*
X159514285Y-94532219D01*
X158752380Y-93532219D02*
X158133333Y-93532219D01*
X158133333Y-93532219D02*
X158466666Y-93913171D01*
X158466666Y-93913171D02*
X158323809Y-93913171D01*
X158323809Y-93913171D02*
X158228571Y-93960790D01*
X158228571Y-93960790D02*
X158180952Y-94008409D01*
X158180952Y-94008409D02*
X158133333Y-94103647D01*
X158133333Y-94103647D02*
X158133333Y-94341742D01*
X158133333Y-94341742D02*
X158180952Y-94436980D01*
X158180952Y-94436980D02*
X158228571Y-94484600D01*
X158228571Y-94484600D02*
X158323809Y-94532219D01*
X158323809Y-94532219D02*
X158609523Y-94532219D01*
X158609523Y-94532219D02*
X158704761Y-94484600D01*
X158704761Y-94484600D02*
X158752380Y-94436980D01*
X140533333Y-93362219D02*
X140533333Y-94076504D01*
X140533333Y-94076504D02*
X140580952Y-94219361D01*
X140580952Y-94219361D02*
X140676190Y-94314600D01*
X140676190Y-94314600D02*
X140819047Y-94362219D01*
X140819047Y-94362219D02*
X140914285Y-94362219D01*
X139533333Y-94362219D02*
X140104761Y-94362219D01*
X139819047Y-94362219D02*
X139819047Y-93362219D01*
X139819047Y-93362219D02*
X139914285Y-93505076D01*
X139914285Y-93505076D02*
X140009523Y-93600314D01*
X140009523Y-93600314D02*
X140104761Y-93647933D01*
X149838333Y-84252219D02*
X149838333Y-84966504D01*
X149838333Y-84966504D02*
X149885952Y-85109361D01*
X149885952Y-85109361D02*
X149981190Y-85204600D01*
X149981190Y-85204600D02*
X150124047Y-85252219D01*
X150124047Y-85252219D02*
X150219285Y-85252219D01*
X149409761Y-84347457D02*
X149362142Y-84299838D01*
X149362142Y-84299838D02*
X149266904Y-84252219D01*
X149266904Y-84252219D02*
X149028809Y-84252219D01*
X149028809Y-84252219D02*
X148933571Y-84299838D01*
X148933571Y-84299838D02*
X148885952Y-84347457D01*
X148885952Y-84347457D02*
X148838333Y-84442695D01*
X148838333Y-84442695D02*
X148838333Y-84537933D01*
X148838333Y-84537933D02*
X148885952Y-84680790D01*
X148885952Y-84680790D02*
X149457380Y-85252219D01*
X149457380Y-85252219D02*
X148838333Y-85252219D01*
D12*
%TO.C,J3*%
X160130000Y-92910000D02*
X157470000Y-92910000D01*
X160130000Y-87770000D02*
X160130000Y-92910000D01*
X160130000Y-87770000D02*
X157470000Y-87770000D01*
X160130000Y-86500000D02*
X160130000Y-85170000D01*
X160130000Y-85170000D02*
X158800000Y-85170000D01*
X157470000Y-87770000D02*
X157470000Y-92910000D01*
%TO.C,J1*%
X138870000Y-85170000D02*
X141530000Y-85170000D01*
X138870000Y-90310000D02*
X138870000Y-85170000D01*
X138870000Y-90310000D02*
X141530000Y-90310000D01*
X138870000Y-91580000D02*
X138870000Y-92910000D01*
X138870000Y-92910000D02*
X140200000Y-92910000D01*
X141530000Y-90310000D02*
X141530000Y-85170000D01*
%TO.C,J2*%
X152100000Y-80970000D02*
X152100000Y-83630000D01*
X149500000Y-80970000D02*
X152100000Y-80970000D01*
X149500000Y-80970000D02*
X149500000Y-83630000D01*
X148230000Y-80970000D02*
X146900000Y-80970000D01*
X146900000Y-80970000D02*
X146900000Y-82300000D01*
X149500000Y-83630000D02*
X152100000Y-83630000D01*
%TD*%
M02*
