%TF.GenerationSoftware,KiCad,Pcbnew,7.0.11*%
%TF.CreationDate,2024-08-16T00:00:06-03:00*%
%TF.ProjectId,main-board,6d61696e-2d62-46f6-9172-642e6b696361,0.1*%
%TF.SameCoordinates,Original*%
%TF.FileFunction,Legend,Bot*%
%TF.FilePolarity,Positive*%
%FSLAX46Y46*%
G04 Gerber Fmt 4.6, Leading zero omitted, Abs format (unit mm)*
G04 Created by KiCad (PCBNEW 7.0.11) date 2024-08-16 00:00:06*
%MOMM*%
%LPD*%
G01*
G04 APERTURE LIST*
%ADD10C,0.200000*%
%ADD11C,0.300000*%
G04 APERTURE END LIST*
D10*
X94477945Y-152019600D02*
X94335088Y-152067219D01*
X94335088Y-152067219D02*
X94096993Y-152067219D01*
X94096993Y-152067219D02*
X94001755Y-152019600D01*
X94001755Y-152019600D02*
X93954136Y-151971980D01*
X93954136Y-151971980D02*
X93906517Y-151876742D01*
X93906517Y-151876742D02*
X93906517Y-151781504D01*
X93906517Y-151781504D02*
X93954136Y-151686266D01*
X93954136Y-151686266D02*
X94001755Y-151638647D01*
X94001755Y-151638647D02*
X94096993Y-151591028D01*
X94096993Y-151591028D02*
X94287469Y-151543409D01*
X94287469Y-151543409D02*
X94382707Y-151495790D01*
X94382707Y-151495790D02*
X94430326Y-151448171D01*
X94430326Y-151448171D02*
X94477945Y-151352933D01*
X94477945Y-151352933D02*
X94477945Y-151257695D01*
X94477945Y-151257695D02*
X94430326Y-151162457D01*
X94430326Y-151162457D02*
X94382707Y-151114838D01*
X94382707Y-151114838D02*
X94287469Y-151067219D01*
X94287469Y-151067219D02*
X94049374Y-151067219D01*
X94049374Y-151067219D02*
X93906517Y-151114838D01*
X93096993Y-152019600D02*
X93192231Y-152067219D01*
X93192231Y-152067219D02*
X93382707Y-152067219D01*
X93382707Y-152067219D02*
X93477945Y-152019600D01*
X93477945Y-152019600D02*
X93525564Y-151924361D01*
X93525564Y-151924361D02*
X93525564Y-151543409D01*
X93525564Y-151543409D02*
X93477945Y-151448171D01*
X93477945Y-151448171D02*
X93382707Y-151400552D01*
X93382707Y-151400552D02*
X93192231Y-151400552D01*
X93192231Y-151400552D02*
X93096993Y-151448171D01*
X93096993Y-151448171D02*
X93049374Y-151543409D01*
X93049374Y-151543409D02*
X93049374Y-151638647D01*
X93049374Y-151638647D02*
X93525564Y-151733885D01*
X92620802Y-152067219D02*
X92620802Y-151400552D01*
X92620802Y-151591028D02*
X92573183Y-151495790D01*
X92573183Y-151495790D02*
X92525564Y-151448171D01*
X92525564Y-151448171D02*
X92430326Y-151400552D01*
X92430326Y-151400552D02*
X92335088Y-151400552D01*
X92001754Y-152067219D02*
X92001754Y-151400552D01*
X92001754Y-151067219D02*
X92049373Y-151114838D01*
X92049373Y-151114838D02*
X92001754Y-151162457D01*
X92001754Y-151162457D02*
X91954135Y-151114838D01*
X91954135Y-151114838D02*
X92001754Y-151067219D01*
X92001754Y-151067219D02*
X92001754Y-151162457D01*
X91096993Y-152067219D02*
X91096993Y-151543409D01*
X91096993Y-151543409D02*
X91144612Y-151448171D01*
X91144612Y-151448171D02*
X91239850Y-151400552D01*
X91239850Y-151400552D02*
X91430326Y-151400552D01*
X91430326Y-151400552D02*
X91525564Y-151448171D01*
X91096993Y-152019600D02*
X91192231Y-152067219D01*
X91192231Y-152067219D02*
X91430326Y-152067219D01*
X91430326Y-152067219D02*
X91525564Y-152019600D01*
X91525564Y-152019600D02*
X91573183Y-151924361D01*
X91573183Y-151924361D02*
X91573183Y-151829123D01*
X91573183Y-151829123D02*
X91525564Y-151733885D01*
X91525564Y-151733885D02*
X91430326Y-151686266D01*
X91430326Y-151686266D02*
X91192231Y-151686266D01*
X91192231Y-151686266D02*
X91096993Y-151638647D01*
X90477945Y-152067219D02*
X90573183Y-152019600D01*
X90573183Y-152019600D02*
X90620802Y-151924361D01*
X90620802Y-151924361D02*
X90620802Y-151067219D01*
X89335087Y-152067219D02*
X89335087Y-151067219D01*
X89335087Y-151067219D02*
X88763659Y-152067219D01*
X88763659Y-152067219D02*
X88763659Y-151067219D01*
X87858897Y-151400552D02*
X87858897Y-152067219D01*
X88287468Y-151400552D02*
X88287468Y-151924361D01*
X88287468Y-151924361D02*
X88239849Y-152019600D01*
X88239849Y-152019600D02*
X88144611Y-152067219D01*
X88144611Y-152067219D02*
X88001754Y-152067219D01*
X88001754Y-152067219D02*
X87906516Y-152019600D01*
X87906516Y-152019600D02*
X87858897Y-151971980D01*
X87382706Y-152067219D02*
X87382706Y-151400552D01*
X87382706Y-151495790D02*
X87335087Y-151448171D01*
X87335087Y-151448171D02*
X87239849Y-151400552D01*
X87239849Y-151400552D02*
X87096992Y-151400552D01*
X87096992Y-151400552D02*
X87001754Y-151448171D01*
X87001754Y-151448171D02*
X86954135Y-151543409D01*
X86954135Y-151543409D02*
X86954135Y-152067219D01*
X86954135Y-151543409D02*
X86906516Y-151448171D01*
X86906516Y-151448171D02*
X86811278Y-151400552D01*
X86811278Y-151400552D02*
X86668421Y-151400552D01*
X86668421Y-151400552D02*
X86573182Y-151448171D01*
X86573182Y-151448171D02*
X86525563Y-151543409D01*
X86525563Y-151543409D02*
X86525563Y-152067219D01*
X86049373Y-152067219D02*
X86049373Y-151067219D01*
X86049373Y-151448171D02*
X85954135Y-151400552D01*
X85954135Y-151400552D02*
X85763659Y-151400552D01*
X85763659Y-151400552D02*
X85668421Y-151448171D01*
X85668421Y-151448171D02*
X85620802Y-151495790D01*
X85620802Y-151495790D02*
X85573183Y-151591028D01*
X85573183Y-151591028D02*
X85573183Y-151876742D01*
X85573183Y-151876742D02*
X85620802Y-151971980D01*
X85620802Y-151971980D02*
X85668421Y-152019600D01*
X85668421Y-152019600D02*
X85763659Y-152067219D01*
X85763659Y-152067219D02*
X85954135Y-152067219D01*
X85954135Y-152067219D02*
X86049373Y-152019600D01*
X84763659Y-152019600D02*
X84858897Y-152067219D01*
X84858897Y-152067219D02*
X85049373Y-152067219D01*
X85049373Y-152067219D02*
X85144611Y-152019600D01*
X85144611Y-152019600D02*
X85192230Y-151924361D01*
X85192230Y-151924361D02*
X85192230Y-151543409D01*
X85192230Y-151543409D02*
X85144611Y-151448171D01*
X85144611Y-151448171D02*
X85049373Y-151400552D01*
X85049373Y-151400552D02*
X84858897Y-151400552D01*
X84858897Y-151400552D02*
X84763659Y-151448171D01*
X84763659Y-151448171D02*
X84716040Y-151543409D01*
X84716040Y-151543409D02*
X84716040Y-151638647D01*
X84716040Y-151638647D02*
X85192230Y-151733885D01*
X84287468Y-152067219D02*
X84287468Y-151400552D01*
X84287468Y-151591028D02*
X84239849Y-151495790D01*
X84239849Y-151495790D02*
X84192230Y-151448171D01*
X84192230Y-151448171D02*
X84096992Y-151400552D01*
X84096992Y-151400552D02*
X84001754Y-151400552D01*
X83668420Y-151971980D02*
X83620801Y-152019600D01*
X83620801Y-152019600D02*
X83668420Y-152067219D01*
X83668420Y-152067219D02*
X83716039Y-152019600D01*
X83716039Y-152019600D02*
X83668420Y-151971980D01*
X83668420Y-151971980D02*
X83668420Y-152067219D01*
X83668420Y-151448171D02*
X83620801Y-151495790D01*
X83620801Y-151495790D02*
X83668420Y-151543409D01*
X83668420Y-151543409D02*
X83716039Y-151495790D01*
X83716039Y-151495790D02*
X83668420Y-151448171D01*
X83668420Y-151448171D02*
X83668420Y-151543409D01*
X82144612Y-151067219D02*
X82144612Y-151781504D01*
X82144612Y-151781504D02*
X82192231Y-151924361D01*
X82192231Y-151924361D02*
X82287469Y-152019600D01*
X82287469Y-152019600D02*
X82430326Y-152067219D01*
X82430326Y-152067219D02*
X82525564Y-152067219D01*
X81192231Y-152067219D02*
X81668421Y-152067219D01*
X81668421Y-152067219D02*
X81668421Y-151067219D01*
X80287469Y-151971980D02*
X80335088Y-152019600D01*
X80335088Y-152019600D02*
X80477945Y-152067219D01*
X80477945Y-152067219D02*
X80573183Y-152067219D01*
X80573183Y-152067219D02*
X80716040Y-152019600D01*
X80716040Y-152019600D02*
X80811278Y-151924361D01*
X80811278Y-151924361D02*
X80858897Y-151829123D01*
X80858897Y-151829123D02*
X80906516Y-151638647D01*
X80906516Y-151638647D02*
X80906516Y-151495790D01*
X80906516Y-151495790D02*
X80858897Y-151305314D01*
X80858897Y-151305314D02*
X80811278Y-151210076D01*
X80811278Y-151210076D02*
X80716040Y-151114838D01*
X80716040Y-151114838D02*
X80573183Y-151067219D01*
X80573183Y-151067219D02*
X80477945Y-151067219D01*
X80477945Y-151067219D02*
X80335088Y-151114838D01*
X80335088Y-151114838D02*
X80287469Y-151162457D01*
X79573183Y-151067219D02*
X79573183Y-151781504D01*
X79573183Y-151781504D02*
X79620802Y-151924361D01*
X79620802Y-151924361D02*
X79716040Y-152019600D01*
X79716040Y-152019600D02*
X79858897Y-152067219D01*
X79858897Y-152067219D02*
X79954135Y-152067219D01*
X78620802Y-152067219D02*
X79096992Y-152067219D01*
X79096992Y-152067219D02*
X79096992Y-151067219D01*
X77716040Y-151971980D02*
X77763659Y-152019600D01*
X77763659Y-152019600D02*
X77906516Y-152067219D01*
X77906516Y-152067219D02*
X78001754Y-152067219D01*
X78001754Y-152067219D02*
X78144611Y-152019600D01*
X78144611Y-152019600D02*
X78239849Y-151924361D01*
X78239849Y-151924361D02*
X78287468Y-151829123D01*
X78287468Y-151829123D02*
X78335087Y-151638647D01*
X78335087Y-151638647D02*
X78335087Y-151495790D01*
X78335087Y-151495790D02*
X78287468Y-151305314D01*
X78287468Y-151305314D02*
X78239849Y-151210076D01*
X78239849Y-151210076D02*
X78144611Y-151114838D01*
X78144611Y-151114838D02*
X78001754Y-151067219D01*
X78001754Y-151067219D02*
X77906516Y-151067219D01*
X77906516Y-151067219D02*
X77763659Y-151114838D01*
X77763659Y-151114838D02*
X77716040Y-151162457D01*
X77001754Y-151067219D02*
X77001754Y-151781504D01*
X77001754Y-151781504D02*
X77049373Y-151924361D01*
X77049373Y-151924361D02*
X77144611Y-152019600D01*
X77144611Y-152019600D02*
X77287468Y-152067219D01*
X77287468Y-152067219D02*
X77382706Y-152067219D01*
X76049373Y-152067219D02*
X76525563Y-152067219D01*
X76525563Y-152067219D02*
X76525563Y-151067219D01*
X75144611Y-151971980D02*
X75192230Y-152019600D01*
X75192230Y-152019600D02*
X75335087Y-152067219D01*
X75335087Y-152067219D02*
X75430325Y-152067219D01*
X75430325Y-152067219D02*
X75573182Y-152019600D01*
X75573182Y-152019600D02*
X75668420Y-151924361D01*
X75668420Y-151924361D02*
X75716039Y-151829123D01*
X75716039Y-151829123D02*
X75763658Y-151638647D01*
X75763658Y-151638647D02*
X75763658Y-151495790D01*
X75763658Y-151495790D02*
X75716039Y-151305314D01*
X75716039Y-151305314D02*
X75668420Y-151210076D01*
X75668420Y-151210076D02*
X75573182Y-151114838D01*
X75573182Y-151114838D02*
X75430325Y-151067219D01*
X75430325Y-151067219D02*
X75335087Y-151067219D01*
X75335087Y-151067219D02*
X75192230Y-151114838D01*
X75192230Y-151114838D02*
X75144611Y-151162457D01*
X74430325Y-151067219D02*
X74430325Y-151781504D01*
X74430325Y-151781504D02*
X74477944Y-151924361D01*
X74477944Y-151924361D02*
X74573182Y-152019600D01*
X74573182Y-152019600D02*
X74716039Y-152067219D01*
X74716039Y-152067219D02*
X74811277Y-152067219D01*
X73477944Y-152067219D02*
X73954134Y-152067219D01*
X73954134Y-152067219D02*
X73954134Y-151067219D01*
X72573182Y-151971980D02*
X72620801Y-152019600D01*
X72620801Y-152019600D02*
X72763658Y-152067219D01*
X72763658Y-152067219D02*
X72858896Y-152067219D01*
X72858896Y-152067219D02*
X73001753Y-152019600D01*
X73001753Y-152019600D02*
X73096991Y-151924361D01*
X73096991Y-151924361D02*
X73144610Y-151829123D01*
X73144610Y-151829123D02*
X73192229Y-151638647D01*
X73192229Y-151638647D02*
X73192229Y-151495790D01*
X73192229Y-151495790D02*
X73144610Y-151305314D01*
X73144610Y-151305314D02*
X73096991Y-151210076D01*
X73096991Y-151210076D02*
X73001753Y-151114838D01*
X73001753Y-151114838D02*
X72858896Y-151067219D01*
X72858896Y-151067219D02*
X72763658Y-151067219D01*
X72763658Y-151067219D02*
X72620801Y-151114838D01*
X72620801Y-151114838D02*
X72573182Y-151162457D01*
D11*
X175995489Y-59399638D02*
X175614536Y-59399638D01*
X175614536Y-59399638D02*
X175424060Y-59494876D01*
X175424060Y-59494876D02*
X175233584Y-59685352D01*
X175233584Y-59685352D02*
X175138346Y-60066304D01*
X175138346Y-60066304D02*
X175138346Y-60732971D01*
X175138346Y-60732971D02*
X175233584Y-61113923D01*
X175233584Y-61113923D02*
X175424060Y-61304400D01*
X175424060Y-61304400D02*
X175614536Y-61399638D01*
X175614536Y-61399638D02*
X175995489Y-61399638D01*
X175995489Y-61399638D02*
X176185965Y-61304400D01*
X176185965Y-61304400D02*
X176376441Y-61113923D01*
X176376441Y-61113923D02*
X176471679Y-60732971D01*
X176471679Y-60732971D02*
X176471679Y-60066304D01*
X176471679Y-60066304D02*
X176376441Y-59685352D01*
X176376441Y-59685352D02*
X176185965Y-59494876D01*
X176185965Y-59494876D02*
X175995489Y-59399638D01*
X174281203Y-61399638D02*
X174281203Y-60066304D01*
X174281203Y-60447257D02*
X174185965Y-60256780D01*
X174185965Y-60256780D02*
X174090727Y-60161542D01*
X174090727Y-60161542D02*
X173900251Y-60066304D01*
X173900251Y-60066304D02*
X173709774Y-60066304D01*
X173043108Y-61399638D02*
X173043108Y-60066304D01*
X173043108Y-59399638D02*
X173138346Y-59494876D01*
X173138346Y-59494876D02*
X173043108Y-59590114D01*
X173043108Y-59590114D02*
X172947870Y-59494876D01*
X172947870Y-59494876D02*
X173043108Y-59399638D01*
X173043108Y-59399638D02*
X173043108Y-59590114D01*
X171233584Y-60066304D02*
X171233584Y-61685352D01*
X171233584Y-61685352D02*
X171328822Y-61875828D01*
X171328822Y-61875828D02*
X171424060Y-61971066D01*
X171424060Y-61971066D02*
X171614537Y-62066304D01*
X171614537Y-62066304D02*
X171900251Y-62066304D01*
X171900251Y-62066304D02*
X172090727Y-61971066D01*
X171233584Y-61304400D02*
X171424060Y-61399638D01*
X171424060Y-61399638D02*
X171805013Y-61399638D01*
X171805013Y-61399638D02*
X171995489Y-61304400D01*
X171995489Y-61304400D02*
X172090727Y-61209161D01*
X172090727Y-61209161D02*
X172185965Y-61018685D01*
X172185965Y-61018685D02*
X172185965Y-60447257D01*
X172185965Y-60447257D02*
X172090727Y-60256780D01*
X172090727Y-60256780D02*
X171995489Y-60161542D01*
X171995489Y-60161542D02*
X171805013Y-60066304D01*
X171805013Y-60066304D02*
X171424060Y-60066304D01*
X171424060Y-60066304D02*
X171233584Y-60161542D01*
X170281203Y-61399638D02*
X170281203Y-60066304D01*
X170281203Y-59399638D02*
X170376441Y-59494876D01*
X170376441Y-59494876D02*
X170281203Y-59590114D01*
X170281203Y-59590114D02*
X170185965Y-59494876D01*
X170185965Y-59494876D02*
X170281203Y-59399638D01*
X170281203Y-59399638D02*
X170281203Y-59590114D01*
X169328822Y-60066304D02*
X169328822Y-61399638D01*
X169328822Y-60256780D02*
X169233584Y-60161542D01*
X169233584Y-60161542D02*
X169043108Y-60066304D01*
X169043108Y-60066304D02*
X168757393Y-60066304D01*
X168757393Y-60066304D02*
X168566917Y-60161542D01*
X168566917Y-60161542D02*
X168471679Y-60352019D01*
X168471679Y-60352019D02*
X168471679Y-61399638D01*
X166662155Y-61399638D02*
X166662155Y-60352019D01*
X166662155Y-60352019D02*
X166757393Y-60161542D01*
X166757393Y-60161542D02*
X166947869Y-60066304D01*
X166947869Y-60066304D02*
X167328822Y-60066304D01*
X167328822Y-60066304D02*
X167519298Y-60161542D01*
X166662155Y-61304400D02*
X166852631Y-61399638D01*
X166852631Y-61399638D02*
X167328822Y-61399638D01*
X167328822Y-61399638D02*
X167519298Y-61304400D01*
X167519298Y-61304400D02*
X167614536Y-61113923D01*
X167614536Y-61113923D02*
X167614536Y-60923447D01*
X167614536Y-60923447D02*
X167519298Y-60732971D01*
X167519298Y-60732971D02*
X167328822Y-60637733D01*
X167328822Y-60637733D02*
X166852631Y-60637733D01*
X166852631Y-60637733D02*
X166662155Y-60542495D01*
X165424060Y-61399638D02*
X165614536Y-61304400D01*
X165614536Y-61304400D02*
X165709774Y-61113923D01*
X165709774Y-61113923D02*
X165709774Y-59399638D01*
X163138345Y-61399638D02*
X163138345Y-59399638D01*
X163138345Y-59399638D02*
X162662155Y-59399638D01*
X162662155Y-59399638D02*
X162376440Y-59494876D01*
X162376440Y-59494876D02*
X162185964Y-59685352D01*
X162185964Y-59685352D02*
X162090726Y-59875828D01*
X162090726Y-59875828D02*
X161995488Y-60256780D01*
X161995488Y-60256780D02*
X161995488Y-60542495D01*
X161995488Y-60542495D02*
X162090726Y-60923447D01*
X162090726Y-60923447D02*
X162185964Y-61113923D01*
X162185964Y-61113923D02*
X162376440Y-61304400D01*
X162376440Y-61304400D02*
X162662155Y-61399638D01*
X162662155Y-61399638D02*
X163138345Y-61399638D01*
X160376440Y-61304400D02*
X160566916Y-61399638D01*
X160566916Y-61399638D02*
X160947869Y-61399638D01*
X160947869Y-61399638D02*
X161138345Y-61304400D01*
X161138345Y-61304400D02*
X161233583Y-61113923D01*
X161233583Y-61113923D02*
X161233583Y-60352019D01*
X161233583Y-60352019D02*
X161138345Y-60161542D01*
X161138345Y-60161542D02*
X160947869Y-60066304D01*
X160947869Y-60066304D02*
X160566916Y-60066304D01*
X160566916Y-60066304D02*
X160376440Y-60161542D01*
X160376440Y-60161542D02*
X160281202Y-60352019D01*
X160281202Y-60352019D02*
X160281202Y-60542495D01*
X160281202Y-60542495D02*
X161233583Y-60732971D01*
X159519297Y-61304400D02*
X159328821Y-61399638D01*
X159328821Y-61399638D02*
X158947869Y-61399638D01*
X158947869Y-61399638D02*
X158757392Y-61304400D01*
X158757392Y-61304400D02*
X158662154Y-61113923D01*
X158662154Y-61113923D02*
X158662154Y-61018685D01*
X158662154Y-61018685D02*
X158757392Y-60828209D01*
X158757392Y-60828209D02*
X158947869Y-60732971D01*
X158947869Y-60732971D02*
X159233583Y-60732971D01*
X159233583Y-60732971D02*
X159424059Y-60637733D01*
X159424059Y-60637733D02*
X159519297Y-60447257D01*
X159519297Y-60447257D02*
X159519297Y-60352019D01*
X159519297Y-60352019D02*
X159424059Y-60161542D01*
X159424059Y-60161542D02*
X159233583Y-60066304D01*
X159233583Y-60066304D02*
X158947869Y-60066304D01*
X158947869Y-60066304D02*
X158757392Y-60161542D01*
X157805011Y-61399638D02*
X157805011Y-60066304D01*
X157805011Y-59399638D02*
X157900249Y-59494876D01*
X157900249Y-59494876D02*
X157805011Y-59590114D01*
X157805011Y-59590114D02*
X157709773Y-59494876D01*
X157709773Y-59494876D02*
X157805011Y-59399638D01*
X157805011Y-59399638D02*
X157805011Y-59590114D01*
X155995487Y-60066304D02*
X155995487Y-61685352D01*
X155995487Y-61685352D02*
X156090725Y-61875828D01*
X156090725Y-61875828D02*
X156185963Y-61971066D01*
X156185963Y-61971066D02*
X156376440Y-62066304D01*
X156376440Y-62066304D02*
X156662154Y-62066304D01*
X156662154Y-62066304D02*
X156852630Y-61971066D01*
X155995487Y-61304400D02*
X156185963Y-61399638D01*
X156185963Y-61399638D02*
X156566916Y-61399638D01*
X156566916Y-61399638D02*
X156757392Y-61304400D01*
X156757392Y-61304400D02*
X156852630Y-61209161D01*
X156852630Y-61209161D02*
X156947868Y-61018685D01*
X156947868Y-61018685D02*
X156947868Y-60447257D01*
X156947868Y-60447257D02*
X156852630Y-60256780D01*
X156852630Y-60256780D02*
X156757392Y-60161542D01*
X156757392Y-60161542D02*
X156566916Y-60066304D01*
X156566916Y-60066304D02*
X156185963Y-60066304D01*
X156185963Y-60066304D02*
X155995487Y-60161542D01*
X155043106Y-60066304D02*
X155043106Y-61399638D01*
X155043106Y-60256780D02*
X154947868Y-60161542D01*
X154947868Y-60161542D02*
X154757392Y-60066304D01*
X154757392Y-60066304D02*
X154471677Y-60066304D01*
X154471677Y-60066304D02*
X154281201Y-60161542D01*
X154281201Y-60161542D02*
X154185963Y-60352019D01*
X154185963Y-60352019D02*
X154185963Y-61399638D01*
X151995486Y-60066304D02*
X151233582Y-60066304D01*
X151709772Y-61399638D02*
X151709772Y-59685352D01*
X151709772Y-59685352D02*
X151614534Y-59494876D01*
X151614534Y-59494876D02*
X151424058Y-59399638D01*
X151424058Y-59399638D02*
X151233582Y-59399638D01*
X150566915Y-61399638D02*
X150566915Y-60066304D01*
X150566915Y-60447257D02*
X150471677Y-60256780D01*
X150471677Y-60256780D02*
X150376439Y-60161542D01*
X150376439Y-60161542D02*
X150185963Y-60066304D01*
X150185963Y-60066304D02*
X149995486Y-60066304D01*
X149043106Y-61399638D02*
X149233582Y-61304400D01*
X149233582Y-61304400D02*
X149328820Y-61209161D01*
X149328820Y-61209161D02*
X149424058Y-61018685D01*
X149424058Y-61018685D02*
X149424058Y-60447257D01*
X149424058Y-60447257D02*
X149328820Y-60256780D01*
X149328820Y-60256780D02*
X149233582Y-60161542D01*
X149233582Y-60161542D02*
X149043106Y-60066304D01*
X149043106Y-60066304D02*
X148757391Y-60066304D01*
X148757391Y-60066304D02*
X148566915Y-60161542D01*
X148566915Y-60161542D02*
X148471677Y-60256780D01*
X148471677Y-60256780D02*
X148376439Y-60447257D01*
X148376439Y-60447257D02*
X148376439Y-61018685D01*
X148376439Y-61018685D02*
X148471677Y-61209161D01*
X148471677Y-61209161D02*
X148566915Y-61304400D01*
X148566915Y-61304400D02*
X148757391Y-61399638D01*
X148757391Y-61399638D02*
X149043106Y-61399638D01*
X147519296Y-61399638D02*
X147519296Y-60066304D01*
X147519296Y-60256780D02*
X147424058Y-60161542D01*
X147424058Y-60161542D02*
X147233582Y-60066304D01*
X147233582Y-60066304D02*
X146947867Y-60066304D01*
X146947867Y-60066304D02*
X146757391Y-60161542D01*
X146757391Y-60161542D02*
X146662153Y-60352019D01*
X146662153Y-60352019D02*
X146662153Y-61399638D01*
X146662153Y-60352019D02*
X146566915Y-60161542D01*
X146566915Y-60161542D02*
X146376439Y-60066304D01*
X146376439Y-60066304D02*
X146090725Y-60066304D01*
X146090725Y-60066304D02*
X145900248Y-60161542D01*
X145900248Y-60161542D02*
X145805010Y-60352019D01*
X145805010Y-60352019D02*
X145805010Y-61399638D01*
X144852629Y-61209161D02*
X144757391Y-61304400D01*
X144757391Y-61304400D02*
X144852629Y-61399638D01*
X144852629Y-61399638D02*
X144947867Y-61304400D01*
X144947867Y-61304400D02*
X144852629Y-61209161D01*
X144852629Y-61209161D02*
X144852629Y-61399638D01*
X144852629Y-60161542D02*
X144757391Y-60256780D01*
X144757391Y-60256780D02*
X144852629Y-60352019D01*
X144852629Y-60352019D02*
X144947867Y-60256780D01*
X144947867Y-60256780D02*
X144852629Y-60161542D01*
X144852629Y-60161542D02*
X144852629Y-60352019D01*
X141424057Y-59399638D02*
X142376438Y-59399638D01*
X142376438Y-59399638D02*
X142471676Y-60352019D01*
X142471676Y-60352019D02*
X142376438Y-60256780D01*
X142376438Y-60256780D02*
X142185962Y-60161542D01*
X142185962Y-60161542D02*
X141709771Y-60161542D01*
X141709771Y-60161542D02*
X141519295Y-60256780D01*
X141519295Y-60256780D02*
X141424057Y-60352019D01*
X141424057Y-60352019D02*
X141328819Y-60542495D01*
X141328819Y-60542495D02*
X141328819Y-61018685D01*
X141328819Y-61018685D02*
X141424057Y-61209161D01*
X141424057Y-61209161D02*
X141519295Y-61304400D01*
X141519295Y-61304400D02*
X141709771Y-61399638D01*
X141709771Y-61399638D02*
X142185962Y-61399638D01*
X142185962Y-61399638D02*
X142376438Y-61304400D01*
X142376438Y-61304400D02*
X142471676Y-61209161D01*
X140471676Y-60637733D02*
X138947867Y-60637733D01*
X138281200Y-60066304D02*
X137519296Y-60066304D01*
X137995486Y-59399638D02*
X137995486Y-61113923D01*
X137995486Y-61113923D02*
X137900248Y-61304400D01*
X137900248Y-61304400D02*
X137709772Y-61399638D01*
X137709772Y-61399638D02*
X137519296Y-61399638D01*
X136852629Y-61399638D02*
X136852629Y-59399638D01*
X135995486Y-61399638D02*
X135995486Y-60352019D01*
X135995486Y-60352019D02*
X136090724Y-60161542D01*
X136090724Y-60161542D02*
X136281200Y-60066304D01*
X136281200Y-60066304D02*
X136566915Y-60066304D01*
X136566915Y-60066304D02*
X136757391Y-60161542D01*
X136757391Y-60161542D02*
X136852629Y-60256780D01*
X133519295Y-60352019D02*
X132852628Y-60352019D01*
X132566914Y-61399638D02*
X133519295Y-61399638D01*
X133519295Y-61399638D02*
X133519295Y-59399638D01*
X133519295Y-59399638D02*
X132566914Y-59399638D01*
X131900247Y-61399638D02*
X130852628Y-60066304D01*
X131900247Y-60066304D02*
X130852628Y-61399638D01*
X130090723Y-60066304D02*
X130090723Y-62066304D01*
X130090723Y-60161542D02*
X129900247Y-60066304D01*
X129900247Y-60066304D02*
X129519294Y-60066304D01*
X129519294Y-60066304D02*
X129328818Y-60161542D01*
X129328818Y-60161542D02*
X129233580Y-60256780D01*
X129233580Y-60256780D02*
X129138342Y-60447257D01*
X129138342Y-60447257D02*
X129138342Y-61018685D01*
X129138342Y-61018685D02*
X129233580Y-61209161D01*
X129233580Y-61209161D02*
X129328818Y-61304400D01*
X129328818Y-61304400D02*
X129519294Y-61399638D01*
X129519294Y-61399638D02*
X129900247Y-61399638D01*
X129900247Y-61399638D02*
X130090723Y-61304400D01*
X127519294Y-61304400D02*
X127709770Y-61399638D01*
X127709770Y-61399638D02*
X128090723Y-61399638D01*
X128090723Y-61399638D02*
X128281199Y-61304400D01*
X128281199Y-61304400D02*
X128376437Y-61113923D01*
X128376437Y-61113923D02*
X128376437Y-60352019D01*
X128376437Y-60352019D02*
X128281199Y-60161542D01*
X128281199Y-60161542D02*
X128090723Y-60066304D01*
X128090723Y-60066304D02*
X127709770Y-60066304D01*
X127709770Y-60066304D02*
X127519294Y-60161542D01*
X127519294Y-60161542D02*
X127424056Y-60352019D01*
X127424056Y-60352019D02*
X127424056Y-60542495D01*
X127424056Y-60542495D02*
X128376437Y-60732971D01*
X126566913Y-61399638D02*
X126566913Y-60066304D01*
X126566913Y-60447257D02*
X126471675Y-60256780D01*
X126471675Y-60256780D02*
X126376437Y-60161542D01*
X126376437Y-60161542D02*
X126185961Y-60066304D01*
X126185961Y-60066304D02*
X125995484Y-60066304D01*
X125328818Y-61399638D02*
X125328818Y-60066304D01*
X125328818Y-59399638D02*
X125424056Y-59494876D01*
X125424056Y-59494876D02*
X125328818Y-59590114D01*
X125328818Y-59590114D02*
X125233580Y-59494876D01*
X125233580Y-59494876D02*
X125328818Y-59399638D01*
X125328818Y-59399638D02*
X125328818Y-59590114D01*
X124376437Y-61399638D02*
X124376437Y-60066304D01*
X124376437Y-60256780D02*
X124281199Y-60161542D01*
X124281199Y-60161542D02*
X124090723Y-60066304D01*
X124090723Y-60066304D02*
X123805008Y-60066304D01*
X123805008Y-60066304D02*
X123614532Y-60161542D01*
X123614532Y-60161542D02*
X123519294Y-60352019D01*
X123519294Y-60352019D02*
X123519294Y-61399638D01*
X123519294Y-60352019D02*
X123424056Y-60161542D01*
X123424056Y-60161542D02*
X123233580Y-60066304D01*
X123233580Y-60066304D02*
X122947866Y-60066304D01*
X122947866Y-60066304D02*
X122757389Y-60161542D01*
X122757389Y-60161542D02*
X122662151Y-60352019D01*
X122662151Y-60352019D02*
X122662151Y-61399638D01*
X120947865Y-61304400D02*
X121138341Y-61399638D01*
X121138341Y-61399638D02*
X121519294Y-61399638D01*
X121519294Y-61399638D02*
X121709770Y-61304400D01*
X121709770Y-61304400D02*
X121805008Y-61113923D01*
X121805008Y-61113923D02*
X121805008Y-60352019D01*
X121805008Y-60352019D02*
X121709770Y-60161542D01*
X121709770Y-60161542D02*
X121519294Y-60066304D01*
X121519294Y-60066304D02*
X121138341Y-60066304D01*
X121138341Y-60066304D02*
X120947865Y-60161542D01*
X120947865Y-60161542D02*
X120852627Y-60352019D01*
X120852627Y-60352019D02*
X120852627Y-60542495D01*
X120852627Y-60542495D02*
X121805008Y-60732971D01*
X119995484Y-60066304D02*
X119995484Y-61399638D01*
X119995484Y-60256780D02*
X119900246Y-60161542D01*
X119900246Y-60161542D02*
X119709770Y-60066304D01*
X119709770Y-60066304D02*
X119424055Y-60066304D01*
X119424055Y-60066304D02*
X119233579Y-60161542D01*
X119233579Y-60161542D02*
X119138341Y-60352019D01*
X119138341Y-60352019D02*
X119138341Y-61399638D01*
X118471674Y-60066304D02*
X117709770Y-60066304D01*
X118185960Y-59399638D02*
X118185960Y-61113923D01*
X118185960Y-61113923D02*
X118090722Y-61304400D01*
X118090722Y-61304400D02*
X117900246Y-61399638D01*
X117900246Y-61399638D02*
X117709770Y-61399638D01*
X116185960Y-61399638D02*
X116185960Y-60352019D01*
X116185960Y-60352019D02*
X116281198Y-60161542D01*
X116281198Y-60161542D02*
X116471674Y-60066304D01*
X116471674Y-60066304D02*
X116852627Y-60066304D01*
X116852627Y-60066304D02*
X117043103Y-60161542D01*
X116185960Y-61304400D02*
X116376436Y-61399638D01*
X116376436Y-61399638D02*
X116852627Y-61399638D01*
X116852627Y-61399638D02*
X117043103Y-61304400D01*
X117043103Y-61304400D02*
X117138341Y-61113923D01*
X117138341Y-61113923D02*
X117138341Y-60923447D01*
X117138341Y-60923447D02*
X117043103Y-60732971D01*
X117043103Y-60732971D02*
X116852627Y-60637733D01*
X116852627Y-60637733D02*
X116376436Y-60637733D01*
X116376436Y-60637733D02*
X116185960Y-60542495D01*
X114947865Y-61399638D02*
X115138341Y-61304400D01*
X115138341Y-61304400D02*
X115233579Y-61113923D01*
X115233579Y-61113923D02*
X115233579Y-59399638D01*
X112662150Y-61399638D02*
X112662150Y-59399638D01*
X112662150Y-59399638D02*
X111900245Y-59399638D01*
X111900245Y-59399638D02*
X111709769Y-59494876D01*
X111709769Y-59494876D02*
X111614531Y-59590114D01*
X111614531Y-59590114D02*
X111519293Y-59780590D01*
X111519293Y-59780590D02*
X111519293Y-60066304D01*
X111519293Y-60066304D02*
X111614531Y-60256780D01*
X111614531Y-60256780D02*
X111709769Y-60352019D01*
X111709769Y-60352019D02*
X111900245Y-60447257D01*
X111900245Y-60447257D02*
X112662150Y-60447257D01*
X110662150Y-61399638D02*
X110662150Y-59399638D01*
X109805007Y-61399638D02*
X109805007Y-60352019D01*
X109805007Y-60352019D02*
X109900245Y-60161542D01*
X109900245Y-60161542D02*
X110090721Y-60066304D01*
X110090721Y-60066304D02*
X110376436Y-60066304D01*
X110376436Y-60066304D02*
X110566912Y-60161542D01*
X110566912Y-60161542D02*
X110662150Y-60256780D01*
X109043102Y-60066304D02*
X108566912Y-61399638D01*
X108090721Y-60066304D02*
X108566912Y-61399638D01*
X108566912Y-61399638D02*
X108757388Y-61875828D01*
X108757388Y-61875828D02*
X108852626Y-61971066D01*
X108852626Y-61971066D02*
X109043102Y-62066304D01*
X107424054Y-61304400D02*
X107233578Y-61399638D01*
X107233578Y-61399638D02*
X106852626Y-61399638D01*
X106852626Y-61399638D02*
X106662149Y-61304400D01*
X106662149Y-61304400D02*
X106566911Y-61113923D01*
X106566911Y-61113923D02*
X106566911Y-61018685D01*
X106566911Y-61018685D02*
X106662149Y-60828209D01*
X106662149Y-60828209D02*
X106852626Y-60732971D01*
X106852626Y-60732971D02*
X107138340Y-60732971D01*
X107138340Y-60732971D02*
X107328816Y-60637733D01*
X107328816Y-60637733D02*
X107424054Y-60447257D01*
X107424054Y-60447257D02*
X107424054Y-60352019D01*
X107424054Y-60352019D02*
X107328816Y-60161542D01*
X107328816Y-60161542D02*
X107138340Y-60066304D01*
X107138340Y-60066304D02*
X106852626Y-60066304D01*
X106852626Y-60066304D02*
X106662149Y-60161542D01*
X105709768Y-61399638D02*
X105709768Y-60066304D01*
X105709768Y-59399638D02*
X105805006Y-59494876D01*
X105805006Y-59494876D02*
X105709768Y-59590114D01*
X105709768Y-59590114D02*
X105614530Y-59494876D01*
X105614530Y-59494876D02*
X105709768Y-59399638D01*
X105709768Y-59399638D02*
X105709768Y-59590114D01*
X103900244Y-61304400D02*
X104090720Y-61399638D01*
X104090720Y-61399638D02*
X104471673Y-61399638D01*
X104471673Y-61399638D02*
X104662149Y-61304400D01*
X104662149Y-61304400D02*
X104757387Y-61209161D01*
X104757387Y-61209161D02*
X104852625Y-61018685D01*
X104852625Y-61018685D02*
X104852625Y-60447257D01*
X104852625Y-60447257D02*
X104757387Y-60256780D01*
X104757387Y-60256780D02*
X104662149Y-60161542D01*
X104662149Y-60161542D02*
X104471673Y-60066304D01*
X104471673Y-60066304D02*
X104090720Y-60066304D01*
X104090720Y-60066304D02*
X103900244Y-60161542D01*
X103138339Y-61304400D02*
X102947863Y-61399638D01*
X102947863Y-61399638D02*
X102566911Y-61399638D01*
X102566911Y-61399638D02*
X102376434Y-61304400D01*
X102376434Y-61304400D02*
X102281196Y-61113923D01*
X102281196Y-61113923D02*
X102281196Y-61018685D01*
X102281196Y-61018685D02*
X102376434Y-60828209D01*
X102376434Y-60828209D02*
X102566911Y-60732971D01*
X102566911Y-60732971D02*
X102852625Y-60732971D01*
X102852625Y-60732971D02*
X103043101Y-60637733D01*
X103043101Y-60637733D02*
X103138339Y-60447257D01*
X103138339Y-60447257D02*
X103138339Y-60352019D01*
X103138339Y-60352019D02*
X103043101Y-60161542D01*
X103043101Y-60161542D02*
X102852625Y-60066304D01*
X102852625Y-60066304D02*
X102566911Y-60066304D01*
X102566911Y-60066304D02*
X102376434Y-60161542D01*
X99519291Y-59399638D02*
X99138338Y-59399638D01*
X99138338Y-59399638D02*
X98947862Y-59494876D01*
X98947862Y-59494876D02*
X98757386Y-59685352D01*
X98757386Y-59685352D02*
X98662148Y-60066304D01*
X98662148Y-60066304D02*
X98662148Y-60732971D01*
X98662148Y-60732971D02*
X98757386Y-61113923D01*
X98757386Y-61113923D02*
X98947862Y-61304400D01*
X98947862Y-61304400D02*
X99138338Y-61399638D01*
X99138338Y-61399638D02*
X99519291Y-61399638D01*
X99519291Y-61399638D02*
X99709767Y-61304400D01*
X99709767Y-61304400D02*
X99900243Y-61113923D01*
X99900243Y-61113923D02*
X99995481Y-60732971D01*
X99995481Y-60732971D02*
X99995481Y-60066304D01*
X99995481Y-60066304D02*
X99900243Y-59685352D01*
X99900243Y-59685352D02*
X99709767Y-59494876D01*
X99709767Y-59494876D02*
X99519291Y-59399638D01*
X97519291Y-61399638D02*
X97709767Y-61304400D01*
X97709767Y-61304400D02*
X97805005Y-61113923D01*
X97805005Y-61113923D02*
X97805005Y-59399638D01*
X96947862Y-60066304D02*
X96471672Y-61399638D01*
X95995481Y-60066304D02*
X96471672Y-61399638D01*
X96471672Y-61399638D02*
X96662148Y-61875828D01*
X96662148Y-61875828D02*
X96757386Y-61971066D01*
X96757386Y-61971066D02*
X96947862Y-62066304D01*
X95233576Y-61399638D02*
X95233576Y-60066304D01*
X95233576Y-60256780D02*
X95138338Y-60161542D01*
X95138338Y-60161542D02*
X94947862Y-60066304D01*
X94947862Y-60066304D02*
X94662147Y-60066304D01*
X94662147Y-60066304D02*
X94471671Y-60161542D01*
X94471671Y-60161542D02*
X94376433Y-60352019D01*
X94376433Y-60352019D02*
X94376433Y-61399638D01*
X94376433Y-60352019D02*
X94281195Y-60161542D01*
X94281195Y-60161542D02*
X94090719Y-60066304D01*
X94090719Y-60066304D02*
X93805005Y-60066304D01*
X93805005Y-60066304D02*
X93614528Y-60161542D01*
X93614528Y-60161542D02*
X93519290Y-60352019D01*
X93519290Y-60352019D02*
X93519290Y-61399638D01*
X92566909Y-60066304D02*
X92566909Y-62066304D01*
X92566909Y-60161542D02*
X92376433Y-60066304D01*
X92376433Y-60066304D02*
X91995480Y-60066304D01*
X91995480Y-60066304D02*
X91805004Y-60161542D01*
X91805004Y-60161542D02*
X91709766Y-60256780D01*
X91709766Y-60256780D02*
X91614528Y-60447257D01*
X91614528Y-60447257D02*
X91614528Y-61018685D01*
X91614528Y-61018685D02*
X91709766Y-61209161D01*
X91709766Y-61209161D02*
X91805004Y-61304400D01*
X91805004Y-61304400D02*
X91995480Y-61399638D01*
X91995480Y-61399638D02*
X92376433Y-61399638D01*
X92376433Y-61399638D02*
X92566909Y-61304400D01*
X90757385Y-61399638D02*
X90757385Y-60066304D01*
X90757385Y-59399638D02*
X90852623Y-59494876D01*
X90852623Y-59494876D02*
X90757385Y-59590114D01*
X90757385Y-59590114D02*
X90662147Y-59494876D01*
X90662147Y-59494876D02*
X90757385Y-59399638D01*
X90757385Y-59399638D02*
X90757385Y-59590114D01*
X88947861Y-61399638D02*
X88947861Y-60352019D01*
X88947861Y-60352019D02*
X89043099Y-60161542D01*
X89043099Y-60161542D02*
X89233575Y-60066304D01*
X89233575Y-60066304D02*
X89614528Y-60066304D01*
X89614528Y-60066304D02*
X89805004Y-60161542D01*
X88947861Y-61304400D02*
X89138337Y-61399638D01*
X89138337Y-61399638D02*
X89614528Y-61399638D01*
X89614528Y-61399638D02*
X89805004Y-61304400D01*
X89805004Y-61304400D02*
X89900242Y-61113923D01*
X89900242Y-61113923D02*
X89900242Y-60923447D01*
X89900242Y-60923447D02*
X89805004Y-60732971D01*
X89805004Y-60732971D02*
X89614528Y-60637733D01*
X89614528Y-60637733D02*
X89138337Y-60637733D01*
X89138337Y-60637733D02*
X88947861Y-60542495D01*
X87138337Y-61399638D02*
X87138337Y-59399638D01*
X87138337Y-61304400D02*
X87328813Y-61399638D01*
X87328813Y-61399638D02*
X87709766Y-61399638D01*
X87709766Y-61399638D02*
X87900242Y-61304400D01*
X87900242Y-61304400D02*
X87995480Y-61209161D01*
X87995480Y-61209161D02*
X88090718Y-61018685D01*
X88090718Y-61018685D02*
X88090718Y-60447257D01*
X88090718Y-60447257D02*
X87995480Y-60256780D01*
X87995480Y-60256780D02*
X87900242Y-60161542D01*
X87900242Y-60161542D02*
X87709766Y-60066304D01*
X87709766Y-60066304D02*
X87328813Y-60066304D01*
X87328813Y-60066304D02*
X87138337Y-60161542D01*
X84090717Y-62161542D02*
X84185956Y-62066304D01*
X84185956Y-62066304D02*
X84376432Y-61780590D01*
X84376432Y-61780590D02*
X84471670Y-61590114D01*
X84471670Y-61590114D02*
X84566908Y-61304400D01*
X84566908Y-61304400D02*
X84662146Y-60828209D01*
X84662146Y-60828209D02*
X84662146Y-60447257D01*
X84662146Y-60447257D02*
X84566908Y-59971066D01*
X84566908Y-59971066D02*
X84471670Y-59685352D01*
X84471670Y-59685352D02*
X84376432Y-59494876D01*
X84376432Y-59494876D02*
X84185956Y-59209161D01*
X84185956Y-59209161D02*
X84090717Y-59113923D01*
X83424051Y-59590114D02*
X83328813Y-59494876D01*
X83328813Y-59494876D02*
X83138337Y-59399638D01*
X83138337Y-59399638D02*
X82662146Y-59399638D01*
X82662146Y-59399638D02*
X82471670Y-59494876D01*
X82471670Y-59494876D02*
X82376432Y-59590114D01*
X82376432Y-59590114D02*
X82281194Y-59780590D01*
X82281194Y-59780590D02*
X82281194Y-59971066D01*
X82281194Y-59971066D02*
X82376432Y-60256780D01*
X82376432Y-60256780D02*
X83519289Y-61399638D01*
X83519289Y-61399638D02*
X82281194Y-61399638D01*
X81043099Y-59399638D02*
X80852622Y-59399638D01*
X80852622Y-59399638D02*
X80662146Y-59494876D01*
X80662146Y-59494876D02*
X80566908Y-59590114D01*
X80566908Y-59590114D02*
X80471670Y-59780590D01*
X80471670Y-59780590D02*
X80376432Y-60161542D01*
X80376432Y-60161542D02*
X80376432Y-60637733D01*
X80376432Y-60637733D02*
X80471670Y-61018685D01*
X80471670Y-61018685D02*
X80566908Y-61209161D01*
X80566908Y-61209161D02*
X80662146Y-61304400D01*
X80662146Y-61304400D02*
X80852622Y-61399638D01*
X80852622Y-61399638D02*
X81043099Y-61399638D01*
X81043099Y-61399638D02*
X81233575Y-61304400D01*
X81233575Y-61304400D02*
X81328813Y-61209161D01*
X81328813Y-61209161D02*
X81424051Y-61018685D01*
X81424051Y-61018685D02*
X81519289Y-60637733D01*
X81519289Y-60637733D02*
X81519289Y-60161542D01*
X81519289Y-60161542D02*
X81424051Y-59780590D01*
X81424051Y-59780590D02*
X81328813Y-59590114D01*
X81328813Y-59590114D02*
X81233575Y-59494876D01*
X81233575Y-59494876D02*
X81043099Y-59399638D01*
X78471670Y-61399638D02*
X79614527Y-61399638D01*
X79043099Y-61399638D02*
X79043099Y-59399638D01*
X79043099Y-59399638D02*
X79233575Y-59685352D01*
X79233575Y-59685352D02*
X79424051Y-59875828D01*
X79424051Y-59875828D02*
X79614527Y-59971066D01*
X77805003Y-59399638D02*
X76471670Y-59399638D01*
X76471670Y-59399638D02*
X77328813Y-61399638D01*
X75900241Y-62161542D02*
X75805003Y-62066304D01*
X75805003Y-62066304D02*
X75614527Y-61780590D01*
X75614527Y-61780590D02*
X75519289Y-61590114D01*
X75519289Y-61590114D02*
X75424051Y-61304400D01*
X75424051Y-61304400D02*
X75328813Y-60828209D01*
X75328813Y-60828209D02*
X75328813Y-60447257D01*
X75328813Y-60447257D02*
X75424051Y-59971066D01*
X75424051Y-59971066D02*
X75519289Y-59685352D01*
X75519289Y-59685352D02*
X75614527Y-59494876D01*
X75614527Y-59494876D02*
X75805003Y-59209161D01*
X75805003Y-59209161D02*
X75900241Y-59113923D01*
X176471679Y-64048209D02*
X175519298Y-64048209D01*
X176662155Y-64619638D02*
X175995489Y-62619638D01*
X175995489Y-62619638D02*
X175328822Y-64619638D01*
X173805012Y-64619638D02*
X173805012Y-62619638D01*
X173805012Y-64524400D02*
X173995488Y-64619638D01*
X173995488Y-64619638D02*
X174376441Y-64619638D01*
X174376441Y-64619638D02*
X174566917Y-64524400D01*
X174566917Y-64524400D02*
X174662155Y-64429161D01*
X174662155Y-64429161D02*
X174757393Y-64238685D01*
X174757393Y-64238685D02*
X174757393Y-63667257D01*
X174757393Y-63667257D02*
X174662155Y-63476780D01*
X174662155Y-63476780D02*
X174566917Y-63381542D01*
X174566917Y-63381542D02*
X174376441Y-63286304D01*
X174376441Y-63286304D02*
X173995488Y-63286304D01*
X173995488Y-63286304D02*
X173805012Y-63381542D01*
X171995488Y-64619638D02*
X171995488Y-63572019D01*
X171995488Y-63572019D02*
X172090726Y-63381542D01*
X172090726Y-63381542D02*
X172281202Y-63286304D01*
X172281202Y-63286304D02*
X172662155Y-63286304D01*
X172662155Y-63286304D02*
X172852631Y-63381542D01*
X171995488Y-64524400D02*
X172185964Y-64619638D01*
X172185964Y-64619638D02*
X172662155Y-64619638D01*
X172662155Y-64619638D02*
X172852631Y-64524400D01*
X172852631Y-64524400D02*
X172947869Y-64333923D01*
X172947869Y-64333923D02*
X172947869Y-64143447D01*
X172947869Y-64143447D02*
X172852631Y-63952971D01*
X172852631Y-63952971D02*
X172662155Y-63857733D01*
X172662155Y-63857733D02*
X172185964Y-63857733D01*
X172185964Y-63857733D02*
X171995488Y-63762495D01*
X171043107Y-63286304D02*
X171043107Y-65286304D01*
X171043107Y-63381542D02*
X170852631Y-63286304D01*
X170852631Y-63286304D02*
X170471678Y-63286304D01*
X170471678Y-63286304D02*
X170281202Y-63381542D01*
X170281202Y-63381542D02*
X170185964Y-63476780D01*
X170185964Y-63476780D02*
X170090726Y-63667257D01*
X170090726Y-63667257D02*
X170090726Y-64238685D01*
X170090726Y-64238685D02*
X170185964Y-64429161D01*
X170185964Y-64429161D02*
X170281202Y-64524400D01*
X170281202Y-64524400D02*
X170471678Y-64619638D01*
X170471678Y-64619638D02*
X170852631Y-64619638D01*
X170852631Y-64619638D02*
X171043107Y-64524400D01*
X169519297Y-63286304D02*
X168757393Y-63286304D01*
X169233583Y-62619638D02*
X169233583Y-64333923D01*
X169233583Y-64333923D02*
X169138345Y-64524400D01*
X169138345Y-64524400D02*
X168947869Y-64619638D01*
X168947869Y-64619638D02*
X168757393Y-64619638D01*
X167328821Y-64524400D02*
X167519297Y-64619638D01*
X167519297Y-64619638D02*
X167900250Y-64619638D01*
X167900250Y-64619638D02*
X168090726Y-64524400D01*
X168090726Y-64524400D02*
X168185964Y-64333923D01*
X168185964Y-64333923D02*
X168185964Y-63572019D01*
X168185964Y-63572019D02*
X168090726Y-63381542D01*
X168090726Y-63381542D02*
X167900250Y-63286304D01*
X167900250Y-63286304D02*
X167519297Y-63286304D01*
X167519297Y-63286304D02*
X167328821Y-63381542D01*
X167328821Y-63381542D02*
X167233583Y-63572019D01*
X167233583Y-63572019D02*
X167233583Y-63762495D01*
X167233583Y-63762495D02*
X168185964Y-63952971D01*
X165519297Y-64619638D02*
X165519297Y-62619638D01*
X165519297Y-64524400D02*
X165709773Y-64619638D01*
X165709773Y-64619638D02*
X166090726Y-64619638D01*
X166090726Y-64619638D02*
X166281202Y-64524400D01*
X166281202Y-64524400D02*
X166376440Y-64429161D01*
X166376440Y-64429161D02*
X166471678Y-64238685D01*
X166471678Y-64238685D02*
X166471678Y-63667257D01*
X166471678Y-63667257D02*
X166376440Y-63476780D01*
X166376440Y-63476780D02*
X166281202Y-63381542D01*
X166281202Y-63381542D02*
X166090726Y-63286304D01*
X166090726Y-63286304D02*
X165709773Y-63286304D01*
X165709773Y-63286304D02*
X165519297Y-63381542D01*
X163043106Y-64619638D02*
X163043106Y-62619638D01*
X163043106Y-63381542D02*
X162852630Y-63286304D01*
X162852630Y-63286304D02*
X162471677Y-63286304D01*
X162471677Y-63286304D02*
X162281201Y-63381542D01*
X162281201Y-63381542D02*
X162185963Y-63476780D01*
X162185963Y-63476780D02*
X162090725Y-63667257D01*
X162090725Y-63667257D02*
X162090725Y-64238685D01*
X162090725Y-64238685D02*
X162185963Y-64429161D01*
X162185963Y-64429161D02*
X162281201Y-64524400D01*
X162281201Y-64524400D02*
X162471677Y-64619638D01*
X162471677Y-64619638D02*
X162852630Y-64619638D01*
X162852630Y-64619638D02*
X163043106Y-64524400D01*
X161424058Y-63286304D02*
X160947868Y-64619638D01*
X160471677Y-63286304D02*
X160947868Y-64619638D01*
X160947868Y-64619638D02*
X161138344Y-65095828D01*
X161138344Y-65095828D02*
X161233582Y-65191066D01*
X161233582Y-65191066D02*
X161424058Y-65286304D01*
X159709772Y-64429161D02*
X159614534Y-64524400D01*
X159614534Y-64524400D02*
X159709772Y-64619638D01*
X159709772Y-64619638D02*
X159805010Y-64524400D01*
X159805010Y-64524400D02*
X159709772Y-64429161D01*
X159709772Y-64429161D02*
X159709772Y-64619638D01*
X159709772Y-63381542D02*
X159614534Y-63476780D01*
X159614534Y-63476780D02*
X159709772Y-63572019D01*
X159709772Y-63572019D02*
X159805010Y-63476780D01*
X159805010Y-63476780D02*
X159709772Y-63381542D01*
X159709772Y-63381542D02*
X159709772Y-63572019D01*
X156090724Y-64429161D02*
X156185962Y-64524400D01*
X156185962Y-64524400D02*
X156471676Y-64619638D01*
X156471676Y-64619638D02*
X156662152Y-64619638D01*
X156662152Y-64619638D02*
X156947867Y-64524400D01*
X156947867Y-64524400D02*
X157138343Y-64333923D01*
X157138343Y-64333923D02*
X157233581Y-64143447D01*
X157233581Y-64143447D02*
X157328819Y-63762495D01*
X157328819Y-63762495D02*
X157328819Y-63476780D01*
X157328819Y-63476780D02*
X157233581Y-63095828D01*
X157233581Y-63095828D02*
X157138343Y-62905352D01*
X157138343Y-62905352D02*
X156947867Y-62714876D01*
X156947867Y-62714876D02*
X156662152Y-62619638D01*
X156662152Y-62619638D02*
X156471676Y-62619638D01*
X156471676Y-62619638D02*
X156185962Y-62714876D01*
X156185962Y-62714876D02*
X156090724Y-62810114D01*
X154376438Y-64619638D02*
X154376438Y-63572019D01*
X154376438Y-63572019D02*
X154471676Y-63381542D01*
X154471676Y-63381542D02*
X154662152Y-63286304D01*
X154662152Y-63286304D02*
X155043105Y-63286304D01*
X155043105Y-63286304D02*
X155233581Y-63381542D01*
X154376438Y-64524400D02*
X154566914Y-64619638D01*
X154566914Y-64619638D02*
X155043105Y-64619638D01*
X155043105Y-64619638D02*
X155233581Y-64524400D01*
X155233581Y-64524400D02*
X155328819Y-64333923D01*
X155328819Y-64333923D02*
X155328819Y-64143447D01*
X155328819Y-64143447D02*
X155233581Y-63952971D01*
X155233581Y-63952971D02*
X155043105Y-63857733D01*
X155043105Y-63857733D02*
X154566914Y-63857733D01*
X154566914Y-63857733D02*
X154376438Y-63762495D01*
X153424057Y-64619638D02*
X153424057Y-63286304D01*
X153424057Y-63667257D02*
X153328819Y-63476780D01*
X153328819Y-63476780D02*
X153233581Y-63381542D01*
X153233581Y-63381542D02*
X153043105Y-63286304D01*
X153043105Y-63286304D02*
X152852628Y-63286304D01*
X151900248Y-64619638D02*
X152090724Y-64524400D01*
X152090724Y-64524400D02*
X152185962Y-64333923D01*
X152185962Y-64333923D02*
X152185962Y-62619638D01*
X150852629Y-64619638D02*
X151043105Y-64524400D01*
X151043105Y-64524400D02*
X151138343Y-64429161D01*
X151138343Y-64429161D02*
X151233581Y-64238685D01*
X151233581Y-64238685D02*
X151233581Y-63667257D01*
X151233581Y-63667257D02*
X151138343Y-63476780D01*
X151138343Y-63476780D02*
X151043105Y-63381542D01*
X151043105Y-63381542D02*
X150852629Y-63286304D01*
X150852629Y-63286304D02*
X150566914Y-63286304D01*
X150566914Y-63286304D02*
X150376438Y-63381542D01*
X150376438Y-63381542D02*
X150281200Y-63476780D01*
X150281200Y-63476780D02*
X150185962Y-63667257D01*
X150185962Y-63667257D02*
X150185962Y-64238685D01*
X150185962Y-64238685D02*
X150281200Y-64429161D01*
X150281200Y-64429161D02*
X150376438Y-64524400D01*
X150376438Y-64524400D02*
X150566914Y-64619638D01*
X150566914Y-64619638D02*
X150852629Y-64619638D01*
X149424057Y-64524400D02*
X149233581Y-64619638D01*
X149233581Y-64619638D02*
X148852629Y-64619638D01*
X148852629Y-64619638D02*
X148662152Y-64524400D01*
X148662152Y-64524400D02*
X148566914Y-64333923D01*
X148566914Y-64333923D02*
X148566914Y-64238685D01*
X148566914Y-64238685D02*
X148662152Y-64048209D01*
X148662152Y-64048209D02*
X148852629Y-63952971D01*
X148852629Y-63952971D02*
X149138343Y-63952971D01*
X149138343Y-63952971D02*
X149328819Y-63857733D01*
X149328819Y-63857733D02*
X149424057Y-63667257D01*
X149424057Y-63667257D02*
X149424057Y-63572019D01*
X149424057Y-63572019D02*
X149328819Y-63381542D01*
X149328819Y-63381542D02*
X149138343Y-63286304D01*
X149138343Y-63286304D02*
X148852629Y-63286304D01*
X148852629Y-63286304D02*
X148662152Y-63381542D01*
X146471675Y-62619638D02*
X145805009Y-64619638D01*
X145805009Y-64619638D02*
X145138342Y-62619638D01*
X143709770Y-64524400D02*
X143900246Y-64619638D01*
X143900246Y-64619638D02*
X144281199Y-64619638D01*
X144281199Y-64619638D02*
X144471675Y-64524400D01*
X144471675Y-64524400D02*
X144566913Y-64333923D01*
X144566913Y-64333923D02*
X144566913Y-63572019D01*
X144566913Y-63572019D02*
X144471675Y-63381542D01*
X144471675Y-63381542D02*
X144281199Y-63286304D01*
X144281199Y-63286304D02*
X143900246Y-63286304D01*
X143900246Y-63286304D02*
X143709770Y-63381542D01*
X143709770Y-63381542D02*
X143614532Y-63572019D01*
X143614532Y-63572019D02*
X143614532Y-63762495D01*
X143614532Y-63762495D02*
X144566913Y-63952971D01*
X142757389Y-64619638D02*
X142757389Y-63286304D01*
X142757389Y-63667257D02*
X142662151Y-63476780D01*
X142662151Y-63476780D02*
X142566913Y-63381542D01*
X142566913Y-63381542D02*
X142376437Y-63286304D01*
X142376437Y-63286304D02*
X142185960Y-63286304D01*
X140662151Y-64619638D02*
X140662151Y-63572019D01*
X140662151Y-63572019D02*
X140757389Y-63381542D01*
X140757389Y-63381542D02*
X140947865Y-63286304D01*
X140947865Y-63286304D02*
X141328818Y-63286304D01*
X141328818Y-63286304D02*
X141519294Y-63381542D01*
X140662151Y-64524400D02*
X140852627Y-64619638D01*
X140852627Y-64619638D02*
X141328818Y-64619638D01*
X141328818Y-64619638D02*
X141519294Y-64524400D01*
X141519294Y-64524400D02*
X141614532Y-64333923D01*
X141614532Y-64333923D02*
X141614532Y-64143447D01*
X141614532Y-64143447D02*
X141519294Y-63952971D01*
X141519294Y-63952971D02*
X141328818Y-63857733D01*
X141328818Y-63857733D02*
X140852627Y-63857733D01*
X140852627Y-63857733D02*
X140662151Y-63762495D01*
X139805008Y-64524400D02*
X139614532Y-64619638D01*
X139614532Y-64619638D02*
X139233580Y-64619638D01*
X139233580Y-64619638D02*
X139043103Y-64524400D01*
X139043103Y-64524400D02*
X138947865Y-64333923D01*
X138947865Y-64333923D02*
X138947865Y-64238685D01*
X138947865Y-64238685D02*
X139043103Y-64048209D01*
X139043103Y-64048209D02*
X139233580Y-63952971D01*
X139233580Y-63952971D02*
X139519294Y-63952971D01*
X139519294Y-63952971D02*
X139709770Y-63857733D01*
X139709770Y-63857733D02*
X139805008Y-63667257D01*
X139805008Y-63667257D02*
X139805008Y-63572019D01*
X139805008Y-63572019D02*
X139709770Y-63381542D01*
X139709770Y-63381542D02*
X139519294Y-63286304D01*
X139519294Y-63286304D02*
X139233580Y-63286304D01*
X139233580Y-63286304D02*
X139043103Y-63381542D01*
X135995483Y-65381542D02*
X136090722Y-65286304D01*
X136090722Y-65286304D02*
X136281198Y-65000590D01*
X136281198Y-65000590D02*
X136376436Y-64810114D01*
X136376436Y-64810114D02*
X136471674Y-64524400D01*
X136471674Y-64524400D02*
X136566912Y-64048209D01*
X136566912Y-64048209D02*
X136566912Y-63667257D01*
X136566912Y-63667257D02*
X136471674Y-63191066D01*
X136471674Y-63191066D02*
X136376436Y-62905352D01*
X136376436Y-62905352D02*
X136281198Y-62714876D01*
X136281198Y-62714876D02*
X136090722Y-62429161D01*
X136090722Y-62429161D02*
X135995483Y-62333923D01*
X133995484Y-63667257D02*
X134090722Y-63572019D01*
X134090722Y-63572019D02*
X134281198Y-63476780D01*
X134281198Y-63476780D02*
X134471674Y-63476780D01*
X134471674Y-63476780D02*
X134662150Y-63572019D01*
X134662150Y-63572019D02*
X134757389Y-63667257D01*
X134757389Y-63667257D02*
X134852627Y-63857733D01*
X134852627Y-63857733D02*
X134852627Y-64048209D01*
X134852627Y-64048209D02*
X134757389Y-64238685D01*
X134757389Y-64238685D02*
X134662150Y-64333923D01*
X134662150Y-64333923D02*
X134471674Y-64429161D01*
X134471674Y-64429161D02*
X134281198Y-64429161D01*
X134281198Y-64429161D02*
X134090722Y-64333923D01*
X134090722Y-64333923D02*
X133995484Y-64238685D01*
X133995484Y-63476780D02*
X133995484Y-64238685D01*
X133995484Y-64238685D02*
X133900246Y-64333923D01*
X133900246Y-64333923D02*
X133805008Y-64333923D01*
X133805008Y-64333923D02*
X133614531Y-64238685D01*
X133614531Y-64238685D02*
X133519293Y-64048209D01*
X133519293Y-64048209D02*
X133519293Y-63572019D01*
X133519293Y-63572019D02*
X133709770Y-63286304D01*
X133709770Y-63286304D02*
X133995484Y-63095828D01*
X133995484Y-63095828D02*
X134376436Y-63000590D01*
X134376436Y-63000590D02*
X134757389Y-63095828D01*
X134757389Y-63095828D02*
X135043103Y-63286304D01*
X135043103Y-63286304D02*
X135233579Y-63572019D01*
X135233579Y-63572019D02*
X135328817Y-63952971D01*
X135328817Y-63952971D02*
X135233579Y-64333923D01*
X135233579Y-64333923D02*
X135043103Y-64619638D01*
X135043103Y-64619638D02*
X134757389Y-64810114D01*
X134757389Y-64810114D02*
X134376436Y-64905352D01*
X134376436Y-64905352D02*
X133995484Y-64810114D01*
X133995484Y-64810114D02*
X133709770Y-64619638D01*
X131519293Y-64429161D02*
X131614531Y-64524400D01*
X131614531Y-64524400D02*
X131900245Y-64619638D01*
X131900245Y-64619638D02*
X132090721Y-64619638D01*
X132090721Y-64619638D02*
X132376436Y-64524400D01*
X132376436Y-64524400D02*
X132566912Y-64333923D01*
X132566912Y-64333923D02*
X132662150Y-64143447D01*
X132662150Y-64143447D02*
X132757388Y-63762495D01*
X132757388Y-63762495D02*
X132757388Y-63476780D01*
X132757388Y-63476780D02*
X132662150Y-63095828D01*
X132662150Y-63095828D02*
X132566912Y-62905352D01*
X132566912Y-62905352D02*
X132376436Y-62714876D01*
X132376436Y-62714876D02*
X132090721Y-62619638D01*
X132090721Y-62619638D02*
X131900245Y-62619638D01*
X131900245Y-62619638D02*
X131614531Y-62714876D01*
X131614531Y-62714876D02*
X131519293Y-62810114D01*
X129805007Y-64619638D02*
X129805007Y-63572019D01*
X129805007Y-63572019D02*
X129900245Y-63381542D01*
X129900245Y-63381542D02*
X130090721Y-63286304D01*
X130090721Y-63286304D02*
X130471674Y-63286304D01*
X130471674Y-63286304D02*
X130662150Y-63381542D01*
X129805007Y-64524400D02*
X129995483Y-64619638D01*
X129995483Y-64619638D02*
X130471674Y-64619638D01*
X130471674Y-64619638D02*
X130662150Y-64524400D01*
X130662150Y-64524400D02*
X130757388Y-64333923D01*
X130757388Y-64333923D02*
X130757388Y-64143447D01*
X130757388Y-64143447D02*
X130662150Y-63952971D01*
X130662150Y-63952971D02*
X130471674Y-63857733D01*
X130471674Y-63857733D02*
X129995483Y-63857733D01*
X129995483Y-63857733D02*
X129805007Y-63762495D01*
X128852626Y-64619638D02*
X128852626Y-63286304D01*
X128852626Y-63667257D02*
X128757388Y-63476780D01*
X128757388Y-63476780D02*
X128662150Y-63381542D01*
X128662150Y-63381542D02*
X128471674Y-63286304D01*
X128471674Y-63286304D02*
X128281197Y-63286304D01*
X127328817Y-64619638D02*
X127519293Y-64524400D01*
X127519293Y-64524400D02*
X127614531Y-64333923D01*
X127614531Y-64333923D02*
X127614531Y-62619638D01*
X126281198Y-64619638D02*
X126471674Y-64524400D01*
X126471674Y-64524400D02*
X126566912Y-64429161D01*
X126566912Y-64429161D02*
X126662150Y-64238685D01*
X126662150Y-64238685D02*
X126662150Y-63667257D01*
X126662150Y-63667257D02*
X126566912Y-63476780D01*
X126566912Y-63476780D02*
X126471674Y-63381542D01*
X126471674Y-63381542D02*
X126281198Y-63286304D01*
X126281198Y-63286304D02*
X125995483Y-63286304D01*
X125995483Y-63286304D02*
X125805007Y-63381542D01*
X125805007Y-63381542D02*
X125709769Y-63476780D01*
X125709769Y-63476780D02*
X125614531Y-63667257D01*
X125614531Y-63667257D02*
X125614531Y-64238685D01*
X125614531Y-64238685D02*
X125709769Y-64429161D01*
X125709769Y-64429161D02*
X125805007Y-64524400D01*
X125805007Y-64524400D02*
X125995483Y-64619638D01*
X125995483Y-64619638D02*
X126281198Y-64619638D01*
X124852626Y-64524400D02*
X124662150Y-64619638D01*
X124662150Y-64619638D02*
X124281198Y-64619638D01*
X124281198Y-64619638D02*
X124090721Y-64524400D01*
X124090721Y-64524400D02*
X123995483Y-64333923D01*
X123995483Y-64333923D02*
X123995483Y-64238685D01*
X123995483Y-64238685D02*
X124090721Y-64048209D01*
X124090721Y-64048209D02*
X124281198Y-63952971D01*
X124281198Y-63952971D02*
X124566912Y-63952971D01*
X124566912Y-63952971D02*
X124757388Y-63857733D01*
X124757388Y-63857733D02*
X124852626Y-63667257D01*
X124852626Y-63667257D02*
X124852626Y-63572019D01*
X124852626Y-63572019D02*
X124757388Y-63381542D01*
X124757388Y-63381542D02*
X124566912Y-63286304D01*
X124566912Y-63286304D02*
X124281198Y-63286304D01*
X124281198Y-63286304D02*
X124090721Y-63381542D01*
X121995483Y-64429161D02*
X122090721Y-64524400D01*
X122090721Y-64524400D02*
X122376435Y-64619638D01*
X122376435Y-64619638D02*
X122566911Y-64619638D01*
X122566911Y-64619638D02*
X122852626Y-64524400D01*
X122852626Y-64524400D02*
X123043102Y-64333923D01*
X123043102Y-64333923D02*
X123138340Y-64143447D01*
X123138340Y-64143447D02*
X123233578Y-63762495D01*
X123233578Y-63762495D02*
X123233578Y-63476780D01*
X123233578Y-63476780D02*
X123138340Y-63095828D01*
X123138340Y-63095828D02*
X123043102Y-62905352D01*
X123043102Y-62905352D02*
X122852626Y-62714876D01*
X122852626Y-62714876D02*
X122566911Y-62619638D01*
X122566911Y-62619638D02*
X122376435Y-62619638D01*
X122376435Y-62619638D02*
X122090721Y-62714876D01*
X122090721Y-62714876D02*
X121995483Y-62810114D01*
X121138340Y-64619638D02*
X121138340Y-63286304D01*
X121138340Y-63667257D02*
X121043102Y-63476780D01*
X121043102Y-63476780D02*
X120947864Y-63381542D01*
X120947864Y-63381542D02*
X120757388Y-63286304D01*
X120757388Y-63286304D02*
X120566911Y-63286304D01*
X119043102Y-64619638D02*
X119043102Y-63572019D01*
X119043102Y-63572019D02*
X119138340Y-63381542D01*
X119138340Y-63381542D02*
X119328816Y-63286304D01*
X119328816Y-63286304D02*
X119709769Y-63286304D01*
X119709769Y-63286304D02*
X119900245Y-63381542D01*
X119043102Y-64524400D02*
X119233578Y-64619638D01*
X119233578Y-64619638D02*
X119709769Y-64619638D01*
X119709769Y-64619638D02*
X119900245Y-64524400D01*
X119900245Y-64524400D02*
X119995483Y-64333923D01*
X119995483Y-64333923D02*
X119995483Y-64143447D01*
X119995483Y-64143447D02*
X119900245Y-63952971D01*
X119900245Y-63952971D02*
X119709769Y-63857733D01*
X119709769Y-63857733D02*
X119233578Y-63857733D01*
X119233578Y-63857733D02*
X119043102Y-63762495D01*
X118281197Y-63286304D02*
X117805007Y-64619638D01*
X117805007Y-64619638D02*
X117328816Y-63286304D01*
X115805006Y-64524400D02*
X115995482Y-64619638D01*
X115995482Y-64619638D02*
X116376435Y-64619638D01*
X116376435Y-64619638D02*
X116566911Y-64524400D01*
X116566911Y-64524400D02*
X116662149Y-64333923D01*
X116662149Y-64333923D02*
X116662149Y-63572019D01*
X116662149Y-63572019D02*
X116566911Y-63381542D01*
X116566911Y-63381542D02*
X116376435Y-63286304D01*
X116376435Y-63286304D02*
X115995482Y-63286304D01*
X115995482Y-63286304D02*
X115805006Y-63381542D01*
X115805006Y-63381542D02*
X115709768Y-63572019D01*
X115709768Y-63572019D02*
X115709768Y-63762495D01*
X115709768Y-63762495D02*
X116662149Y-63952971D01*
X114852625Y-64619638D02*
X114852625Y-63286304D01*
X114852625Y-62619638D02*
X114947863Y-62714876D01*
X114947863Y-62714876D02*
X114852625Y-62810114D01*
X114852625Y-62810114D02*
X114757387Y-62714876D01*
X114757387Y-62714876D02*
X114852625Y-62619638D01*
X114852625Y-62619638D02*
X114852625Y-62810114D01*
X113900244Y-64619638D02*
X113900244Y-63286304D01*
X113900244Y-63667257D02*
X113805006Y-63476780D01*
X113805006Y-63476780D02*
X113709768Y-63381542D01*
X113709768Y-63381542D02*
X113519292Y-63286304D01*
X113519292Y-63286304D02*
X113328815Y-63286304D01*
X112376435Y-64619638D02*
X112566911Y-64524400D01*
X112566911Y-64524400D02*
X112662149Y-64429161D01*
X112662149Y-64429161D02*
X112757387Y-64238685D01*
X112757387Y-64238685D02*
X112757387Y-63667257D01*
X112757387Y-63667257D02*
X112662149Y-63476780D01*
X112662149Y-63476780D02*
X112566911Y-63381542D01*
X112566911Y-63381542D02*
X112376435Y-63286304D01*
X112376435Y-63286304D02*
X112090720Y-63286304D01*
X112090720Y-63286304D02*
X111900244Y-63381542D01*
X111900244Y-63381542D02*
X111805006Y-63476780D01*
X111805006Y-63476780D02*
X111709768Y-63667257D01*
X111709768Y-63667257D02*
X111709768Y-64238685D01*
X111709768Y-64238685D02*
X111805006Y-64429161D01*
X111805006Y-64429161D02*
X111900244Y-64524400D01*
X111900244Y-64524400D02*
X112090720Y-64619638D01*
X112090720Y-64619638D02*
X112376435Y-64619638D01*
X109328815Y-63857733D02*
X107805006Y-63857733D01*
X105424053Y-62810114D02*
X105328815Y-62714876D01*
X105328815Y-62714876D02*
X105138339Y-62619638D01*
X105138339Y-62619638D02*
X104662148Y-62619638D01*
X104662148Y-62619638D02*
X104471672Y-62714876D01*
X104471672Y-62714876D02*
X104376434Y-62810114D01*
X104376434Y-62810114D02*
X104281196Y-63000590D01*
X104281196Y-63000590D02*
X104281196Y-63191066D01*
X104281196Y-63191066D02*
X104376434Y-63476780D01*
X104376434Y-63476780D02*
X105519291Y-64619638D01*
X105519291Y-64619638D02*
X104281196Y-64619638D01*
X103043101Y-62619638D02*
X102852624Y-62619638D01*
X102852624Y-62619638D02*
X102662148Y-62714876D01*
X102662148Y-62714876D02*
X102566910Y-62810114D01*
X102566910Y-62810114D02*
X102471672Y-63000590D01*
X102471672Y-63000590D02*
X102376434Y-63381542D01*
X102376434Y-63381542D02*
X102376434Y-63857733D01*
X102376434Y-63857733D02*
X102471672Y-64238685D01*
X102471672Y-64238685D02*
X102566910Y-64429161D01*
X102566910Y-64429161D02*
X102662148Y-64524400D01*
X102662148Y-64524400D02*
X102852624Y-64619638D01*
X102852624Y-64619638D02*
X103043101Y-64619638D01*
X103043101Y-64619638D02*
X103233577Y-64524400D01*
X103233577Y-64524400D02*
X103328815Y-64429161D01*
X103328815Y-64429161D02*
X103424053Y-64238685D01*
X103424053Y-64238685D02*
X103519291Y-63857733D01*
X103519291Y-63857733D02*
X103519291Y-63381542D01*
X103519291Y-63381542D02*
X103424053Y-63000590D01*
X103424053Y-63000590D02*
X103328815Y-62810114D01*
X103328815Y-62810114D02*
X103233577Y-62714876D01*
X103233577Y-62714876D02*
X103043101Y-62619638D01*
X101614529Y-62810114D02*
X101519291Y-62714876D01*
X101519291Y-62714876D02*
X101328815Y-62619638D01*
X101328815Y-62619638D02*
X100852624Y-62619638D01*
X100852624Y-62619638D02*
X100662148Y-62714876D01*
X100662148Y-62714876D02*
X100566910Y-62810114D01*
X100566910Y-62810114D02*
X100471672Y-63000590D01*
X100471672Y-63000590D02*
X100471672Y-63191066D01*
X100471672Y-63191066D02*
X100566910Y-63476780D01*
X100566910Y-63476780D02*
X101709767Y-64619638D01*
X101709767Y-64619638D02*
X100471672Y-64619638D01*
X98757386Y-63286304D02*
X98757386Y-64619638D01*
X99233577Y-62524400D02*
X99709767Y-63952971D01*
X99709767Y-63952971D02*
X98471672Y-63952971D01*
X97900243Y-65381542D02*
X97805005Y-65286304D01*
X97805005Y-65286304D02*
X97614529Y-65000590D01*
X97614529Y-65000590D02*
X97519291Y-64810114D01*
X97519291Y-64810114D02*
X97424053Y-64524400D01*
X97424053Y-64524400D02*
X97328815Y-64048209D01*
X97328815Y-64048209D02*
X97328815Y-63667257D01*
X97328815Y-63667257D02*
X97424053Y-63191066D01*
X97424053Y-63191066D02*
X97519291Y-62905352D01*
X97519291Y-62905352D02*
X97614529Y-62714876D01*
X97614529Y-62714876D02*
X97805005Y-62429161D01*
X97805005Y-62429161D02*
X97900243Y-62333923D01*
X175328822Y-65934876D02*
X175519298Y-65839638D01*
X175519298Y-65839638D02*
X175805012Y-65839638D01*
X175805012Y-65839638D02*
X176090727Y-65934876D01*
X176090727Y-65934876D02*
X176281203Y-66125352D01*
X176281203Y-66125352D02*
X176376441Y-66315828D01*
X176376441Y-66315828D02*
X176471679Y-66696780D01*
X176471679Y-66696780D02*
X176471679Y-66982495D01*
X176471679Y-66982495D02*
X176376441Y-67363447D01*
X176376441Y-67363447D02*
X176281203Y-67553923D01*
X176281203Y-67553923D02*
X176090727Y-67744400D01*
X176090727Y-67744400D02*
X175805012Y-67839638D01*
X175805012Y-67839638D02*
X175614536Y-67839638D01*
X175614536Y-67839638D02*
X175328822Y-67744400D01*
X175328822Y-67744400D02*
X175233584Y-67649161D01*
X175233584Y-67649161D02*
X175233584Y-66982495D01*
X175233584Y-66982495D02*
X175614536Y-66982495D01*
X174376441Y-67839638D02*
X174376441Y-66506304D01*
X174376441Y-65839638D02*
X174471679Y-65934876D01*
X174471679Y-65934876D02*
X174376441Y-66030114D01*
X174376441Y-66030114D02*
X174281203Y-65934876D01*
X174281203Y-65934876D02*
X174376441Y-65839638D01*
X174376441Y-65839638D02*
X174376441Y-66030114D01*
X173709774Y-66506304D02*
X172947870Y-66506304D01*
X173424060Y-65839638D02*
X173424060Y-67553923D01*
X173424060Y-67553923D02*
X173328822Y-67744400D01*
X173328822Y-67744400D02*
X173138346Y-67839638D01*
X173138346Y-67839638D02*
X172947870Y-67839638D01*
X172281203Y-67839638D02*
X172281203Y-65839638D01*
X172281203Y-66792019D02*
X171138346Y-66792019D01*
X171138346Y-67839638D02*
X171138346Y-65839638D01*
X169328822Y-66506304D02*
X169328822Y-67839638D01*
X170185965Y-66506304D02*
X170185965Y-67553923D01*
X170185965Y-67553923D02*
X170090727Y-67744400D01*
X170090727Y-67744400D02*
X169900251Y-67839638D01*
X169900251Y-67839638D02*
X169614536Y-67839638D01*
X169614536Y-67839638D02*
X169424060Y-67744400D01*
X169424060Y-67744400D02*
X169328822Y-67649161D01*
X168376441Y-67839638D02*
X168376441Y-65839638D01*
X168376441Y-66601542D02*
X168185965Y-66506304D01*
X168185965Y-66506304D02*
X167805012Y-66506304D01*
X167805012Y-66506304D02*
X167614536Y-66601542D01*
X167614536Y-66601542D02*
X167519298Y-66696780D01*
X167519298Y-66696780D02*
X167424060Y-66887257D01*
X167424060Y-66887257D02*
X167424060Y-67458685D01*
X167424060Y-67458685D02*
X167519298Y-67649161D01*
X167519298Y-67649161D02*
X167614536Y-67744400D01*
X167614536Y-67744400D02*
X167805012Y-67839638D01*
X167805012Y-67839638D02*
X168185965Y-67839638D01*
X168185965Y-67839638D02*
X168376441Y-67744400D01*
X166566917Y-67649161D02*
X166471679Y-67744400D01*
X166471679Y-67744400D02*
X166566917Y-67839638D01*
X166566917Y-67839638D02*
X166662155Y-67744400D01*
X166662155Y-67744400D02*
X166566917Y-67649161D01*
X166566917Y-67649161D02*
X166566917Y-67839638D01*
X166566917Y-66601542D02*
X166471679Y-66696780D01*
X166471679Y-66696780D02*
X166566917Y-66792019D01*
X166566917Y-66792019D02*
X166662155Y-66696780D01*
X166662155Y-66696780D02*
X166566917Y-66601542D01*
X166566917Y-66601542D02*
X166566917Y-66792019D01*
X164090726Y-67839638D02*
X164090726Y-65839638D01*
X163233583Y-67839638D02*
X163233583Y-66792019D01*
X163233583Y-66792019D02*
X163328821Y-66601542D01*
X163328821Y-66601542D02*
X163519297Y-66506304D01*
X163519297Y-66506304D02*
X163805012Y-66506304D01*
X163805012Y-66506304D02*
X163995488Y-66601542D01*
X163995488Y-66601542D02*
X164090726Y-66696780D01*
X162566916Y-66506304D02*
X161805012Y-66506304D01*
X162281202Y-65839638D02*
X162281202Y-67553923D01*
X162281202Y-67553923D02*
X162185964Y-67744400D01*
X162185964Y-67744400D02*
X161995488Y-67839638D01*
X161995488Y-67839638D02*
X161805012Y-67839638D01*
X161424059Y-66506304D02*
X160662155Y-66506304D01*
X161138345Y-65839638D02*
X161138345Y-67553923D01*
X161138345Y-67553923D02*
X161043107Y-67744400D01*
X161043107Y-67744400D02*
X160852631Y-67839638D01*
X160852631Y-67839638D02*
X160662155Y-67839638D01*
X159995488Y-66506304D02*
X159995488Y-68506304D01*
X159995488Y-66601542D02*
X159805012Y-66506304D01*
X159805012Y-66506304D02*
X159424059Y-66506304D01*
X159424059Y-66506304D02*
X159233583Y-66601542D01*
X159233583Y-66601542D02*
X159138345Y-66696780D01*
X159138345Y-66696780D02*
X159043107Y-66887257D01*
X159043107Y-66887257D02*
X159043107Y-67458685D01*
X159043107Y-67458685D02*
X159138345Y-67649161D01*
X159138345Y-67649161D02*
X159233583Y-67744400D01*
X159233583Y-67744400D02*
X159424059Y-67839638D01*
X159424059Y-67839638D02*
X159805012Y-67839638D01*
X159805012Y-67839638D02*
X159995488Y-67744400D01*
X158281202Y-67744400D02*
X158090726Y-67839638D01*
X158090726Y-67839638D02*
X157709774Y-67839638D01*
X157709774Y-67839638D02*
X157519297Y-67744400D01*
X157519297Y-67744400D02*
X157424059Y-67553923D01*
X157424059Y-67553923D02*
X157424059Y-67458685D01*
X157424059Y-67458685D02*
X157519297Y-67268209D01*
X157519297Y-67268209D02*
X157709774Y-67172971D01*
X157709774Y-67172971D02*
X157995488Y-67172971D01*
X157995488Y-67172971D02*
X158185964Y-67077733D01*
X158185964Y-67077733D02*
X158281202Y-66887257D01*
X158281202Y-66887257D02*
X158281202Y-66792019D01*
X158281202Y-66792019D02*
X158185964Y-66601542D01*
X158185964Y-66601542D02*
X157995488Y-66506304D01*
X157995488Y-66506304D02*
X157709774Y-66506304D01*
X157709774Y-66506304D02*
X157519297Y-66601542D01*
X156566916Y-67649161D02*
X156471678Y-67744400D01*
X156471678Y-67744400D02*
X156566916Y-67839638D01*
X156566916Y-67839638D02*
X156662154Y-67744400D01*
X156662154Y-67744400D02*
X156566916Y-67649161D01*
X156566916Y-67649161D02*
X156566916Y-67839638D01*
X156566916Y-66601542D02*
X156471678Y-66696780D01*
X156471678Y-66696780D02*
X156566916Y-66792019D01*
X156566916Y-66792019D02*
X156662154Y-66696780D01*
X156662154Y-66696780D02*
X156566916Y-66601542D01*
X156566916Y-66601542D02*
X156566916Y-66792019D01*
X154185964Y-65744400D02*
X155900249Y-68315828D01*
X152090726Y-65744400D02*
X153805011Y-68315828D01*
X150566916Y-66506304D02*
X150566916Y-68125352D01*
X150566916Y-68125352D02*
X150662154Y-68315828D01*
X150662154Y-68315828D02*
X150757392Y-68411066D01*
X150757392Y-68411066D02*
X150947869Y-68506304D01*
X150947869Y-68506304D02*
X151233583Y-68506304D01*
X151233583Y-68506304D02*
X151424059Y-68411066D01*
X150566916Y-67744400D02*
X150757392Y-67839638D01*
X150757392Y-67839638D02*
X151138345Y-67839638D01*
X151138345Y-67839638D02*
X151328821Y-67744400D01*
X151328821Y-67744400D02*
X151424059Y-67649161D01*
X151424059Y-67649161D02*
X151519297Y-67458685D01*
X151519297Y-67458685D02*
X151519297Y-66887257D01*
X151519297Y-66887257D02*
X151424059Y-66696780D01*
X151424059Y-66696780D02*
X151328821Y-66601542D01*
X151328821Y-66601542D02*
X151138345Y-66506304D01*
X151138345Y-66506304D02*
X150757392Y-66506304D01*
X150757392Y-66506304D02*
X150566916Y-66601542D01*
X149614535Y-67839638D02*
X149614535Y-66506304D01*
X149614535Y-65839638D02*
X149709773Y-65934876D01*
X149709773Y-65934876D02*
X149614535Y-66030114D01*
X149614535Y-66030114D02*
X149519297Y-65934876D01*
X149519297Y-65934876D02*
X149614535Y-65839638D01*
X149614535Y-65839638D02*
X149614535Y-66030114D01*
X148947868Y-66506304D02*
X148185964Y-66506304D01*
X148662154Y-65839638D02*
X148662154Y-67553923D01*
X148662154Y-67553923D02*
X148566916Y-67744400D01*
X148566916Y-67744400D02*
X148376440Y-67839638D01*
X148376440Y-67839638D02*
X148185964Y-67839638D01*
X147519297Y-67839638D02*
X147519297Y-65839638D01*
X146662154Y-67839638D02*
X146662154Y-66792019D01*
X146662154Y-66792019D02*
X146757392Y-66601542D01*
X146757392Y-66601542D02*
X146947868Y-66506304D01*
X146947868Y-66506304D02*
X147233583Y-66506304D01*
X147233583Y-66506304D02*
X147424059Y-66601542D01*
X147424059Y-66601542D02*
X147519297Y-66696780D01*
X144852630Y-66506304D02*
X144852630Y-67839638D01*
X145709773Y-66506304D02*
X145709773Y-67553923D01*
X145709773Y-67553923D02*
X145614535Y-67744400D01*
X145614535Y-67744400D02*
X145424059Y-67839638D01*
X145424059Y-67839638D02*
X145138344Y-67839638D01*
X145138344Y-67839638D02*
X144947868Y-67744400D01*
X144947868Y-67744400D02*
X144852630Y-67649161D01*
X143900249Y-67839638D02*
X143900249Y-65839638D01*
X143900249Y-66601542D02*
X143709773Y-66506304D01*
X143709773Y-66506304D02*
X143328820Y-66506304D01*
X143328820Y-66506304D02*
X143138344Y-66601542D01*
X143138344Y-66601542D02*
X143043106Y-66696780D01*
X143043106Y-66696780D02*
X142947868Y-66887257D01*
X142947868Y-66887257D02*
X142947868Y-67458685D01*
X142947868Y-67458685D02*
X143043106Y-67649161D01*
X143043106Y-67649161D02*
X143138344Y-67744400D01*
X143138344Y-67744400D02*
X143328820Y-67839638D01*
X143328820Y-67839638D02*
X143709773Y-67839638D01*
X143709773Y-67839638D02*
X143900249Y-67744400D01*
X142090725Y-67649161D02*
X141995487Y-67744400D01*
X141995487Y-67744400D02*
X142090725Y-67839638D01*
X142090725Y-67839638D02*
X142185963Y-67744400D01*
X142185963Y-67744400D02*
X142090725Y-67649161D01*
X142090725Y-67649161D02*
X142090725Y-67839638D01*
X140281201Y-67744400D02*
X140471677Y-67839638D01*
X140471677Y-67839638D02*
X140852630Y-67839638D01*
X140852630Y-67839638D02*
X141043106Y-67744400D01*
X141043106Y-67744400D02*
X141138344Y-67649161D01*
X141138344Y-67649161D02*
X141233582Y-67458685D01*
X141233582Y-67458685D02*
X141233582Y-66887257D01*
X141233582Y-66887257D02*
X141138344Y-66696780D01*
X141138344Y-66696780D02*
X141043106Y-66601542D01*
X141043106Y-66601542D02*
X140852630Y-66506304D01*
X140852630Y-66506304D02*
X140471677Y-66506304D01*
X140471677Y-66506304D02*
X140281201Y-66601542D01*
X139138344Y-67839638D02*
X139328820Y-67744400D01*
X139328820Y-67744400D02*
X139424058Y-67649161D01*
X139424058Y-67649161D02*
X139519296Y-67458685D01*
X139519296Y-67458685D02*
X139519296Y-66887257D01*
X139519296Y-66887257D02*
X139424058Y-66696780D01*
X139424058Y-66696780D02*
X139328820Y-66601542D01*
X139328820Y-66601542D02*
X139138344Y-66506304D01*
X139138344Y-66506304D02*
X138852629Y-66506304D01*
X138852629Y-66506304D02*
X138662153Y-66601542D01*
X138662153Y-66601542D02*
X138566915Y-66696780D01*
X138566915Y-66696780D02*
X138471677Y-66887257D01*
X138471677Y-66887257D02*
X138471677Y-67458685D01*
X138471677Y-67458685D02*
X138566915Y-67649161D01*
X138566915Y-67649161D02*
X138662153Y-67744400D01*
X138662153Y-67744400D02*
X138852629Y-67839638D01*
X138852629Y-67839638D02*
X139138344Y-67839638D01*
X137614534Y-67839638D02*
X137614534Y-66506304D01*
X137614534Y-66696780D02*
X137519296Y-66601542D01*
X137519296Y-66601542D02*
X137328820Y-66506304D01*
X137328820Y-66506304D02*
X137043105Y-66506304D01*
X137043105Y-66506304D02*
X136852629Y-66601542D01*
X136852629Y-66601542D02*
X136757391Y-66792019D01*
X136757391Y-66792019D02*
X136757391Y-67839638D01*
X136757391Y-66792019D02*
X136662153Y-66601542D01*
X136662153Y-66601542D02*
X136471677Y-66506304D01*
X136471677Y-66506304D02*
X136185963Y-66506304D01*
X136185963Y-66506304D02*
X135995486Y-66601542D01*
X135995486Y-66601542D02*
X135900248Y-66792019D01*
X135900248Y-66792019D02*
X135900248Y-67839638D01*
X133519296Y-65744400D02*
X135233581Y-68315828D01*
X131709772Y-67649161D02*
X131805010Y-67744400D01*
X131805010Y-67744400D02*
X132090724Y-67839638D01*
X132090724Y-67839638D02*
X132281200Y-67839638D01*
X132281200Y-67839638D02*
X132566915Y-67744400D01*
X132566915Y-67744400D02*
X132757391Y-67553923D01*
X132757391Y-67553923D02*
X132852629Y-67363447D01*
X132852629Y-67363447D02*
X132947867Y-66982495D01*
X132947867Y-66982495D02*
X132947867Y-66696780D01*
X132947867Y-66696780D02*
X132852629Y-66315828D01*
X132852629Y-66315828D02*
X132757391Y-66125352D01*
X132757391Y-66125352D02*
X132566915Y-65934876D01*
X132566915Y-65934876D02*
X132281200Y-65839638D01*
X132281200Y-65839638D02*
X132090724Y-65839638D01*
X132090724Y-65839638D02*
X131805010Y-65934876D01*
X131805010Y-65934876D02*
X131709772Y-66030114D01*
X129995486Y-67839638D02*
X129995486Y-66792019D01*
X129995486Y-66792019D02*
X130090724Y-66601542D01*
X130090724Y-66601542D02*
X130281200Y-66506304D01*
X130281200Y-66506304D02*
X130662153Y-66506304D01*
X130662153Y-66506304D02*
X130852629Y-66601542D01*
X129995486Y-67744400D02*
X130185962Y-67839638D01*
X130185962Y-67839638D02*
X130662153Y-67839638D01*
X130662153Y-67839638D02*
X130852629Y-67744400D01*
X130852629Y-67744400D02*
X130947867Y-67553923D01*
X130947867Y-67553923D02*
X130947867Y-67363447D01*
X130947867Y-67363447D02*
X130852629Y-67172971D01*
X130852629Y-67172971D02*
X130662153Y-67077733D01*
X130662153Y-67077733D02*
X130185962Y-67077733D01*
X130185962Y-67077733D02*
X129995486Y-66982495D01*
X129043105Y-67839638D02*
X129043105Y-66506304D01*
X129043105Y-66887257D02*
X128947867Y-66696780D01*
X128947867Y-66696780D02*
X128852629Y-66601542D01*
X128852629Y-66601542D02*
X128662153Y-66506304D01*
X128662153Y-66506304D02*
X128471676Y-66506304D01*
X127519296Y-67839638D02*
X127709772Y-67744400D01*
X127709772Y-67744400D02*
X127805010Y-67553923D01*
X127805010Y-67553923D02*
X127805010Y-65839638D01*
X126471677Y-67839638D02*
X126662153Y-67744400D01*
X126662153Y-67744400D02*
X126757391Y-67649161D01*
X126757391Y-67649161D02*
X126852629Y-67458685D01*
X126852629Y-67458685D02*
X126852629Y-66887257D01*
X126852629Y-66887257D02*
X126757391Y-66696780D01*
X126757391Y-66696780D02*
X126662153Y-66601542D01*
X126662153Y-66601542D02*
X126471677Y-66506304D01*
X126471677Y-66506304D02*
X126185962Y-66506304D01*
X126185962Y-66506304D02*
X125995486Y-66601542D01*
X125995486Y-66601542D02*
X125900248Y-66696780D01*
X125900248Y-66696780D02*
X125805010Y-66887257D01*
X125805010Y-66887257D02*
X125805010Y-67458685D01*
X125805010Y-67458685D02*
X125900248Y-67649161D01*
X125900248Y-67649161D02*
X125995486Y-67744400D01*
X125995486Y-67744400D02*
X126185962Y-67839638D01*
X126185962Y-67839638D02*
X126471677Y-67839638D01*
X125043105Y-67744400D02*
X124852629Y-67839638D01*
X124852629Y-67839638D02*
X124471677Y-67839638D01*
X124471677Y-67839638D02*
X124281200Y-67744400D01*
X124281200Y-67744400D02*
X124185962Y-67553923D01*
X124185962Y-67553923D02*
X124185962Y-67458685D01*
X124185962Y-67458685D02*
X124281200Y-67268209D01*
X124281200Y-67268209D02*
X124471677Y-67172971D01*
X124471677Y-67172971D02*
X124757391Y-67172971D01*
X124757391Y-67172971D02*
X124947867Y-67077733D01*
X124947867Y-67077733D02*
X125043105Y-66887257D01*
X125043105Y-66887257D02*
X125043105Y-66792019D01*
X125043105Y-66792019D02*
X124947867Y-66601542D01*
X124947867Y-66601542D02*
X124757391Y-66506304D01*
X124757391Y-66506304D02*
X124471677Y-66506304D01*
X124471677Y-66506304D02*
X124281200Y-66601542D01*
X122185962Y-67649161D02*
X122281200Y-67744400D01*
X122281200Y-67744400D02*
X122566914Y-67839638D01*
X122566914Y-67839638D02*
X122757390Y-67839638D01*
X122757390Y-67839638D02*
X123043105Y-67744400D01*
X123043105Y-67744400D02*
X123233581Y-67553923D01*
X123233581Y-67553923D02*
X123328819Y-67363447D01*
X123328819Y-67363447D02*
X123424057Y-66982495D01*
X123424057Y-66982495D02*
X123424057Y-66696780D01*
X123424057Y-66696780D02*
X123328819Y-66315828D01*
X123328819Y-66315828D02*
X123233581Y-66125352D01*
X123233581Y-66125352D02*
X123043105Y-65934876D01*
X123043105Y-65934876D02*
X122757390Y-65839638D01*
X122757390Y-65839638D02*
X122566914Y-65839638D01*
X122566914Y-65839638D02*
X122281200Y-65934876D01*
X122281200Y-65934876D02*
X122185962Y-66030114D01*
X121328819Y-67839638D02*
X121328819Y-66506304D01*
X121328819Y-66887257D02*
X121233581Y-66696780D01*
X121233581Y-66696780D02*
X121138343Y-66601542D01*
X121138343Y-66601542D02*
X120947867Y-66506304D01*
X120947867Y-66506304D02*
X120757390Y-66506304D01*
X119233581Y-67839638D02*
X119233581Y-66792019D01*
X119233581Y-66792019D02*
X119328819Y-66601542D01*
X119328819Y-66601542D02*
X119519295Y-66506304D01*
X119519295Y-66506304D02*
X119900248Y-66506304D01*
X119900248Y-66506304D02*
X120090724Y-66601542D01*
X119233581Y-67744400D02*
X119424057Y-67839638D01*
X119424057Y-67839638D02*
X119900248Y-67839638D01*
X119900248Y-67839638D02*
X120090724Y-67744400D01*
X120090724Y-67744400D02*
X120185962Y-67553923D01*
X120185962Y-67553923D02*
X120185962Y-67363447D01*
X120185962Y-67363447D02*
X120090724Y-67172971D01*
X120090724Y-67172971D02*
X119900248Y-67077733D01*
X119900248Y-67077733D02*
X119424057Y-67077733D01*
X119424057Y-67077733D02*
X119233581Y-66982495D01*
X118471676Y-66506304D02*
X117995486Y-67839638D01*
X117995486Y-67839638D02*
X117519295Y-66506304D01*
X115995485Y-67744400D02*
X116185961Y-67839638D01*
X116185961Y-67839638D02*
X116566914Y-67839638D01*
X116566914Y-67839638D02*
X116757390Y-67744400D01*
X116757390Y-67744400D02*
X116852628Y-67553923D01*
X116852628Y-67553923D02*
X116852628Y-66792019D01*
X116852628Y-66792019D02*
X116757390Y-66601542D01*
X116757390Y-66601542D02*
X116566914Y-66506304D01*
X116566914Y-66506304D02*
X116185961Y-66506304D01*
X116185961Y-66506304D02*
X115995485Y-66601542D01*
X115995485Y-66601542D02*
X115900247Y-66792019D01*
X115900247Y-66792019D02*
X115900247Y-66982495D01*
X115900247Y-66982495D02*
X116852628Y-67172971D01*
X115043104Y-67839638D02*
X115043104Y-66506304D01*
X115043104Y-65839638D02*
X115138342Y-65934876D01*
X115138342Y-65934876D02*
X115043104Y-66030114D01*
X115043104Y-66030114D02*
X114947866Y-65934876D01*
X114947866Y-65934876D02*
X115043104Y-65839638D01*
X115043104Y-65839638D02*
X115043104Y-66030114D01*
X114090723Y-67839638D02*
X114090723Y-66506304D01*
X114090723Y-66887257D02*
X113995485Y-66696780D01*
X113995485Y-66696780D02*
X113900247Y-66601542D01*
X113900247Y-66601542D02*
X113709771Y-66506304D01*
X113709771Y-66506304D02*
X113519294Y-66506304D01*
X112566914Y-67839638D02*
X112757390Y-67744400D01*
X112757390Y-67744400D02*
X112852628Y-67649161D01*
X112852628Y-67649161D02*
X112947866Y-67458685D01*
X112947866Y-67458685D02*
X112947866Y-66887257D01*
X112947866Y-66887257D02*
X112852628Y-66696780D01*
X112852628Y-66696780D02*
X112757390Y-66601542D01*
X112757390Y-66601542D02*
X112566914Y-66506304D01*
X112566914Y-66506304D02*
X112281199Y-66506304D01*
X112281199Y-66506304D02*
X112090723Y-66601542D01*
X112090723Y-66601542D02*
X111995485Y-66696780D01*
X111995485Y-66696780D02*
X111900247Y-66887257D01*
X111900247Y-66887257D02*
X111900247Y-67458685D01*
X111900247Y-67458685D02*
X111995485Y-67649161D01*
X111995485Y-67649161D02*
X112090723Y-67744400D01*
X112090723Y-67744400D02*
X112281199Y-67839638D01*
X112281199Y-67839638D02*
X112566914Y-67839638D01*
X109614533Y-65744400D02*
X111328818Y-68315828D01*
X108185961Y-67744400D02*
X108376437Y-67839638D01*
X108376437Y-67839638D02*
X108757390Y-67839638D01*
X108757390Y-67839638D02*
X108947866Y-67744400D01*
X108947866Y-67744400D02*
X109043104Y-67553923D01*
X109043104Y-67553923D02*
X109043104Y-66792019D01*
X109043104Y-66792019D02*
X108947866Y-66601542D01*
X108947866Y-66601542D02*
X108757390Y-66506304D01*
X108757390Y-66506304D02*
X108376437Y-66506304D01*
X108376437Y-66506304D02*
X108185961Y-66601542D01*
X108185961Y-66601542D02*
X108090723Y-66792019D01*
X108090723Y-66792019D02*
X108090723Y-66982495D01*
X108090723Y-66982495D02*
X109043104Y-67172971D01*
X107233580Y-67839638D02*
X107233580Y-66506304D01*
X107233580Y-65839638D02*
X107328818Y-65934876D01*
X107328818Y-65934876D02*
X107233580Y-66030114D01*
X107233580Y-66030114D02*
X107138342Y-65934876D01*
X107138342Y-65934876D02*
X107233580Y-65839638D01*
X107233580Y-65839638D02*
X107233580Y-66030114D01*
X106281199Y-66506304D02*
X106281199Y-67839638D01*
X106281199Y-66696780D02*
X106185961Y-66601542D01*
X106185961Y-66601542D02*
X105995485Y-66506304D01*
X105995485Y-66506304D02*
X105709770Y-66506304D01*
X105709770Y-66506304D02*
X105519294Y-66601542D01*
X105519294Y-66601542D02*
X105424056Y-66792019D01*
X105424056Y-66792019D02*
X105424056Y-67839638D01*
X104566913Y-67744400D02*
X104376437Y-67839638D01*
X104376437Y-67839638D02*
X103995485Y-67839638D01*
X103995485Y-67839638D02*
X103805008Y-67744400D01*
X103805008Y-67744400D02*
X103709770Y-67553923D01*
X103709770Y-67553923D02*
X103709770Y-67458685D01*
X103709770Y-67458685D02*
X103805008Y-67268209D01*
X103805008Y-67268209D02*
X103995485Y-67172971D01*
X103995485Y-67172971D02*
X104281199Y-67172971D01*
X104281199Y-67172971D02*
X104471675Y-67077733D01*
X104471675Y-67077733D02*
X104566913Y-66887257D01*
X104566913Y-66887257D02*
X104566913Y-66792019D01*
X104566913Y-66792019D02*
X104471675Y-66601542D01*
X104471675Y-66601542D02*
X104281199Y-66506304D01*
X104281199Y-66506304D02*
X103995485Y-66506304D01*
X103995485Y-66506304D02*
X103805008Y-66601542D01*
X103138341Y-66506304D02*
X102376437Y-66506304D01*
X102852627Y-65839638D02*
X102852627Y-67553923D01*
X102852627Y-67553923D02*
X102757389Y-67744400D01*
X102757389Y-67744400D02*
X102566913Y-67839638D01*
X102566913Y-67839638D02*
X102376437Y-67839638D01*
X100947865Y-67744400D02*
X101138341Y-67839638D01*
X101138341Y-67839638D02*
X101519294Y-67839638D01*
X101519294Y-67839638D02*
X101709770Y-67744400D01*
X101709770Y-67744400D02*
X101805008Y-67553923D01*
X101805008Y-67553923D02*
X101805008Y-66792019D01*
X101805008Y-66792019D02*
X101709770Y-66601542D01*
X101709770Y-66601542D02*
X101519294Y-66506304D01*
X101519294Y-66506304D02*
X101138341Y-66506304D01*
X101138341Y-66506304D02*
X100947865Y-66601542D01*
X100947865Y-66601542D02*
X100852627Y-66792019D01*
X100852627Y-66792019D02*
X100852627Y-66982495D01*
X100852627Y-66982495D02*
X101805008Y-67172971D01*
X99995484Y-67839638D02*
X99995484Y-66506304D01*
X99995484Y-65839638D02*
X100090722Y-65934876D01*
X100090722Y-65934876D02*
X99995484Y-66030114D01*
X99995484Y-66030114D02*
X99900246Y-65934876D01*
X99900246Y-65934876D02*
X99995484Y-65839638D01*
X99995484Y-65839638D02*
X99995484Y-66030114D01*
X99043103Y-66506304D02*
X99043103Y-67839638D01*
X99043103Y-66696780D02*
X98947865Y-66601542D01*
X98947865Y-66601542D02*
X98757389Y-66506304D01*
X98757389Y-66506304D02*
X98471674Y-66506304D01*
X98471674Y-66506304D02*
X98281198Y-66601542D01*
X98281198Y-66601542D02*
X98185960Y-66792019D01*
X98185960Y-66792019D02*
X98185960Y-67839638D01*
X97233579Y-67077733D02*
X95709770Y-67077733D01*
X94757389Y-67839638D02*
X94757389Y-65839638D01*
X94757389Y-66601542D02*
X94566913Y-66506304D01*
X94566913Y-66506304D02*
X94185960Y-66506304D01*
X94185960Y-66506304D02*
X93995484Y-66601542D01*
X93995484Y-66601542D02*
X93900246Y-66696780D01*
X93900246Y-66696780D02*
X93805008Y-66887257D01*
X93805008Y-66887257D02*
X93805008Y-67458685D01*
X93805008Y-67458685D02*
X93900246Y-67649161D01*
X93900246Y-67649161D02*
X93995484Y-67744400D01*
X93995484Y-67744400D02*
X94185960Y-67839638D01*
X94185960Y-67839638D02*
X94566913Y-67839638D01*
X94566913Y-67839638D02*
X94757389Y-67744400D01*
X92662151Y-67839638D02*
X92852627Y-67744400D01*
X92852627Y-67744400D02*
X92947865Y-67649161D01*
X92947865Y-67649161D02*
X93043103Y-67458685D01*
X93043103Y-67458685D02*
X93043103Y-66887257D01*
X93043103Y-66887257D02*
X92947865Y-66696780D01*
X92947865Y-66696780D02*
X92852627Y-66601542D01*
X92852627Y-66601542D02*
X92662151Y-66506304D01*
X92662151Y-66506304D02*
X92376436Y-66506304D01*
X92376436Y-66506304D02*
X92185960Y-66601542D01*
X92185960Y-66601542D02*
X92090722Y-66696780D01*
X92090722Y-66696780D02*
X91995484Y-66887257D01*
X91995484Y-66887257D02*
X91995484Y-67458685D01*
X91995484Y-67458685D02*
X92090722Y-67649161D01*
X92090722Y-67649161D02*
X92185960Y-67744400D01*
X92185960Y-67744400D02*
X92376436Y-67839638D01*
X92376436Y-67839638D02*
X92662151Y-67839638D01*
X90852627Y-67839638D02*
X91043103Y-67744400D01*
X91043103Y-67744400D02*
X91138341Y-67553923D01*
X91138341Y-67553923D02*
X91138341Y-65839638D01*
X90376436Y-66506304D02*
X89614532Y-66506304D01*
X90090722Y-65839638D02*
X90090722Y-67553923D01*
X90090722Y-67553923D02*
X89995484Y-67744400D01*
X89995484Y-67744400D02*
X89805008Y-67839638D01*
X89805008Y-67839638D02*
X89614532Y-67839638D01*
X89138341Y-66506304D02*
X88090722Y-66506304D01*
X88090722Y-66506304D02*
X89138341Y-67839638D01*
X89138341Y-67839638D02*
X88090722Y-67839638D01*
X87328817Y-67839638D02*
X87328817Y-66506304D01*
X87328817Y-66696780D02*
X87233579Y-66601542D01*
X87233579Y-66601542D02*
X87043103Y-66506304D01*
X87043103Y-66506304D02*
X86757388Y-66506304D01*
X86757388Y-66506304D02*
X86566912Y-66601542D01*
X86566912Y-66601542D02*
X86471674Y-66792019D01*
X86471674Y-66792019D02*
X86471674Y-67839638D01*
X86471674Y-66792019D02*
X86376436Y-66601542D01*
X86376436Y-66601542D02*
X86185960Y-66506304D01*
X86185960Y-66506304D02*
X85900246Y-66506304D01*
X85900246Y-66506304D02*
X85709769Y-66601542D01*
X85709769Y-66601542D02*
X85614531Y-66792019D01*
X85614531Y-66792019D02*
X85614531Y-67839638D01*
X83805007Y-67839638D02*
X83805007Y-66792019D01*
X83805007Y-66792019D02*
X83900245Y-66601542D01*
X83900245Y-66601542D02*
X84090721Y-66506304D01*
X84090721Y-66506304D02*
X84471674Y-66506304D01*
X84471674Y-66506304D02*
X84662150Y-66601542D01*
X83805007Y-67744400D02*
X83995483Y-67839638D01*
X83995483Y-67839638D02*
X84471674Y-67839638D01*
X84471674Y-67839638D02*
X84662150Y-67744400D01*
X84662150Y-67744400D02*
X84757388Y-67553923D01*
X84757388Y-67553923D02*
X84757388Y-67363447D01*
X84757388Y-67363447D02*
X84662150Y-67172971D01*
X84662150Y-67172971D02*
X84471674Y-67077733D01*
X84471674Y-67077733D02*
X83995483Y-67077733D01*
X83995483Y-67077733D02*
X83805007Y-66982495D01*
X82852626Y-66506304D02*
X82852626Y-67839638D01*
X82852626Y-66696780D02*
X82757388Y-66601542D01*
X82757388Y-66601542D02*
X82566912Y-66506304D01*
X82566912Y-66506304D02*
X82281197Y-66506304D01*
X82281197Y-66506304D02*
X82090721Y-66601542D01*
X82090721Y-66601542D02*
X81995483Y-66792019D01*
X81995483Y-66792019D02*
X81995483Y-67839638D01*
X81043102Y-66506304D02*
X81043102Y-67839638D01*
X81043102Y-66696780D02*
X80947864Y-66601542D01*
X80947864Y-66601542D02*
X80757388Y-66506304D01*
X80757388Y-66506304D02*
X80471673Y-66506304D01*
X80471673Y-66506304D02*
X80281197Y-66601542D01*
X80281197Y-66601542D02*
X80185959Y-66792019D01*
X80185959Y-66792019D02*
X80185959Y-67839638D01*
%TO.C,G\u002A\u002A\u002A*%
G36*
X105973410Y-142295172D02*
G01*
X106242651Y-142379511D01*
X106309981Y-142415778D01*
X106451099Y-142505556D01*
X106528780Y-142575575D01*
X106531783Y-142580104D01*
X106572672Y-142585395D01*
X106606304Y-142474225D01*
X106609533Y-142456223D01*
X106633938Y-142366724D01*
X106684963Y-142319912D01*
X106792661Y-142301964D01*
X106987082Y-142299053D01*
X107336853Y-142299053D01*
X107352320Y-144036179D01*
X107367786Y-145773306D01*
X106987377Y-145773306D01*
X106606968Y-145773306D01*
X106606968Y-144577216D01*
X106606968Y-143381125D01*
X106446394Y-143203004D01*
X106407337Y-143163029D01*
X106183261Y-143022574D01*
X105930098Y-142981578D01*
X105678783Y-143046355D01*
X105499503Y-143135791D01*
X105239960Y-142834540D01*
X104980417Y-142533290D01*
X105160555Y-142419235D01*
X105365557Y-142329250D01*
X105664800Y-142279014D01*
X105973410Y-142295172D01*
G37*
G36*
X121894670Y-147770394D02*
G01*
X122226508Y-147787789D01*
X122241975Y-149524915D01*
X122257442Y-151262041D01*
X121906228Y-151262041D01*
X121555014Y-151262041D01*
X121554689Y-150196409D01*
X121552169Y-149892002D01*
X121543609Y-149554120D01*
X121530085Y-149261796D01*
X121512739Y-149038768D01*
X121492715Y-148908774D01*
X121443087Y-148785124D01*
X121285838Y-148599518D01*
X121069508Y-148490545D01*
X120820875Y-148468736D01*
X120566716Y-148544622D01*
X120529225Y-148563656D01*
X120448216Y-148591935D01*
X120377901Y-148573290D01*
X120289830Y-148493429D01*
X120155553Y-148338058D01*
X120080651Y-148245997D01*
X119979294Y-148086775D01*
X119971678Y-147974912D01*
X120061495Y-147890412D01*
X120252435Y-147813283D01*
X120418299Y-147774981D01*
X120735320Y-147767559D01*
X121047503Y-147829462D01*
X121306109Y-147954175D01*
X121525819Y-148111076D01*
X121544325Y-147932037D01*
X121546035Y-147915595D01*
X121562560Y-147821974D01*
X121606308Y-147775732D01*
X121707078Y-147763122D01*
X121894670Y-147770394D01*
G37*
G36*
X106639146Y-147761507D02*
G01*
X106868165Y-147796993D01*
X107097518Y-147867992D01*
X107288249Y-147960138D01*
X107401400Y-148059065D01*
X107412754Y-148074741D01*
X107451052Y-148073421D01*
X107482166Y-147962961D01*
X107485395Y-147944959D01*
X107509800Y-147855460D01*
X107560825Y-147808648D01*
X107668523Y-147790699D01*
X107862944Y-147787789D01*
X108212715Y-147787789D01*
X108228182Y-149524915D01*
X108243649Y-151262041D01*
X107866517Y-151262041D01*
X107489385Y-151262041D01*
X107471510Y-150037034D01*
X107453635Y-148812027D01*
X107301970Y-148660489D01*
X107175840Y-148566115D01*
X106953176Y-148483519D01*
X106722587Y-148470953D01*
X106528418Y-148535579D01*
X106484230Y-148563432D01*
X106405039Y-148590953D01*
X106329900Y-148554190D01*
X106218827Y-148440918D01*
X106072687Y-148281280D01*
X105948652Y-148138367D01*
X105892014Y-148047151D01*
X105897492Y-147987197D01*
X105959804Y-147938073D01*
X106073668Y-147879345D01*
X106296422Y-147798042D01*
X106590044Y-147759876D01*
X106639146Y-147761507D01*
G37*
G36*
X122007543Y-142281541D02*
G01*
X122343290Y-142299053D01*
X122358757Y-144036179D01*
X122374223Y-145773306D01*
X122023010Y-145773306D01*
X121671796Y-145773306D01*
X121671796Y-144658107D01*
X121670272Y-144263201D01*
X121664612Y-143950529D01*
X121653493Y-143719480D01*
X121635591Y-143552160D01*
X121609583Y-143430675D01*
X121574148Y-143337131D01*
X121558224Y-143305926D01*
X121396544Y-143117841D01*
X121179485Y-143009878D01*
X120936381Y-142985666D01*
X120696568Y-143048833D01*
X120489382Y-143203004D01*
X120328807Y-143381125D01*
X120328807Y-144577216D01*
X120328807Y-145773306D01*
X119949267Y-145773306D01*
X119569727Y-145773306D01*
X119571120Y-144590892D01*
X119571426Y-144451539D01*
X119575466Y-144009713D01*
X119585749Y-143663222D01*
X119604455Y-143395257D01*
X119633766Y-143189013D01*
X119675864Y-143027679D01*
X119732932Y-142894449D01*
X119807149Y-142772515D01*
X120005723Y-142553020D01*
X120287890Y-142375981D01*
X120604376Y-142282184D01*
X120930372Y-142275088D01*
X121241070Y-142358152D01*
X121511663Y-142534836D01*
X121671796Y-142683319D01*
X121671796Y-142473674D01*
X121671796Y-142264030D01*
X122007543Y-142281541D01*
G37*
G36*
X110868215Y-143595334D02*
G01*
X110868144Y-143656213D01*
X110866506Y-144081476D01*
X110862130Y-144408890D01*
X110853832Y-144655276D01*
X110840431Y-144837457D01*
X110820744Y-144972254D01*
X110793591Y-145076488D01*
X110757789Y-145166981D01*
X110748223Y-145187225D01*
X110576666Y-145431835D01*
X110336071Y-145640984D01*
X110070420Y-145775722D01*
X109901378Y-145809163D01*
X109603170Y-145805512D01*
X109302365Y-145743231D01*
X109053044Y-145630065D01*
X108825819Y-145479695D01*
X108825819Y-145626500D01*
X108825582Y-145651581D01*
X108813435Y-145720095D01*
X108763597Y-145756438D01*
X108649708Y-145770784D01*
X108445410Y-145773306D01*
X108065001Y-145773306D01*
X108080467Y-144036179D01*
X108095934Y-142299053D01*
X108446279Y-142299053D01*
X108796623Y-142299053D01*
X108825819Y-143496064D01*
X108836967Y-143877585D01*
X108854155Y-144261024D01*
X108875410Y-144542117D01*
X108901378Y-144728896D01*
X108932703Y-144829399D01*
X109016515Y-144931376D01*
X109209893Y-145046211D01*
X109444113Y-145099813D01*
X109679618Y-145085224D01*
X109876853Y-144995486D01*
X109945988Y-144938467D01*
X110014829Y-144865721D01*
X110065874Y-144776740D01*
X110102400Y-144654769D01*
X110127681Y-144483051D01*
X110144992Y-144244832D01*
X110157610Y-143923357D01*
X110168807Y-143501870D01*
X110198003Y-142299053D01*
X110533750Y-142281541D01*
X110869497Y-142264030D01*
X110868215Y-143595334D01*
G37*
G36*
X103955785Y-142321564D02*
G01*
X104073679Y-142359239D01*
X104412092Y-142542772D01*
X104688425Y-142812387D01*
X104895843Y-143154437D01*
X105027509Y-143555275D01*
X105076590Y-144001254D01*
X105036249Y-144478726D01*
X105020658Y-144558852D01*
X104887424Y-144972528D01*
X104675914Y-145303280D01*
X104378176Y-145560771D01*
X103986256Y-145754666D01*
X103948977Y-145767189D01*
X103695688Y-145808769D01*
X103396558Y-145807086D01*
X103103223Y-145765284D01*
X102867318Y-145686510D01*
X102847775Y-145676495D01*
X102637898Y-145554486D01*
X102458774Y-145426478D01*
X102334954Y-145311910D01*
X102290991Y-145230219D01*
X102306291Y-145194526D01*
X102389247Y-145092257D01*
X102519160Y-144968531D01*
X102742387Y-144776860D01*
X102954088Y-144920525D01*
X103185081Y-145048948D01*
X103451298Y-145110787D01*
X103733116Y-145076037D01*
X103739432Y-145074310D01*
X104004952Y-144948509D01*
X104203858Y-144748192D01*
X104312735Y-144496762D01*
X104346585Y-144223339D01*
X104343612Y-143909732D01*
X104303255Y-143619196D01*
X104228930Y-143396553D01*
X104155970Y-143282252D01*
X103948782Y-143097597D01*
X103692197Y-142995666D01*
X103411881Y-142979829D01*
X103133500Y-143053452D01*
X102882719Y-143219903D01*
X102749503Y-143344698D01*
X102506499Y-143101693D01*
X102473687Y-143068856D01*
X102354895Y-142944504D01*
X102306152Y-142867000D01*
X102316976Y-142806559D01*
X102376884Y-142733394D01*
X102532091Y-142593439D01*
X102845314Y-142417088D01*
X103209081Y-142307234D01*
X103590277Y-142272513D01*
X103955785Y-142321564D01*
G37*
G36*
X125815472Y-144108648D02*
G01*
X125784430Y-144516998D01*
X125697919Y-144868248D01*
X125652568Y-144977960D01*
X125443426Y-145317285D01*
X125166902Y-145577356D01*
X124838630Y-145742272D01*
X124797595Y-145754819D01*
X124377733Y-145818979D01*
X123948263Y-145778937D01*
X123535848Y-145640031D01*
X123167154Y-145407602D01*
X122998375Y-145269053D01*
X123267342Y-145048655D01*
X123536308Y-144828257D01*
X123725591Y-144963038D01*
X123818067Y-145018176D01*
X124066593Y-145102425D01*
X124338302Y-145130360D01*
X124592423Y-145100177D01*
X124788182Y-145010071D01*
X124789305Y-145009182D01*
X124930782Y-144859361D01*
X125036343Y-144685148D01*
X125086929Y-144562705D01*
X125115174Y-144467467D01*
X125105575Y-144400201D01*
X125044976Y-144356054D01*
X124920222Y-144330169D01*
X124718159Y-144317692D01*
X124425630Y-144313765D01*
X124029481Y-144313536D01*
X122942109Y-144313536D01*
X122967988Y-143802616D01*
X122973880Y-143729628D01*
X123654858Y-143729628D01*
X124393155Y-143729628D01*
X125131451Y-143729628D01*
X125094283Y-143539858D01*
X125038451Y-143361552D01*
X124875434Y-143129817D01*
X124632292Y-142978569D01*
X124499288Y-142937043D01*
X124356415Y-142932351D01*
X124174071Y-142978529D01*
X123968320Y-143082668D01*
X123799162Y-143279312D01*
X123692134Y-143569053D01*
X123654858Y-143729628D01*
X122973880Y-143729628D01*
X122991139Y-143515806D01*
X123039780Y-143254679D01*
X123116879Y-143054150D01*
X123265662Y-142819621D01*
X123532855Y-142552339D01*
X123844324Y-142372202D01*
X124182269Y-142278871D01*
X124528890Y-142272006D01*
X124866386Y-142351268D01*
X125176956Y-142516316D01*
X125442801Y-142766812D01*
X125646120Y-143102414D01*
X125716419Y-143300429D01*
X125792362Y-143688144D01*
X125794642Y-143729628D01*
X125815472Y-144108648D01*
G37*
G36*
X132525125Y-143989964D02*
G01*
X132521814Y-144400940D01*
X132484260Y-144726250D01*
X132406436Y-144988270D01*
X132282313Y-145209375D01*
X132105863Y-145411943D01*
X132032819Y-145478772D01*
X131807626Y-145641650D01*
X131592375Y-145743784D01*
X131527367Y-145762857D01*
X131108683Y-145825618D01*
X130719226Y-145778474D01*
X130367011Y-145623419D01*
X130060059Y-145362450D01*
X129916681Y-145182653D01*
X129797937Y-144965772D01*
X129722534Y-144713951D01*
X129682868Y-144400516D01*
X129673666Y-144079972D01*
X130375647Y-144079972D01*
X130377782Y-144176657D01*
X130418861Y-144532167D01*
X130513457Y-144791470D01*
X130663980Y-144961929D01*
X130751701Y-145015853D01*
X131008851Y-145095869D01*
X131272206Y-145084829D01*
X131510435Y-144987414D01*
X131692206Y-144808305D01*
X131738424Y-144702223D01*
X131786942Y-144485517D01*
X131817658Y-144217904D01*
X131828136Y-143936696D01*
X131815944Y-143679210D01*
X131778649Y-143482760D01*
X131743310Y-143389268D01*
X131597454Y-143167634D01*
X131387319Y-143040408D01*
X131101911Y-142999743D01*
X131059952Y-143000415D01*
X130797901Y-143046583D01*
X130603272Y-143170444D01*
X130471238Y-143379176D01*
X130396972Y-143679959D01*
X130375647Y-144079972D01*
X129673666Y-144079972D01*
X129671336Y-143998792D01*
X129691929Y-143596774D01*
X129775596Y-143190081D01*
X129928708Y-142864066D01*
X130156688Y-142607878D01*
X130464961Y-142410660D01*
X130576515Y-142358655D01*
X130754840Y-142296840D01*
X130938062Y-142273767D01*
X131181387Y-142279316D01*
X131370090Y-142299454D01*
X131753443Y-142414179D01*
X132070704Y-142624983D01*
X132322977Y-142932499D01*
X132341743Y-142963132D01*
X132412694Y-143091581D01*
X132459756Y-143216398D01*
X132489295Y-143367684D01*
X132507676Y-143575540D01*
X132521266Y-143870066D01*
X132523411Y-143936696D01*
X132525125Y-143989964D01*
G37*
G36*
X112642425Y-148065145D02*
G01*
X112663817Y-148140794D01*
X112722760Y-148353265D01*
X112800260Y-148635845D01*
X112888721Y-148960787D01*
X112980547Y-149300344D01*
X113230788Y-150228991D01*
X113628575Y-148993792D01*
X114026362Y-147758593D01*
X114250895Y-147758593D01*
X114287475Y-147759531D01*
X114440125Y-147784100D01*
X114529939Y-147831582D01*
X114535452Y-147841029D01*
X114577245Y-147942245D01*
X114646600Y-148132462D01*
X114737324Y-148393919D01*
X114843224Y-148708853D01*
X114958105Y-149059502D01*
X115331761Y-150214434D01*
X115660815Y-149001111D01*
X115989869Y-147787789D01*
X116349223Y-147770405D01*
X116409250Y-147767822D01*
X116590150Y-147768422D01*
X116682622Y-147790033D01*
X116708577Y-147836696D01*
X116707122Y-147847489D01*
X116680444Y-147951718D01*
X116623577Y-148148273D01*
X116540963Y-148422542D01*
X116437044Y-148759910D01*
X116316263Y-149145764D01*
X116183060Y-149565492D01*
X116141141Y-149696809D01*
X116011696Y-150103515D01*
X115895927Y-150469040D01*
X115798230Y-150779380D01*
X115723002Y-151020530D01*
X115674641Y-151178485D01*
X115657543Y-151239241D01*
X115624912Y-151249851D01*
X115504104Y-151255251D01*
X115324789Y-151250358D01*
X114992035Y-151232846D01*
X114638697Y-150043854D01*
X114285359Y-148854863D01*
X114099908Y-149459946D01*
X114063374Y-149579226D01*
X113952113Y-149943110D01*
X113835141Y-150326384D01*
X113732458Y-150663536D01*
X113550459Y-151262041D01*
X113235250Y-151262041D01*
X112920040Y-151262041D01*
X112560871Y-150138018D01*
X112447510Y-149783473D01*
X112319112Y-149382350D01*
X112196812Y-149000707D01*
X112090416Y-148669134D01*
X112009725Y-148418223D01*
X111948555Y-148221118D01*
X111888471Y-148007300D01*
X111853454Y-147855700D01*
X111849676Y-147790522D01*
X111895197Y-147776976D01*
X112030642Y-147763721D01*
X112218074Y-147758593D01*
X112554544Y-147758593D01*
X112642425Y-148065145D01*
G37*
G36*
X114333517Y-144276786D02*
G01*
X114323957Y-144517189D01*
X114299883Y-144698046D01*
X114255735Y-144854547D01*
X114185952Y-145021877D01*
X114029942Y-145286816D01*
X113753204Y-145561234D01*
X113395018Y-145751969D01*
X113134868Y-145806533D01*
X112818963Y-145808758D01*
X112501423Y-145760962D01*
X112232711Y-145666842D01*
X112041563Y-145544866D01*
X111775530Y-145280049D01*
X111578982Y-144955835D01*
X111539022Y-144813468D01*
X111506107Y-144569034D01*
X111487543Y-144269881D01*
X111485272Y-144083608D01*
X112211453Y-144083608D01*
X112218066Y-144358980D01*
X112240696Y-144592403D01*
X112279876Y-144747900D01*
X112351342Y-144860166D01*
X112475707Y-144979964D01*
X112694489Y-145077151D01*
X112971833Y-145097080D01*
X113239555Y-145016987D01*
X113467888Y-144841040D01*
X113498573Y-144794435D01*
X113556512Y-144618770D01*
X113595527Y-144374233D01*
X113614177Y-144093377D01*
X113611021Y-143808756D01*
X113584618Y-143552921D01*
X113533526Y-143358425D01*
X113515013Y-143318425D01*
X113362096Y-143130408D01*
X113151421Y-143016419D01*
X112911484Y-142977370D01*
X112670781Y-143014173D01*
X112457808Y-143127739D01*
X112301060Y-143318981D01*
X112282377Y-143365574D01*
X112244141Y-143550927D01*
X112220322Y-143802264D01*
X112211453Y-144083608D01*
X111485272Y-144083608D01*
X111483629Y-143948799D01*
X111494663Y-143638578D01*
X111520947Y-143372008D01*
X111562778Y-143181881D01*
X111628938Y-143036551D01*
X111813130Y-142773141D01*
X112049533Y-142540065D01*
X112300072Y-142378795D01*
X112428776Y-142332288D01*
X112739391Y-142279677D01*
X113080446Y-142282099D01*
X113402723Y-142341230D01*
X113473610Y-142366803D01*
X113718688Y-142512031D01*
X113954299Y-142724136D01*
X114146607Y-142968830D01*
X114261779Y-143211823D01*
X114280735Y-143300264D01*
X114308274Y-143519760D01*
X114327327Y-143793266D01*
X114334595Y-144081378D01*
X114334529Y-144093377D01*
X114333517Y-144276786D01*
G37*
G36*
X119897296Y-149870987D02*
G01*
X119872044Y-150173859D01*
X119808073Y-150499058D01*
X119684304Y-150788379D01*
X119492572Y-151010792D01*
X119218223Y-151189053D01*
X119113026Y-151237588D01*
X118802332Y-151314050D01*
X118486429Y-151284569D01*
X118145082Y-151148379D01*
X117818003Y-150976325D01*
X117818003Y-151119183D01*
X117818001Y-151121622D01*
X117809675Y-151199809D01*
X117766770Y-151241829D01*
X117661894Y-151258850D01*
X117467658Y-151262041D01*
X117117313Y-151262041D01*
X117117313Y-149535166D01*
X117848284Y-149535166D01*
X117855559Y-149822393D01*
X117880038Y-150070701D01*
X117921895Y-150241821D01*
X118004071Y-150384571D01*
X118098983Y-150482557D01*
X118185756Y-150528591D01*
X118437829Y-150589561D01*
X118688665Y-150562062D01*
X118906948Y-150453028D01*
X119061363Y-150269398D01*
X119079928Y-150230871D01*
X119121785Y-150108163D01*
X119145294Y-149952790D01*
X119153375Y-149736843D01*
X119148949Y-149432416D01*
X119143046Y-149227486D01*
X119132675Y-149014583D01*
X119114024Y-148874330D01*
X119080364Y-148780734D01*
X119024967Y-148707802D01*
X118941105Y-148629542D01*
X118751808Y-148510320D01*
X118510293Y-148459655D01*
X118273269Y-148498280D01*
X118069665Y-148620713D01*
X117928411Y-148821472D01*
X117927921Y-148822640D01*
X117884641Y-148997022D01*
X117858037Y-149247286D01*
X117848284Y-149535166D01*
X117117313Y-149535166D01*
X117117313Y-148809628D01*
X117117313Y-146357214D01*
X117466137Y-146357214D01*
X117814961Y-146357214D01*
X117831080Y-147233662D01*
X117847198Y-148110110D01*
X118062568Y-147956780D01*
X118337935Y-147823777D01*
X118669535Y-147763389D01*
X119014850Y-147783905D01*
X119044072Y-147790533D01*
X119251116Y-147884629D01*
X119468057Y-148045470D01*
X119657349Y-148240970D01*
X119781446Y-148439039D01*
X119826752Y-148598875D01*
X119866826Y-148862898D01*
X119893039Y-149183958D01*
X119903745Y-149530504D01*
X119899837Y-149736843D01*
X119897296Y-149870987D01*
G37*
G36*
X102041933Y-143747730D02*
G01*
X102052403Y-144134613D01*
X102026595Y-144510453D01*
X101964483Y-144825278D01*
X101864561Y-145073973D01*
X101639780Y-145392146D01*
X101337811Y-145630870D01*
X100972256Y-145777097D01*
X100921390Y-145788521D01*
X100540364Y-145821850D01*
X100154830Y-145775429D01*
X99800145Y-145656622D01*
X99511663Y-145472796D01*
X99449713Y-145416559D01*
X99348613Y-145313938D01*
X99309170Y-145256337D01*
X99324629Y-145230343D01*
X99407548Y-145144466D01*
X99537986Y-145029512D01*
X99765749Y-144840431D01*
X100018657Y-144985015D01*
X100170723Y-145055805D01*
X100466583Y-145124320D01*
X100758606Y-145116818D01*
X101006096Y-145031389D01*
X101022403Y-145021239D01*
X101184658Y-144862969D01*
X101304826Y-144650061D01*
X101351796Y-144436090D01*
X101351575Y-144420720D01*
X101343575Y-144381741D01*
X101312432Y-144353579D01*
X101242538Y-144334477D01*
X101118288Y-144322680D01*
X100924074Y-144316428D01*
X100644292Y-144313966D01*
X100263335Y-144313536D01*
X99174875Y-144313536D01*
X99205154Y-143831812D01*
X99215995Y-143729628D01*
X99950417Y-143729628D01*
X100651106Y-143729628D01*
X100918604Y-143729036D01*
X101126419Y-143724787D01*
X101254178Y-143713231D01*
X101321326Y-143690721D01*
X101347310Y-143653609D01*
X101351578Y-143598248D01*
X101312851Y-143406964D01*
X101182017Y-143202536D01*
X100985053Y-143043462D01*
X100749392Y-142950825D01*
X100502464Y-142945704D01*
X100312699Y-143024464D01*
X100132467Y-143176485D01*
X100001188Y-143365463D01*
X99950417Y-143556487D01*
X99950417Y-143729628D01*
X99215995Y-143729628D01*
X99239570Y-143507424D01*
X99334966Y-143129571D01*
X99493599Y-142831209D01*
X99724826Y-142596353D01*
X100038003Y-142409020D01*
X100159049Y-142358153D01*
X100537465Y-142274552D01*
X100908509Y-142296056D01*
X101254417Y-142414690D01*
X101557426Y-142622479D01*
X101799773Y-142911447D01*
X101963694Y-143273620D01*
X101995210Y-143399777D01*
X102021861Y-143598248D01*
X102041933Y-143747730D01*
G37*
G36*
X105824957Y-149222923D02*
G01*
X105835494Y-149750046D01*
X105803035Y-150038395D01*
X105682154Y-150461321D01*
X105480131Y-150804658D01*
X105199375Y-151064800D01*
X104842294Y-151238138D01*
X104750361Y-151262772D01*
X104466869Y-151297675D01*
X104153903Y-151293306D01*
X103858718Y-151252069D01*
X103628572Y-151176369D01*
X103611042Y-151167330D01*
X103416781Y-151053997D01*
X103231136Y-150928157D01*
X103167700Y-150880036D01*
X103086221Y-150803748D01*
X103082158Y-150744333D01*
X103143550Y-150665990D01*
X103259918Y-150554404D01*
X103408537Y-150435385D01*
X103452962Y-150404026D01*
X103545018Y-150355034D01*
X103624330Y-150370300D01*
X103744120Y-150452547D01*
X103959211Y-150556652D01*
X104256575Y-150604627D01*
X104378992Y-150607361D01*
X104681943Y-150554876D01*
X104910250Y-150413088D01*
X105063126Y-150182408D01*
X105115771Y-150055193D01*
X105144785Y-149958273D01*
X105135711Y-149889899D01*
X105075433Y-149845100D01*
X104950838Y-149818908D01*
X104748810Y-149806352D01*
X104456237Y-149802463D01*
X104060003Y-149802271D01*
X102972809Y-149802271D01*
X102997972Y-149262156D01*
X103000625Y-149218363D01*
X103672830Y-149218363D01*
X104414654Y-149218363D01*
X105156477Y-149218363D01*
X105115382Y-149028593D01*
X105060836Y-148857961D01*
X104908327Y-148626219D01*
X104697050Y-148475596D01*
X104446798Y-148417981D01*
X104177363Y-148465259D01*
X104014258Y-148550171D01*
X103817806Y-148753284D01*
X103709999Y-149028593D01*
X103672830Y-149218363D01*
X103000625Y-149218363D01*
X103008908Y-149081649D01*
X103047272Y-148785532D01*
X103117245Y-148556865D01*
X103230813Y-148363132D01*
X103399966Y-148171820D01*
X103436183Y-148136174D01*
X103642293Y-147963528D01*
X103850263Y-147857415D01*
X104097542Y-147803790D01*
X104421577Y-147788604D01*
X104474296Y-147788624D01*
X104706412Y-147794923D01*
X104868468Y-147818182D01*
X104999862Y-147867321D01*
X105139986Y-147951257D01*
X105296666Y-148072044D01*
X105553273Y-148378054D01*
X105730127Y-148763636D01*
X105824015Y-149218363D01*
X105824957Y-149222923D01*
G37*
G36*
X116334292Y-142303272D02*
G01*
X116659968Y-142337327D01*
X116909959Y-142413116D01*
X117108840Y-142539680D01*
X117281184Y-142726058D01*
X117340451Y-142809681D01*
X117402559Y-142938780D01*
X117431401Y-143096487D01*
X117438463Y-143326663D01*
X117438442Y-143341038D01*
X117427284Y-143585456D01*
X117390075Y-143754375D01*
X117318646Y-143885921D01*
X117236352Y-143979455D01*
X116986805Y-144152481D01*
X116657607Y-144277267D01*
X116270646Y-144344238D01*
X116236285Y-144347191D01*
X115958527Y-144374175D01*
X115771203Y-144402441D01*
X115650558Y-144438890D01*
X115572840Y-144490420D01*
X115514296Y-144563933D01*
X115510711Y-144569502D01*
X115456161Y-144747976D01*
X115509241Y-144915299D01*
X115662065Y-145045759D01*
X115709865Y-145067515D01*
X115967552Y-145123797D01*
X116274637Y-145120352D01*
X116593519Y-145063222D01*
X116886595Y-144958449D01*
X117116263Y-144812076D01*
X117151869Y-144786647D01*
X117218659Y-144782292D01*
X117314553Y-144838202D01*
X117465858Y-144965957D01*
X117726817Y-145198784D01*
X117582640Y-145312858D01*
X117341138Y-145474040D01*
X117039534Y-145631616D01*
X116737773Y-145753631D01*
X116652120Y-145776404D01*
X116383230Y-145808721D01*
X116051450Y-145807908D01*
X115935814Y-145800655D01*
X115691576Y-145769678D01*
X115494337Y-145711150D01*
X115293820Y-145612076D01*
X115176792Y-145537092D01*
X114934356Y-145304117D01*
X114778603Y-145026526D01*
X114724572Y-144727685D01*
X114732467Y-144622300D01*
X114807990Y-144348455D01*
X114944946Y-144096363D01*
X115120504Y-143913004D01*
X115243256Y-143844437D01*
X115507839Y-143754139D01*
X115825841Y-143693443D01*
X116159087Y-143671237D01*
X116200006Y-143670679D01*
X116465343Y-143633159D01*
X116651904Y-143541866D01*
X116744138Y-143403906D01*
X116751349Y-143253444D01*
X116675301Y-143102709D01*
X116521733Y-142997622D01*
X116308915Y-142942380D01*
X116055118Y-142941178D01*
X115778611Y-142998211D01*
X115497666Y-143117675D01*
X115250203Y-143253500D01*
X115044157Y-143012782D01*
X114965028Y-142913502D01*
X114882168Y-142785852D01*
X114858335Y-142710730D01*
X114911317Y-142658824D01*
X115042005Y-142572803D01*
X115219995Y-142474225D01*
X115338985Y-142415355D01*
X115493761Y-142353262D01*
X115649978Y-142318163D01*
X115846054Y-142302585D01*
X116120406Y-142299053D01*
X116334292Y-142303272D01*
G37*
G36*
X125811521Y-150352655D02*
G01*
X125728296Y-150643358D01*
X125562032Y-150905483D01*
X125319948Y-151118910D01*
X125009260Y-151263519D01*
X124753987Y-151309743D01*
X124461405Y-151307678D01*
X124180362Y-151258750D01*
X123944750Y-151169034D01*
X123788463Y-151044611D01*
X123752266Y-151000810D01*
X123722001Y-151001213D01*
X123715474Y-151104904D01*
X123715435Y-151119246D01*
X123706792Y-151200216D01*
X123663855Y-151242784D01*
X123559132Y-151259282D01*
X123365129Y-151262041D01*
X123014784Y-151262041D01*
X123014784Y-149931425D01*
X123014904Y-149802271D01*
X123700616Y-149802271D01*
X123729715Y-150105111D01*
X123741959Y-150204346D01*
X123795094Y-150393565D01*
X123889590Y-150513847D01*
X123906089Y-150525562D01*
X124059313Y-150580846D01*
X124279152Y-150612067D01*
X124524604Y-150617882D01*
X124754671Y-150596944D01*
X124928352Y-150547911D01*
X125013762Y-150486237D01*
X125098582Y-150333729D01*
X125109091Y-150154355D01*
X125046280Y-149987031D01*
X124911138Y-149870673D01*
X124874123Y-149857996D01*
X124713216Y-149829496D01*
X124486557Y-149809692D01*
X124230815Y-149802271D01*
X123700616Y-149802271D01*
X123014904Y-149802271D01*
X123015112Y-149578825D01*
X123017207Y-149229261D01*
X123022493Y-148965728D01*
X123032379Y-148771132D01*
X123048278Y-148628381D01*
X123071601Y-148520384D01*
X123103759Y-148430046D01*
X123146164Y-148340276D01*
X123149096Y-148334499D01*
X123318316Y-148094902D01*
X123551968Y-147925682D01*
X123863859Y-147819822D01*
X124267795Y-147770305D01*
X124574356Y-147765987D01*
X124929082Y-147806323D01*
X125212811Y-147905513D01*
X125445693Y-148068659D01*
X125648368Y-148254915D01*
X125368151Y-148470475D01*
X125324880Y-148503717D01*
X125185518Y-148605650D01*
X125100242Y-148645884D01*
X125037992Y-148632377D01*
X124967710Y-148573090D01*
X124963922Y-148569592D01*
X124797608Y-148477389D01*
X124573387Y-148428521D01*
X124325130Y-148421298D01*
X124086709Y-148454030D01*
X123891994Y-148525027D01*
X123774858Y-148632600D01*
X123765345Y-148653439D01*
X123729842Y-148799710D01*
X123715474Y-148980961D01*
X123715474Y-149218363D01*
X124343175Y-149219646D01*
X124659026Y-149227888D01*
X124981600Y-149264556D01*
X125230441Y-149337334D01*
X125428485Y-149453543D01*
X125598670Y-149620509D01*
X125699986Y-149765990D01*
X125804490Y-150053492D01*
X125806861Y-150154355D01*
X125811521Y-150352655D01*
G37*
G36*
X111754289Y-150271719D02*
G01*
X111705005Y-150590389D01*
X111554912Y-150879156D01*
X111312495Y-151104438D01*
X110986279Y-151255320D01*
X110854151Y-151284667D01*
X110584409Y-151303790D01*
X110302539Y-151285023D01*
X110050535Y-151232341D01*
X109870394Y-151149717D01*
X109832966Y-151122123D01*
X109741034Y-151061191D01*
X109706770Y-151068670D01*
X109701681Y-151143512D01*
X109690602Y-151206973D01*
X109640025Y-151242859D01*
X109524215Y-151258569D01*
X109317436Y-151262041D01*
X108933192Y-151262041D01*
X108949874Y-150088754D01*
X109701681Y-150088754D01*
X109704734Y-150196043D01*
X109738632Y-150379264D01*
X109818463Y-150502961D01*
X109874369Y-150549343D01*
X109977213Y-150592822D01*
X110133943Y-150614104D01*
X110375829Y-150619743D01*
X110397043Y-150619725D01*
X110624058Y-150614578D01*
X110770902Y-150594528D01*
X110871490Y-150551250D01*
X110959737Y-150476420D01*
X111073443Y-150320139D01*
X111089480Y-150150232D01*
X110991524Y-149969315D01*
X110934705Y-149909378D01*
X110859265Y-149866188D01*
X110743880Y-149839309D01*
X110562940Y-149822970D01*
X110290834Y-149811397D01*
X109701681Y-149791328D01*
X109701681Y-150088754D01*
X108949874Y-150088754D01*
X108952494Y-149904455D01*
X108958113Y-149570615D01*
X108968683Y-149164755D01*
X108982586Y-148856377D01*
X109000585Y-148633957D01*
X109023442Y-148485970D01*
X109051919Y-148400892D01*
X109149916Y-148248166D01*
X109405301Y-147998461D01*
X109724518Y-147844807D01*
X109832328Y-147817694D01*
X110129636Y-147774787D01*
X110452773Y-147761232D01*
X110755647Y-147777746D01*
X110992163Y-147825048D01*
X111070747Y-147855884D01*
X111240609Y-147944147D01*
X111402089Y-148049799D01*
X111522758Y-148150468D01*
X111570187Y-148223785D01*
X111552988Y-148256167D01*
X111466303Y-148347660D01*
X111331067Y-148463684D01*
X111091947Y-148653070D01*
X110907734Y-148541943D01*
X110808087Y-148493147D01*
X110608715Y-148446226D01*
X110331924Y-148433699D01*
X110178540Y-148438616D01*
X109944399Y-148476129D01*
X109798215Y-148561686D01*
X109722979Y-148708695D01*
X109701681Y-148930569D01*
X109701681Y-149208583D01*
X110392315Y-149228071D01*
X110507707Y-149231511D01*
X110775401Y-149243008D01*
X110962953Y-149260744D01*
X111097631Y-149289873D01*
X111206705Y-149335548D01*
X111317443Y-149402923D01*
X111319286Y-149404147D01*
X111559641Y-149630498D01*
X111706264Y-149922914D01*
X111737562Y-150150232D01*
X111754289Y-150271719D01*
G37*
G36*
X129073193Y-146780547D02*
G01*
X129088153Y-151262041D01*
X128737446Y-151262041D01*
X128386738Y-151262041D01*
X128386738Y-150182993D01*
X128386396Y-150017242D01*
X128380198Y-149592757D01*
X128363438Y-149264796D01*
X128332510Y-149018277D01*
X128283806Y-148838118D01*
X128213718Y-148709236D01*
X128118639Y-148616550D01*
X127994963Y-148544977D01*
X127831232Y-148488317D01*
X127569045Y-148482052D01*
X127335806Y-148575515D01*
X127152739Y-148758149D01*
X127041068Y-149019398D01*
X127028394Y-149103057D01*
X127012187Y-149304485D01*
X126999113Y-149580213D01*
X126990270Y-149905299D01*
X126986752Y-150254800D01*
X126985359Y-151262041D01*
X126631067Y-151262041D01*
X126276775Y-151262041D01*
X126295320Y-149928866D01*
X126313865Y-148595690D01*
X126489037Y-148313054D01*
X126610216Y-148144191D01*
X126867404Y-147918264D01*
X127177534Y-147795097D01*
X127547863Y-147770975D01*
X127693457Y-147784209D01*
X127934282Y-147840870D01*
X128146368Y-147951526D01*
X128386738Y-148110595D01*
X128386738Y-146767981D01*
X128386738Y-145425368D01*
X128130849Y-145605735D01*
X128031363Y-145669349D01*
X127698810Y-145799231D01*
X127357273Y-145817808D01*
X127023592Y-145726042D01*
X126714609Y-145524894D01*
X126583683Y-145403496D01*
X126477668Y-145279102D01*
X126403613Y-145142030D01*
X126355863Y-144971471D01*
X126328759Y-144746615D01*
X126316646Y-144446653D01*
X126314742Y-144175598D01*
X127007656Y-144175598D01*
X127043571Y-144492624D01*
X127119796Y-144755803D01*
X127234098Y-144936487D01*
X127243259Y-144945123D01*
X127425739Y-145049166D01*
X127661737Y-145102474D01*
X127897758Y-145092474D01*
X128030293Y-145032405D01*
X128177424Y-144868926D01*
X128287140Y-144629328D01*
X128355067Y-144334626D01*
X128376835Y-144005836D01*
X128348070Y-143663974D01*
X128264402Y-143330056D01*
X128210653Y-143222038D01*
X128053650Y-143072283D01*
X127847369Y-142990073D01*
X127620797Y-142975298D01*
X127402920Y-143027848D01*
X127222726Y-143147610D01*
X127109201Y-143334474D01*
X127065693Y-143494600D01*
X127014286Y-143833374D01*
X127007656Y-144175598D01*
X126314742Y-144175598D01*
X126313865Y-144050777D01*
X126313931Y-143944341D01*
X126316004Y-143615440D01*
X126322808Y-143375547D01*
X126336797Y-143202779D01*
X126360423Y-143075257D01*
X126396139Y-142971101D01*
X126446398Y-142868428D01*
X126484444Y-142805485D01*
X126641808Y-142613728D01*
X126821674Y-142459693D01*
X126931281Y-142392593D01*
X127074085Y-142333384D01*
X127243582Y-142305825D01*
X127484605Y-142299053D01*
X127683279Y-142302842D01*
X127857247Y-142323832D01*
X127992263Y-142372881D01*
X128131168Y-142460697D01*
X128357543Y-142622341D01*
X128376049Y-142443302D01*
X128377759Y-142426860D01*
X128394284Y-142333238D01*
X128438032Y-142286997D01*
X128538802Y-142274386D01*
X128726394Y-142281658D01*
X129058233Y-142299053D01*
X129063931Y-144005836D01*
X129073193Y-146780547D01*
G37*
G36*
X116233649Y-116286549D02*
G01*
X116684129Y-116289681D01*
X117034479Y-116295850D01*
X117294481Y-116305458D01*
X117473918Y-116318908D01*
X117582571Y-116336600D01*
X117630220Y-116358938D01*
X117633171Y-116363754D01*
X117662099Y-116455819D01*
X117707815Y-116644998D01*
X117767065Y-116915992D01*
X117836594Y-117253501D01*
X117913149Y-117642226D01*
X117993476Y-118066869D01*
X118006530Y-118137112D01*
X118085946Y-118557981D01*
X118160259Y-118941278D01*
X118226326Y-119271537D01*
X118281002Y-119533288D01*
X118321143Y-119711064D01*
X118343605Y-119789398D01*
X118352926Y-119800290D01*
X118448676Y-119860985D01*
X118628053Y-119950805D01*
X118872026Y-120062086D01*
X119161564Y-120187164D01*
X119477638Y-120318374D01*
X119801217Y-120448050D01*
X120113272Y-120568529D01*
X120394771Y-120672146D01*
X120626685Y-120751236D01*
X120789984Y-120798135D01*
X120865637Y-120805177D01*
X120930849Y-120762003D01*
X121079375Y-120661467D01*
X121297485Y-120512913D01*
X121571762Y-120325495D01*
X121888789Y-120108369D01*
X122235148Y-119870691D01*
X122571359Y-119640415D01*
X122896130Y-119419296D01*
X123181203Y-119226549D01*
X123412476Y-119071667D01*
X123575847Y-118964142D01*
X123657213Y-118913466D01*
X123686976Y-118901060D01*
X123733391Y-118899389D01*
X123794464Y-118923244D01*
X123879851Y-118980820D01*
X123999207Y-119080317D01*
X124162188Y-119229930D01*
X124378449Y-119437857D01*
X124657647Y-119712295D01*
X125009436Y-120061442D01*
X125252954Y-120304614D01*
X125578372Y-120634091D01*
X125828998Y-120895067D01*
X126011187Y-121094602D01*
X126131299Y-121239755D01*
X126195691Y-121337583D01*
X126210721Y-121395145D01*
X126210258Y-121397155D01*
X126168599Y-121479661D01*
X126069326Y-121643407D01*
X125921294Y-121874763D01*
X125733357Y-122160098D01*
X125514371Y-122485785D01*
X125273192Y-122838191D01*
X125068990Y-123136895D01*
X124831226Y-123493272D01*
X124634369Y-123798706D01*
X124485273Y-124042255D01*
X124390790Y-124212975D01*
X124357773Y-124299925D01*
X124365470Y-124344518D01*
X124412710Y-124494626D01*
X124495515Y-124718830D01*
X124605236Y-124996839D01*
X124733219Y-125308362D01*
X124870816Y-125633106D01*
X125009373Y-125950781D01*
X125140241Y-126241096D01*
X125254768Y-126483758D01*
X125344304Y-126658478D01*
X125400197Y-126744963D01*
X125407814Y-126751238D01*
X125515916Y-126797082D01*
X125731483Y-126856327D01*
X126056592Y-126929445D01*
X126493322Y-127016909D01*
X127043750Y-127119194D01*
X127447851Y-127194111D01*
X127833437Y-127269385D01*
X128170278Y-127339002D01*
X128441789Y-127399413D01*
X128631386Y-127447070D01*
X128722485Y-127478423D01*
X128731025Y-127483620D01*
X128767564Y-127509508D01*
X128796026Y-127545862D01*
X128817422Y-127605971D01*
X128832759Y-127703125D01*
X128843047Y-127850614D01*
X128849292Y-128061726D01*
X128852505Y-128349751D01*
X128853693Y-128727979D01*
X128853865Y-129209699D01*
X128853684Y-129410969D01*
X128851151Y-129895533D01*
X128845315Y-130276464D01*
X128835772Y-130563414D01*
X128822120Y-130766032D01*
X128803956Y-130893968D01*
X128780876Y-130956872D01*
X128729507Y-130990370D01*
X128597436Y-131036921D01*
X128379979Y-131093906D01*
X128069617Y-131163104D01*
X127658835Y-131246293D01*
X127140114Y-131345253D01*
X127124990Y-131348080D01*
X126710046Y-131427466D01*
X126331479Y-131503243D01*
X126005001Y-131572001D01*
X125746327Y-131630333D01*
X125571167Y-131674830D01*
X125495236Y-131702082D01*
X125481663Y-131720985D01*
X125424909Y-131832708D01*
X125337063Y-132025863D01*
X125225815Y-132281695D01*
X125098855Y-132581447D01*
X124963873Y-132906364D01*
X124828559Y-133237689D01*
X124700604Y-133556665D01*
X124587696Y-133844537D01*
X124497527Y-134082549D01*
X124437786Y-134251944D01*
X124416164Y-134333965D01*
X124446780Y-134395033D01*
X124535534Y-134539372D01*
X124673770Y-134753413D01*
X124852820Y-135023919D01*
X125064016Y-135337658D01*
X125298690Y-135681393D01*
X125524718Y-136012682D01*
X125741073Y-136334765D01*
X125927078Y-136616838D01*
X126073640Y-136844941D01*
X126171666Y-137005118D01*
X126212062Y-137083409D01*
X126212525Y-137085349D01*
X126203817Y-137138613D01*
X126155118Y-137222444D01*
X126059027Y-137345199D01*
X125908142Y-137515236D01*
X125695063Y-137740914D01*
X125412387Y-138030590D01*
X125052714Y-138392623D01*
X125019759Y-138425570D01*
X124702160Y-138739184D01*
X124413373Y-139017474D01*
X124163922Y-139250764D01*
X123964334Y-139429378D01*
X123825134Y-139543642D01*
X123756845Y-139583881D01*
X123688259Y-139555203D01*
X123535560Y-139468003D01*
X123314012Y-139330934D01*
X123037427Y-139152746D01*
X122719619Y-138942191D01*
X122374399Y-138708018D01*
X122046265Y-138484944D01*
X121728711Y-138273208D01*
X121452540Y-138093336D01*
X121231359Y-137954053D01*
X121078776Y-137864085D01*
X121008399Y-137832156D01*
X120929793Y-137856026D01*
X120769850Y-137925365D01*
X120554064Y-138029209D01*
X120306299Y-138156531D01*
X119693427Y-138480906D01*
X119606860Y-138346301D01*
X119603138Y-138339921D01*
X119556993Y-138242812D01*
X119471933Y-138050487D01*
X119352585Y-137773856D01*
X119203575Y-137423831D01*
X119029529Y-137011323D01*
X118835073Y-136547244D01*
X118624835Y-136042505D01*
X118403439Y-135508018D01*
X118145978Y-134882918D01*
X117922976Y-134336409D01*
X117740404Y-133881513D01*
X117595535Y-133510200D01*
X117485643Y-133214442D01*
X117408002Y-132986212D01*
X117359886Y-132817482D01*
X117338568Y-132700222D01*
X117341323Y-132626404D01*
X117365424Y-132588001D01*
X117408146Y-132576984D01*
X117441212Y-132562797D01*
X117554679Y-132492220D01*
X117724163Y-132375849D01*
X117927230Y-132228734D01*
X118117506Y-132079950D01*
X118597283Y-131615574D01*
X118971866Y-131101604D01*
X119240436Y-130539618D01*
X119402178Y-129931192D01*
X119456273Y-129277904D01*
X119444367Y-128956003D01*
X119343543Y-128332125D01*
X119137803Y-127757408D01*
X118824500Y-127225464D01*
X118400990Y-126729905D01*
X118356755Y-126686101D01*
X118026442Y-126391617D01*
X117692488Y-126161713D01*
X117317194Y-125973718D01*
X116862866Y-125804966D01*
X116739404Y-125768692D01*
X116291980Y-125690384D01*
X115801583Y-125670474D01*
X115312562Y-125708942D01*
X114869267Y-125805771D01*
X114292519Y-126038301D01*
X113760217Y-126364791D01*
X113298833Y-126767666D01*
X112914909Y-127235482D01*
X112614989Y-127756796D01*
X112405617Y-128320165D01*
X112293336Y-128914144D01*
X112284691Y-129527290D01*
X112386224Y-130148159D01*
X112454758Y-130384195D01*
X112688849Y-130935536D01*
X113018183Y-131439931D01*
X113449379Y-131906451D01*
X113989058Y-132344164D01*
X114015762Y-132363389D01*
X114239860Y-132538177D01*
X114381773Y-132676543D01*
X114431336Y-132768731D01*
X114430588Y-132774515D01*
X114401032Y-132866980D01*
X114331533Y-133054491D01*
X114226369Y-133326299D01*
X114089817Y-133671654D01*
X113926154Y-134079805D01*
X113739659Y-134540003D01*
X113534608Y-135041498D01*
X113315279Y-135573541D01*
X113272802Y-135676173D01*
X113055254Y-136201889D01*
X112851737Y-136693823D01*
X112666629Y-137141389D01*
X112504306Y-137533996D01*
X112369146Y-137861057D01*
X112265525Y-138111983D01*
X112197821Y-138276185D01*
X112170411Y-138343076D01*
X112137548Y-138388764D01*
X112048162Y-138410285D01*
X111898707Y-138375552D01*
X111677130Y-138281262D01*
X111371376Y-138124110D01*
X111201937Y-138035053D01*
X110989360Y-137930283D01*
X110827224Y-137858676D01*
X110741268Y-137832156D01*
X110676242Y-137861238D01*
X110527304Y-137948650D01*
X110309083Y-138085750D01*
X110035178Y-138263821D01*
X109719188Y-138474149D01*
X109374710Y-138708018D01*
X109047692Y-138929474D01*
X108726191Y-139141692D01*
X108444458Y-139322005D01*
X108216472Y-139461649D01*
X108056210Y-139551862D01*
X107977651Y-139583881D01*
X107924565Y-139555107D01*
X107797931Y-139453918D01*
X107614405Y-139292045D01*
X107386931Y-139082236D01*
X107128450Y-138837243D01*
X106851907Y-138569815D01*
X106570243Y-138292703D01*
X106296403Y-138018658D01*
X106043328Y-137760429D01*
X105823961Y-137530767D01*
X105651246Y-137342422D01*
X105538126Y-137208144D01*
X105497543Y-137140684D01*
X105497653Y-137139397D01*
X105533104Y-137068915D01*
X105626104Y-136916406D01*
X105768104Y-136695015D01*
X105950554Y-136417891D01*
X106164903Y-136098180D01*
X106402600Y-135749030D01*
X106413674Y-135732875D01*
X106650983Y-135382649D01*
X106864440Y-135060265D01*
X107045441Y-134779301D01*
X107185381Y-134553338D01*
X107275655Y-134395953D01*
X107307658Y-134320726D01*
X107300847Y-134285617D01*
X107258345Y-134151273D01*
X107183235Y-133940568D01*
X107082889Y-133672068D01*
X106964675Y-133364343D01*
X106835966Y-133035958D01*
X106704131Y-132705480D01*
X106576541Y-132391478D01*
X106460566Y-132112519D01*
X106363578Y-131887169D01*
X106292945Y-131733995D01*
X106256040Y-131671566D01*
X106189134Y-131653744D01*
X106022647Y-131617801D01*
X105772126Y-131566876D01*
X105453036Y-131504058D01*
X105080838Y-131432434D01*
X104670996Y-131355092D01*
X104269968Y-131279417D01*
X103889567Y-131206229D01*
X103559224Y-131141234D01*
X103295137Y-131087663D01*
X103113506Y-131048751D01*
X103030531Y-131027729D01*
X103010075Y-131016644D01*
X102985061Y-130985106D01*
X102965710Y-130924359D01*
X102951304Y-130821892D01*
X102941127Y-130665195D01*
X102934460Y-130441758D01*
X102930586Y-130139071D01*
X102928788Y-129744624D01*
X102928348Y-129245907D01*
X102929353Y-128854498D01*
X102934014Y-128381752D01*
X102942284Y-128000366D01*
X102953954Y-127716687D01*
X102968815Y-127537061D01*
X102986660Y-127467837D01*
X102987259Y-127467495D01*
X103061652Y-127447055D01*
X103234928Y-127408922D01*
X103491593Y-127356214D01*
X103816156Y-127292048D01*
X104193124Y-127219541D01*
X104607005Y-127141810D01*
X104612305Y-127140826D01*
X105029011Y-127062583D01*
X105411472Y-126989134D01*
X105743559Y-126923704D01*
X106009142Y-126869522D01*
X106192093Y-126829815D01*
X106276282Y-126807809D01*
X106320876Y-126763110D01*
X106413778Y-126611445D01*
X106543294Y-126358638D01*
X106707042Y-126009399D01*
X106902645Y-125568436D01*
X106973180Y-125405357D01*
X107116892Y-125068719D01*
X107240466Y-124773337D01*
X107337176Y-124535619D01*
X107400297Y-124371973D01*
X107423101Y-124298808D01*
X107421050Y-124290722D01*
X107373882Y-124202800D01*
X107270571Y-124034843D01*
X107119370Y-123799565D01*
X106928536Y-123509681D01*
X106706325Y-123177907D01*
X106460991Y-122816957D01*
X106395904Y-122721720D01*
X106155798Y-122367767D01*
X105940838Y-122046831D01*
X105759278Y-121771520D01*
X105619373Y-121554443D01*
X105529376Y-121408205D01*
X105497543Y-121345415D01*
X105498913Y-121339465D01*
X105552822Y-121263394D01*
X105676082Y-121123090D01*
X105856135Y-120930890D01*
X106080425Y-120699131D01*
X106336398Y-120440150D01*
X106611497Y-120166285D01*
X106893167Y-119889873D01*
X107168850Y-119623251D01*
X107425992Y-119378757D01*
X107652037Y-119168728D01*
X107834428Y-119005501D01*
X107960610Y-118901414D01*
X108018027Y-118868804D01*
X108018866Y-118869145D01*
X108089225Y-118911290D01*
X108241881Y-119010607D01*
X108463546Y-119158190D01*
X108740934Y-119345135D01*
X109060757Y-119562538D01*
X109409727Y-119801493D01*
X109412777Y-119803589D01*
X109765020Y-120044904D01*
X110091065Y-120266920D01*
X110376933Y-120460225D01*
X110608645Y-120615406D01*
X110772221Y-120723051D01*
X110853682Y-120773746D01*
X110899031Y-120790399D01*
X110971740Y-120793300D01*
X111078393Y-120773294D01*
X111233683Y-120725789D01*
X111452300Y-120646197D01*
X111748935Y-120529927D01*
X112138280Y-120372388D01*
X112252972Y-120325399D01*
X112589888Y-120184843D01*
X112886697Y-120057344D01*
X113126315Y-119950469D01*
X113291656Y-119871783D01*
X113365635Y-119828854D01*
X113367803Y-119826177D01*
X113398938Y-119740473D01*
X113446487Y-119556834D01*
X113507060Y-119290734D01*
X113577265Y-118957652D01*
X113653710Y-118573061D01*
X113733005Y-118152439D01*
X113739507Y-118117062D01*
X113818255Y-117694906D01*
X113892694Y-117306696D01*
X113959565Y-116968633D01*
X114015608Y-116696917D01*
X114057562Y-116507749D01*
X114082167Y-116417329D01*
X114136878Y-116285950D01*
X115853509Y-116285950D01*
X116233649Y-116286549D01*
G37*
%TD*%
M02*
