%TF.GenerationSoftware,KiCad,Pcbnew,7.0.9*%
%TF.CreationDate,2024-02-16T00:25:04-03:00*%
%TF.ProjectId,main-board,6d61696e-2d62-46f6-9172-642e6b696361,0.1*%
%TF.SameCoordinates,Original*%
%TF.FileFunction,Copper,L2,Bot*%
%TF.FilePolarity,Positive*%
%FSLAX46Y46*%
G04 Gerber Fmt 4.6, Leading zero omitted, Abs format (unit mm)*
G04 Created by KiCad (PCBNEW 7.0.9) date 2024-02-16 00:25:04*
%MOMM*%
%LPD*%
G01*
G04 APERTURE LIST*
%TA.AperFunction,ComponentPad*%
%ADD10C,1.600000*%
%TD*%
%TA.AperFunction,ComponentPad*%
%ADD11O,1.600000X1.600000*%
%TD*%
%TA.AperFunction,ComponentPad*%
%ADD12R,1.800000X1.800000*%
%TD*%
%TA.AperFunction,ComponentPad*%
%ADD13C,1.800000*%
%TD*%
%TA.AperFunction,ComponentPad*%
%ADD14R,1.700000X1.700000*%
%TD*%
%TA.AperFunction,ComponentPad*%
%ADD15O,1.700000X1.700000*%
%TD*%
%TA.AperFunction,ComponentPad*%
%ADD16R,1.600000X1.600000*%
%TD*%
%TA.AperFunction,ViaPad*%
%ADD17C,0.700000*%
%TD*%
%TA.AperFunction,Conductor*%
%ADD18C,0.500000*%
%TD*%
G04 APERTURE END LIST*
D10*
%TO.P,R2,1*%
%TO.N,/w7*%
X159900000Y-59000000D03*
D11*
%TO.P,R2,2*%
%TO.N,/w10*%
X175140000Y-59000000D03*
%TD*%
D10*
%TO.P,C15,1*%
%TO.N,VEE*%
X232950000Y-82600000D03*
%TO.P,C15,2*%
%TO.N,GND*%
X235450000Y-82600000D03*
%TD*%
D12*
%TO.P,D4,1,K*%
%TO.N,VEE*%
X227632500Y-94180000D03*
D13*
%TO.P,D4,2,A*%
%TO.N,/led_VEE*%
X227632500Y-91640000D03*
%TD*%
D10*
%TO.P,C13,1*%
%TO.N,VDD*%
X232550000Y-113400000D03*
%TO.P,C13,2*%
%TO.N,GND*%
X235050000Y-113400000D03*
%TD*%
D12*
%TO.P,D1,1,K*%
%TO.N,VSS*%
X72800000Y-100620000D03*
D13*
%TO.P,D1,2,A*%
%TO.N,/led_VSS*%
X72800000Y-103160000D03*
%TD*%
D14*
%TO.P,SW1,1,A*%
%TO.N,/w_input*%
X183225000Y-102800000D03*
D15*
%TO.P,SW1,2,B*%
%TO.N,/w_nc*%
X185765000Y-102800000D03*
%TD*%
D10*
%TO.P,C4,1*%
%TO.N,/w10*%
X192450000Y-59000000D03*
%TO.P,C4,2*%
%TO.N,/w11*%
X197450000Y-59000000D03*
%TD*%
%TO.P,R4,1*%
%TO.N,/w11*%
X200650000Y-59000000D03*
D11*
%TO.P,R4,2*%
%TO.N,/w12*%
X215890000Y-59000000D03*
%TD*%
D10*
%TO.P,R10,1*%
%TO.N,/w6*%
X152100000Y-69400000D03*
D11*
%TO.P,R10,2*%
%TO.N,/w8*%
X167340000Y-69400000D03*
%TD*%
D10*
%TO.P,C1,1*%
%TO.N,/w1*%
X89675000Y-77350000D03*
%TO.P,C1,2*%
%TO.N,/w3*%
X89675000Y-74850000D03*
%TD*%
D14*
%TO.P,U1,1,-Vs*%
%TO.N,VSS*%
X106395000Y-81175000D03*
D15*
%TO.P,U1,2,+In1*%
%TO.N,/w_signal+*%
X106395000Y-78635000D03*
%TO.P,U1,3,-In1*%
%TO.N,/w1*%
X106395000Y-76095000D03*
D14*
%TO.P,U1,4,Vo1*%
%TO.N,/w3*%
X114430000Y-71895000D03*
D15*
%TO.P,U1,5,Vo2*%
%TO.N,/w4*%
X116965000Y-71895000D03*
D14*
%TO.P,U1,6,+Vs*%
%TO.N,VCC*%
X124995000Y-76095000D03*
D15*
%TO.P,U1,7,-In2*%
%TO.N,/w2*%
X124995000Y-78635000D03*
%TO.P,U1,8,+In2*%
%TO.N,/w_signal-*%
X124995000Y-81175000D03*
%TD*%
D16*
%TO.P,C14,1*%
%TO.N,VDD*%
X232717621Y-124800000D03*
D10*
%TO.P,C14,2*%
%TO.N,GND*%
X235217621Y-124800000D03*
%TD*%
%TO.P,R8,1*%
%TO.N,/w13*%
X193470000Y-145350000D03*
D11*
%TO.P,R8,2*%
%TO.N,/w_out*%
X178230000Y-145350000D03*
%TD*%
D10*
%TO.P,C8,1*%
%TO.N,/w4*%
X141925000Y-69405000D03*
%TO.P,C8,2*%
%TO.N,/w6*%
X146925000Y-69405000D03*
%TD*%
%TO.P,R11,1*%
%TO.N,/w14*%
X175120000Y-131000000D03*
D11*
%TO.P,R11,2*%
%TO.N,GND*%
X159880000Y-131000000D03*
%TD*%
D10*
%TO.P,R13,1*%
%TO.N,GND*%
X167300000Y-88600000D03*
D11*
%TO.P,R13,2*%
%TO.N,/w8*%
X167300000Y-73360000D03*
%TD*%
D14*
%TO.P,J5,1,Pin_1*%
%TO.N,GND*%
X155900000Y-131000000D03*
%TD*%
D10*
%TO.P,R16,1*%
%TO.N,/led_VCC*%
X72800000Y-86400000D03*
D11*
%TO.P,R16,2*%
%TO.N,GND*%
X72800000Y-71160000D03*
%TD*%
D12*
%TO.P,D3,1,K*%
%TO.N,/led_VDD*%
X227632500Y-103640000D03*
D13*
%TO.P,D3,2,A*%
%TO.N,VDD*%
X227632500Y-101100000D03*
%TD*%
D10*
%TO.P,C6,1*%
%TO.N,/w_out*%
X174900000Y-145350000D03*
%TO.P,C6,2*%
%TO.N,GND*%
X174900000Y-150350000D03*
%TD*%
%TO.P,R18,1*%
%TO.N,/led_VEE*%
X227600000Y-86000000D03*
D11*
%TO.P,R18,2*%
%TO.N,GND*%
X227600000Y-70760000D03*
%TD*%
D12*
%TO.P,D2,1,K*%
%TO.N,/led_VCC*%
X72800000Y-91160000D03*
D13*
%TO.P,D2,2,A*%
%TO.N,VCC*%
X72800000Y-93700000D03*
%TD*%
D10*
%TO.P,R5,1*%
%TO.N,/w12*%
X210000000Y-82870000D03*
D11*
%TO.P,R5,2*%
%TO.N,/w_input*%
X210000000Y-67630000D03*
%TD*%
D14*
%TO.P,C5,1*%
%TO.N,/w_signal-*%
X116800000Y-106625000D03*
D15*
%TO.P,C5,2*%
%TO.N,/w_signal+*%
X114260000Y-106625000D03*
%TD*%
D14*
%TO.P,J3,1,Pin_1*%
%TO.N,/w_out*%
X168000000Y-145350000D03*
%TD*%
D15*
%TO.P,J4,1,Pin_1*%
%TO.N,VSS*%
X68000000Y-100660000D03*
D14*
%TO.P,J4,2,Pin_2*%
%TO.N,GND*%
X64500000Y-97160000D03*
D15*
%TO.P,J4,3,Pin_3*%
%TO.N,VCC*%
X68000000Y-93660000D03*
%TD*%
D16*
%TO.P,C10,1*%
%TO.N,GND*%
X64600000Y-123800000D03*
D10*
%TO.P,C10,2*%
%TO.N,VSS*%
X67100000Y-123800000D03*
%TD*%
%TO.P,C2,1*%
%TO.N,/w3*%
X127700000Y-59000000D03*
%TO.P,C2,2*%
%TO.N,/w5*%
X132700000Y-59000000D03*
%TD*%
%TO.P,R6,1*%
%TO.N,/w_signal+*%
X107980000Y-100600000D03*
D11*
%TO.P,R6,2*%
%TO.N,/w_signal-*%
X123220000Y-100600000D03*
%TD*%
D14*
%TO.P,U3,1,Uz*%
%TO.N,/w14*%
X175300000Y-122040000D03*
D15*
%TO.P,U3,2,V-*%
%TO.N,VEE*%
X175300000Y-119500000D03*
D14*
%TO.P,U3,3,Uy*%
%TO.N,/w_input*%
X181845000Y-114100000D03*
D15*
%TO.P,U3,4,GND*%
%TO.N,GND*%
X184385000Y-114100000D03*
%TO.P,U3,5,Ux*%
%TO.N,/w_nc*%
X186925000Y-114100000D03*
%TO.P,U3,6,V+*%
%TO.N,VDD*%
X193500000Y-119500000D03*
D14*
%TO.P,U3,7,Uw*%
%TO.N,/w13*%
X193500000Y-122040000D03*
%TD*%
D10*
%TO.P,R7,1*%
%TO.N,/w1*%
X108280000Y-89900000D03*
D11*
%TO.P,R7,2*%
%TO.N,/w2*%
X123520000Y-89900000D03*
%TD*%
D15*
%TO.P,J6,1,Pin_1*%
%TO.N,VEE*%
X232000000Y-94165000D03*
D14*
%TO.P,J6,2,Pin_2*%
%TO.N,GND*%
X235500000Y-97665000D03*
D15*
%TO.P,J6,3,Pin_3*%
%TO.N,VDD*%
X232000000Y-101165000D03*
%TD*%
D10*
%TO.P,R14,1*%
%TO.N,GND*%
X183900000Y-91100000D03*
D11*
%TO.P,R14,2*%
%TO.N,/w9*%
X199140000Y-91100000D03*
%TD*%
D10*
%TO.P,R1,1*%
%TO.N,/w5*%
X137240000Y-59000000D03*
D11*
%TO.P,R1,2*%
%TO.N,/w7*%
X152480000Y-59000000D03*
%TD*%
D10*
%TO.P,R9,1*%
%TO.N,/w13*%
X193520000Y-131000000D03*
D11*
%TO.P,R9,2*%
%TO.N,/w14*%
X178280000Y-131000000D03*
%TD*%
D14*
%TO.P,U2,1,-Vs*%
%TO.N,VEE*%
X175200000Y-81125000D03*
D15*
%TO.P,U2,2,+In1*%
%TO.N,/w8*%
X175200000Y-78585000D03*
%TO.P,U2,3,-In1*%
%TO.N,/w7*%
X175200000Y-76045000D03*
D14*
%TO.P,U2,4,Vo1*%
%TO.N,/w10*%
X183235000Y-71845000D03*
D15*
%TO.P,U2,5,Vo2*%
%TO.N,/w_input*%
X185770000Y-71845000D03*
D14*
%TO.P,U2,6,+Vs*%
%TO.N,VDD*%
X193800000Y-76045000D03*
D15*
%TO.P,U2,7,-In2*%
%TO.N,/w12*%
X193800000Y-78585000D03*
%TO.P,U2,8,+In2*%
%TO.N,/w9*%
X193800000Y-81125000D03*
%TD*%
D16*
%TO.P,C12,1*%
%TO.N,VCC*%
X67200000Y-71000000D03*
D10*
%TO.P,C12,2*%
%TO.N,GND*%
X64700000Y-71000000D03*
%TD*%
%TO.P,C9,1*%
%TO.N,VSS*%
X67000000Y-111400000D03*
%TO.P,C9,2*%
%TO.N,GND*%
X64500000Y-111400000D03*
%TD*%
%TO.P,R12,1*%
%TO.N,/w4*%
X135275000Y-67690000D03*
D11*
%TO.P,R12,2*%
%TO.N,/w2*%
X135275000Y-82930000D03*
%TD*%
D10*
%TO.P,R3,1*%
%TO.N,/w1*%
X95975000Y-83620000D03*
D11*
%TO.P,R3,2*%
%TO.N,/w3*%
X95975000Y-68380000D03*
%TD*%
D10*
%TO.P,C3,1*%
%TO.N,/w12*%
X216200000Y-76500000D03*
%TO.P,C3,2*%
%TO.N,/w_input*%
X216200000Y-74000000D03*
%TD*%
%TO.P,C7,1*%
%TO.N,/w2*%
X141800000Y-76440000D03*
%TO.P,C7,2*%
%TO.N,/w4*%
X141800000Y-73940000D03*
%TD*%
D16*
%TO.P,C16,1*%
%TO.N,GND*%
X235282380Y-70500000D03*
D10*
%TO.P,C16,2*%
%TO.N,VEE*%
X232782380Y-70500000D03*
%TD*%
%TO.P,R15,1*%
%TO.N,/led_VSS*%
X72800000Y-108300000D03*
D11*
%TO.P,R15,2*%
%TO.N,GND*%
X72800000Y-123540000D03*
%TD*%
D10*
%TO.P,C11,1*%
%TO.N,VCC*%
X67000000Y-82600000D03*
%TO.P,C11,2*%
%TO.N,GND*%
X64500000Y-82600000D03*
%TD*%
D14*
%TO.P,J1,1,Pin_1*%
%TO.N,/w_input*%
X171950000Y-102800000D03*
%TD*%
%TO.P,J2,1,Pin_1*%
%TO.N,/w_nc*%
X196800000Y-102850000D03*
%TD*%
D10*
%TO.P,R17,1*%
%TO.N,/led_VDD*%
X227632500Y-109400000D03*
D11*
%TO.P,R17,2*%
%TO.N,GND*%
X227632500Y-124640000D03*
%TD*%
D17*
%TO.N,VCC*%
X92100000Y-71300000D03*
X93200000Y-72400000D03*
%TO.N,VDD*%
X215500000Y-95900000D03*
X216900000Y-97300000D03*
%TD*%
D18*
%TO.N,VCC*%
X93200000Y-72400000D02*
X92100000Y-71300000D01*
%TO.N,VDD*%
X215500000Y-95900000D02*
X216900000Y-97300000D01*
%TD*%
%TA.AperFunction,Conductor*%
%TO.N,GND*%
G36*
X231573490Y-43219274D02*
G01*
X231577526Y-43219538D01*
X232146560Y-43275583D01*
X232150558Y-43276110D01*
X232714703Y-43369250D01*
X232718645Y-43370034D01*
X233275515Y-43499878D01*
X233279404Y-43500920D01*
X233826582Y-43666904D01*
X233830402Y-43668201D01*
X234365533Y-43869610D01*
X234369264Y-43871156D01*
X234890100Y-44107143D01*
X234893679Y-44108908D01*
X235397975Y-44378460D01*
X235401463Y-44380474D01*
X235887050Y-44682432D01*
X235890368Y-44684649D01*
X236355162Y-45017716D01*
X236358364Y-45020174D01*
X236800347Y-45382901D01*
X236803398Y-45385577D01*
X237220719Y-45776440D01*
X237223559Y-45779280D01*
X237348424Y-45912597D01*
X237614422Y-46196601D01*
X237617098Y-46199652D01*
X237979825Y-46641635D01*
X237982286Y-46644841D01*
X238315345Y-47109624D01*
X238317571Y-47112956D01*
X238589033Y-47549500D01*
X238619519Y-47598526D01*
X238621544Y-47602034D01*
X238891084Y-48106308D01*
X238892868Y-48109925D01*
X239128842Y-48630733D01*
X239130395Y-48634482D01*
X239331793Y-49169583D01*
X239333098Y-49173426D01*
X239499075Y-49720581D01*
X239500125Y-49724500D01*
X239629959Y-50281325D01*
X239630750Y-50285305D01*
X239723888Y-50849434D01*
X239724418Y-50853458D01*
X239780460Y-51422459D01*
X239780725Y-51426509D01*
X239799500Y-52000000D01*
X239799500Y-145000000D01*
X239780725Y-145573490D01*
X239780460Y-145577540D01*
X239724418Y-146146541D01*
X239723888Y-146150565D01*
X239630750Y-146714694D01*
X239629959Y-146718674D01*
X239500125Y-147275499D01*
X239499075Y-147279418D01*
X239333098Y-147826573D01*
X239331793Y-147830416D01*
X239130395Y-148365517D01*
X239128842Y-148369266D01*
X238892868Y-148890074D01*
X238891078Y-148893703D01*
X238761364Y-149136382D01*
X238621548Y-149397959D01*
X238619519Y-149401473D01*
X238484532Y-149618549D01*
X238317580Y-149887029D01*
X238315336Y-149890388D01*
X237982296Y-150355145D01*
X237979825Y-150358364D01*
X237617098Y-150800347D01*
X237614422Y-150803398D01*
X237223574Y-151220704D01*
X237220704Y-151223574D01*
X236803398Y-151614422D01*
X236800347Y-151617098D01*
X236358364Y-151979825D01*
X236355145Y-151982296D01*
X235890388Y-152315336D01*
X235887029Y-152317580D01*
X235618549Y-152484532D01*
X235401473Y-152619519D01*
X235397959Y-152621548D01*
X235191955Y-152731659D01*
X234893703Y-152891078D01*
X234890074Y-152892868D01*
X234369266Y-153128842D01*
X234365517Y-153130395D01*
X233830416Y-153331793D01*
X233826573Y-153333098D01*
X233279418Y-153499075D01*
X233275499Y-153500125D01*
X232718674Y-153629959D01*
X232714694Y-153630750D01*
X232150565Y-153723888D01*
X232146541Y-153724418D01*
X231577540Y-153780460D01*
X231573490Y-153780725D01*
X231000000Y-153799500D01*
X69000000Y-153799500D01*
X68426509Y-153780725D01*
X68422459Y-153780460D01*
X67853458Y-153724418D01*
X67849434Y-153723888D01*
X67285305Y-153630750D01*
X67281330Y-153629960D01*
X67002912Y-153565042D01*
X66724500Y-153500125D01*
X66720581Y-153499075D01*
X66173426Y-153333098D01*
X66169583Y-153331793D01*
X65634482Y-153130395D01*
X65630733Y-153128842D01*
X65176797Y-152923167D01*
X65109912Y-152892861D01*
X65106308Y-152891084D01*
X64602034Y-152621544D01*
X64598526Y-152619519D01*
X64588543Y-152613311D01*
X64112956Y-152317571D01*
X64109624Y-152315345D01*
X63644841Y-151982286D01*
X63641635Y-151979825D01*
X63199652Y-151617098D01*
X63196601Y-151614422D01*
X63053225Y-151480136D01*
X62779280Y-151223559D01*
X62776440Y-151220719D01*
X62385577Y-150803398D01*
X62382901Y-150800347D01*
X62020174Y-150358364D01*
X62017716Y-150355162D01*
X62014018Y-150350002D01*
X173595034Y-150350002D01*
X173614858Y-150576599D01*
X173614860Y-150576610D01*
X173673730Y-150796317D01*
X173673734Y-150796326D01*
X173769865Y-151002481D01*
X173769866Y-151002483D01*
X173820973Y-151075471D01*
X173820974Y-151075472D01*
X174502046Y-150394399D01*
X174514835Y-150475148D01*
X174572359Y-150588045D01*
X174661955Y-150677641D01*
X174774852Y-150735165D01*
X174855599Y-150747953D01*
X174174526Y-151429025D01*
X174174526Y-151429026D01*
X174247512Y-151480131D01*
X174247516Y-151480133D01*
X174453673Y-151576265D01*
X174453682Y-151576269D01*
X174673389Y-151635139D01*
X174673400Y-151635141D01*
X174899998Y-151654966D01*
X174900002Y-151654966D01*
X175126599Y-151635141D01*
X175126610Y-151635139D01*
X175346317Y-151576269D01*
X175346331Y-151576264D01*
X175552478Y-151480136D01*
X175625472Y-151429025D01*
X174944401Y-150747953D01*
X175025148Y-150735165D01*
X175138045Y-150677641D01*
X175227641Y-150588045D01*
X175285165Y-150475148D01*
X175297953Y-150394400D01*
X175979025Y-151075472D01*
X176030136Y-151002478D01*
X176126264Y-150796331D01*
X176126269Y-150796317D01*
X176185139Y-150576610D01*
X176185141Y-150576599D01*
X176204966Y-150350002D01*
X176204966Y-150349997D01*
X176185141Y-150123400D01*
X176185139Y-150123389D01*
X176126269Y-149903682D01*
X176126265Y-149903673D01*
X176030133Y-149697516D01*
X176030131Y-149697512D01*
X175979026Y-149624526D01*
X175979025Y-149624526D01*
X175297953Y-150305598D01*
X175285165Y-150224852D01*
X175227641Y-150111955D01*
X175138045Y-150022359D01*
X175025148Y-149964835D01*
X174944400Y-149952046D01*
X175625472Y-149270974D01*
X175625471Y-149270973D01*
X175552483Y-149219866D01*
X175552481Y-149219865D01*
X175346326Y-149123734D01*
X175346317Y-149123730D01*
X175126610Y-149064860D01*
X175126599Y-149064858D01*
X174900002Y-149045034D01*
X174899998Y-149045034D01*
X174673400Y-149064858D01*
X174673389Y-149064860D01*
X174453682Y-149123730D01*
X174453673Y-149123734D01*
X174247513Y-149219868D01*
X174174527Y-149270972D01*
X174174526Y-149270973D01*
X174855600Y-149952046D01*
X174774852Y-149964835D01*
X174661955Y-150022359D01*
X174572359Y-150111955D01*
X174514835Y-150224852D01*
X174502046Y-150305599D01*
X173820973Y-149624526D01*
X173820972Y-149624527D01*
X173769868Y-149697513D01*
X173673734Y-149903673D01*
X173673730Y-149903682D01*
X173614860Y-150123389D01*
X173614858Y-150123400D01*
X173595034Y-150349997D01*
X173595034Y-150350002D01*
X62014018Y-150350002D01*
X61684649Y-149890368D01*
X61682432Y-149887050D01*
X61380474Y-149401463D01*
X61378460Y-149397975D01*
X61108908Y-148893679D01*
X61107143Y-148890100D01*
X60871156Y-148369264D01*
X60869610Y-148365533D01*
X60668201Y-147830402D01*
X60666901Y-147826573D01*
X60500920Y-147279404D01*
X60499878Y-147275515D01*
X60370034Y-146718645D01*
X60369249Y-146714694D01*
X60333885Y-146500500D01*
X60276110Y-146150558D01*
X60275583Y-146146560D01*
X60219538Y-145577526D01*
X60219274Y-145573490D01*
X60207440Y-145212003D01*
X64549500Y-145212003D01*
X64562677Y-145349999D01*
X64589804Y-145634093D01*
X64589806Y-145634105D01*
X64670045Y-146050423D01*
X64670049Y-146050440D01*
X64789500Y-146457256D01*
X64789504Y-146457268D01*
X64947088Y-146850893D01*
X64947090Y-146850897D01*
X64947092Y-146850901D01*
X65141383Y-147227773D01*
X65217669Y-147346477D01*
X65370614Y-147584465D01*
X65564032Y-147830416D01*
X65632722Y-147917763D01*
X65632731Y-147917772D01*
X65925323Y-148224633D01*
X66245762Y-148502295D01*
X66245775Y-148502306D01*
X66591134Y-148748235D01*
X66591142Y-148748241D01*
X66591149Y-148748245D01*
X66958350Y-148960248D01*
X67344040Y-149136387D01*
X67455136Y-149174837D01*
X67744714Y-149275062D01*
X67744720Y-149275063D01*
X67744727Y-149275066D01*
X68156782Y-149375029D01*
X68576473Y-149435372D01*
X68830507Y-149447473D01*
X68894046Y-149450500D01*
X68894050Y-149450500D01*
X69105954Y-149450500D01*
X69166466Y-149447617D01*
X69423527Y-149435372D01*
X69843218Y-149375029D01*
X70255273Y-149275066D01*
X70655960Y-149136387D01*
X71041650Y-148960248D01*
X71408851Y-148748245D01*
X71538724Y-148655763D01*
X71754224Y-148502306D01*
X71754227Y-148502303D01*
X71754236Y-148502297D01*
X72074679Y-148224631D01*
X72367278Y-147917763D01*
X72629381Y-147584471D01*
X72858617Y-147227774D01*
X73052908Y-146850901D01*
X73210496Y-146457267D01*
X73272865Y-146244856D01*
X166849500Y-146244856D01*
X166849502Y-146244882D01*
X166852413Y-146269987D01*
X166852415Y-146269991D01*
X166897793Y-146372764D01*
X166897794Y-146372765D01*
X166977235Y-146452206D01*
X167080009Y-146497585D01*
X167105135Y-146500500D01*
X168894864Y-146500499D01*
X168894879Y-146500497D01*
X168894882Y-146500497D01*
X168919987Y-146497586D01*
X168919988Y-146497585D01*
X168919991Y-146497585D01*
X169022765Y-146452206D01*
X169102206Y-146372765D01*
X169147585Y-146269991D01*
X169150500Y-146244865D01*
X169150499Y-145350000D01*
X173794785Y-145350000D01*
X173813602Y-145553082D01*
X173869417Y-145749247D01*
X173869422Y-145749260D01*
X173960327Y-145931821D01*
X174083237Y-146094581D01*
X174233958Y-146231980D01*
X174233960Y-146231982D01*
X174333141Y-146293392D01*
X174407363Y-146339348D01*
X174597544Y-146413024D01*
X174798024Y-146450500D01*
X174798026Y-146450500D01*
X175001974Y-146450500D01*
X175001976Y-146450500D01*
X175202456Y-146413024D01*
X175392637Y-146339348D01*
X175566041Y-146231981D01*
X175716764Y-146094579D01*
X175839673Y-145931821D01*
X175930582Y-145749250D01*
X175986397Y-145553083D01*
X176005215Y-145350000D01*
X177124785Y-145350000D01*
X177143602Y-145553082D01*
X177199417Y-145749247D01*
X177199422Y-145749260D01*
X177290327Y-145931821D01*
X177413237Y-146094581D01*
X177563958Y-146231980D01*
X177563960Y-146231982D01*
X177663141Y-146293392D01*
X177737363Y-146339348D01*
X177927544Y-146413024D01*
X178128024Y-146450500D01*
X178128026Y-146450500D01*
X178331974Y-146450500D01*
X178331976Y-146450500D01*
X178532456Y-146413024D01*
X178722637Y-146339348D01*
X178896041Y-146231981D01*
X179046764Y-146094579D01*
X179169673Y-145931821D01*
X179260582Y-145749250D01*
X179316397Y-145553083D01*
X179335215Y-145350000D01*
X192364785Y-145350000D01*
X192383602Y-145553082D01*
X192439417Y-145749247D01*
X192439422Y-145749260D01*
X192530327Y-145931821D01*
X192653237Y-146094581D01*
X192803958Y-146231980D01*
X192803960Y-146231982D01*
X192903141Y-146293392D01*
X192977363Y-146339348D01*
X193167544Y-146413024D01*
X193368024Y-146450500D01*
X193368026Y-146450500D01*
X193571974Y-146450500D01*
X193571976Y-146450500D01*
X193772456Y-146413024D01*
X193962637Y-146339348D01*
X194136041Y-146231981D01*
X194286764Y-146094579D01*
X194409673Y-145931821D01*
X194500582Y-145749250D01*
X194556397Y-145553083D01*
X194575215Y-145350000D01*
X194562428Y-145212003D01*
X226549500Y-145212003D01*
X226562677Y-145349999D01*
X226589804Y-145634093D01*
X226589806Y-145634105D01*
X226670045Y-146050423D01*
X226670049Y-146050440D01*
X226789500Y-146457256D01*
X226789504Y-146457268D01*
X226947088Y-146850893D01*
X226947090Y-146850897D01*
X226947092Y-146850901D01*
X227141383Y-147227773D01*
X227217669Y-147346477D01*
X227370614Y-147584465D01*
X227564032Y-147830416D01*
X227632722Y-147917763D01*
X227632731Y-147917772D01*
X227925323Y-148224633D01*
X228245762Y-148502295D01*
X228245775Y-148502306D01*
X228591134Y-148748235D01*
X228591142Y-148748241D01*
X228591149Y-148748245D01*
X228958350Y-148960248D01*
X229344040Y-149136387D01*
X229455136Y-149174837D01*
X229744714Y-149275062D01*
X229744720Y-149275063D01*
X229744727Y-149275066D01*
X230156782Y-149375029D01*
X230576473Y-149435372D01*
X230830507Y-149447473D01*
X230894046Y-149450500D01*
X230894050Y-149450500D01*
X231105954Y-149450500D01*
X231166466Y-149447617D01*
X231423527Y-149435372D01*
X231843218Y-149375029D01*
X232255273Y-149275066D01*
X232655960Y-149136387D01*
X233041650Y-148960248D01*
X233408851Y-148748245D01*
X233538724Y-148655763D01*
X233754224Y-148502306D01*
X233754227Y-148502303D01*
X233754236Y-148502297D01*
X234074679Y-148224631D01*
X234367278Y-147917763D01*
X234629381Y-147584471D01*
X234858617Y-147227774D01*
X235052908Y-146850901D01*
X235210496Y-146457267D01*
X235329952Y-146050435D01*
X235410196Y-145634090D01*
X235450500Y-145212003D01*
X235450500Y-144787997D01*
X235410196Y-144365910D01*
X235329952Y-143949565D01*
X235210496Y-143542733D01*
X235052908Y-143149099D01*
X234858617Y-142772227D01*
X234734557Y-142579186D01*
X234629385Y-142415534D01*
X234367285Y-142082246D01*
X234367278Y-142082237D01*
X234074679Y-141775369D01*
X233754236Y-141497703D01*
X233754234Y-141497702D01*
X233754224Y-141497693D01*
X233408865Y-141251764D01*
X233408857Y-141251758D01*
X233041654Y-141039754D01*
X232655969Y-140863617D01*
X232655967Y-140863616D01*
X232655960Y-140863613D01*
X232655952Y-140863610D01*
X232655944Y-140863607D01*
X232255285Y-140724937D01*
X232255274Y-140724934D01*
X231843219Y-140624971D01*
X231423530Y-140564628D01*
X231423531Y-140564628D01*
X231105954Y-140549500D01*
X231105950Y-140549500D01*
X230894050Y-140549500D01*
X230894046Y-140549500D01*
X230576468Y-140564628D01*
X230156780Y-140624971D01*
X229744725Y-140724934D01*
X229744714Y-140724937D01*
X229344055Y-140863607D01*
X229344030Y-140863617D01*
X228958345Y-141039754D01*
X228591142Y-141251758D01*
X228591134Y-141251764D01*
X228245775Y-141497693D01*
X228245762Y-141497704D01*
X227925323Y-141775366D01*
X227632731Y-142082227D01*
X227632714Y-142082246D01*
X227370610Y-142415540D01*
X227370608Y-142415543D01*
X227141387Y-142772218D01*
X227141383Y-142772225D01*
X226947087Y-143149108D01*
X226789504Y-143542731D01*
X226789500Y-143542743D01*
X226670049Y-143949559D01*
X226670045Y-143949576D01*
X226589806Y-144365894D01*
X226589804Y-144365906D01*
X226581284Y-144455135D01*
X226549500Y-144787997D01*
X226549500Y-145212003D01*
X194562428Y-145212003D01*
X194556397Y-145146917D01*
X194500582Y-144950750D01*
X194409673Y-144768179D01*
X194286764Y-144605421D01*
X194286762Y-144605418D01*
X194136041Y-144468019D01*
X194136039Y-144468017D01*
X193962642Y-144360655D01*
X193962635Y-144360651D01*
X193867546Y-144323814D01*
X193772456Y-144286976D01*
X193571976Y-144249500D01*
X193368024Y-144249500D01*
X193167544Y-144286976D01*
X193167541Y-144286976D01*
X193167541Y-144286977D01*
X192977364Y-144360651D01*
X192977357Y-144360655D01*
X192803960Y-144468017D01*
X192803958Y-144468019D01*
X192653237Y-144605418D01*
X192530327Y-144768178D01*
X192439422Y-144950739D01*
X192439417Y-144950752D01*
X192383602Y-145146917D01*
X192364785Y-145349999D01*
X192364785Y-145350000D01*
X179335215Y-145350000D01*
X179316397Y-145146917D01*
X179260582Y-144950750D01*
X179169673Y-144768179D01*
X179046764Y-144605421D01*
X179046762Y-144605418D01*
X178896041Y-144468019D01*
X178896039Y-144468017D01*
X178722642Y-144360655D01*
X178722635Y-144360651D01*
X178627546Y-144323814D01*
X178532456Y-144286976D01*
X178331976Y-144249500D01*
X178128024Y-144249500D01*
X177927544Y-144286976D01*
X177927541Y-144286976D01*
X177927541Y-144286977D01*
X177737364Y-144360651D01*
X177737357Y-144360655D01*
X177563960Y-144468017D01*
X177563958Y-144468019D01*
X177413237Y-144605418D01*
X177290327Y-144768178D01*
X177199422Y-144950739D01*
X177199417Y-144950752D01*
X177143602Y-145146917D01*
X177124785Y-145349999D01*
X177124785Y-145350000D01*
X176005215Y-145350000D01*
X175986397Y-145146917D01*
X175930582Y-144950750D01*
X175839673Y-144768179D01*
X175716764Y-144605421D01*
X175716762Y-144605418D01*
X175566041Y-144468019D01*
X175566039Y-144468017D01*
X175392642Y-144360655D01*
X175392635Y-144360651D01*
X175297546Y-144323814D01*
X175202456Y-144286976D01*
X175001976Y-144249500D01*
X174798024Y-144249500D01*
X174597544Y-144286976D01*
X174597541Y-144286976D01*
X174597541Y-144286977D01*
X174407364Y-144360651D01*
X174407357Y-144360655D01*
X174233960Y-144468017D01*
X174233958Y-144468019D01*
X174083237Y-144605418D01*
X173960327Y-144768178D01*
X173869422Y-144950739D01*
X173869417Y-144950752D01*
X173813602Y-145146917D01*
X173794785Y-145349999D01*
X173794785Y-145350000D01*
X169150499Y-145350000D01*
X169150499Y-144455136D01*
X169150497Y-144455117D01*
X169147586Y-144430012D01*
X169147585Y-144430010D01*
X169147585Y-144430009D01*
X169102206Y-144327235D01*
X169022765Y-144247794D01*
X169022763Y-144247793D01*
X168919992Y-144202415D01*
X168894865Y-144199500D01*
X167105143Y-144199500D01*
X167105117Y-144199502D01*
X167080012Y-144202413D01*
X167080008Y-144202415D01*
X166977235Y-144247793D01*
X166897794Y-144327234D01*
X166852415Y-144430006D01*
X166852415Y-144430008D01*
X166849500Y-144455131D01*
X166849500Y-146244856D01*
X73272865Y-146244856D01*
X73329952Y-146050435D01*
X73410196Y-145634090D01*
X73450500Y-145212003D01*
X73450500Y-144787997D01*
X73410196Y-144365910D01*
X73329952Y-143949565D01*
X73210496Y-143542733D01*
X73052908Y-143149099D01*
X72858617Y-142772227D01*
X72734557Y-142579186D01*
X72629385Y-142415534D01*
X72367285Y-142082246D01*
X72367278Y-142082237D01*
X72074679Y-141775369D01*
X71754236Y-141497703D01*
X71754234Y-141497702D01*
X71754224Y-141497693D01*
X71408865Y-141251764D01*
X71408857Y-141251758D01*
X71041654Y-141039754D01*
X70655969Y-140863617D01*
X70655967Y-140863616D01*
X70655960Y-140863613D01*
X70655952Y-140863610D01*
X70655944Y-140863607D01*
X70255285Y-140724937D01*
X70255274Y-140724934D01*
X69843219Y-140624971D01*
X69423530Y-140564628D01*
X69423531Y-140564628D01*
X69105954Y-140549500D01*
X69105950Y-140549500D01*
X68894050Y-140549500D01*
X68894046Y-140549500D01*
X68576468Y-140564628D01*
X68156780Y-140624971D01*
X67744725Y-140724934D01*
X67744714Y-140724937D01*
X67344055Y-140863607D01*
X67344030Y-140863617D01*
X66958345Y-141039754D01*
X66591142Y-141251758D01*
X66591134Y-141251764D01*
X66245775Y-141497693D01*
X66245762Y-141497704D01*
X65925323Y-141775366D01*
X65632731Y-142082227D01*
X65632714Y-142082246D01*
X65370610Y-142415540D01*
X65370608Y-142415543D01*
X65141387Y-142772218D01*
X65141383Y-142772225D01*
X64947087Y-143149108D01*
X64789504Y-143542731D01*
X64789500Y-143542743D01*
X64670049Y-143949559D01*
X64670045Y-143949576D01*
X64589806Y-144365894D01*
X64589804Y-144365906D01*
X64581284Y-144455135D01*
X64549500Y-144787997D01*
X64549500Y-145212003D01*
X60207440Y-145212003D01*
X60200500Y-145000000D01*
X60200500Y-131897844D01*
X154550000Y-131897844D01*
X154556401Y-131957372D01*
X154556403Y-131957379D01*
X154606645Y-132092086D01*
X154606649Y-132092093D01*
X154692809Y-132207187D01*
X154692812Y-132207190D01*
X154807906Y-132293350D01*
X154807913Y-132293354D01*
X154942620Y-132343596D01*
X154942627Y-132343598D01*
X155002155Y-132349999D01*
X155002172Y-132350000D01*
X155650000Y-132350000D01*
X155650000Y-131435501D01*
X155757685Y-131484680D01*
X155864237Y-131500000D01*
X155935763Y-131500000D01*
X156042315Y-131484680D01*
X156150000Y-131435501D01*
X156150000Y-132350000D01*
X156797828Y-132350000D01*
X156797844Y-132349999D01*
X156857372Y-132343598D01*
X156857379Y-132343596D01*
X156992086Y-132293354D01*
X156992093Y-132293350D01*
X157107187Y-132207190D01*
X157107190Y-132207187D01*
X157193350Y-132092093D01*
X157193354Y-132092086D01*
X157243596Y-131957379D01*
X157243598Y-131957372D01*
X157249999Y-131897844D01*
X157250000Y-131897827D01*
X157250000Y-131250000D01*
X156333686Y-131250000D01*
X156359493Y-131209844D01*
X156400000Y-131071889D01*
X156400000Y-130928111D01*
X156359493Y-130790156D01*
X156333686Y-130750000D01*
X157250000Y-130750000D01*
X157250000Y-130749999D01*
X158601127Y-130749999D01*
X158601128Y-130750000D01*
X159564314Y-130750000D01*
X159552359Y-130761955D01*
X159494835Y-130874852D01*
X159475014Y-131000000D01*
X159494835Y-131125148D01*
X159552359Y-131238045D01*
X159564314Y-131250000D01*
X158601128Y-131250000D01*
X158653730Y-131446317D01*
X158653734Y-131446326D01*
X158749865Y-131652482D01*
X158880342Y-131838820D01*
X159041179Y-131999657D01*
X159227517Y-132130134D01*
X159433673Y-132226265D01*
X159433682Y-132226269D01*
X159629999Y-132278872D01*
X159630000Y-132278871D01*
X159630000Y-131315686D01*
X159641955Y-131327641D01*
X159754852Y-131385165D01*
X159848519Y-131400000D01*
X159911481Y-131400000D01*
X160005148Y-131385165D01*
X160118045Y-131327641D01*
X160130000Y-131315686D01*
X160130000Y-132278872D01*
X160326317Y-132226269D01*
X160326326Y-132226265D01*
X160532482Y-132130134D01*
X160718820Y-131999657D01*
X160879657Y-131838820D01*
X161010134Y-131652482D01*
X161106265Y-131446326D01*
X161106269Y-131446317D01*
X161158872Y-131250000D01*
X160195686Y-131250000D01*
X160207641Y-131238045D01*
X160265165Y-131125148D01*
X160284986Y-131000000D01*
X174014785Y-131000000D01*
X174033602Y-131203082D01*
X174089417Y-131399247D01*
X174089422Y-131399260D01*
X174180327Y-131581821D01*
X174303237Y-131744581D01*
X174453958Y-131881980D01*
X174453960Y-131881982D01*
X174553141Y-131943392D01*
X174627363Y-131989348D01*
X174817544Y-132063024D01*
X175018024Y-132100500D01*
X175018026Y-132100500D01*
X175221974Y-132100500D01*
X175221976Y-132100500D01*
X175422456Y-132063024D01*
X175612637Y-131989348D01*
X175786041Y-131881981D01*
X175936764Y-131744579D01*
X176059673Y-131581821D01*
X176150582Y-131399250D01*
X176206397Y-131203083D01*
X176225215Y-131000000D01*
X177174785Y-131000000D01*
X177193602Y-131203082D01*
X177249417Y-131399247D01*
X177249422Y-131399260D01*
X177340327Y-131581821D01*
X177463237Y-131744581D01*
X177613958Y-131881980D01*
X177613960Y-131881982D01*
X177713141Y-131943392D01*
X177787363Y-131989348D01*
X177977544Y-132063024D01*
X178178024Y-132100500D01*
X178178026Y-132100500D01*
X178381974Y-132100500D01*
X178381976Y-132100500D01*
X178582456Y-132063024D01*
X178772637Y-131989348D01*
X178946041Y-131881981D01*
X179096764Y-131744579D01*
X179219673Y-131581821D01*
X179310582Y-131399250D01*
X179366397Y-131203083D01*
X179385215Y-131000000D01*
X192414785Y-131000000D01*
X192433602Y-131203082D01*
X192489417Y-131399247D01*
X192489422Y-131399260D01*
X192580327Y-131581821D01*
X192703237Y-131744581D01*
X192853958Y-131881980D01*
X192853960Y-131881982D01*
X192953141Y-131943392D01*
X193027363Y-131989348D01*
X193217544Y-132063024D01*
X193418024Y-132100500D01*
X193418026Y-132100500D01*
X193621974Y-132100500D01*
X193621976Y-132100500D01*
X193822456Y-132063024D01*
X194012637Y-131989348D01*
X194186041Y-131881981D01*
X194336764Y-131744579D01*
X194459673Y-131581821D01*
X194550582Y-131399250D01*
X194606397Y-131203083D01*
X194625215Y-131000000D01*
X194606397Y-130796917D01*
X194550582Y-130600750D01*
X194459673Y-130418179D01*
X194336764Y-130255421D01*
X194336762Y-130255418D01*
X194186041Y-130118019D01*
X194186039Y-130118017D01*
X194012642Y-130010655D01*
X194012635Y-130010651D01*
X193917546Y-129973814D01*
X193822456Y-129936976D01*
X193621976Y-129899500D01*
X193418024Y-129899500D01*
X193217544Y-129936976D01*
X193217541Y-129936976D01*
X193217541Y-129936977D01*
X193027364Y-130010651D01*
X193027357Y-130010655D01*
X192853960Y-130118017D01*
X192853958Y-130118019D01*
X192703237Y-130255418D01*
X192580327Y-130418178D01*
X192489422Y-130600739D01*
X192489417Y-130600752D01*
X192433602Y-130796917D01*
X192414785Y-130999999D01*
X192414785Y-131000000D01*
X179385215Y-131000000D01*
X179366397Y-130796917D01*
X179310582Y-130600750D01*
X179219673Y-130418179D01*
X179096764Y-130255421D01*
X179096762Y-130255418D01*
X178946041Y-130118019D01*
X178946039Y-130118017D01*
X178772642Y-130010655D01*
X178772635Y-130010651D01*
X178677546Y-129973814D01*
X178582456Y-129936976D01*
X178381976Y-129899500D01*
X178178024Y-129899500D01*
X177977544Y-129936976D01*
X177977541Y-129936976D01*
X177977541Y-129936977D01*
X177787364Y-130010651D01*
X177787357Y-130010655D01*
X177613960Y-130118017D01*
X177613958Y-130118019D01*
X177463237Y-130255418D01*
X177340327Y-130418178D01*
X177249422Y-130600739D01*
X177249417Y-130600752D01*
X177193602Y-130796917D01*
X177174785Y-130999999D01*
X177174785Y-131000000D01*
X176225215Y-131000000D01*
X176206397Y-130796917D01*
X176150582Y-130600750D01*
X176059673Y-130418179D01*
X175936764Y-130255421D01*
X175936762Y-130255418D01*
X175786041Y-130118019D01*
X175786039Y-130118017D01*
X175612642Y-130010655D01*
X175612635Y-130010651D01*
X175517546Y-129973814D01*
X175422456Y-129936976D01*
X175221976Y-129899500D01*
X175018024Y-129899500D01*
X174817544Y-129936976D01*
X174817541Y-129936976D01*
X174817541Y-129936977D01*
X174627364Y-130010651D01*
X174627357Y-130010655D01*
X174453960Y-130118017D01*
X174453958Y-130118019D01*
X174303237Y-130255418D01*
X174180327Y-130418178D01*
X174089422Y-130600739D01*
X174089417Y-130600752D01*
X174033602Y-130796917D01*
X174014785Y-130999999D01*
X174014785Y-131000000D01*
X160284986Y-131000000D01*
X160265165Y-130874852D01*
X160207641Y-130761955D01*
X160195686Y-130750000D01*
X161158872Y-130750000D01*
X161158872Y-130749999D01*
X161106269Y-130553682D01*
X161106265Y-130553673D01*
X161010134Y-130347517D01*
X160879657Y-130161179D01*
X160718820Y-130000342D01*
X160532482Y-129869865D01*
X160326328Y-129773734D01*
X160130000Y-129721127D01*
X160130000Y-130684314D01*
X160118045Y-130672359D01*
X160005148Y-130614835D01*
X159911481Y-130600000D01*
X159848519Y-130600000D01*
X159754852Y-130614835D01*
X159641955Y-130672359D01*
X159630000Y-130684314D01*
X159630000Y-129721127D01*
X159433671Y-129773734D01*
X159227517Y-129869865D01*
X159041179Y-130000342D01*
X158880342Y-130161179D01*
X158749865Y-130347517D01*
X158653734Y-130553673D01*
X158653730Y-130553682D01*
X158601127Y-130749999D01*
X157250000Y-130749999D01*
X157250000Y-130102172D01*
X157249999Y-130102155D01*
X157243598Y-130042627D01*
X157243596Y-130042620D01*
X157193354Y-129907913D01*
X157193350Y-129907906D01*
X157107190Y-129792812D01*
X157107187Y-129792809D01*
X156992093Y-129706649D01*
X156992086Y-129706645D01*
X156857379Y-129656403D01*
X156857372Y-129656401D01*
X156797844Y-129650000D01*
X156150000Y-129650000D01*
X156150000Y-130564498D01*
X156042315Y-130515320D01*
X155935763Y-130500000D01*
X155864237Y-130500000D01*
X155757685Y-130515320D01*
X155650000Y-130564498D01*
X155650000Y-129650000D01*
X155002155Y-129650000D01*
X154942627Y-129656401D01*
X154942620Y-129656403D01*
X154807913Y-129706645D01*
X154807906Y-129706649D01*
X154692812Y-129792809D01*
X154692809Y-129792812D01*
X154606649Y-129907906D01*
X154606645Y-129907913D01*
X154556403Y-130042620D01*
X154556401Y-130042627D01*
X154550000Y-130102155D01*
X154550000Y-130750000D01*
X155466314Y-130750000D01*
X155440507Y-130790156D01*
X155400000Y-130928111D01*
X155400000Y-131071889D01*
X155440507Y-131209844D01*
X155466314Y-131250000D01*
X154550000Y-131250000D01*
X154550000Y-131897844D01*
X60200500Y-131897844D01*
X60200500Y-124647844D01*
X63300000Y-124647844D01*
X63306401Y-124707372D01*
X63306403Y-124707379D01*
X63356645Y-124842086D01*
X63356649Y-124842093D01*
X63442809Y-124957187D01*
X63442812Y-124957190D01*
X63557906Y-125043350D01*
X63557913Y-125043354D01*
X63692620Y-125093596D01*
X63692627Y-125093598D01*
X63752155Y-125099999D01*
X63752172Y-125100000D01*
X64350000Y-125100000D01*
X64350000Y-124115686D01*
X64361955Y-124127641D01*
X64474852Y-124185165D01*
X64568519Y-124200000D01*
X64631481Y-124200000D01*
X64725148Y-124185165D01*
X64838045Y-124127641D01*
X64850000Y-124115686D01*
X64850000Y-125100000D01*
X65447828Y-125100000D01*
X65447844Y-125099999D01*
X65507372Y-125093598D01*
X65507379Y-125093596D01*
X65642086Y-125043354D01*
X65642093Y-125043350D01*
X65757187Y-124957190D01*
X65757190Y-124957187D01*
X65843350Y-124842093D01*
X65843354Y-124842086D01*
X65893596Y-124707379D01*
X65893598Y-124707372D01*
X65899999Y-124647844D01*
X65900000Y-124647827D01*
X65900000Y-124386229D01*
X65919685Y-124319190D01*
X65972489Y-124273435D01*
X66041647Y-124263491D01*
X66105203Y-124292516D01*
X66135000Y-124330958D01*
X66160327Y-124381821D01*
X66221781Y-124463200D01*
X66283237Y-124544581D01*
X66433958Y-124681980D01*
X66433960Y-124681982D01*
X66474967Y-124707372D01*
X66607363Y-124789348D01*
X66797544Y-124863024D01*
X66998024Y-124900500D01*
X66998026Y-124900500D01*
X67201974Y-124900500D01*
X67201976Y-124900500D01*
X67402456Y-124863024D01*
X67592637Y-124789348D01*
X67766041Y-124681981D01*
X67916764Y-124544579D01*
X68039673Y-124381821D01*
X68130582Y-124199250D01*
X68186397Y-124003083D01*
X68205215Y-123800000D01*
X68193156Y-123669865D01*
X68186397Y-123596917D01*
X68173048Y-123550000D01*
X68130582Y-123400750D01*
X68075435Y-123289999D01*
X71521127Y-123289999D01*
X71521128Y-123290000D01*
X72484314Y-123290000D01*
X72472359Y-123301955D01*
X72414835Y-123414852D01*
X72395014Y-123540000D01*
X72414835Y-123665148D01*
X72472359Y-123778045D01*
X72484314Y-123790000D01*
X71521128Y-123790000D01*
X71573730Y-123986317D01*
X71573734Y-123986326D01*
X71669865Y-124192482D01*
X71800342Y-124378820D01*
X71961179Y-124539657D01*
X72147517Y-124670134D01*
X72353673Y-124766265D01*
X72353682Y-124766269D01*
X72549999Y-124818872D01*
X72550000Y-124818871D01*
X72550000Y-123855686D01*
X72561955Y-123867641D01*
X72674852Y-123925165D01*
X72768519Y-123940000D01*
X72831481Y-123940000D01*
X72925148Y-123925165D01*
X73038045Y-123867641D01*
X73050000Y-123855686D01*
X73050000Y-124818872D01*
X73246317Y-124766269D01*
X73246326Y-124766265D01*
X73452482Y-124670134D01*
X73638820Y-124539657D01*
X73788478Y-124389999D01*
X226353627Y-124389999D01*
X226353628Y-124390000D01*
X227316814Y-124390000D01*
X227304859Y-124401955D01*
X227247335Y-124514852D01*
X227227514Y-124640000D01*
X227247335Y-124765148D01*
X227304859Y-124878045D01*
X227316814Y-124890000D01*
X226353628Y-124890000D01*
X226406230Y-125086317D01*
X226406234Y-125086326D01*
X226502365Y-125292482D01*
X226632842Y-125478820D01*
X226793679Y-125639657D01*
X226980017Y-125770134D01*
X227186173Y-125866265D01*
X227186182Y-125866269D01*
X227382499Y-125918872D01*
X227382500Y-125918871D01*
X227382500Y-124955686D01*
X227394455Y-124967641D01*
X227507352Y-125025165D01*
X227601019Y-125040000D01*
X227663981Y-125040000D01*
X227757648Y-125025165D01*
X227870545Y-124967641D01*
X227882500Y-124955686D01*
X227882500Y-125918872D01*
X228078817Y-125866269D01*
X228078826Y-125866265D01*
X228284982Y-125770134D01*
X228463895Y-125644856D01*
X231617121Y-125644856D01*
X231617123Y-125644882D01*
X231620034Y-125669987D01*
X231620036Y-125669991D01*
X231665414Y-125772764D01*
X231665415Y-125772765D01*
X231744856Y-125852206D01*
X231847630Y-125897585D01*
X231872756Y-125900500D01*
X233562485Y-125900499D01*
X233562500Y-125900497D01*
X233562503Y-125900497D01*
X233587608Y-125897586D01*
X233587609Y-125897585D01*
X233587612Y-125897585D01*
X233690386Y-125852206D01*
X233769827Y-125772765D01*
X233815206Y-125669991D01*
X233818121Y-125644865D01*
X233818120Y-125434150D01*
X233837804Y-125367113D01*
X233890608Y-125321358D01*
X233959766Y-125311414D01*
X234023322Y-125340439D01*
X234054502Y-125381747D01*
X234087486Y-125452481D01*
X234087487Y-125452483D01*
X234138594Y-125525471D01*
X234138595Y-125525472D01*
X234819667Y-124844399D01*
X234832456Y-124925148D01*
X234889980Y-125038045D01*
X234979576Y-125127641D01*
X235092473Y-125185165D01*
X235173220Y-125197953D01*
X234492147Y-125879025D01*
X234492147Y-125879026D01*
X234565133Y-125930131D01*
X234565137Y-125930133D01*
X234771294Y-126026265D01*
X234771303Y-126026269D01*
X234991010Y-126085139D01*
X234991021Y-126085141D01*
X235217619Y-126104966D01*
X235217623Y-126104966D01*
X235444220Y-126085141D01*
X235444231Y-126085139D01*
X235663938Y-126026269D01*
X235663952Y-126026264D01*
X235870099Y-125930136D01*
X235943093Y-125879025D01*
X235262022Y-125197953D01*
X235342769Y-125185165D01*
X235455666Y-125127641D01*
X235545262Y-125038045D01*
X235602786Y-124925148D01*
X235615574Y-124844400D01*
X236296646Y-125525472D01*
X236347757Y-125452478D01*
X236443885Y-125246331D01*
X236443890Y-125246317D01*
X236502760Y-125026610D01*
X236502762Y-125026599D01*
X236522587Y-124800002D01*
X236522587Y-124799997D01*
X236502762Y-124573400D01*
X236502760Y-124573389D01*
X236443890Y-124353681D01*
X236443886Y-124353673D01*
X236347754Y-124147516D01*
X236347752Y-124147512D01*
X236296647Y-124074526D01*
X236296646Y-124074526D01*
X235615574Y-124755598D01*
X235602786Y-124674852D01*
X235545262Y-124561955D01*
X235455666Y-124472359D01*
X235342769Y-124414835D01*
X235262021Y-124402046D01*
X235943093Y-123720974D01*
X235943092Y-123720973D01*
X235870104Y-123669866D01*
X235870102Y-123669865D01*
X235663947Y-123573734D01*
X235663938Y-123573730D01*
X235444231Y-123514860D01*
X235444220Y-123514858D01*
X235217623Y-123495034D01*
X235217619Y-123495034D01*
X234991021Y-123514858D01*
X234991010Y-123514860D01*
X234771303Y-123573730D01*
X234771294Y-123573734D01*
X234565134Y-123669868D01*
X234492148Y-123720972D01*
X234492147Y-123720973D01*
X235173221Y-124402046D01*
X235092473Y-124414835D01*
X234979576Y-124472359D01*
X234889980Y-124561955D01*
X234832456Y-124674852D01*
X234819667Y-124755599D01*
X234138594Y-124074526D01*
X234138593Y-124074527D01*
X234087488Y-124147513D01*
X234054502Y-124218253D01*
X234008329Y-124270692D01*
X233941136Y-124289844D01*
X233874254Y-124269628D01*
X233828920Y-124216462D01*
X233818120Y-124165848D01*
X233818120Y-123955143D01*
X233818120Y-123955136D01*
X233816365Y-123940000D01*
X233815207Y-123930012D01*
X233815206Y-123930010D01*
X233815206Y-123930009D01*
X233769827Y-123827235D01*
X233690386Y-123747794D01*
X233690384Y-123747793D01*
X233587613Y-123702415D01*
X233562486Y-123699500D01*
X231872764Y-123699500D01*
X231872738Y-123699502D01*
X231847633Y-123702413D01*
X231847629Y-123702415D01*
X231744856Y-123747793D01*
X231665415Y-123827234D01*
X231620036Y-123930006D01*
X231620036Y-123930008D01*
X231617121Y-123955131D01*
X231617121Y-125644856D01*
X228463895Y-125644856D01*
X228471320Y-125639657D01*
X228632157Y-125478820D01*
X228762634Y-125292482D01*
X228858765Y-125086326D01*
X228858769Y-125086317D01*
X228911372Y-124890000D01*
X227948186Y-124890000D01*
X227960141Y-124878045D01*
X228017665Y-124765148D01*
X228037486Y-124640000D01*
X228017665Y-124514852D01*
X227960141Y-124401955D01*
X227948186Y-124390000D01*
X228911372Y-124390000D01*
X228911372Y-124389999D01*
X228858769Y-124193682D01*
X228858765Y-124193673D01*
X228762634Y-123987517D01*
X228632157Y-123801179D01*
X228471320Y-123640342D01*
X228284982Y-123509865D01*
X228078828Y-123413734D01*
X227882500Y-123361127D01*
X227882500Y-124324314D01*
X227870545Y-124312359D01*
X227757648Y-124254835D01*
X227663981Y-124240000D01*
X227601019Y-124240000D01*
X227507352Y-124254835D01*
X227394455Y-124312359D01*
X227382500Y-124324314D01*
X227382500Y-123361127D01*
X227186171Y-123413734D01*
X226980017Y-123509865D01*
X226793679Y-123640342D01*
X226632842Y-123801179D01*
X226502365Y-123987517D01*
X226406234Y-124193673D01*
X226406230Y-124193682D01*
X226353627Y-124389999D01*
X73788478Y-124389999D01*
X73799657Y-124378820D01*
X73930134Y-124192482D01*
X74026265Y-123986326D01*
X74026269Y-123986317D01*
X74078872Y-123790000D01*
X73115686Y-123790000D01*
X73127641Y-123778045D01*
X73185165Y-123665148D01*
X73204986Y-123540000D01*
X73185165Y-123414852D01*
X73127641Y-123301955D01*
X73115686Y-123290000D01*
X74078872Y-123290000D01*
X74078872Y-123289999D01*
X74026269Y-123093682D01*
X74026265Y-123093673D01*
X73930134Y-122887517D01*
X73799657Y-122701179D01*
X73638820Y-122540342D01*
X73452482Y-122409865D01*
X73246328Y-122313734D01*
X73050000Y-122261127D01*
X73050000Y-123224314D01*
X73038045Y-123212359D01*
X72925148Y-123154835D01*
X72831481Y-123140000D01*
X72768519Y-123140000D01*
X72674852Y-123154835D01*
X72561955Y-123212359D01*
X72550000Y-123224314D01*
X72550000Y-122261127D01*
X72353671Y-122313734D01*
X72147517Y-122409865D01*
X71961179Y-122540342D01*
X71800342Y-122701179D01*
X71669865Y-122887517D01*
X71573734Y-123093673D01*
X71573730Y-123093682D01*
X71521127Y-123289999D01*
X68075435Y-123289999D01*
X68039673Y-123218179D01*
X67916764Y-123055421D01*
X67916762Y-123055418D01*
X67766041Y-122918019D01*
X67766039Y-122918017D01*
X67592642Y-122810655D01*
X67592635Y-122810651D01*
X67456483Y-122757906D01*
X67402456Y-122736976D01*
X67201976Y-122699500D01*
X66998024Y-122699500D01*
X66797544Y-122736976D01*
X66797541Y-122736976D01*
X66797541Y-122736977D01*
X66607364Y-122810651D01*
X66607357Y-122810655D01*
X66433960Y-122918017D01*
X66433958Y-122918019D01*
X66283237Y-123055418D01*
X66160327Y-123218178D01*
X66135000Y-123269042D01*
X66087497Y-123320279D01*
X66019834Y-123337700D01*
X65953494Y-123315774D01*
X65909539Y-123261463D01*
X65900000Y-123213770D01*
X65900000Y-122952172D01*
X65899999Y-122952155D01*
X65893598Y-122892627D01*
X65893596Y-122892620D01*
X65843354Y-122757913D01*
X65843350Y-122757906D01*
X65757190Y-122642812D01*
X65757187Y-122642809D01*
X65642093Y-122556649D01*
X65642086Y-122556645D01*
X65507379Y-122506403D01*
X65507372Y-122506401D01*
X65447844Y-122500000D01*
X64850000Y-122500000D01*
X64850000Y-123484314D01*
X64838045Y-123472359D01*
X64725148Y-123414835D01*
X64631481Y-123400000D01*
X64568519Y-123400000D01*
X64474852Y-123414835D01*
X64361955Y-123472359D01*
X64350000Y-123484314D01*
X64350000Y-122500000D01*
X63752155Y-122500000D01*
X63692627Y-122506401D01*
X63692620Y-122506403D01*
X63557913Y-122556645D01*
X63557906Y-122556649D01*
X63442812Y-122642809D01*
X63442809Y-122642812D01*
X63356649Y-122757906D01*
X63356645Y-122757913D01*
X63306403Y-122892620D01*
X63306401Y-122892627D01*
X63300000Y-122952155D01*
X63300000Y-123550000D01*
X64284314Y-123550000D01*
X64272359Y-123561955D01*
X64214835Y-123674852D01*
X64195014Y-123800000D01*
X64214835Y-123925148D01*
X64272359Y-124038045D01*
X64284314Y-124050000D01*
X63300000Y-124050000D01*
X63300000Y-124647844D01*
X60200500Y-124647844D01*
X60200500Y-119500000D01*
X174144571Y-119500000D01*
X174164244Y-119712310D01*
X174222596Y-119917392D01*
X174222596Y-119917394D01*
X174317632Y-120108253D01*
X174317634Y-120108255D01*
X174446128Y-120278407D01*
X174603698Y-120422052D01*
X174784981Y-120534298D01*
X174983802Y-120611321D01*
X175156544Y-120643612D01*
X175218823Y-120675279D01*
X175254096Y-120735591D01*
X175251162Y-120805400D01*
X175210953Y-120862540D01*
X175146235Y-120888871D01*
X175133757Y-120889500D01*
X174405143Y-120889500D01*
X174405117Y-120889502D01*
X174380012Y-120892413D01*
X174380008Y-120892415D01*
X174277235Y-120937793D01*
X174197794Y-121017234D01*
X174152415Y-121120006D01*
X174152415Y-121120008D01*
X174149500Y-121145131D01*
X174149500Y-122934856D01*
X174149502Y-122934882D01*
X174152413Y-122959987D01*
X174152415Y-122959991D01*
X174197793Y-123062764D01*
X174197794Y-123062765D01*
X174277235Y-123142206D01*
X174380009Y-123187585D01*
X174405135Y-123190500D01*
X176194864Y-123190499D01*
X176194879Y-123190497D01*
X176194882Y-123190497D01*
X176219987Y-123187586D01*
X176219988Y-123187585D01*
X176219991Y-123187585D01*
X176322765Y-123142206D01*
X176402206Y-123062765D01*
X176447585Y-122959991D01*
X176450500Y-122934865D01*
X176450499Y-121145136D01*
X176450497Y-121145117D01*
X176447586Y-121120012D01*
X176447585Y-121120010D01*
X176447585Y-121120009D01*
X176402206Y-121017235D01*
X176322765Y-120937794D01*
X176322763Y-120937793D01*
X176219992Y-120892415D01*
X176194868Y-120889500D01*
X175466243Y-120889500D01*
X175399204Y-120869815D01*
X175353449Y-120817011D01*
X175343505Y-120747853D01*
X175372530Y-120684297D01*
X175431308Y-120646523D01*
X175443441Y-120643614D01*
X175616198Y-120611321D01*
X175815019Y-120534298D01*
X175996302Y-120422052D01*
X176153872Y-120278407D01*
X176282366Y-120108255D01*
X176377405Y-119917389D01*
X176435756Y-119712310D01*
X176455429Y-119500000D01*
X192344571Y-119500000D01*
X192364244Y-119712310D01*
X192422596Y-119917392D01*
X192422596Y-119917394D01*
X192517632Y-120108253D01*
X192517634Y-120108255D01*
X192646128Y-120278407D01*
X192803698Y-120422052D01*
X192984981Y-120534298D01*
X193183802Y-120611321D01*
X193356544Y-120643612D01*
X193418823Y-120675279D01*
X193454096Y-120735591D01*
X193451162Y-120805400D01*
X193410953Y-120862540D01*
X193346235Y-120888871D01*
X193333757Y-120889500D01*
X192605143Y-120889500D01*
X192605117Y-120889502D01*
X192580012Y-120892413D01*
X192580008Y-120892415D01*
X192477235Y-120937793D01*
X192397794Y-121017234D01*
X192352415Y-121120006D01*
X192352415Y-121120008D01*
X192349500Y-121145131D01*
X192349500Y-122934856D01*
X192349502Y-122934882D01*
X192352413Y-122959987D01*
X192352415Y-122959991D01*
X192397793Y-123062764D01*
X192397794Y-123062765D01*
X192477235Y-123142206D01*
X192580009Y-123187585D01*
X192605135Y-123190500D01*
X194394864Y-123190499D01*
X194394879Y-123190497D01*
X194394882Y-123190497D01*
X194419987Y-123187586D01*
X194419988Y-123187585D01*
X194419991Y-123187585D01*
X194522765Y-123142206D01*
X194602206Y-123062765D01*
X194647585Y-122959991D01*
X194650500Y-122934865D01*
X194650499Y-121145136D01*
X194650497Y-121145117D01*
X194647586Y-121120012D01*
X194647585Y-121120010D01*
X194647585Y-121120009D01*
X194602206Y-121017235D01*
X194522765Y-120937794D01*
X194522763Y-120937793D01*
X194419992Y-120892415D01*
X194394868Y-120889500D01*
X193666243Y-120889500D01*
X193599204Y-120869815D01*
X193553449Y-120817011D01*
X193543505Y-120747853D01*
X193572530Y-120684297D01*
X193631308Y-120646523D01*
X193643441Y-120643614D01*
X193816198Y-120611321D01*
X194015019Y-120534298D01*
X194196302Y-120422052D01*
X194353872Y-120278407D01*
X194482366Y-120108255D01*
X194577405Y-119917389D01*
X194635756Y-119712310D01*
X194655429Y-119500000D01*
X194635756Y-119287690D01*
X194577405Y-119082611D01*
X194577403Y-119082606D01*
X194577403Y-119082605D01*
X194482367Y-118891746D01*
X194353872Y-118721593D01*
X194196302Y-118577948D01*
X194015019Y-118465702D01*
X194015017Y-118465701D01*
X193915608Y-118427190D01*
X193816198Y-118388679D01*
X193606610Y-118349500D01*
X193393390Y-118349500D01*
X193183802Y-118388679D01*
X193183799Y-118388679D01*
X193183799Y-118388680D01*
X192984982Y-118465701D01*
X192984980Y-118465702D01*
X192803699Y-118577947D01*
X192646127Y-118721593D01*
X192517632Y-118891746D01*
X192422596Y-119082605D01*
X192422596Y-119082607D01*
X192364244Y-119287689D01*
X192344571Y-119499999D01*
X192344571Y-119500000D01*
X176455429Y-119500000D01*
X176435756Y-119287690D01*
X176377405Y-119082611D01*
X176377403Y-119082606D01*
X176377403Y-119082605D01*
X176282367Y-118891746D01*
X176153872Y-118721593D01*
X175996302Y-118577948D01*
X175815019Y-118465702D01*
X175815017Y-118465701D01*
X175715608Y-118427190D01*
X175616198Y-118388679D01*
X175406610Y-118349500D01*
X175193390Y-118349500D01*
X174983802Y-118388679D01*
X174983799Y-118388679D01*
X174983799Y-118388680D01*
X174784982Y-118465701D01*
X174784980Y-118465702D01*
X174603699Y-118577947D01*
X174446127Y-118721593D01*
X174317632Y-118891746D01*
X174222596Y-119082605D01*
X174222596Y-119082607D01*
X174164244Y-119287689D01*
X174144571Y-119499999D01*
X174144571Y-119500000D01*
X60200500Y-119500000D01*
X60200500Y-114994856D01*
X180694500Y-114994856D01*
X180694502Y-114994882D01*
X180697413Y-115019987D01*
X180697415Y-115019991D01*
X180742793Y-115122764D01*
X180742794Y-115122765D01*
X180822235Y-115202206D01*
X180925009Y-115247585D01*
X180950135Y-115250500D01*
X182739864Y-115250499D01*
X182739879Y-115250497D01*
X182739882Y-115250497D01*
X182764987Y-115247586D01*
X182764988Y-115247585D01*
X182764991Y-115247585D01*
X182867765Y-115202206D01*
X182947206Y-115122765D01*
X182992585Y-115019991D01*
X182995500Y-114994865D01*
X182995499Y-114862516D01*
X183015183Y-114795480D01*
X183067987Y-114749725D01*
X183137145Y-114739781D01*
X183200701Y-114768805D01*
X183221073Y-114791395D01*
X183346890Y-114971078D01*
X183513917Y-115138105D01*
X183707421Y-115273600D01*
X183921507Y-115373429D01*
X183921516Y-115373433D01*
X184135000Y-115430634D01*
X184135000Y-114535501D01*
X184242685Y-114584680D01*
X184349237Y-114600000D01*
X184420763Y-114600000D01*
X184527315Y-114584680D01*
X184635000Y-114535501D01*
X184635000Y-115430633D01*
X184848483Y-115373433D01*
X184848492Y-115373429D01*
X185062578Y-115273600D01*
X185256082Y-115138105D01*
X185423105Y-114971082D01*
X185558600Y-114777578D01*
X185652294Y-114576651D01*
X185698466Y-114524212D01*
X185765660Y-114505060D01*
X185832541Y-114525276D01*
X185875676Y-114573785D01*
X185942632Y-114708253D01*
X186071127Y-114878406D01*
X186071128Y-114878407D01*
X186228698Y-115022052D01*
X186409981Y-115134298D01*
X186608802Y-115211321D01*
X186818390Y-115250500D01*
X186818392Y-115250500D01*
X187031608Y-115250500D01*
X187031610Y-115250500D01*
X187241198Y-115211321D01*
X187440019Y-115134298D01*
X187621302Y-115022052D01*
X187778872Y-114878407D01*
X187907366Y-114708255D01*
X187961270Y-114600000D01*
X188002403Y-114517394D01*
X188002403Y-114517393D01*
X188002405Y-114517389D01*
X188060756Y-114312310D01*
X188080429Y-114100000D01*
X188060756Y-113887690D01*
X188002405Y-113682611D01*
X188002403Y-113682606D01*
X188002403Y-113682605D01*
X187907367Y-113491746D01*
X187838083Y-113400000D01*
X231444785Y-113400000D01*
X231463602Y-113603082D01*
X231519417Y-113799247D01*
X231519422Y-113799260D01*
X231610327Y-113981821D01*
X231733237Y-114144581D01*
X231883958Y-114281980D01*
X231883960Y-114281982D01*
X231928959Y-114309844D01*
X232057363Y-114389348D01*
X232247544Y-114463024D01*
X232448024Y-114500500D01*
X232448026Y-114500500D01*
X232651974Y-114500500D01*
X232651976Y-114500500D01*
X232852456Y-114463024D01*
X233042637Y-114389348D01*
X233216041Y-114281981D01*
X233366764Y-114144579D01*
X233489673Y-113981821D01*
X233580209Y-113800000D01*
X233583138Y-113794118D01*
X233584763Y-113794927D01*
X233622258Y-113746102D01*
X233688017Y-113722491D01*
X233756103Y-113738180D01*
X233804898Y-113788188D01*
X233815118Y-113814178D01*
X233823729Y-113846314D01*
X233823734Y-113846326D01*
X233919865Y-114052481D01*
X233919866Y-114052483D01*
X233970973Y-114125471D01*
X233970974Y-114125472D01*
X234652046Y-113444399D01*
X234664835Y-113525148D01*
X234722359Y-113638045D01*
X234811955Y-113727641D01*
X234924852Y-113785165D01*
X235005599Y-113797953D01*
X234324526Y-114479025D01*
X234324526Y-114479026D01*
X234397512Y-114530131D01*
X234397516Y-114530133D01*
X234603673Y-114626265D01*
X234603682Y-114626269D01*
X234823389Y-114685139D01*
X234823400Y-114685141D01*
X235049998Y-114704966D01*
X235050002Y-114704966D01*
X235276599Y-114685141D01*
X235276610Y-114685139D01*
X235496317Y-114626269D01*
X235496331Y-114626264D01*
X235702478Y-114530136D01*
X235775472Y-114479025D01*
X235094401Y-113797953D01*
X235175148Y-113785165D01*
X235288045Y-113727641D01*
X235377641Y-113638045D01*
X235435165Y-113525148D01*
X235447953Y-113444400D01*
X236129025Y-114125472D01*
X236180136Y-114052478D01*
X236276264Y-113846331D01*
X236276269Y-113846317D01*
X236335139Y-113626610D01*
X236335141Y-113626599D01*
X236354966Y-113400002D01*
X236354966Y-113399997D01*
X236335141Y-113173400D01*
X236335139Y-113173389D01*
X236276269Y-112953682D01*
X236276265Y-112953673D01*
X236180133Y-112747516D01*
X236180131Y-112747512D01*
X236129026Y-112674526D01*
X236129025Y-112674526D01*
X235447953Y-113355598D01*
X235435165Y-113274852D01*
X235377641Y-113161955D01*
X235288045Y-113072359D01*
X235175148Y-113014835D01*
X235094400Y-113002046D01*
X235775472Y-112320974D01*
X235775471Y-112320973D01*
X235702483Y-112269866D01*
X235702481Y-112269865D01*
X235496326Y-112173734D01*
X235496317Y-112173730D01*
X235276610Y-112114860D01*
X235276599Y-112114858D01*
X235050002Y-112095034D01*
X235049998Y-112095034D01*
X234823400Y-112114858D01*
X234823389Y-112114860D01*
X234603682Y-112173730D01*
X234603673Y-112173734D01*
X234397513Y-112269868D01*
X234324527Y-112320972D01*
X234324526Y-112320973D01*
X235005600Y-113002046D01*
X234924852Y-113014835D01*
X234811955Y-113072359D01*
X234722359Y-113161955D01*
X234664835Y-113274852D01*
X234652046Y-113355599D01*
X233970973Y-112674526D01*
X233970972Y-112674527D01*
X233919868Y-112747513D01*
X233823734Y-112953673D01*
X233823729Y-112953686D01*
X233815118Y-112985821D01*
X233778752Y-113045481D01*
X233715904Y-113076009D01*
X233646529Y-113067712D01*
X233592652Y-113023226D01*
X233583484Y-113005709D01*
X233583138Y-113005882D01*
X233493851Y-112826570D01*
X233489673Y-112818179D01*
X233404179Y-112704966D01*
X233366762Y-112655418D01*
X233216041Y-112518019D01*
X233216039Y-112518017D01*
X233042642Y-112410655D01*
X233042635Y-112410651D01*
X232947546Y-112373814D01*
X232852456Y-112336976D01*
X232651976Y-112299500D01*
X232448024Y-112299500D01*
X232247544Y-112336976D01*
X232247541Y-112336976D01*
X232247541Y-112336977D01*
X232057364Y-112410651D01*
X232057357Y-112410655D01*
X231883960Y-112518017D01*
X231883958Y-112518019D01*
X231733237Y-112655418D01*
X231610327Y-112818178D01*
X231519422Y-113000739D01*
X231519417Y-113000752D01*
X231463602Y-113196917D01*
X231444785Y-113399999D01*
X231444785Y-113400000D01*
X187838083Y-113400000D01*
X187778872Y-113321593D01*
X187727600Y-113274852D01*
X187621302Y-113177948D01*
X187440019Y-113065702D01*
X187440017Y-113065701D01*
X187272357Y-113000750D01*
X187241198Y-112988679D01*
X187031610Y-112949500D01*
X186818390Y-112949500D01*
X186608802Y-112988679D01*
X186608799Y-112988679D01*
X186608799Y-112988680D01*
X186409982Y-113065701D01*
X186409980Y-113065702D01*
X186228699Y-113177947D01*
X186071127Y-113321593D01*
X185942634Y-113491744D01*
X185875676Y-113626215D01*
X185828173Y-113677452D01*
X185760510Y-113694873D01*
X185694170Y-113672947D01*
X185652294Y-113623348D01*
X185558600Y-113422422D01*
X185558599Y-113422420D01*
X185423113Y-113228926D01*
X185423108Y-113228920D01*
X185256082Y-113061894D01*
X185062578Y-112926399D01*
X184848492Y-112826570D01*
X184848486Y-112826567D01*
X184635000Y-112769364D01*
X184635000Y-113664498D01*
X184527315Y-113615320D01*
X184420763Y-113600000D01*
X184349237Y-113600000D01*
X184242685Y-113615320D01*
X184135000Y-113664498D01*
X184135000Y-112769364D01*
X184134999Y-112769364D01*
X183921513Y-112826567D01*
X183921507Y-112826570D01*
X183707422Y-112926399D01*
X183707420Y-112926400D01*
X183513926Y-113061886D01*
X183513920Y-113061891D01*
X183346891Y-113228920D01*
X183346890Y-113228922D01*
X183221074Y-113408606D01*
X183166497Y-113452230D01*
X183096998Y-113459423D01*
X183034644Y-113427901D01*
X182999230Y-113367671D01*
X182995499Y-113337482D01*
X182995499Y-113205143D01*
X182995499Y-113205136D01*
X182994546Y-113196917D01*
X182992586Y-113180012D01*
X182992585Y-113180010D01*
X182992585Y-113180009D01*
X182947206Y-113077235D01*
X182867765Y-112997794D01*
X182847124Y-112988680D01*
X182764992Y-112952415D01*
X182739865Y-112949500D01*
X180950143Y-112949500D01*
X180950117Y-112949502D01*
X180925012Y-112952413D01*
X180925008Y-112952415D01*
X180822235Y-112997793D01*
X180742794Y-113077234D01*
X180697415Y-113180006D01*
X180697415Y-113180008D01*
X180694500Y-113205131D01*
X180694500Y-114994856D01*
X60200500Y-114994856D01*
X60200500Y-111400002D01*
X63195034Y-111400002D01*
X63214858Y-111626599D01*
X63214860Y-111626610D01*
X63273730Y-111846317D01*
X63273734Y-111846326D01*
X63369865Y-112052481D01*
X63369866Y-112052483D01*
X63420973Y-112125471D01*
X63420974Y-112125472D01*
X64102046Y-111444399D01*
X64114835Y-111525148D01*
X64172359Y-111638045D01*
X64261955Y-111727641D01*
X64374852Y-111785165D01*
X64455599Y-111797953D01*
X63774526Y-112479025D01*
X63774526Y-112479026D01*
X63847512Y-112530131D01*
X63847516Y-112530133D01*
X64053673Y-112626265D01*
X64053682Y-112626269D01*
X64273389Y-112685139D01*
X64273400Y-112685141D01*
X64499998Y-112704966D01*
X64500002Y-112704966D01*
X64726599Y-112685141D01*
X64726610Y-112685139D01*
X64946317Y-112626269D01*
X64946331Y-112626264D01*
X65152478Y-112530136D01*
X65225472Y-112479025D01*
X64544401Y-111797953D01*
X64625148Y-111785165D01*
X64738045Y-111727641D01*
X64827641Y-111638045D01*
X64885165Y-111525148D01*
X64897953Y-111444400D01*
X65579025Y-112125472D01*
X65630136Y-112052478D01*
X65726264Y-111846331D01*
X65726269Y-111846317D01*
X65734880Y-111814181D01*
X65771244Y-111754521D01*
X65834091Y-111723991D01*
X65903467Y-111732285D01*
X65957345Y-111776770D01*
X65966516Y-111794290D01*
X65966862Y-111794118D01*
X66060327Y-111981821D01*
X66183237Y-112144581D01*
X66333958Y-112281980D01*
X66333960Y-112281982D01*
X66362253Y-112299500D01*
X66507363Y-112389348D01*
X66697544Y-112463024D01*
X66898024Y-112500500D01*
X66898026Y-112500500D01*
X67101974Y-112500500D01*
X67101976Y-112500500D01*
X67302456Y-112463024D01*
X67492637Y-112389348D01*
X67666041Y-112281981D01*
X67816764Y-112144579D01*
X67939673Y-111981821D01*
X68030582Y-111799250D01*
X68086397Y-111603083D01*
X68105215Y-111400000D01*
X68086397Y-111196917D01*
X68030582Y-111000750D01*
X67939673Y-110818179D01*
X67831192Y-110674527D01*
X67816762Y-110655418D01*
X67666041Y-110518019D01*
X67666039Y-110518017D01*
X67492642Y-110410655D01*
X67492635Y-110410651D01*
X67397546Y-110373814D01*
X67302456Y-110336976D01*
X67101976Y-110299500D01*
X66898024Y-110299500D01*
X66697544Y-110336976D01*
X66697541Y-110336976D01*
X66697541Y-110336977D01*
X66507364Y-110410651D01*
X66507357Y-110410655D01*
X66333960Y-110518017D01*
X66333958Y-110518019D01*
X66183237Y-110655418D01*
X66060327Y-110818178D01*
X65966862Y-111005882D01*
X65965245Y-111005076D01*
X65927702Y-111053925D01*
X65861934Y-111077511D01*
X65793854Y-111061796D01*
X65745079Y-111011768D01*
X65734880Y-110985818D01*
X65726269Y-110953682D01*
X65726265Y-110953673D01*
X65630133Y-110747516D01*
X65630131Y-110747512D01*
X65579026Y-110674526D01*
X65579025Y-110674526D01*
X64897953Y-111355598D01*
X64885165Y-111274852D01*
X64827641Y-111161955D01*
X64738045Y-111072359D01*
X64625148Y-111014835D01*
X64544400Y-111002046D01*
X65225472Y-110320974D01*
X65225471Y-110320973D01*
X65152483Y-110269866D01*
X65152481Y-110269865D01*
X64946326Y-110173734D01*
X64946317Y-110173730D01*
X64726610Y-110114860D01*
X64726599Y-110114858D01*
X64500002Y-110095034D01*
X64499998Y-110095034D01*
X64273400Y-110114858D01*
X64273389Y-110114860D01*
X64053682Y-110173730D01*
X64053673Y-110173734D01*
X63847513Y-110269868D01*
X63774527Y-110320972D01*
X63774526Y-110320973D01*
X64455600Y-111002046D01*
X64374852Y-111014835D01*
X64261955Y-111072359D01*
X64172359Y-111161955D01*
X64114835Y-111274852D01*
X64102046Y-111355599D01*
X63420973Y-110674526D01*
X63420972Y-110674527D01*
X63369868Y-110747513D01*
X63273734Y-110953673D01*
X63273730Y-110953682D01*
X63214860Y-111173389D01*
X63214858Y-111173400D01*
X63195034Y-111399997D01*
X63195034Y-111400002D01*
X60200500Y-111400002D01*
X60200500Y-108300000D01*
X71694785Y-108300000D01*
X71713602Y-108503082D01*
X71769417Y-108699247D01*
X71769422Y-108699260D01*
X71860327Y-108881821D01*
X71983237Y-109044581D01*
X72133958Y-109181980D01*
X72133960Y-109181982D01*
X72233141Y-109243392D01*
X72307363Y-109289348D01*
X72497544Y-109363024D01*
X72698024Y-109400500D01*
X72698026Y-109400500D01*
X72901974Y-109400500D01*
X72901976Y-109400500D01*
X72904651Y-109400000D01*
X226527285Y-109400000D01*
X226546102Y-109603082D01*
X226601917Y-109799247D01*
X226601922Y-109799260D01*
X226692827Y-109981821D01*
X226815737Y-110144581D01*
X226966458Y-110281980D01*
X226966460Y-110281982D01*
X226994753Y-110299500D01*
X227139863Y-110389348D01*
X227330044Y-110463024D01*
X227530524Y-110500500D01*
X227530526Y-110500500D01*
X227734474Y-110500500D01*
X227734476Y-110500500D01*
X227934956Y-110463024D01*
X228125137Y-110389348D01*
X228298541Y-110281981D01*
X228449264Y-110144579D01*
X228572173Y-109981821D01*
X228663082Y-109799250D01*
X228718897Y-109603083D01*
X228737715Y-109400000D01*
X228718897Y-109196917D01*
X228663082Y-109000750D01*
X228572173Y-108818179D01*
X228449264Y-108655421D01*
X228449262Y-108655418D01*
X228298541Y-108518019D01*
X228298539Y-108518017D01*
X228125142Y-108410655D01*
X228125135Y-108410651D01*
X228030046Y-108373814D01*
X227934956Y-108336976D01*
X227734476Y-108299500D01*
X227530524Y-108299500D01*
X227330044Y-108336976D01*
X227330041Y-108336976D01*
X227330041Y-108336977D01*
X227139864Y-108410651D01*
X227139857Y-108410655D01*
X226966460Y-108518017D01*
X226966458Y-108518019D01*
X226815737Y-108655418D01*
X226692827Y-108818178D01*
X226601922Y-109000739D01*
X226601917Y-109000752D01*
X226546102Y-109196917D01*
X226527285Y-109399999D01*
X226527285Y-109400000D01*
X72904651Y-109400000D01*
X73102456Y-109363024D01*
X73292637Y-109289348D01*
X73466041Y-109181981D01*
X73616764Y-109044579D01*
X73739673Y-108881821D01*
X73830582Y-108699250D01*
X73886397Y-108503083D01*
X73905215Y-108300000D01*
X73886397Y-108096917D01*
X73830582Y-107900750D01*
X73739673Y-107718179D01*
X73616764Y-107555421D01*
X73616762Y-107555418D01*
X73466041Y-107418019D01*
X73466039Y-107418017D01*
X73292642Y-107310655D01*
X73292635Y-107310651D01*
X73197546Y-107273814D01*
X73102456Y-107236976D01*
X72901976Y-107199500D01*
X72698024Y-107199500D01*
X72497544Y-107236976D01*
X72497541Y-107236976D01*
X72497541Y-107236977D01*
X72307364Y-107310651D01*
X72307357Y-107310655D01*
X72133960Y-107418017D01*
X72133958Y-107418019D01*
X71983237Y-107555418D01*
X71860327Y-107718178D01*
X71769422Y-107900739D01*
X71769417Y-107900752D01*
X71713602Y-108096917D01*
X71694785Y-108299999D01*
X71694785Y-108300000D01*
X60200500Y-108300000D01*
X60200500Y-106625000D01*
X113104571Y-106625000D01*
X113124244Y-106837310D01*
X113182596Y-107042392D01*
X113182596Y-107042394D01*
X113277632Y-107233253D01*
X113336081Y-107310651D01*
X113406128Y-107403407D01*
X113563698Y-107547052D01*
X113744981Y-107659298D01*
X113943802Y-107736321D01*
X114153390Y-107775500D01*
X114153392Y-107775500D01*
X114366608Y-107775500D01*
X114366610Y-107775500D01*
X114576198Y-107736321D01*
X114775019Y-107659298D01*
X114956302Y-107547052D01*
X115113872Y-107403407D01*
X115242366Y-107233255D01*
X115337405Y-107042389D01*
X115395756Y-106837310D01*
X115402029Y-106769605D01*
X115427814Y-106704669D01*
X115484614Y-106663981D01*
X115554395Y-106660461D01*
X115615002Y-106695225D01*
X115647193Y-106757238D01*
X115649500Y-106781047D01*
X115649500Y-107519856D01*
X115649502Y-107519882D01*
X115652413Y-107544987D01*
X115652415Y-107544991D01*
X115697793Y-107647764D01*
X115697794Y-107647765D01*
X115777235Y-107727206D01*
X115880009Y-107772585D01*
X115905135Y-107775500D01*
X117694864Y-107775499D01*
X117694879Y-107775497D01*
X117694882Y-107775497D01*
X117719987Y-107772586D01*
X117719988Y-107772585D01*
X117719991Y-107772585D01*
X117822765Y-107727206D01*
X117902206Y-107647765D01*
X117947585Y-107544991D01*
X117950500Y-107519865D01*
X117950499Y-105730136D01*
X117950497Y-105730117D01*
X117947586Y-105705012D01*
X117947585Y-105705010D01*
X117947585Y-105705009D01*
X117902206Y-105602235D01*
X117822765Y-105522794D01*
X117802124Y-105513680D01*
X117719992Y-105477415D01*
X117694865Y-105474500D01*
X115905143Y-105474500D01*
X115905117Y-105474502D01*
X115880012Y-105477413D01*
X115880008Y-105477415D01*
X115777235Y-105522793D01*
X115697794Y-105602234D01*
X115652415Y-105705006D01*
X115652415Y-105705008D01*
X115649500Y-105730131D01*
X115649500Y-106468951D01*
X115629815Y-106535990D01*
X115577011Y-106581745D01*
X115507853Y-106591689D01*
X115444297Y-106562664D01*
X115406523Y-106503886D01*
X115402029Y-106480391D01*
X115395756Y-106412689D01*
X115381273Y-106361789D01*
X115337405Y-106207611D01*
X115337403Y-106207606D01*
X115337403Y-106207605D01*
X115242367Y-106016746D01*
X115113872Y-105846593D01*
X114986133Y-105730143D01*
X114956302Y-105702948D01*
X114775019Y-105590702D01*
X114775017Y-105590701D01*
X114675608Y-105552190D01*
X114576198Y-105513679D01*
X114366610Y-105474500D01*
X114153390Y-105474500D01*
X113943802Y-105513679D01*
X113943799Y-105513679D01*
X113943799Y-105513680D01*
X113744982Y-105590701D01*
X113744980Y-105590702D01*
X113563699Y-105702947D01*
X113406127Y-105846593D01*
X113277632Y-106016746D01*
X113182596Y-106207605D01*
X113182596Y-106207607D01*
X113124244Y-106412689D01*
X113104571Y-106624999D01*
X113104571Y-106625000D01*
X60200500Y-106625000D01*
X60200500Y-103160000D01*
X71594357Y-103160000D01*
X71614884Y-103381535D01*
X71614885Y-103381537D01*
X71675769Y-103595523D01*
X71675775Y-103595538D01*
X71774938Y-103794683D01*
X71774943Y-103794691D01*
X71909020Y-103972238D01*
X72073437Y-104122123D01*
X72073439Y-104122125D01*
X72262595Y-104239245D01*
X72262596Y-104239245D01*
X72262599Y-104239247D01*
X72470060Y-104319618D01*
X72688757Y-104360500D01*
X72688759Y-104360500D01*
X72911241Y-104360500D01*
X72911243Y-104360500D01*
X73129940Y-104319618D01*
X73337401Y-104239247D01*
X73526562Y-104122124D01*
X73690981Y-103972236D01*
X73825058Y-103794689D01*
X73874769Y-103694856D01*
X170799500Y-103694856D01*
X170799502Y-103694882D01*
X170802413Y-103719987D01*
X170802415Y-103719991D01*
X170847793Y-103822764D01*
X170847794Y-103822765D01*
X170927235Y-103902206D01*
X171030009Y-103947585D01*
X171055135Y-103950500D01*
X172844864Y-103950499D01*
X172844879Y-103950497D01*
X172844882Y-103950497D01*
X172869987Y-103947586D01*
X172869988Y-103947585D01*
X172869991Y-103947585D01*
X172972765Y-103902206D01*
X173052206Y-103822765D01*
X173097585Y-103719991D01*
X173100500Y-103694865D01*
X173100500Y-103694856D01*
X182074500Y-103694856D01*
X182074502Y-103694882D01*
X182077413Y-103719987D01*
X182077415Y-103719991D01*
X182122793Y-103822764D01*
X182122794Y-103822765D01*
X182202235Y-103902206D01*
X182305009Y-103947585D01*
X182330135Y-103950500D01*
X184119864Y-103950499D01*
X184119879Y-103950497D01*
X184119882Y-103950497D01*
X184144987Y-103947586D01*
X184144988Y-103947585D01*
X184144991Y-103947585D01*
X184247765Y-103902206D01*
X184327206Y-103822765D01*
X184372585Y-103719991D01*
X184375500Y-103694865D01*
X184375499Y-102956046D01*
X184395183Y-102889009D01*
X184447987Y-102843254D01*
X184517146Y-102833310D01*
X184580702Y-102862335D01*
X184618476Y-102921113D01*
X184622970Y-102944606D01*
X184629244Y-103012310D01*
X184687596Y-103217392D01*
X184687596Y-103217394D01*
X184782632Y-103408253D01*
X184782634Y-103408255D01*
X184911128Y-103578407D01*
X185068698Y-103722052D01*
X185249981Y-103834298D01*
X185448802Y-103911321D01*
X185658390Y-103950500D01*
X185658392Y-103950500D01*
X185871608Y-103950500D01*
X185871610Y-103950500D01*
X186081198Y-103911321D01*
X186280019Y-103834298D01*
X186424472Y-103744856D01*
X195649500Y-103744856D01*
X195649502Y-103744882D01*
X195652413Y-103769987D01*
X195652415Y-103769991D01*
X195697793Y-103872764D01*
X195697794Y-103872765D01*
X195777235Y-103952206D01*
X195880009Y-103997585D01*
X195905135Y-104000500D01*
X197694864Y-104000499D01*
X197694879Y-104000497D01*
X197694882Y-104000497D01*
X197719987Y-103997586D01*
X197719988Y-103997585D01*
X197719991Y-103997585D01*
X197822765Y-103952206D01*
X197902206Y-103872765D01*
X197947585Y-103769991D01*
X197950500Y-103744865D01*
X197950499Y-101955136D01*
X197950497Y-101955117D01*
X197947586Y-101930012D01*
X197947585Y-101930010D01*
X197947585Y-101930009D01*
X197902206Y-101827235D01*
X197822765Y-101747794D01*
X197822763Y-101747793D01*
X197719992Y-101702415D01*
X197694865Y-101699500D01*
X195905143Y-101699500D01*
X195905117Y-101699502D01*
X195880012Y-101702413D01*
X195880008Y-101702415D01*
X195777235Y-101747793D01*
X195697794Y-101827234D01*
X195652415Y-101930006D01*
X195652415Y-101930008D01*
X195649500Y-101955131D01*
X195649500Y-103744856D01*
X186424472Y-103744856D01*
X186461302Y-103722052D01*
X186618872Y-103578407D01*
X186747366Y-103408255D01*
X186842405Y-103217389D01*
X186900756Y-103012310D01*
X186920429Y-102800000D01*
X186900756Y-102587690D01*
X186842405Y-102382611D01*
X186842403Y-102382606D01*
X186842403Y-102382605D01*
X186747367Y-102191746D01*
X186618872Y-102021593D01*
X186553662Y-101962146D01*
X186461302Y-101877948D01*
X186280019Y-101765702D01*
X186280017Y-101765701D01*
X186116655Y-101702415D01*
X186081198Y-101688679D01*
X185871610Y-101649500D01*
X185658390Y-101649500D01*
X185448802Y-101688679D01*
X185448799Y-101688679D01*
X185448799Y-101688680D01*
X185249982Y-101765701D01*
X185249980Y-101765702D01*
X185068699Y-101877947D01*
X184911127Y-102021593D01*
X184782632Y-102191746D01*
X184687596Y-102382605D01*
X184687596Y-102382607D01*
X184629244Y-102587689D01*
X184622970Y-102655394D01*
X184597183Y-102720331D01*
X184540383Y-102761018D01*
X184470602Y-102764538D01*
X184409995Y-102729772D01*
X184377806Y-102667759D01*
X184375499Y-102643952D01*
X184375499Y-101905143D01*
X184375499Y-101905136D01*
X184373014Y-101883706D01*
X184372586Y-101880012D01*
X184372585Y-101880010D01*
X184372585Y-101880009D01*
X184327206Y-101777235D01*
X184247765Y-101697794D01*
X184227124Y-101688680D01*
X184144992Y-101652415D01*
X184119865Y-101649500D01*
X182330143Y-101649500D01*
X182330117Y-101649502D01*
X182305012Y-101652413D01*
X182305008Y-101652415D01*
X182202235Y-101697793D01*
X182122794Y-101777234D01*
X182077415Y-101880006D01*
X182077415Y-101880008D01*
X182074500Y-101905131D01*
X182074500Y-103694856D01*
X173100500Y-103694856D01*
X173100499Y-101905136D01*
X173098014Y-101883706D01*
X173097586Y-101880012D01*
X173097585Y-101880010D01*
X173097585Y-101880009D01*
X173052206Y-101777235D01*
X172972765Y-101697794D01*
X172952124Y-101688680D01*
X172869992Y-101652415D01*
X172844865Y-101649500D01*
X171055143Y-101649500D01*
X171055117Y-101649502D01*
X171030012Y-101652413D01*
X171030008Y-101652415D01*
X170927235Y-101697793D01*
X170847794Y-101777234D01*
X170802415Y-101880006D01*
X170802415Y-101880008D01*
X170799500Y-101905131D01*
X170799500Y-103694856D01*
X73874769Y-103694856D01*
X73924229Y-103595528D01*
X73985115Y-103381536D01*
X74005643Y-103160000D01*
X73985115Y-102938464D01*
X73924229Y-102724472D01*
X73909625Y-102695143D01*
X73825061Y-102525316D01*
X73825056Y-102525308D01*
X73690979Y-102347761D01*
X73526562Y-102197876D01*
X73526560Y-102197874D01*
X73337404Y-102080754D01*
X73337395Y-102080750D01*
X73284157Y-102060126D01*
X73228755Y-102017553D01*
X73205164Y-101951786D01*
X73220875Y-101883706D01*
X73270899Y-101834927D01*
X73328949Y-101820499D01*
X73744864Y-101820499D01*
X73744879Y-101820497D01*
X73744882Y-101820497D01*
X73769987Y-101817586D01*
X73769988Y-101817585D01*
X73769991Y-101817585D01*
X73872765Y-101772206D01*
X73952206Y-101692765D01*
X73997585Y-101589991D01*
X74000500Y-101564865D01*
X74000499Y-100600000D01*
X106874785Y-100600000D01*
X106893602Y-100803082D01*
X106949417Y-100999247D01*
X106949422Y-100999260D01*
X107040327Y-101181821D01*
X107163237Y-101344581D01*
X107313958Y-101481980D01*
X107313960Y-101481982D01*
X107400457Y-101535538D01*
X107487363Y-101589348D01*
X107677544Y-101663024D01*
X107878024Y-101700500D01*
X107878026Y-101700500D01*
X108081974Y-101700500D01*
X108081976Y-101700500D01*
X108282456Y-101663024D01*
X108472637Y-101589348D01*
X108646041Y-101481981D01*
X108796764Y-101344579D01*
X108919673Y-101181821D01*
X109010582Y-100999250D01*
X109066397Y-100803083D01*
X109085215Y-100600000D01*
X122114785Y-100600000D01*
X122133602Y-100803082D01*
X122189417Y-100999247D01*
X122189422Y-100999260D01*
X122280327Y-101181821D01*
X122403237Y-101344581D01*
X122553958Y-101481980D01*
X122553960Y-101481982D01*
X122640457Y-101535538D01*
X122727363Y-101589348D01*
X122917544Y-101663024D01*
X123118024Y-101700500D01*
X123118026Y-101700500D01*
X123321974Y-101700500D01*
X123321976Y-101700500D01*
X123522456Y-101663024D01*
X123712637Y-101589348D01*
X123886041Y-101481981D01*
X124036764Y-101344579D01*
X124159673Y-101181821D01*
X124200415Y-101100000D01*
X226426857Y-101100000D01*
X226447384Y-101321535D01*
X226447385Y-101321537D01*
X226508269Y-101535523D01*
X226508275Y-101535538D01*
X226607438Y-101734683D01*
X226607443Y-101734691D01*
X226741520Y-101912238D01*
X226905937Y-102062123D01*
X226905939Y-102062125D01*
X227095095Y-102179245D01*
X227095107Y-102179251D01*
X227142689Y-102197683D01*
X227146856Y-102199298D01*
X227148341Y-102199873D01*
X227203744Y-102242445D01*
X227227335Y-102308211D01*
X227211625Y-102376292D01*
X227161601Y-102425072D01*
X227103549Y-102439500D01*
X226687643Y-102439500D01*
X226687617Y-102439502D01*
X226662512Y-102442413D01*
X226662508Y-102442415D01*
X226559735Y-102487793D01*
X226480294Y-102567234D01*
X226434915Y-102670006D01*
X226434915Y-102670008D01*
X226432000Y-102695131D01*
X226432000Y-104584856D01*
X226432002Y-104584882D01*
X226434913Y-104609987D01*
X226434915Y-104609991D01*
X226480293Y-104712764D01*
X226480294Y-104712765D01*
X226559735Y-104792206D01*
X226662509Y-104837585D01*
X226687635Y-104840500D01*
X228577364Y-104840499D01*
X228577379Y-104840497D01*
X228577382Y-104840497D01*
X228602487Y-104837586D01*
X228602488Y-104837585D01*
X228602491Y-104837585D01*
X228705265Y-104792206D01*
X228784706Y-104712765D01*
X228830085Y-104609991D01*
X228833000Y-104584865D01*
X228832999Y-102695136D01*
X228832997Y-102695117D01*
X228830086Y-102670012D01*
X228830085Y-102670010D01*
X228830085Y-102670009D01*
X228784706Y-102567235D01*
X228705265Y-102487794D01*
X228705263Y-102487793D01*
X228602492Y-102442415D01*
X228577368Y-102439500D01*
X228161452Y-102439500D01*
X228094413Y-102419815D01*
X228048658Y-102367011D01*
X228038714Y-102297853D01*
X228067739Y-102234297D01*
X228116659Y-102199873D01*
X228169901Y-102179247D01*
X228359062Y-102062124D01*
X228523481Y-101912236D01*
X228657558Y-101734689D01*
X228756729Y-101535528D01*
X228817615Y-101321536D01*
X228832120Y-101165000D01*
X230844571Y-101165000D01*
X230864244Y-101377310D01*
X230922596Y-101582392D01*
X230922596Y-101582394D01*
X231017632Y-101773253D01*
X231122590Y-101912238D01*
X231146128Y-101943407D01*
X231303698Y-102087052D01*
X231484981Y-102199298D01*
X231683802Y-102276321D01*
X231893390Y-102315500D01*
X231893392Y-102315500D01*
X232106608Y-102315500D01*
X232106610Y-102315500D01*
X232316198Y-102276321D01*
X232515019Y-102199298D01*
X232696302Y-102087052D01*
X232853872Y-101943407D01*
X232982366Y-101773255D01*
X232995044Y-101747794D01*
X233077403Y-101582394D01*
X233077403Y-101582393D01*
X233077405Y-101582389D01*
X233135756Y-101377310D01*
X233155429Y-101165000D01*
X233135756Y-100952690D01*
X233077405Y-100747611D01*
X233077403Y-100747606D01*
X233077403Y-100747605D01*
X232982367Y-100556746D01*
X232853872Y-100386593D01*
X232745459Y-100287761D01*
X232696302Y-100242948D01*
X232515019Y-100130702D01*
X232515017Y-100130701D01*
X232415608Y-100092190D01*
X232316198Y-100053679D01*
X232106610Y-100014500D01*
X231893390Y-100014500D01*
X231683802Y-100053679D01*
X231683799Y-100053679D01*
X231683799Y-100053680D01*
X231484982Y-100130701D01*
X231484980Y-100130702D01*
X231303699Y-100242947D01*
X231146127Y-100386593D01*
X231017632Y-100556746D01*
X230922596Y-100747605D01*
X230922596Y-100747607D01*
X230864244Y-100952689D01*
X230844571Y-101164999D01*
X230844571Y-101165000D01*
X228832120Y-101165000D01*
X228838143Y-101100000D01*
X228817615Y-100878464D01*
X228756729Y-100664472D01*
X228756724Y-100664461D01*
X228657561Y-100465316D01*
X228657556Y-100465308D01*
X228523479Y-100287761D01*
X228359062Y-100137876D01*
X228359060Y-100137874D01*
X228169904Y-100020754D01*
X228169898Y-100020752D01*
X227962440Y-99940382D01*
X227743743Y-99899500D01*
X227521257Y-99899500D01*
X227302560Y-99940382D01*
X227171364Y-99991207D01*
X227095101Y-100020752D01*
X227095095Y-100020754D01*
X226905939Y-100137874D01*
X226905937Y-100137876D01*
X226741520Y-100287761D01*
X226607443Y-100465308D01*
X226607438Y-100465316D01*
X226508275Y-100664461D01*
X226508269Y-100664476D01*
X226447385Y-100878462D01*
X226447384Y-100878464D01*
X226426857Y-101099999D01*
X226426857Y-101100000D01*
X124200415Y-101100000D01*
X124250582Y-100999250D01*
X124306397Y-100803083D01*
X124325215Y-100600000D01*
X124312734Y-100465311D01*
X124306397Y-100396917D01*
X124275339Y-100287761D01*
X124250582Y-100200750D01*
X124215702Y-100130702D01*
X124177350Y-100053680D01*
X124159673Y-100018179D01*
X124036764Y-99855421D01*
X124036762Y-99855418D01*
X123886041Y-99718019D01*
X123886039Y-99718017D01*
X123712642Y-99610655D01*
X123712635Y-99610651D01*
X123617546Y-99573814D01*
X123522456Y-99536976D01*
X123321976Y-99499500D01*
X123118024Y-99499500D01*
X122917544Y-99536976D01*
X122917541Y-99536976D01*
X122917541Y-99536977D01*
X122727364Y-99610651D01*
X122727357Y-99610655D01*
X122553960Y-99718017D01*
X122553958Y-99718019D01*
X122403237Y-99855418D01*
X122280327Y-100018178D01*
X122189422Y-100200739D01*
X122189417Y-100200752D01*
X122133602Y-100396917D01*
X122114785Y-100599999D01*
X122114785Y-100600000D01*
X109085215Y-100600000D01*
X109072734Y-100465311D01*
X109066397Y-100396917D01*
X109035339Y-100287761D01*
X109010582Y-100200750D01*
X108975702Y-100130702D01*
X108937350Y-100053680D01*
X108919673Y-100018179D01*
X108796764Y-99855421D01*
X108796762Y-99855418D01*
X108646041Y-99718019D01*
X108646039Y-99718017D01*
X108472642Y-99610655D01*
X108472635Y-99610651D01*
X108377546Y-99573814D01*
X108282456Y-99536976D01*
X108081976Y-99499500D01*
X107878024Y-99499500D01*
X107677544Y-99536976D01*
X107677541Y-99536976D01*
X107677541Y-99536977D01*
X107487364Y-99610651D01*
X107487357Y-99610655D01*
X107313960Y-99718017D01*
X107313958Y-99718019D01*
X107163237Y-99855418D01*
X107040327Y-100018178D01*
X106949422Y-100200739D01*
X106949417Y-100200752D01*
X106893602Y-100396917D01*
X106874785Y-100599999D01*
X106874785Y-100600000D01*
X74000499Y-100600000D01*
X74000499Y-99675136D01*
X74000497Y-99675117D01*
X73997586Y-99650012D01*
X73997585Y-99650010D01*
X73997585Y-99650009D01*
X73952206Y-99547235D01*
X73872765Y-99467794D01*
X73872763Y-99467793D01*
X73769992Y-99422415D01*
X73744865Y-99419500D01*
X71855143Y-99419500D01*
X71855117Y-99419502D01*
X71830012Y-99422413D01*
X71830008Y-99422415D01*
X71727235Y-99467793D01*
X71647794Y-99547234D01*
X71602415Y-99650006D01*
X71602415Y-99650008D01*
X71599500Y-99675131D01*
X71599500Y-101564856D01*
X71599502Y-101564882D01*
X71602413Y-101589987D01*
X71602415Y-101589991D01*
X71647793Y-101692764D01*
X71647794Y-101692765D01*
X71727235Y-101772206D01*
X71830009Y-101817585D01*
X71855135Y-101820500D01*
X72271049Y-101820499D01*
X72338086Y-101840183D01*
X72383841Y-101892987D01*
X72393785Y-101962146D01*
X72364760Y-102025702D01*
X72315842Y-102060125D01*
X72262607Y-102080748D01*
X72262595Y-102080754D01*
X72073439Y-102197874D01*
X72073437Y-102197876D01*
X71909020Y-102347761D01*
X71774943Y-102525308D01*
X71774938Y-102525316D01*
X71675775Y-102724461D01*
X71675769Y-102724476D01*
X71614885Y-102938462D01*
X71614884Y-102938464D01*
X71594357Y-103159999D01*
X71594357Y-103160000D01*
X60200500Y-103160000D01*
X60200500Y-100660000D01*
X66844571Y-100660000D01*
X66864244Y-100872310D01*
X66887114Y-100952690D01*
X66922596Y-101077392D01*
X66922596Y-101077394D01*
X67017632Y-101268253D01*
X67075273Y-101344581D01*
X67146128Y-101438407D01*
X67303698Y-101582052D01*
X67484981Y-101694298D01*
X67683802Y-101771321D01*
X67893390Y-101810500D01*
X67893392Y-101810500D01*
X68106608Y-101810500D01*
X68106610Y-101810500D01*
X68316198Y-101771321D01*
X68515019Y-101694298D01*
X68696302Y-101582052D01*
X68853872Y-101438407D01*
X68982366Y-101268255D01*
X69025405Y-101181821D01*
X69077403Y-101077394D01*
X69077403Y-101077393D01*
X69077405Y-101077389D01*
X69135756Y-100872310D01*
X69155429Y-100660000D01*
X69135756Y-100447690D01*
X69077405Y-100242611D01*
X69077403Y-100242606D01*
X69077403Y-100242605D01*
X68982367Y-100051746D01*
X68853872Y-99881593D01*
X68825163Y-99855421D01*
X68696302Y-99737948D01*
X68515019Y-99625702D01*
X68515017Y-99625701D01*
X68415608Y-99587190D01*
X68316198Y-99548679D01*
X68106610Y-99509500D01*
X67893390Y-99509500D01*
X67683802Y-99548679D01*
X67683799Y-99548679D01*
X67683799Y-99548680D01*
X67484982Y-99625701D01*
X67484980Y-99625702D01*
X67303699Y-99737947D01*
X67146127Y-99881593D01*
X67017632Y-100051746D01*
X66922596Y-100242605D01*
X66922596Y-100242607D01*
X66909748Y-100287764D01*
X66864244Y-100447690D01*
X66844571Y-100660000D01*
X60200500Y-100660000D01*
X60200500Y-98562844D01*
X234150000Y-98562844D01*
X234156401Y-98622372D01*
X234156403Y-98622379D01*
X234206645Y-98757086D01*
X234206649Y-98757093D01*
X234292809Y-98872187D01*
X234292812Y-98872190D01*
X234407906Y-98958350D01*
X234407913Y-98958354D01*
X234542620Y-99008596D01*
X234542627Y-99008598D01*
X234602155Y-99014999D01*
X234602172Y-99015000D01*
X235250000Y-99015000D01*
X235250000Y-98100501D01*
X235357685Y-98149680D01*
X235464237Y-98165000D01*
X235535763Y-98165000D01*
X235642315Y-98149680D01*
X235750000Y-98100501D01*
X235750000Y-99015000D01*
X236397828Y-99015000D01*
X236397844Y-99014999D01*
X236457372Y-99008598D01*
X236457379Y-99008596D01*
X236592086Y-98958354D01*
X236592093Y-98958350D01*
X236707187Y-98872190D01*
X236707190Y-98872187D01*
X236793350Y-98757093D01*
X236793354Y-98757086D01*
X236843596Y-98622379D01*
X236843598Y-98622372D01*
X236849999Y-98562844D01*
X236850000Y-98562827D01*
X236850000Y-97915000D01*
X235933686Y-97915000D01*
X235959493Y-97874844D01*
X236000000Y-97736889D01*
X236000000Y-97593111D01*
X235959493Y-97455156D01*
X235933686Y-97415000D01*
X236850000Y-97415000D01*
X236850000Y-96767172D01*
X236849999Y-96767155D01*
X236843598Y-96707627D01*
X236843596Y-96707620D01*
X236793354Y-96572913D01*
X236793350Y-96572906D01*
X236707190Y-96457812D01*
X236707187Y-96457809D01*
X236592093Y-96371649D01*
X236592086Y-96371645D01*
X236457379Y-96321403D01*
X236457372Y-96321401D01*
X236397844Y-96315000D01*
X235750000Y-96315000D01*
X235750000Y-97229498D01*
X235642315Y-97180320D01*
X235535763Y-97165000D01*
X235464237Y-97165000D01*
X235357685Y-97180320D01*
X235250000Y-97229498D01*
X235250000Y-96315000D01*
X234602155Y-96315000D01*
X234542627Y-96321401D01*
X234542620Y-96321403D01*
X234407913Y-96371645D01*
X234407906Y-96371649D01*
X234292812Y-96457809D01*
X234292809Y-96457812D01*
X234206649Y-96572906D01*
X234206645Y-96572913D01*
X234156403Y-96707620D01*
X234156401Y-96707627D01*
X234150000Y-96767155D01*
X234150000Y-97415000D01*
X235066314Y-97415000D01*
X235040507Y-97455156D01*
X235000000Y-97593111D01*
X235000000Y-97736889D01*
X235040507Y-97874844D01*
X235066314Y-97915000D01*
X234150000Y-97915000D01*
X234150000Y-98562844D01*
X60200500Y-98562844D01*
X60200500Y-98057844D01*
X63150000Y-98057844D01*
X63156401Y-98117372D01*
X63156403Y-98117379D01*
X63206645Y-98252086D01*
X63206649Y-98252093D01*
X63292809Y-98367187D01*
X63292812Y-98367190D01*
X63407906Y-98453350D01*
X63407913Y-98453354D01*
X63542620Y-98503596D01*
X63542627Y-98503598D01*
X63602155Y-98509999D01*
X63602172Y-98510000D01*
X64250000Y-98510000D01*
X64250000Y-97595501D01*
X64357685Y-97644680D01*
X64464237Y-97660000D01*
X64535763Y-97660000D01*
X64642315Y-97644680D01*
X64750000Y-97595501D01*
X64750000Y-98510000D01*
X65397828Y-98510000D01*
X65397844Y-98509999D01*
X65457372Y-98503598D01*
X65457379Y-98503596D01*
X65592086Y-98453354D01*
X65592093Y-98453350D01*
X65707187Y-98367190D01*
X65707190Y-98367187D01*
X65793350Y-98252093D01*
X65793354Y-98252086D01*
X65843596Y-98117379D01*
X65843598Y-98117372D01*
X65849999Y-98057844D01*
X65850000Y-98057827D01*
X65850000Y-97410000D01*
X64933686Y-97410000D01*
X64959493Y-97369844D01*
X65000000Y-97231889D01*
X65000000Y-97088111D01*
X64959493Y-96950156D01*
X64933686Y-96910000D01*
X65850000Y-96910000D01*
X65850000Y-96262172D01*
X65849999Y-96262155D01*
X65843598Y-96202627D01*
X65843596Y-96202620D01*
X65793354Y-96067913D01*
X65793350Y-96067906D01*
X65707190Y-95952812D01*
X65707187Y-95952809D01*
X65636644Y-95900000D01*
X214844722Y-95900000D01*
X214863762Y-96056818D01*
X214919058Y-96202620D01*
X214919780Y-96204523D01*
X215009517Y-96334530D01*
X215127760Y-96439283D01*
X215267635Y-96512696D01*
X215322369Y-96526186D01*
X215380377Y-96558902D01*
X216236063Y-97414588D01*
X216264324Y-97458298D01*
X216319780Y-97604523D01*
X216409517Y-97734530D01*
X216527760Y-97839283D01*
X216527762Y-97839284D01*
X216667634Y-97912696D01*
X216821014Y-97950500D01*
X216821015Y-97950500D01*
X216978985Y-97950500D01*
X217132365Y-97912696D01*
X217272240Y-97839283D01*
X217390483Y-97734530D01*
X217480220Y-97604523D01*
X217536237Y-97456818D01*
X217555278Y-97300000D01*
X217536237Y-97143182D01*
X217480220Y-96995477D01*
X217390483Y-96865470D01*
X217272240Y-96760717D01*
X217272238Y-96760716D01*
X217272237Y-96760715D01*
X217132367Y-96687304D01*
X217077626Y-96673812D01*
X217019621Y-96641096D01*
X216163937Y-95785412D01*
X216135676Y-95741702D01*
X216118067Y-95695274D01*
X216080220Y-95595477D01*
X215990483Y-95465470D01*
X215872240Y-95360717D01*
X215872238Y-95360716D01*
X215872237Y-95360715D01*
X215732365Y-95287303D01*
X215578986Y-95249500D01*
X215578985Y-95249500D01*
X215421015Y-95249500D01*
X215421014Y-95249500D01*
X215267634Y-95287303D01*
X215127762Y-95360715D01*
X215009516Y-95465471D01*
X214919781Y-95595475D01*
X214919780Y-95595476D01*
X214863762Y-95743181D01*
X214844722Y-95899999D01*
X214844722Y-95900000D01*
X65636644Y-95900000D01*
X65592093Y-95866649D01*
X65592086Y-95866645D01*
X65457379Y-95816403D01*
X65457372Y-95816401D01*
X65397844Y-95810000D01*
X64750000Y-95810000D01*
X64750000Y-96724498D01*
X64642315Y-96675320D01*
X64535763Y-96660000D01*
X64464237Y-96660000D01*
X64357685Y-96675320D01*
X64250000Y-96724498D01*
X64250000Y-95810000D01*
X63602155Y-95810000D01*
X63542627Y-95816401D01*
X63542620Y-95816403D01*
X63407913Y-95866645D01*
X63407906Y-95866649D01*
X63292812Y-95952809D01*
X63292809Y-95952812D01*
X63206649Y-96067906D01*
X63206645Y-96067913D01*
X63156403Y-96202620D01*
X63156401Y-96202627D01*
X63150000Y-96262155D01*
X63150000Y-96910000D01*
X64066314Y-96910000D01*
X64040507Y-96950156D01*
X64000000Y-97088111D01*
X64000000Y-97231889D01*
X64040507Y-97369844D01*
X64066314Y-97410000D01*
X63150000Y-97410000D01*
X63150000Y-98057844D01*
X60200500Y-98057844D01*
X60200500Y-93660000D01*
X66844571Y-93660000D01*
X66864244Y-93872310D01*
X66887114Y-93952690D01*
X66922596Y-94077392D01*
X66922596Y-94077394D01*
X67017632Y-94268253D01*
X67099989Y-94377310D01*
X67146128Y-94438407D01*
X67303698Y-94582052D01*
X67484981Y-94694298D01*
X67683802Y-94771321D01*
X67893390Y-94810500D01*
X67893392Y-94810500D01*
X68106608Y-94810500D01*
X68106610Y-94810500D01*
X68316198Y-94771321D01*
X68515019Y-94694298D01*
X68696302Y-94582052D01*
X68853872Y-94438407D01*
X68982366Y-94268255D01*
X68982367Y-94268253D01*
X69077403Y-94077394D01*
X69077403Y-94077393D01*
X69077405Y-94077389D01*
X69135756Y-93872310D01*
X69151723Y-93700000D01*
X71594357Y-93700000D01*
X71614884Y-93921535D01*
X71614885Y-93921537D01*
X71675769Y-94135523D01*
X71675775Y-94135538D01*
X71774938Y-94334683D01*
X71774943Y-94334691D01*
X71909020Y-94512238D01*
X72073437Y-94662123D01*
X72073439Y-94662125D01*
X72262595Y-94779245D01*
X72262596Y-94779245D01*
X72262599Y-94779247D01*
X72470060Y-94859618D01*
X72688757Y-94900500D01*
X72688759Y-94900500D01*
X72911241Y-94900500D01*
X72911243Y-94900500D01*
X73129940Y-94859618D01*
X73337401Y-94779247D01*
X73526562Y-94662124D01*
X73690981Y-94512236D01*
X73825058Y-94334689D01*
X73924229Y-94135528D01*
X73985115Y-93921536D01*
X74005643Y-93700000D01*
X73985115Y-93478464D01*
X73924229Y-93264472D01*
X73924224Y-93264461D01*
X73825061Y-93065316D01*
X73825056Y-93065308D01*
X73690979Y-92887761D01*
X73526562Y-92737876D01*
X73526560Y-92737874D01*
X73337404Y-92620754D01*
X73337395Y-92620750D01*
X73284157Y-92600126D01*
X73228755Y-92557553D01*
X73205164Y-92491786D01*
X73220875Y-92423706D01*
X73270899Y-92374927D01*
X73328949Y-92360499D01*
X73744864Y-92360499D01*
X73744879Y-92360497D01*
X73744882Y-92360497D01*
X73769987Y-92357586D01*
X73769988Y-92357585D01*
X73769991Y-92357585D01*
X73872765Y-92312206D01*
X73952206Y-92232765D01*
X73997585Y-92129991D01*
X74000500Y-92104865D01*
X74000499Y-91100002D01*
X182595034Y-91100002D01*
X182614858Y-91326599D01*
X182614860Y-91326610D01*
X182673730Y-91546317D01*
X182673734Y-91546326D01*
X182769865Y-91752481D01*
X182769866Y-91752483D01*
X182820973Y-91825471D01*
X182820974Y-91825472D01*
X183502046Y-91144399D01*
X183514835Y-91225148D01*
X183572359Y-91338045D01*
X183661955Y-91427641D01*
X183774852Y-91485165D01*
X183855599Y-91497953D01*
X183174526Y-92179025D01*
X183174526Y-92179026D01*
X183247512Y-92230131D01*
X183247516Y-92230133D01*
X183453673Y-92326265D01*
X183453682Y-92326269D01*
X183673389Y-92385139D01*
X183673400Y-92385141D01*
X183899998Y-92404966D01*
X183900002Y-92404966D01*
X184126599Y-92385141D01*
X184126610Y-92385139D01*
X184346317Y-92326269D01*
X184346331Y-92326264D01*
X184552478Y-92230136D01*
X184625472Y-92179025D01*
X183944401Y-91497953D01*
X184025148Y-91485165D01*
X184138045Y-91427641D01*
X184227641Y-91338045D01*
X184285165Y-91225148D01*
X184297953Y-91144400D01*
X184979025Y-91825472D01*
X185030136Y-91752478D01*
X185126264Y-91546331D01*
X185126269Y-91546317D01*
X185185139Y-91326610D01*
X185185141Y-91326599D01*
X185204966Y-91100002D01*
X185204966Y-91100000D01*
X198034785Y-91100000D01*
X198053602Y-91303082D01*
X198109417Y-91499247D01*
X198109422Y-91499260D01*
X198200327Y-91681821D01*
X198323237Y-91844581D01*
X198473958Y-91981980D01*
X198473960Y-91981982D01*
X198573141Y-92043392D01*
X198647363Y-92089348D01*
X198837544Y-92163024D01*
X199038024Y-92200500D01*
X199038026Y-92200500D01*
X199241974Y-92200500D01*
X199241976Y-92200500D01*
X199442456Y-92163024D01*
X199632637Y-92089348D01*
X199806041Y-91981981D01*
X199956764Y-91844579D01*
X200079673Y-91681821D01*
X200100497Y-91640000D01*
X226426857Y-91640000D01*
X226447384Y-91861535D01*
X226447385Y-91861537D01*
X226508269Y-92075523D01*
X226508275Y-92075538D01*
X226607438Y-92274683D01*
X226607443Y-92274691D01*
X226741520Y-92452238D01*
X226905937Y-92602123D01*
X226905939Y-92602125D01*
X227095095Y-92719245D01*
X227095107Y-92719251D01*
X227148341Y-92739873D01*
X227203744Y-92782445D01*
X227227335Y-92848211D01*
X227211625Y-92916292D01*
X227161601Y-92965072D01*
X227103549Y-92979500D01*
X226687643Y-92979500D01*
X226687617Y-92979502D01*
X226662512Y-92982413D01*
X226662508Y-92982415D01*
X226559735Y-93027793D01*
X226480294Y-93107234D01*
X226434915Y-93210006D01*
X226434915Y-93210008D01*
X226432000Y-93235131D01*
X226432000Y-95124856D01*
X226432002Y-95124882D01*
X226434913Y-95149987D01*
X226434915Y-95149991D01*
X226480293Y-95252764D01*
X226480294Y-95252765D01*
X226559735Y-95332206D01*
X226662509Y-95377585D01*
X226687635Y-95380500D01*
X228577364Y-95380499D01*
X228577379Y-95380497D01*
X228577382Y-95380497D01*
X228602487Y-95377586D01*
X228602488Y-95377585D01*
X228602491Y-95377585D01*
X228705265Y-95332206D01*
X228784706Y-95252765D01*
X228830085Y-95149991D01*
X228833000Y-95124865D01*
X228832999Y-94165000D01*
X230844571Y-94165000D01*
X230864244Y-94377310D01*
X230902634Y-94512236D01*
X230922596Y-94582392D01*
X230922596Y-94582394D01*
X231017632Y-94773253D01*
X231017634Y-94773255D01*
X231146128Y-94943407D01*
X231303698Y-95087052D01*
X231484981Y-95199298D01*
X231683802Y-95276321D01*
X231893390Y-95315500D01*
X231893392Y-95315500D01*
X232106608Y-95315500D01*
X232106610Y-95315500D01*
X232316198Y-95276321D01*
X232515019Y-95199298D01*
X232696302Y-95087052D01*
X232853872Y-94943407D01*
X232982366Y-94773255D01*
X233077405Y-94582389D01*
X233135756Y-94377310D01*
X233155429Y-94165000D01*
X233135756Y-93952690D01*
X233077405Y-93747611D01*
X233077403Y-93747606D01*
X233077403Y-93747605D01*
X232982367Y-93556746D01*
X232853872Y-93386593D01*
X232696302Y-93242948D01*
X232515019Y-93130702D01*
X232515017Y-93130701D01*
X232415608Y-93092190D01*
X232316198Y-93053679D01*
X232106610Y-93014500D01*
X231893390Y-93014500D01*
X231683802Y-93053679D01*
X231683799Y-93053679D01*
X231683799Y-93053680D01*
X231484982Y-93130701D01*
X231484980Y-93130702D01*
X231303699Y-93242947D01*
X231146127Y-93386593D01*
X231017632Y-93556746D01*
X230922596Y-93747605D01*
X230922596Y-93747607D01*
X230873109Y-93921535D01*
X230864244Y-93952690D01*
X230844571Y-94165000D01*
X228832999Y-94165000D01*
X228832999Y-93235136D01*
X228832997Y-93235117D01*
X228830086Y-93210012D01*
X228830085Y-93210010D01*
X228830085Y-93210009D01*
X228784706Y-93107235D01*
X228705265Y-93027794D01*
X228675157Y-93014500D01*
X228602492Y-92982415D01*
X228577368Y-92979500D01*
X228161452Y-92979500D01*
X228094413Y-92959815D01*
X228048658Y-92907011D01*
X228038714Y-92837853D01*
X228067739Y-92774297D01*
X228116659Y-92739873D01*
X228121819Y-92737874D01*
X228169901Y-92719247D01*
X228359062Y-92602124D01*
X228523481Y-92452236D01*
X228657558Y-92274689D01*
X228756729Y-92075528D01*
X228817615Y-91861536D01*
X228838143Y-91640000D01*
X228817615Y-91418464D01*
X228756729Y-91204472D01*
X228704708Y-91100000D01*
X228657561Y-91005316D01*
X228657556Y-91005308D01*
X228523479Y-90827761D01*
X228359062Y-90677876D01*
X228359060Y-90677874D01*
X228169904Y-90560754D01*
X228169898Y-90560752D01*
X227962440Y-90480382D01*
X227743743Y-90439500D01*
X227521257Y-90439500D01*
X227302560Y-90480382D01*
X227204995Y-90518179D01*
X227095101Y-90560752D01*
X227095095Y-90560754D01*
X226905939Y-90677874D01*
X226905937Y-90677876D01*
X226741520Y-90827761D01*
X226607443Y-91005308D01*
X226607438Y-91005316D01*
X226508275Y-91204461D01*
X226508269Y-91204476D01*
X226447385Y-91418462D01*
X226447384Y-91418464D01*
X226426857Y-91639999D01*
X226426857Y-91640000D01*
X200100497Y-91640000D01*
X200170582Y-91499250D01*
X200226397Y-91303083D01*
X200245215Y-91100000D01*
X200226397Y-90896917D01*
X200170582Y-90700750D01*
X200159192Y-90677876D01*
X200126272Y-90611764D01*
X200079673Y-90518179D01*
X199971192Y-90374527D01*
X199956762Y-90355418D01*
X199806041Y-90218019D01*
X199806039Y-90218017D01*
X199632642Y-90110655D01*
X199632635Y-90110651D01*
X199537546Y-90073814D01*
X199442456Y-90036976D01*
X199241976Y-89999500D01*
X199038024Y-89999500D01*
X198837544Y-90036976D01*
X198837541Y-90036976D01*
X198837541Y-90036977D01*
X198647364Y-90110651D01*
X198647357Y-90110655D01*
X198473960Y-90218017D01*
X198473958Y-90218019D01*
X198323237Y-90355418D01*
X198200327Y-90518178D01*
X198109422Y-90700739D01*
X198109417Y-90700752D01*
X198053602Y-90896917D01*
X198034785Y-91099999D01*
X198034785Y-91100000D01*
X185204966Y-91100000D01*
X185204966Y-91099997D01*
X185185141Y-90873400D01*
X185185139Y-90873389D01*
X185126269Y-90653682D01*
X185126265Y-90653673D01*
X185030133Y-90447516D01*
X185030131Y-90447512D01*
X184979026Y-90374526D01*
X184979025Y-90374526D01*
X184297953Y-91055598D01*
X184285165Y-90974852D01*
X184227641Y-90861955D01*
X184138045Y-90772359D01*
X184025148Y-90714835D01*
X183944400Y-90702046D01*
X184625472Y-90020974D01*
X184625471Y-90020973D01*
X184552483Y-89969866D01*
X184552481Y-89969865D01*
X184346326Y-89873734D01*
X184346317Y-89873730D01*
X184126610Y-89814860D01*
X184126599Y-89814858D01*
X183900002Y-89795034D01*
X183899998Y-89795034D01*
X183673400Y-89814858D01*
X183673389Y-89814860D01*
X183453682Y-89873730D01*
X183453673Y-89873734D01*
X183247513Y-89969868D01*
X183174527Y-90020972D01*
X183174526Y-90020973D01*
X183855600Y-90702046D01*
X183774852Y-90714835D01*
X183661955Y-90772359D01*
X183572359Y-90861955D01*
X183514835Y-90974852D01*
X183502046Y-91055599D01*
X182820973Y-90374526D01*
X182820972Y-90374527D01*
X182769868Y-90447513D01*
X182673734Y-90653673D01*
X182673730Y-90653682D01*
X182614860Y-90873389D01*
X182614858Y-90873400D01*
X182595034Y-91099997D01*
X182595034Y-91100002D01*
X74000499Y-91100002D01*
X74000499Y-90215136D01*
X74000497Y-90215117D01*
X73997586Y-90190012D01*
X73997585Y-90190010D01*
X73997585Y-90190009D01*
X73952206Y-90087235D01*
X73872765Y-90007794D01*
X73853981Y-89999500D01*
X73769992Y-89962415D01*
X73744865Y-89959500D01*
X71855143Y-89959500D01*
X71855117Y-89959502D01*
X71830012Y-89962413D01*
X71830008Y-89962415D01*
X71727235Y-90007793D01*
X71647794Y-90087234D01*
X71602415Y-90190006D01*
X71602415Y-90190008D01*
X71599500Y-90215131D01*
X71599500Y-92104856D01*
X71599502Y-92104882D01*
X71602413Y-92129987D01*
X71602415Y-92129991D01*
X71647793Y-92232764D01*
X71647794Y-92232765D01*
X71727235Y-92312206D01*
X71830009Y-92357585D01*
X71855135Y-92360500D01*
X72271049Y-92360499D01*
X72338086Y-92380183D01*
X72383841Y-92432987D01*
X72393785Y-92502146D01*
X72364760Y-92565702D01*
X72315842Y-92600125D01*
X72262607Y-92620748D01*
X72262595Y-92620754D01*
X72073439Y-92737874D01*
X72073437Y-92737876D01*
X71909020Y-92887761D01*
X71774943Y-93065308D01*
X71774938Y-93065316D01*
X71675775Y-93264461D01*
X71675769Y-93264476D01*
X71614885Y-93478462D01*
X71614884Y-93478464D01*
X71594357Y-93699999D01*
X71594357Y-93700000D01*
X69151723Y-93700000D01*
X69155429Y-93660000D01*
X69135756Y-93447690D01*
X69077405Y-93242611D01*
X69077403Y-93242606D01*
X69077403Y-93242605D01*
X68982367Y-93051746D01*
X68853872Y-92881593D01*
X68763950Y-92799618D01*
X68696302Y-92737948D01*
X68515019Y-92625702D01*
X68515017Y-92625701D01*
X68415608Y-92587190D01*
X68316198Y-92548679D01*
X68106610Y-92509500D01*
X67893390Y-92509500D01*
X67683802Y-92548679D01*
X67683799Y-92548679D01*
X67683799Y-92548680D01*
X67484982Y-92625701D01*
X67484980Y-92625702D01*
X67303699Y-92737947D01*
X67146127Y-92881593D01*
X67017632Y-93051746D01*
X66922596Y-93242605D01*
X66922596Y-93242607D01*
X66922595Y-93242611D01*
X66864244Y-93447690D01*
X66844571Y-93660000D01*
X60200500Y-93660000D01*
X60200500Y-89900000D01*
X107174785Y-89900000D01*
X107193602Y-90103082D01*
X107249417Y-90299247D01*
X107249422Y-90299260D01*
X107340327Y-90481821D01*
X107463237Y-90644581D01*
X107613958Y-90781980D01*
X107613960Y-90781982D01*
X107687896Y-90827761D01*
X107787363Y-90889348D01*
X107977544Y-90963024D01*
X108178024Y-91000500D01*
X108178026Y-91000500D01*
X108381974Y-91000500D01*
X108381976Y-91000500D01*
X108582456Y-90963024D01*
X108772637Y-90889348D01*
X108946041Y-90781981D01*
X109074122Y-90665219D01*
X109096762Y-90644581D01*
X109096764Y-90644579D01*
X109219673Y-90481821D01*
X109310582Y-90299250D01*
X109366397Y-90103083D01*
X109385215Y-89900000D01*
X122414785Y-89900000D01*
X122433602Y-90103082D01*
X122489417Y-90299247D01*
X122489422Y-90299260D01*
X122580327Y-90481821D01*
X122703237Y-90644581D01*
X122853958Y-90781980D01*
X122853960Y-90781982D01*
X122927896Y-90827761D01*
X123027363Y-90889348D01*
X123217544Y-90963024D01*
X123418024Y-91000500D01*
X123418026Y-91000500D01*
X123621974Y-91000500D01*
X123621976Y-91000500D01*
X123822456Y-90963024D01*
X124012637Y-90889348D01*
X124186041Y-90781981D01*
X124314122Y-90665219D01*
X124336762Y-90644581D01*
X124336764Y-90644579D01*
X124459673Y-90481821D01*
X124550582Y-90299250D01*
X124606397Y-90103083D01*
X124625215Y-89900000D01*
X124606397Y-89696917D01*
X124550582Y-89500750D01*
X124459673Y-89318179D01*
X124336764Y-89155421D01*
X124336762Y-89155418D01*
X124186041Y-89018019D01*
X124186039Y-89018017D01*
X124012642Y-88910655D01*
X124012635Y-88910651D01*
X123825215Y-88838045D01*
X123822456Y-88836976D01*
X123621976Y-88799500D01*
X123418024Y-88799500D01*
X123217544Y-88836976D01*
X123217541Y-88836976D01*
X123217541Y-88836977D01*
X123027364Y-88910651D01*
X123027357Y-88910655D01*
X122853960Y-89018017D01*
X122853958Y-89018019D01*
X122703237Y-89155418D01*
X122580327Y-89318178D01*
X122489422Y-89500739D01*
X122489417Y-89500752D01*
X122433602Y-89696917D01*
X122414785Y-89899999D01*
X122414785Y-89900000D01*
X109385215Y-89900000D01*
X109366397Y-89696917D01*
X109310582Y-89500750D01*
X109219673Y-89318179D01*
X109096764Y-89155421D01*
X109096762Y-89155418D01*
X108946041Y-89018019D01*
X108946039Y-89018017D01*
X108772642Y-88910655D01*
X108772635Y-88910651D01*
X108585215Y-88838045D01*
X108582456Y-88836976D01*
X108381976Y-88799500D01*
X108178024Y-88799500D01*
X107977544Y-88836976D01*
X107977541Y-88836976D01*
X107977541Y-88836977D01*
X107787364Y-88910651D01*
X107787357Y-88910655D01*
X107613960Y-89018017D01*
X107613958Y-89018019D01*
X107463237Y-89155418D01*
X107340327Y-89318178D01*
X107249422Y-89500739D01*
X107249417Y-89500752D01*
X107193602Y-89696917D01*
X107174785Y-89899999D01*
X107174785Y-89900000D01*
X60200500Y-89900000D01*
X60200500Y-88600002D01*
X165995034Y-88600002D01*
X166014858Y-88826599D01*
X166014860Y-88826610D01*
X166073730Y-89046317D01*
X166073734Y-89046326D01*
X166169865Y-89252481D01*
X166169866Y-89252483D01*
X166220973Y-89325471D01*
X166220974Y-89325472D01*
X166902046Y-88644399D01*
X166914835Y-88725148D01*
X166972359Y-88838045D01*
X167061955Y-88927641D01*
X167174852Y-88985165D01*
X167255599Y-88997953D01*
X166574526Y-89679025D01*
X166574526Y-89679026D01*
X166647512Y-89730131D01*
X166647516Y-89730133D01*
X166853673Y-89826265D01*
X166853682Y-89826269D01*
X167073389Y-89885139D01*
X167073400Y-89885141D01*
X167299998Y-89904966D01*
X167300002Y-89904966D01*
X167526599Y-89885141D01*
X167526610Y-89885139D01*
X167746317Y-89826269D01*
X167746331Y-89826264D01*
X167952478Y-89730136D01*
X168025472Y-89679025D01*
X167344401Y-88997953D01*
X167425148Y-88985165D01*
X167538045Y-88927641D01*
X167627641Y-88838045D01*
X167685165Y-88725148D01*
X167697953Y-88644400D01*
X168379025Y-89325472D01*
X168430136Y-89252478D01*
X168526264Y-89046331D01*
X168526269Y-89046317D01*
X168585139Y-88826610D01*
X168585141Y-88826599D01*
X168604966Y-88600002D01*
X168604966Y-88599997D01*
X168585141Y-88373400D01*
X168585139Y-88373389D01*
X168526269Y-88153682D01*
X168526265Y-88153673D01*
X168430133Y-87947516D01*
X168430131Y-87947512D01*
X168379026Y-87874526D01*
X168379025Y-87874526D01*
X167697953Y-88555598D01*
X167685165Y-88474852D01*
X167627641Y-88361955D01*
X167538045Y-88272359D01*
X167425148Y-88214835D01*
X167344400Y-88202046D01*
X168025472Y-87520974D01*
X168025471Y-87520973D01*
X167952483Y-87469866D01*
X167952481Y-87469865D01*
X167746326Y-87373734D01*
X167746317Y-87373730D01*
X167526610Y-87314860D01*
X167526599Y-87314858D01*
X167300002Y-87295034D01*
X167299998Y-87295034D01*
X167073400Y-87314858D01*
X167073389Y-87314860D01*
X166853682Y-87373730D01*
X166853673Y-87373734D01*
X166647513Y-87469868D01*
X166574527Y-87520972D01*
X166574526Y-87520973D01*
X167255600Y-88202046D01*
X167174852Y-88214835D01*
X167061955Y-88272359D01*
X166972359Y-88361955D01*
X166914835Y-88474852D01*
X166902046Y-88555599D01*
X166220973Y-87874526D01*
X166220972Y-87874527D01*
X166169868Y-87947513D01*
X166073734Y-88153673D01*
X166073730Y-88153682D01*
X166014860Y-88373389D01*
X166014858Y-88373400D01*
X165995034Y-88599997D01*
X165995034Y-88600002D01*
X60200500Y-88600002D01*
X60200500Y-86400000D01*
X71694785Y-86400000D01*
X71713602Y-86603082D01*
X71769417Y-86799247D01*
X71769422Y-86799260D01*
X71860327Y-86981821D01*
X71983237Y-87144581D01*
X72133958Y-87281980D01*
X72133960Y-87281982D01*
X72233141Y-87343392D01*
X72307363Y-87389348D01*
X72497544Y-87463024D01*
X72698024Y-87500500D01*
X72698026Y-87500500D01*
X72901974Y-87500500D01*
X72901976Y-87500500D01*
X73102456Y-87463024D01*
X73292637Y-87389348D01*
X73466041Y-87281981D01*
X73616764Y-87144579D01*
X73739673Y-86981821D01*
X73830582Y-86799250D01*
X73886397Y-86603083D01*
X73905215Y-86400000D01*
X73905146Y-86399260D01*
X73886397Y-86196917D01*
X73830582Y-86000750D01*
X73830208Y-86000000D01*
X226494785Y-86000000D01*
X226513602Y-86203082D01*
X226569417Y-86399247D01*
X226569422Y-86399260D01*
X226660327Y-86581821D01*
X226783237Y-86744581D01*
X226933958Y-86881980D01*
X226933960Y-86881982D01*
X227033141Y-86943392D01*
X227107363Y-86989348D01*
X227297544Y-87063024D01*
X227498024Y-87100500D01*
X227498026Y-87100500D01*
X227701974Y-87100500D01*
X227701976Y-87100500D01*
X227902456Y-87063024D01*
X228092637Y-86989348D01*
X228266041Y-86881981D01*
X228416764Y-86744579D01*
X228539673Y-86581821D01*
X228630582Y-86399250D01*
X228686397Y-86203083D01*
X228705215Y-86000000D01*
X228686397Y-85796917D01*
X228630582Y-85600750D01*
X228539673Y-85418179D01*
X228416764Y-85255421D01*
X228416762Y-85255418D01*
X228266041Y-85118019D01*
X228266039Y-85118017D01*
X228092642Y-85010655D01*
X228092635Y-85010651D01*
X227997546Y-84973814D01*
X227902456Y-84936976D01*
X227701976Y-84899500D01*
X227498024Y-84899500D01*
X227297544Y-84936976D01*
X227297541Y-84936976D01*
X227297541Y-84936977D01*
X227107364Y-85010651D01*
X227107357Y-85010655D01*
X226933960Y-85118017D01*
X226933958Y-85118019D01*
X226783237Y-85255418D01*
X226660327Y-85418178D01*
X226569422Y-85600739D01*
X226569417Y-85600752D01*
X226513602Y-85796917D01*
X226494785Y-85999999D01*
X226494785Y-86000000D01*
X73830208Y-86000000D01*
X73830208Y-85999999D01*
X73786272Y-85911764D01*
X73739673Y-85818179D01*
X73616764Y-85655421D01*
X73616762Y-85655418D01*
X73466041Y-85518019D01*
X73466039Y-85518017D01*
X73292642Y-85410655D01*
X73292635Y-85410651D01*
X73197546Y-85373814D01*
X73102456Y-85336976D01*
X72901976Y-85299500D01*
X72698024Y-85299500D01*
X72497544Y-85336976D01*
X72497541Y-85336976D01*
X72497541Y-85336977D01*
X72307364Y-85410651D01*
X72307357Y-85410655D01*
X72133960Y-85518017D01*
X72133958Y-85518019D01*
X71983237Y-85655418D01*
X71860327Y-85818178D01*
X71769422Y-86000739D01*
X71769417Y-86000752D01*
X71713602Y-86196917D01*
X71694785Y-86399999D01*
X71694785Y-86400000D01*
X60200500Y-86400000D01*
X60200500Y-82600002D01*
X63195034Y-82600002D01*
X63214858Y-82826599D01*
X63214860Y-82826610D01*
X63273730Y-83046317D01*
X63273734Y-83046326D01*
X63369865Y-83252481D01*
X63369866Y-83252483D01*
X63420973Y-83325471D01*
X63420974Y-83325472D01*
X64102046Y-82644399D01*
X64114835Y-82725148D01*
X64172359Y-82838045D01*
X64261955Y-82927641D01*
X64374852Y-82985165D01*
X64455599Y-82997953D01*
X63774526Y-83679025D01*
X63774526Y-83679026D01*
X63847512Y-83730131D01*
X63847516Y-83730133D01*
X64053673Y-83826265D01*
X64053682Y-83826269D01*
X64273389Y-83885139D01*
X64273400Y-83885141D01*
X64499998Y-83904966D01*
X64500002Y-83904966D01*
X64726599Y-83885141D01*
X64726610Y-83885139D01*
X64946317Y-83826269D01*
X64946331Y-83826264D01*
X65152478Y-83730136D01*
X65225472Y-83679025D01*
X64544401Y-82997953D01*
X64625148Y-82985165D01*
X64738045Y-82927641D01*
X64827641Y-82838045D01*
X64885165Y-82725148D01*
X64897953Y-82644400D01*
X65579025Y-83325472D01*
X65630136Y-83252478D01*
X65726264Y-83046331D01*
X65726269Y-83046317D01*
X65734880Y-83014181D01*
X65771244Y-82954521D01*
X65834091Y-82923991D01*
X65903467Y-82932285D01*
X65957345Y-82976770D01*
X65966516Y-82994290D01*
X65966862Y-82994118D01*
X66060327Y-83181821D01*
X66183237Y-83344581D01*
X66333958Y-83481980D01*
X66333960Y-83481982D01*
X66382152Y-83511821D01*
X66507363Y-83589348D01*
X66697544Y-83663024D01*
X66898024Y-83700500D01*
X66898026Y-83700500D01*
X67101974Y-83700500D01*
X67101976Y-83700500D01*
X67302456Y-83663024D01*
X67413515Y-83620000D01*
X94869785Y-83620000D01*
X94888602Y-83823082D01*
X94944417Y-84019247D01*
X94944422Y-84019260D01*
X95035327Y-84201821D01*
X95158237Y-84364581D01*
X95308958Y-84501980D01*
X95308960Y-84501982D01*
X95408141Y-84563392D01*
X95482363Y-84609348D01*
X95672544Y-84683024D01*
X95873024Y-84720500D01*
X95873026Y-84720500D01*
X96076974Y-84720500D01*
X96076976Y-84720500D01*
X96277456Y-84683024D01*
X96467637Y-84609348D01*
X96641041Y-84501981D01*
X96791764Y-84364579D01*
X96914673Y-84201821D01*
X97005582Y-84019250D01*
X97061397Y-83823083D01*
X97080215Y-83620000D01*
X97061397Y-83416917D01*
X97005582Y-83220750D01*
X96914673Y-83038179D01*
X96851497Y-82954521D01*
X96832980Y-82930000D01*
X134169785Y-82930000D01*
X134188602Y-83133082D01*
X134244417Y-83329247D01*
X134244422Y-83329260D01*
X134335327Y-83511821D01*
X134458237Y-83674581D01*
X134608958Y-83811980D01*
X134608960Y-83811982D01*
X134685453Y-83859344D01*
X134782363Y-83919348D01*
X134972544Y-83993024D01*
X135173024Y-84030500D01*
X135173026Y-84030500D01*
X135376974Y-84030500D01*
X135376976Y-84030500D01*
X135577456Y-83993024D01*
X135767637Y-83919348D01*
X135941041Y-83811981D01*
X136091764Y-83674579D01*
X136214673Y-83511821D01*
X136305582Y-83329250D01*
X136361397Y-83133083D01*
X136380215Y-82930000D01*
X136379996Y-82927641D01*
X136374655Y-82870000D01*
X208894785Y-82870000D01*
X208913602Y-83073082D01*
X208969417Y-83269247D01*
X208969422Y-83269260D01*
X209060327Y-83451821D01*
X209183237Y-83614581D01*
X209333958Y-83751980D01*
X209333960Y-83751982D01*
X209430861Y-83811980D01*
X209507363Y-83859348D01*
X209697544Y-83933024D01*
X209898024Y-83970500D01*
X209898026Y-83970500D01*
X210101974Y-83970500D01*
X210101976Y-83970500D01*
X210302456Y-83933024D01*
X210492637Y-83859348D01*
X210666041Y-83751981D01*
X210794122Y-83635219D01*
X210816762Y-83614581D01*
X210816764Y-83614579D01*
X210939673Y-83451821D01*
X211030582Y-83269250D01*
X211086397Y-83073083D01*
X211105215Y-82870000D01*
X211086397Y-82666917D01*
X211067357Y-82600000D01*
X231844785Y-82600000D01*
X231863602Y-82803082D01*
X231919417Y-82999247D01*
X231919422Y-82999260D01*
X232010327Y-83181821D01*
X232133237Y-83344581D01*
X232283958Y-83481980D01*
X232283960Y-83481982D01*
X232332152Y-83511821D01*
X232457363Y-83589348D01*
X232647544Y-83663024D01*
X232848024Y-83700500D01*
X232848026Y-83700500D01*
X233051974Y-83700500D01*
X233051976Y-83700500D01*
X233252456Y-83663024D01*
X233442637Y-83589348D01*
X233616041Y-83481981D01*
X233766764Y-83344579D01*
X233889673Y-83181821D01*
X233961198Y-83038178D01*
X233983138Y-82994118D01*
X233984763Y-82994927D01*
X234022258Y-82946102D01*
X234088017Y-82922491D01*
X234156103Y-82938180D01*
X234204898Y-82988188D01*
X234215118Y-83014178D01*
X234223729Y-83046314D01*
X234223734Y-83046326D01*
X234319865Y-83252481D01*
X234319866Y-83252483D01*
X234370973Y-83325471D01*
X234370974Y-83325472D01*
X235052046Y-82644399D01*
X235064835Y-82725148D01*
X235122359Y-82838045D01*
X235211955Y-82927641D01*
X235324852Y-82985165D01*
X235405599Y-82997953D01*
X234724526Y-83679025D01*
X234724526Y-83679026D01*
X234797512Y-83730131D01*
X234797516Y-83730133D01*
X235003673Y-83826265D01*
X235003682Y-83826269D01*
X235223389Y-83885139D01*
X235223400Y-83885141D01*
X235449998Y-83904966D01*
X235450002Y-83904966D01*
X235676599Y-83885141D01*
X235676610Y-83885139D01*
X235896317Y-83826269D01*
X235896331Y-83826264D01*
X236102478Y-83730136D01*
X236175472Y-83679025D01*
X235494401Y-82997953D01*
X235575148Y-82985165D01*
X235688045Y-82927641D01*
X235777641Y-82838045D01*
X235835165Y-82725148D01*
X235847953Y-82644400D01*
X236529025Y-83325472D01*
X236580136Y-83252478D01*
X236676264Y-83046331D01*
X236676269Y-83046317D01*
X236735139Y-82826610D01*
X236735141Y-82826599D01*
X236754966Y-82600002D01*
X236754966Y-82599997D01*
X236735141Y-82373400D01*
X236735139Y-82373389D01*
X236676269Y-82153682D01*
X236676265Y-82153673D01*
X236580133Y-81947516D01*
X236580131Y-81947512D01*
X236529026Y-81874526D01*
X236529025Y-81874526D01*
X235847953Y-82555598D01*
X235835165Y-82474852D01*
X235777641Y-82361955D01*
X235688045Y-82272359D01*
X235575148Y-82214835D01*
X235494400Y-82202046D01*
X236175472Y-81520974D01*
X236175471Y-81520973D01*
X236102483Y-81469866D01*
X236102481Y-81469865D01*
X235896326Y-81373734D01*
X235896317Y-81373730D01*
X235676610Y-81314860D01*
X235676599Y-81314858D01*
X235450002Y-81295034D01*
X235449998Y-81295034D01*
X235223400Y-81314858D01*
X235223389Y-81314860D01*
X235003682Y-81373730D01*
X235003673Y-81373734D01*
X234797513Y-81469868D01*
X234724527Y-81520972D01*
X234724526Y-81520973D01*
X235405600Y-82202046D01*
X235324852Y-82214835D01*
X235211955Y-82272359D01*
X235122359Y-82361955D01*
X235064835Y-82474852D01*
X235052046Y-82555599D01*
X234370973Y-81874526D01*
X234370972Y-81874527D01*
X234319868Y-81947513D01*
X234223734Y-82153673D01*
X234223729Y-82153686D01*
X234215118Y-82185821D01*
X234178752Y-82245481D01*
X234115904Y-82276009D01*
X234046529Y-82267712D01*
X233992652Y-82223226D01*
X233983484Y-82205709D01*
X233983138Y-82205882D01*
X233904050Y-82047052D01*
X233889673Y-82018179D01*
X233781192Y-81874527D01*
X233766762Y-81855418D01*
X233616041Y-81718019D01*
X233616039Y-81718017D01*
X233442642Y-81610655D01*
X233442635Y-81610651D01*
X233347546Y-81573814D01*
X233252456Y-81536976D01*
X233051976Y-81499500D01*
X232848024Y-81499500D01*
X232647544Y-81536976D01*
X232647541Y-81536976D01*
X232647541Y-81536977D01*
X232457364Y-81610651D01*
X232457357Y-81610655D01*
X232283960Y-81718017D01*
X232283958Y-81718019D01*
X232133237Y-81855418D01*
X232010327Y-82018178D01*
X231919422Y-82200739D01*
X231919417Y-82200752D01*
X231863602Y-82396917D01*
X231844785Y-82599999D01*
X231844785Y-82600000D01*
X211067357Y-82600000D01*
X211030582Y-82470750D01*
X210939673Y-82288179D01*
X210838099Y-82153673D01*
X210816762Y-82125418D01*
X210666041Y-81988019D01*
X210666039Y-81988017D01*
X210492642Y-81880655D01*
X210492635Y-81880651D01*
X210397546Y-81843814D01*
X210302456Y-81806976D01*
X210101976Y-81769500D01*
X209898024Y-81769500D01*
X209697544Y-81806976D01*
X209697541Y-81806976D01*
X209697541Y-81806977D01*
X209507364Y-81880651D01*
X209507357Y-81880655D01*
X209333960Y-81988017D01*
X209333958Y-81988019D01*
X209183237Y-82125418D01*
X209060327Y-82288178D01*
X208969422Y-82470739D01*
X208969417Y-82470752D01*
X208913602Y-82666917D01*
X208894785Y-82869999D01*
X208894785Y-82870000D01*
X136374655Y-82870000D01*
X136361397Y-82726917D01*
X136344325Y-82666917D01*
X136305582Y-82530750D01*
X136299980Y-82519500D01*
X136227226Y-82373389D01*
X136214673Y-82348179D01*
X136120313Y-82223226D01*
X136091762Y-82185418D01*
X135941041Y-82048019D01*
X135941039Y-82048017D01*
X135767642Y-81940655D01*
X135767635Y-81940651D01*
X135671493Y-81903406D01*
X135577456Y-81866976D01*
X135376976Y-81829500D01*
X135173024Y-81829500D01*
X134972544Y-81866976D01*
X134972541Y-81866976D01*
X134972541Y-81866977D01*
X134782364Y-81940651D01*
X134782357Y-81940655D01*
X134608960Y-82048017D01*
X134608958Y-82048019D01*
X134458237Y-82185418D01*
X134335327Y-82348178D01*
X134244422Y-82530739D01*
X134244417Y-82530752D01*
X134188602Y-82726917D01*
X134169785Y-82929999D01*
X134169785Y-82930000D01*
X96832980Y-82930000D01*
X96791762Y-82875418D01*
X96641041Y-82738019D01*
X96641039Y-82738017D01*
X96467642Y-82630655D01*
X96467635Y-82630651D01*
X96372546Y-82593814D01*
X96277456Y-82556976D01*
X96076976Y-82519500D01*
X95873024Y-82519500D01*
X95672544Y-82556976D01*
X95672541Y-82556976D01*
X95672541Y-82556977D01*
X95482364Y-82630651D01*
X95482357Y-82630655D01*
X95308960Y-82738017D01*
X95308958Y-82738019D01*
X95158237Y-82875418D01*
X95035327Y-83038178D01*
X94944422Y-83220739D01*
X94944417Y-83220752D01*
X94888602Y-83416917D01*
X94869785Y-83619999D01*
X94869785Y-83620000D01*
X67413515Y-83620000D01*
X67492637Y-83589348D01*
X67666041Y-83481981D01*
X67816764Y-83344579D01*
X67939673Y-83181821D01*
X68030582Y-82999250D01*
X68086397Y-82803083D01*
X68105215Y-82600000D01*
X68093238Y-82470750D01*
X68086397Y-82396917D01*
X68066077Y-82325500D01*
X68030582Y-82200750D01*
X68029095Y-82197764D01*
X67954050Y-82047052D01*
X67939673Y-82018179D01*
X67831192Y-81874527D01*
X67816762Y-81855418D01*
X67666041Y-81718019D01*
X67666039Y-81718017D01*
X67492642Y-81610655D01*
X67492635Y-81610651D01*
X67397546Y-81573814D01*
X67302456Y-81536976D01*
X67101976Y-81499500D01*
X66898024Y-81499500D01*
X66697544Y-81536976D01*
X66697541Y-81536976D01*
X66697541Y-81536977D01*
X66507364Y-81610651D01*
X66507357Y-81610655D01*
X66333960Y-81718017D01*
X66333958Y-81718019D01*
X66183237Y-81855418D01*
X66060327Y-82018178D01*
X65966862Y-82205882D01*
X65965245Y-82205076D01*
X65927702Y-82253925D01*
X65861934Y-82277511D01*
X65793854Y-82261796D01*
X65745079Y-82211768D01*
X65734880Y-82185818D01*
X65726269Y-82153682D01*
X65726265Y-82153673D01*
X65630133Y-81947516D01*
X65630131Y-81947512D01*
X65579026Y-81874526D01*
X65579025Y-81874526D01*
X64897953Y-82555598D01*
X64885165Y-82474852D01*
X64827641Y-82361955D01*
X64738045Y-82272359D01*
X64625148Y-82214835D01*
X64544400Y-82202046D01*
X65225472Y-81520974D01*
X65225471Y-81520973D01*
X65152483Y-81469866D01*
X65152481Y-81469865D01*
X64946326Y-81373734D01*
X64946317Y-81373730D01*
X64726610Y-81314860D01*
X64726599Y-81314858D01*
X64500002Y-81295034D01*
X64499998Y-81295034D01*
X64273400Y-81314858D01*
X64273389Y-81314860D01*
X64053682Y-81373730D01*
X64053673Y-81373734D01*
X63847513Y-81469868D01*
X63774527Y-81520972D01*
X63774526Y-81520973D01*
X64455600Y-82202046D01*
X64374852Y-82214835D01*
X64261955Y-82272359D01*
X64172359Y-82361955D01*
X64114835Y-82474852D01*
X64102046Y-82555599D01*
X63420973Y-81874526D01*
X63420972Y-81874527D01*
X63369868Y-81947513D01*
X63273734Y-82153673D01*
X63273730Y-82153682D01*
X63214860Y-82373389D01*
X63214858Y-82373400D01*
X63195034Y-82599997D01*
X63195034Y-82600002D01*
X60200500Y-82600002D01*
X60200500Y-78635000D01*
X105239571Y-78635000D01*
X105259244Y-78847310D01*
X105317596Y-79052392D01*
X105317596Y-79052394D01*
X105412632Y-79243253D01*
X105503369Y-79363407D01*
X105541128Y-79413407D01*
X105698698Y-79557052D01*
X105879981Y-79669298D01*
X106078802Y-79746321D01*
X106251544Y-79778612D01*
X106313823Y-79810279D01*
X106349096Y-79870591D01*
X106346162Y-79940400D01*
X106305953Y-79997540D01*
X106241235Y-80023871D01*
X106228757Y-80024500D01*
X105500143Y-80024500D01*
X105500117Y-80024502D01*
X105475012Y-80027413D01*
X105475008Y-80027415D01*
X105372235Y-80072793D01*
X105292794Y-80152234D01*
X105247415Y-80255006D01*
X105247415Y-80255008D01*
X105244500Y-80280131D01*
X105244500Y-82069856D01*
X105244502Y-82069882D01*
X105247413Y-82094987D01*
X105247415Y-82094991D01*
X105292793Y-82197764D01*
X105292794Y-82197765D01*
X105372235Y-82277206D01*
X105475009Y-82322585D01*
X105500135Y-82325500D01*
X107289864Y-82325499D01*
X107289879Y-82325497D01*
X107289882Y-82325497D01*
X107314987Y-82322586D01*
X107314988Y-82322585D01*
X107314991Y-82322585D01*
X107417765Y-82277206D01*
X107497206Y-82197765D01*
X107542585Y-82094991D01*
X107545500Y-82069865D01*
X107545499Y-81175000D01*
X123839571Y-81175000D01*
X123859244Y-81387310D01*
X123917596Y-81592392D01*
X123917596Y-81592394D01*
X124012632Y-81783253D01*
X124103369Y-81903407D01*
X124141128Y-81953407D01*
X124298698Y-82097052D01*
X124479981Y-82209298D01*
X124678802Y-82286321D01*
X124888390Y-82325500D01*
X124888392Y-82325500D01*
X125101608Y-82325500D01*
X125101610Y-82325500D01*
X125311198Y-82286321D01*
X125510019Y-82209298D01*
X125691302Y-82097052D01*
X125848872Y-81953407D01*
X125977366Y-81783255D01*
X126002264Y-81733253D01*
X126072403Y-81592394D01*
X126072403Y-81592393D01*
X126072405Y-81592389D01*
X126130756Y-81387310D01*
X126150429Y-81175000D01*
X126130756Y-80962690D01*
X126072405Y-80757611D01*
X126072403Y-80757606D01*
X126072403Y-80757605D01*
X125977367Y-80566746D01*
X125848872Y-80396593D01*
X125721133Y-80280143D01*
X125691302Y-80252948D01*
X125510019Y-80140702D01*
X125510017Y-80140701D01*
X125380950Y-80090701D01*
X125311198Y-80063679D01*
X125114385Y-80026888D01*
X125052106Y-79995221D01*
X125016833Y-79934908D01*
X125019767Y-79865100D01*
X125059976Y-79807960D01*
X125114384Y-79783111D01*
X125311198Y-79746321D01*
X125510019Y-79669298D01*
X125691302Y-79557052D01*
X125848872Y-79413407D01*
X125977366Y-79243255D01*
X126072405Y-79052389D01*
X126130756Y-78847310D01*
X126150429Y-78635000D01*
X126145796Y-78585000D01*
X174044571Y-78585000D01*
X174064244Y-78797310D01*
X174078470Y-78847310D01*
X174122596Y-79002392D01*
X174122596Y-79002394D01*
X174217632Y-79193253D01*
X174346127Y-79363406D01*
X174346128Y-79363407D01*
X174503698Y-79507052D01*
X174684981Y-79619298D01*
X174883802Y-79696321D01*
X175056544Y-79728612D01*
X175118823Y-79760279D01*
X175154096Y-79820591D01*
X175151162Y-79890400D01*
X175110953Y-79947540D01*
X175046235Y-79973871D01*
X175033757Y-79974500D01*
X174305143Y-79974500D01*
X174305117Y-79974502D01*
X174280012Y-79977413D01*
X174280008Y-79977415D01*
X174177235Y-80022793D01*
X174097794Y-80102234D01*
X174052415Y-80205006D01*
X174052415Y-80205008D01*
X174049500Y-80230131D01*
X174049500Y-82019856D01*
X174049502Y-82019882D01*
X174052413Y-82044987D01*
X174052415Y-82044991D01*
X174097793Y-82147764D01*
X174097794Y-82147765D01*
X174177235Y-82227206D01*
X174280009Y-82272585D01*
X174305135Y-82275500D01*
X176094864Y-82275499D01*
X176094879Y-82275497D01*
X176094882Y-82275497D01*
X176119987Y-82272586D01*
X176119988Y-82272585D01*
X176119991Y-82272585D01*
X176222765Y-82227206D01*
X176302206Y-82147765D01*
X176347585Y-82044991D01*
X176350500Y-82019865D01*
X176350499Y-81125000D01*
X192644571Y-81125000D01*
X192664244Y-81337310D01*
X192678470Y-81387310D01*
X192722596Y-81542392D01*
X192722596Y-81542394D01*
X192817632Y-81733253D01*
X192928943Y-81880651D01*
X192946128Y-81903407D01*
X193103698Y-82047052D01*
X193284981Y-82159298D01*
X193483802Y-82236321D01*
X193693390Y-82275500D01*
X193693392Y-82275500D01*
X193906608Y-82275500D01*
X193906610Y-82275500D01*
X194116198Y-82236321D01*
X194315019Y-82159298D01*
X194496302Y-82047052D01*
X194653872Y-81903407D01*
X194782366Y-81733255D01*
X194843413Y-81610655D01*
X194877403Y-81542394D01*
X194877403Y-81542393D01*
X194877405Y-81542389D01*
X194935756Y-81337310D01*
X194955429Y-81125000D01*
X194935756Y-80912690D01*
X194877405Y-80707611D01*
X194877403Y-80707606D01*
X194877403Y-80707605D01*
X194782367Y-80516746D01*
X194653872Y-80346593D01*
X194580980Y-80280143D01*
X194496302Y-80202948D01*
X194315019Y-80090702D01*
X194315017Y-80090701D01*
X194151655Y-80027415D01*
X194116198Y-80013679D01*
X193919385Y-79976888D01*
X193857106Y-79945221D01*
X193821833Y-79884908D01*
X193824767Y-79815100D01*
X193864976Y-79757960D01*
X193919384Y-79733111D01*
X194116198Y-79696321D01*
X194315019Y-79619298D01*
X194496302Y-79507052D01*
X194653872Y-79363407D01*
X194782366Y-79193255D01*
X194852507Y-79052392D01*
X194877403Y-79002394D01*
X194877403Y-79002393D01*
X194877405Y-79002389D01*
X194935756Y-78797310D01*
X194955429Y-78585000D01*
X194935756Y-78372690D01*
X194877405Y-78167611D01*
X194877403Y-78167606D01*
X194877403Y-78167605D01*
X194782367Y-77976746D01*
X194653872Y-77806593D01*
X194590970Y-77749250D01*
X194496302Y-77662948D01*
X194315019Y-77550702D01*
X194315017Y-77550701D01*
X194191942Y-77503022D01*
X194116198Y-77473679D01*
X193943456Y-77441387D01*
X193881176Y-77409719D01*
X193845903Y-77349407D01*
X193848837Y-77279599D01*
X193889046Y-77222459D01*
X193953764Y-77196128D01*
X193966233Y-77195499D01*
X194694864Y-77195499D01*
X194694879Y-77195497D01*
X194694882Y-77195497D01*
X194719987Y-77192586D01*
X194719988Y-77192585D01*
X194719991Y-77192585D01*
X194822765Y-77147206D01*
X194902206Y-77067765D01*
X194947585Y-76964991D01*
X194950500Y-76939865D01*
X194950500Y-76500000D01*
X215094785Y-76500000D01*
X215113602Y-76703082D01*
X215169417Y-76899247D01*
X215169422Y-76899260D01*
X215260327Y-77081821D01*
X215383237Y-77244581D01*
X215533958Y-77381980D01*
X215533960Y-77381982D01*
X215571493Y-77405221D01*
X215707363Y-77489348D01*
X215897544Y-77563024D01*
X216098024Y-77600500D01*
X216098026Y-77600500D01*
X216301974Y-77600500D01*
X216301976Y-77600500D01*
X216502456Y-77563024D01*
X216692637Y-77489348D01*
X216866041Y-77381981D01*
X217016764Y-77244579D01*
X217139673Y-77081821D01*
X217230582Y-76899250D01*
X217286397Y-76703083D01*
X217305215Y-76500000D01*
X217286397Y-76296917D01*
X217230582Y-76100750D01*
X217227718Y-76094999D01*
X217155767Y-75950500D01*
X217139673Y-75918179D01*
X217016764Y-75755421D01*
X217016762Y-75755418D01*
X216866041Y-75618019D01*
X216866039Y-75618017D01*
X216692642Y-75510655D01*
X216692635Y-75510651D01*
X216597546Y-75473814D01*
X216502456Y-75436976D01*
X216301976Y-75399500D01*
X216098024Y-75399500D01*
X215897544Y-75436976D01*
X215897541Y-75436976D01*
X215897541Y-75436977D01*
X215707364Y-75510651D01*
X215707357Y-75510655D01*
X215533960Y-75618017D01*
X215533958Y-75618019D01*
X215383237Y-75755418D01*
X215260327Y-75918178D01*
X215169422Y-76100739D01*
X215169417Y-76100752D01*
X215113602Y-76296917D01*
X215094785Y-76499999D01*
X215094785Y-76500000D01*
X194950500Y-76500000D01*
X194950499Y-75150136D01*
X194950497Y-75150117D01*
X194947586Y-75125012D01*
X194947585Y-75125010D01*
X194947585Y-75125009D01*
X194902206Y-75022235D01*
X194822765Y-74942794D01*
X194802124Y-74933680D01*
X194719992Y-74897415D01*
X194694865Y-74894500D01*
X192905143Y-74894500D01*
X192905117Y-74894502D01*
X192880012Y-74897413D01*
X192880008Y-74897415D01*
X192777235Y-74942793D01*
X192697794Y-75022234D01*
X192652415Y-75125006D01*
X192652415Y-75125008D01*
X192649500Y-75150131D01*
X192649500Y-76939856D01*
X192649502Y-76939882D01*
X192652413Y-76964987D01*
X192652415Y-76964991D01*
X192697793Y-77067764D01*
X192697794Y-77067765D01*
X192777235Y-77147206D01*
X192880009Y-77192585D01*
X192905135Y-77195500D01*
X193633758Y-77195499D01*
X193700795Y-77215183D01*
X193746550Y-77267987D01*
X193756494Y-77337146D01*
X193727469Y-77400702D01*
X193668691Y-77438476D01*
X193656542Y-77441388D01*
X193606717Y-77450702D01*
X193483802Y-77473679D01*
X193483800Y-77473679D01*
X193483798Y-77473680D01*
X193284982Y-77550701D01*
X193284980Y-77550702D01*
X193103699Y-77662947D01*
X192946127Y-77806593D01*
X192817632Y-77976746D01*
X192722596Y-78167605D01*
X192722596Y-78167607D01*
X192664244Y-78372689D01*
X192660507Y-78413024D01*
X192644571Y-78585000D01*
X192664244Y-78797310D01*
X192678470Y-78847310D01*
X192722596Y-79002392D01*
X192722596Y-79002394D01*
X192817632Y-79193253D01*
X192946127Y-79363406D01*
X192946128Y-79363407D01*
X193103698Y-79507052D01*
X193284981Y-79619298D01*
X193483802Y-79696321D01*
X193680613Y-79733111D01*
X193742893Y-79764779D01*
X193778166Y-79825092D01*
X193775232Y-79894900D01*
X193735023Y-79952040D01*
X193680613Y-79976888D01*
X193483802Y-80013679D01*
X193483799Y-80013679D01*
X193483799Y-80013680D01*
X193284982Y-80090701D01*
X193284980Y-80090702D01*
X193103699Y-80202947D01*
X192946127Y-80346593D01*
X192817632Y-80516746D01*
X192722596Y-80707605D01*
X192722596Y-80707607D01*
X192708369Y-80757611D01*
X192664244Y-80912690D01*
X192644571Y-81125000D01*
X176350499Y-81125000D01*
X176350499Y-80230136D01*
X176350497Y-80230117D01*
X176347586Y-80205012D01*
X176347585Y-80205010D01*
X176347585Y-80205009D01*
X176302206Y-80102235D01*
X176222765Y-80022794D01*
X176202124Y-80013680D01*
X176119992Y-79977415D01*
X176094868Y-79974500D01*
X175366243Y-79974500D01*
X175299204Y-79954815D01*
X175253449Y-79902011D01*
X175243505Y-79832853D01*
X175272530Y-79769297D01*
X175331308Y-79731523D01*
X175343441Y-79728614D01*
X175516198Y-79696321D01*
X175715019Y-79619298D01*
X175896302Y-79507052D01*
X176053872Y-79363407D01*
X176182366Y-79193255D01*
X176252507Y-79052392D01*
X176277403Y-79002394D01*
X176277403Y-79002393D01*
X176277405Y-79002389D01*
X176335756Y-78797310D01*
X176355429Y-78585000D01*
X176335756Y-78372690D01*
X176277405Y-78167611D01*
X176277403Y-78167606D01*
X176277403Y-78167605D01*
X176182367Y-77976746D01*
X176053872Y-77806593D01*
X175990970Y-77749250D01*
X175896302Y-77662948D01*
X175715019Y-77550702D01*
X175715017Y-77550701D01*
X175591942Y-77503022D01*
X175516198Y-77473679D01*
X175319385Y-77436888D01*
X175257106Y-77405221D01*
X175221833Y-77344908D01*
X175224767Y-77275100D01*
X175264976Y-77217960D01*
X175319384Y-77193111D01*
X175516198Y-77156321D01*
X175715019Y-77079298D01*
X175896302Y-76967052D01*
X176053872Y-76823407D01*
X176182366Y-76653255D01*
X176252507Y-76512392D01*
X176277403Y-76462394D01*
X176277403Y-76462393D01*
X176277405Y-76462389D01*
X176335756Y-76257310D01*
X176355429Y-76045000D01*
X176335756Y-75832690D01*
X176277405Y-75627611D01*
X176277403Y-75627606D01*
X176277403Y-75627605D01*
X176182367Y-75436746D01*
X176053872Y-75266593D01*
X175980980Y-75200143D01*
X175896302Y-75122948D01*
X175715019Y-75010702D01*
X175715017Y-75010701D01*
X175551655Y-74947415D01*
X175516198Y-74933679D01*
X175306610Y-74894500D01*
X175093390Y-74894500D01*
X174883802Y-74933679D01*
X174883799Y-74933679D01*
X174883799Y-74933680D01*
X174684982Y-75010701D01*
X174684980Y-75010702D01*
X174503699Y-75122947D01*
X174346127Y-75266593D01*
X174217632Y-75436746D01*
X174122596Y-75627605D01*
X174122596Y-75627607D01*
X174064244Y-75832689D01*
X174053328Y-75950500D01*
X174044571Y-76045000D01*
X174064244Y-76257310D01*
X174116224Y-76439999D01*
X174122596Y-76462392D01*
X174122596Y-76462394D01*
X174217632Y-76653253D01*
X174304421Y-76768179D01*
X174346128Y-76823407D01*
X174503698Y-76967052D01*
X174684981Y-77079298D01*
X174883802Y-77156321D01*
X175080613Y-77193111D01*
X175142893Y-77224779D01*
X175178166Y-77285092D01*
X175175232Y-77354900D01*
X175135023Y-77412040D01*
X175080613Y-77436888D01*
X174883802Y-77473679D01*
X174883799Y-77473679D01*
X174883799Y-77473680D01*
X174684982Y-77550701D01*
X174684980Y-77550702D01*
X174503699Y-77662947D01*
X174346127Y-77806593D01*
X174217632Y-77976746D01*
X174122596Y-78167605D01*
X174122596Y-78167607D01*
X174064244Y-78372689D01*
X174060507Y-78413024D01*
X174044571Y-78585000D01*
X126145796Y-78585000D01*
X126130756Y-78422690D01*
X126072405Y-78217611D01*
X126072403Y-78217606D01*
X126072403Y-78217605D01*
X125977367Y-78026746D01*
X125848872Y-77856593D01*
X125794025Y-77806593D01*
X125691302Y-77712948D01*
X125510019Y-77600702D01*
X125510017Y-77600701D01*
X125387099Y-77553083D01*
X125311198Y-77523679D01*
X125138456Y-77491387D01*
X125076176Y-77459719D01*
X125040903Y-77399407D01*
X125043837Y-77329599D01*
X125084046Y-77272459D01*
X125148764Y-77246128D01*
X125161233Y-77245499D01*
X125889864Y-77245499D01*
X125889879Y-77245497D01*
X125889882Y-77245497D01*
X125914987Y-77242586D01*
X125914988Y-77242585D01*
X125914991Y-77242585D01*
X126017765Y-77197206D01*
X126097206Y-77117765D01*
X126142585Y-77014991D01*
X126145500Y-76989865D01*
X126145500Y-76440000D01*
X140694785Y-76440000D01*
X140713602Y-76643082D01*
X140769417Y-76839247D01*
X140769422Y-76839260D01*
X140860327Y-77021821D01*
X140983237Y-77184581D01*
X141133958Y-77321980D01*
X141133960Y-77321982D01*
X141179211Y-77350000D01*
X141307363Y-77429348D01*
X141497544Y-77503024D01*
X141698024Y-77540500D01*
X141698026Y-77540500D01*
X141901974Y-77540500D01*
X141901976Y-77540500D01*
X142102456Y-77503024D01*
X142292637Y-77429348D01*
X142466041Y-77321981D01*
X142616764Y-77184579D01*
X142739673Y-77021821D01*
X142830582Y-76839250D01*
X142886397Y-76643083D01*
X142905215Y-76440000D01*
X142897862Y-76360652D01*
X142886397Y-76236917D01*
X142847654Y-76100752D01*
X142830582Y-76040750D01*
X142739673Y-75858179D01*
X142616764Y-75695421D01*
X142616762Y-75695418D01*
X142466041Y-75558019D01*
X142466039Y-75558017D01*
X142292642Y-75450655D01*
X142292635Y-75450651D01*
X142197546Y-75413814D01*
X142102456Y-75376976D01*
X141901976Y-75339500D01*
X141698024Y-75339500D01*
X141497544Y-75376976D01*
X141497541Y-75376976D01*
X141497541Y-75376977D01*
X141307364Y-75450651D01*
X141307357Y-75450655D01*
X141133960Y-75558017D01*
X141133958Y-75558019D01*
X140983237Y-75695418D01*
X140860327Y-75858178D01*
X140769422Y-76040739D01*
X140769417Y-76040752D01*
X140713602Y-76236917D01*
X140694785Y-76439999D01*
X140694785Y-76440000D01*
X126145500Y-76440000D01*
X126145499Y-75200136D01*
X126145497Y-75200117D01*
X126142586Y-75175012D01*
X126142585Y-75175010D01*
X126142585Y-75175009D01*
X126097206Y-75072235D01*
X126017765Y-74992794D01*
X126009961Y-74989348D01*
X125914992Y-74947415D01*
X125889865Y-74944500D01*
X124100143Y-74944500D01*
X124100117Y-74944502D01*
X124075012Y-74947413D01*
X124075008Y-74947415D01*
X123972235Y-74992793D01*
X123892794Y-75072234D01*
X123847415Y-75175006D01*
X123847415Y-75175008D01*
X123844500Y-75200131D01*
X123844500Y-76989856D01*
X123844502Y-76989882D01*
X123847413Y-77014987D01*
X123847415Y-77014991D01*
X123892793Y-77117764D01*
X123892794Y-77117765D01*
X123972235Y-77197206D01*
X124075009Y-77242585D01*
X124100135Y-77245500D01*
X124828758Y-77245499D01*
X124895795Y-77265183D01*
X124941550Y-77317987D01*
X124951494Y-77387146D01*
X124922469Y-77450702D01*
X124863691Y-77488476D01*
X124851542Y-77491388D01*
X124795116Y-77501935D01*
X124678802Y-77523679D01*
X124678800Y-77523679D01*
X124678798Y-77523680D01*
X124479982Y-77600701D01*
X124479980Y-77600702D01*
X124298699Y-77712947D01*
X124141127Y-77856593D01*
X124012632Y-78026746D01*
X123917596Y-78217605D01*
X123917596Y-78217607D01*
X123859244Y-78422689D01*
X123839571Y-78634999D01*
X123839571Y-78635000D01*
X123859244Y-78847310D01*
X123917596Y-79052392D01*
X123917596Y-79052394D01*
X124012632Y-79243253D01*
X124103369Y-79363407D01*
X124141128Y-79413407D01*
X124298698Y-79557052D01*
X124479981Y-79669298D01*
X124678802Y-79746321D01*
X124875613Y-79783111D01*
X124937893Y-79814779D01*
X124973166Y-79875092D01*
X124970232Y-79944900D01*
X124930023Y-80002040D01*
X124875613Y-80026888D01*
X124678802Y-80063679D01*
X124678799Y-80063679D01*
X124678799Y-80063680D01*
X124479982Y-80140701D01*
X124479980Y-80140702D01*
X124298699Y-80252947D01*
X124141127Y-80396593D01*
X124012632Y-80566746D01*
X123917596Y-80757605D01*
X123917596Y-80757607D01*
X123859244Y-80962689D01*
X123839571Y-81174999D01*
X123839571Y-81175000D01*
X107545499Y-81175000D01*
X107545499Y-80280136D01*
X107545497Y-80280117D01*
X107542586Y-80255012D01*
X107542585Y-80255010D01*
X107542585Y-80255009D01*
X107497206Y-80152235D01*
X107417765Y-80072794D01*
X107397124Y-80063680D01*
X107314992Y-80027415D01*
X107289868Y-80024500D01*
X106561243Y-80024500D01*
X106494204Y-80004815D01*
X106448449Y-79952011D01*
X106438505Y-79882853D01*
X106467530Y-79819297D01*
X106526308Y-79781523D01*
X106538441Y-79778614D01*
X106711198Y-79746321D01*
X106910019Y-79669298D01*
X107091302Y-79557052D01*
X107248872Y-79413407D01*
X107377366Y-79243255D01*
X107472405Y-79052389D01*
X107530756Y-78847310D01*
X107550429Y-78635000D01*
X107530756Y-78422690D01*
X107472405Y-78217611D01*
X107472403Y-78217606D01*
X107472403Y-78217605D01*
X107377367Y-78026746D01*
X107248872Y-77856593D01*
X107194025Y-77806593D01*
X107091302Y-77712948D01*
X106910019Y-77600702D01*
X106910017Y-77600701D01*
X106787099Y-77553083D01*
X106711198Y-77523679D01*
X106514385Y-77486888D01*
X106452106Y-77455221D01*
X106416833Y-77394908D01*
X106419767Y-77325100D01*
X106459976Y-77267960D01*
X106514384Y-77243111D01*
X106711198Y-77206321D01*
X106910019Y-77129298D01*
X107091302Y-77017052D01*
X107248872Y-76873407D01*
X107377366Y-76703255D01*
X107472405Y-76512389D01*
X107530756Y-76307310D01*
X107550429Y-76095000D01*
X107530756Y-75882690D01*
X107472405Y-75677611D01*
X107472403Y-75677606D01*
X107472403Y-75677605D01*
X107377367Y-75486746D01*
X107248872Y-75316593D01*
X107194025Y-75266593D01*
X107091302Y-75172948D01*
X106910019Y-75060702D01*
X106910017Y-75060701D01*
X106780950Y-75010701D01*
X106711198Y-74983679D01*
X106501610Y-74944500D01*
X106288390Y-74944500D01*
X106078802Y-74983679D01*
X106078799Y-74983679D01*
X106078799Y-74983680D01*
X105879982Y-75060701D01*
X105879980Y-75060702D01*
X105698699Y-75172947D01*
X105541127Y-75316593D01*
X105412632Y-75486746D01*
X105317596Y-75677605D01*
X105317596Y-75677607D01*
X105259244Y-75882689D01*
X105255956Y-75918179D01*
X105239571Y-76095000D01*
X105259244Y-76307310D01*
X105304970Y-76468019D01*
X105317596Y-76512392D01*
X105317596Y-76512394D01*
X105412632Y-76703253D01*
X105515341Y-76839260D01*
X105541128Y-76873407D01*
X105698698Y-77017052D01*
X105879981Y-77129298D01*
X106078802Y-77206321D01*
X106275613Y-77243111D01*
X106337893Y-77274779D01*
X106373166Y-77335092D01*
X106370232Y-77404900D01*
X106330023Y-77462040D01*
X106275613Y-77486888D01*
X106078802Y-77523679D01*
X106078799Y-77523679D01*
X106078799Y-77523680D01*
X105879982Y-77600701D01*
X105879980Y-77600702D01*
X105698699Y-77712947D01*
X105541127Y-77856593D01*
X105412632Y-78026746D01*
X105317596Y-78217605D01*
X105317596Y-78217607D01*
X105259244Y-78422689D01*
X105239571Y-78634999D01*
X105239571Y-78635000D01*
X60200500Y-78635000D01*
X60200500Y-77350000D01*
X88569785Y-77350000D01*
X88588602Y-77553082D01*
X88644417Y-77749247D01*
X88644422Y-77749260D01*
X88735327Y-77931821D01*
X88858237Y-78094581D01*
X89008958Y-78231980D01*
X89008960Y-78231982D01*
X89108141Y-78293392D01*
X89182363Y-78339348D01*
X89372544Y-78413024D01*
X89573024Y-78450500D01*
X89573026Y-78450500D01*
X89776974Y-78450500D01*
X89776976Y-78450500D01*
X89977456Y-78413024D01*
X90167637Y-78339348D01*
X90341041Y-78231981D01*
X90491764Y-78094579D01*
X90614673Y-77931821D01*
X90705582Y-77749250D01*
X90761397Y-77553083D01*
X90780215Y-77350000D01*
X90770310Y-77243111D01*
X90761397Y-77146917D01*
X90742875Y-77081821D01*
X90705582Y-76950750D01*
X90700170Y-76939882D01*
X90642173Y-76823407D01*
X90614673Y-76768179D01*
X90491764Y-76605421D01*
X90491762Y-76605418D01*
X90341041Y-76468019D01*
X90341039Y-76468017D01*
X90167642Y-76360655D01*
X90167635Y-76360651D01*
X90029944Y-76307310D01*
X89977456Y-76286976D01*
X89776976Y-76249500D01*
X89573024Y-76249500D01*
X89372544Y-76286976D01*
X89372541Y-76286976D01*
X89372541Y-76286977D01*
X89182364Y-76360651D01*
X89182357Y-76360655D01*
X89008960Y-76468017D01*
X89008958Y-76468019D01*
X88858237Y-76605418D01*
X88735327Y-76768178D01*
X88644422Y-76950739D01*
X88644417Y-76950752D01*
X88588602Y-77146917D01*
X88569785Y-77349999D01*
X88569785Y-77350000D01*
X60200500Y-77350000D01*
X60200500Y-74850000D01*
X88569785Y-74850000D01*
X88588602Y-75053082D01*
X88644417Y-75249247D01*
X88644422Y-75249260D01*
X88735327Y-75431821D01*
X88858237Y-75594581D01*
X89008958Y-75731980D01*
X89008960Y-75731982D01*
X89046811Y-75755418D01*
X89182363Y-75839348D01*
X89372544Y-75913024D01*
X89573024Y-75950500D01*
X89573026Y-75950500D01*
X89776974Y-75950500D01*
X89776976Y-75950500D01*
X89977456Y-75913024D01*
X90167637Y-75839348D01*
X90341041Y-75731981D01*
X90491764Y-75594579D01*
X90614673Y-75431821D01*
X90705582Y-75249250D01*
X90761397Y-75053083D01*
X90780215Y-74850000D01*
X90761397Y-74646917D01*
X90705582Y-74450750D01*
X90691776Y-74423024D01*
X90650060Y-74339247D01*
X90614673Y-74268179D01*
X90491764Y-74105421D01*
X90491762Y-74105418D01*
X90341041Y-73968019D01*
X90341039Y-73968017D01*
X90295790Y-73940000D01*
X140694785Y-73940000D01*
X140713602Y-74143082D01*
X140769417Y-74339247D01*
X140769422Y-74339260D01*
X140860327Y-74521821D01*
X140983237Y-74684581D01*
X141133958Y-74821980D01*
X141133960Y-74821982D01*
X141179211Y-74850000D01*
X141307363Y-74929348D01*
X141497544Y-75003024D01*
X141698024Y-75040500D01*
X141698026Y-75040500D01*
X141901974Y-75040500D01*
X141901976Y-75040500D01*
X142102456Y-75003024D01*
X142292637Y-74929348D01*
X142466041Y-74821981D01*
X142616764Y-74684579D01*
X142739673Y-74521821D01*
X142830582Y-74339250D01*
X142886397Y-74143083D01*
X142905215Y-73940000D01*
X142897862Y-73860652D01*
X142886397Y-73736917D01*
X142847654Y-73600752D01*
X142830582Y-73540750D01*
X142740580Y-73360000D01*
X166194785Y-73360000D01*
X166213602Y-73563082D01*
X166269417Y-73759247D01*
X166269422Y-73759260D01*
X166360327Y-73941821D01*
X166483237Y-74104581D01*
X166633958Y-74241980D01*
X166633960Y-74241982D01*
X166676270Y-74268179D01*
X166807363Y-74349348D01*
X166997544Y-74423024D01*
X167198024Y-74460500D01*
X167198026Y-74460500D01*
X167401974Y-74460500D01*
X167401976Y-74460500D01*
X167602456Y-74423024D01*
X167792637Y-74349348D01*
X167966041Y-74241981D01*
X168094122Y-74125219D01*
X168116762Y-74104581D01*
X168116764Y-74104579D01*
X168195738Y-74000000D01*
X215094785Y-74000000D01*
X215113602Y-74203082D01*
X215169417Y-74399247D01*
X215169422Y-74399260D01*
X215260327Y-74581821D01*
X215383237Y-74744581D01*
X215533958Y-74881980D01*
X215533960Y-74881982D01*
X215610453Y-74929344D01*
X215707363Y-74989348D01*
X215897544Y-75063024D01*
X216098024Y-75100500D01*
X216098026Y-75100500D01*
X216301974Y-75100500D01*
X216301976Y-75100500D01*
X216502456Y-75063024D01*
X216692637Y-74989348D01*
X216866041Y-74881981D01*
X217016764Y-74744579D01*
X217139673Y-74581821D01*
X217230582Y-74399250D01*
X217286397Y-74203083D01*
X217305215Y-74000000D01*
X217286397Y-73796917D01*
X217230582Y-73600750D01*
X217139673Y-73418179D01*
X217016764Y-73255421D01*
X217016762Y-73255418D01*
X216866041Y-73118019D01*
X216866039Y-73118017D01*
X216692642Y-73010655D01*
X216692635Y-73010651D01*
X216563796Y-72960739D01*
X216502456Y-72936976D01*
X216301976Y-72899500D01*
X216098024Y-72899500D01*
X215897544Y-72936976D01*
X215897541Y-72936976D01*
X215897541Y-72936977D01*
X215707364Y-73010651D01*
X215707357Y-73010655D01*
X215533960Y-73118017D01*
X215533958Y-73118019D01*
X215383237Y-73255418D01*
X215260327Y-73418178D01*
X215169422Y-73600739D01*
X215169417Y-73600752D01*
X215113602Y-73796917D01*
X215094785Y-73999999D01*
X215094785Y-74000000D01*
X168195738Y-74000000D01*
X168239673Y-73941821D01*
X168330582Y-73759250D01*
X168386397Y-73563083D01*
X168405215Y-73360000D01*
X168386397Y-73156917D01*
X168330582Y-72960750D01*
X168325555Y-72950655D01*
X168245493Y-72789868D01*
X168239673Y-72778179D01*
X168210733Y-72739856D01*
X182084500Y-72739856D01*
X182084502Y-72739882D01*
X182087413Y-72764987D01*
X182087415Y-72764991D01*
X182132793Y-72867764D01*
X182132794Y-72867765D01*
X182212235Y-72947206D01*
X182315009Y-72992585D01*
X182340135Y-72995500D01*
X184129864Y-72995499D01*
X184129879Y-72995497D01*
X184129882Y-72995497D01*
X184154987Y-72992586D01*
X184154988Y-72992585D01*
X184154991Y-72992585D01*
X184257765Y-72947206D01*
X184337206Y-72867765D01*
X184382585Y-72764991D01*
X184385500Y-72739865D01*
X184385499Y-72055005D01*
X184405183Y-71987969D01*
X184457987Y-71942214D01*
X184527146Y-71932270D01*
X184590702Y-71961295D01*
X184628476Y-72020073D01*
X184632970Y-72043564D01*
X184634244Y-72057311D01*
X184692596Y-72262392D01*
X184692596Y-72262394D01*
X184787632Y-72453253D01*
X184910095Y-72615418D01*
X184916128Y-72623407D01*
X185073698Y-72767052D01*
X185254981Y-72879298D01*
X185453802Y-72956321D01*
X185663390Y-72995500D01*
X185663392Y-72995500D01*
X185876608Y-72995500D01*
X185876610Y-72995500D01*
X186086198Y-72956321D01*
X186285019Y-72879298D01*
X186466302Y-72767052D01*
X186623872Y-72623407D01*
X186752366Y-72453255D01*
X186785723Y-72386265D01*
X186847403Y-72262394D01*
X186847403Y-72262393D01*
X186847405Y-72262389D01*
X186905756Y-72057310D01*
X186925429Y-71845000D01*
X186925416Y-71844865D01*
X186920083Y-71787304D01*
X186905756Y-71632690D01*
X186847405Y-71427611D01*
X186847403Y-71427606D01*
X186847403Y-71427605D01*
X186752367Y-71236746D01*
X186623872Y-71066593D01*
X186589054Y-71034852D01*
X186466302Y-70922948D01*
X186285019Y-70810702D01*
X186285017Y-70810701D01*
X186155992Y-70760717D01*
X186086198Y-70733679D01*
X185876610Y-70694500D01*
X185663390Y-70694500D01*
X185453802Y-70733679D01*
X185453799Y-70733679D01*
X185453799Y-70733680D01*
X185254982Y-70810701D01*
X185254980Y-70810702D01*
X185073699Y-70922947D01*
X184916127Y-71066593D01*
X184787632Y-71236746D01*
X184692596Y-71427605D01*
X184692596Y-71427607D01*
X184634244Y-71632688D01*
X184632970Y-71646437D01*
X184607182Y-71711374D01*
X184550381Y-71752060D01*
X184480600Y-71755578D01*
X184419994Y-71720812D01*
X184387806Y-71658798D01*
X184385499Y-71634993D01*
X184385499Y-70950143D01*
X184385499Y-70950136D01*
X184385497Y-70950117D01*
X184382586Y-70925012D01*
X184382585Y-70925010D01*
X184382585Y-70925009D01*
X184337206Y-70822235D01*
X184257765Y-70742794D01*
X184237124Y-70733680D01*
X184154992Y-70697415D01*
X184129865Y-70694500D01*
X182340143Y-70694500D01*
X182340117Y-70694502D01*
X182315012Y-70697413D01*
X182315008Y-70697415D01*
X182212235Y-70742793D01*
X182132794Y-70822234D01*
X182087415Y-70925006D01*
X182087415Y-70925008D01*
X182084500Y-70950131D01*
X182084500Y-72739856D01*
X168210733Y-72739856D01*
X168116764Y-72615421D01*
X168116762Y-72615418D01*
X167966041Y-72478019D01*
X167966039Y-72478017D01*
X167792642Y-72370655D01*
X167792635Y-72370651D01*
X167697546Y-72333814D01*
X167602456Y-72296976D01*
X167401976Y-72259500D01*
X167198024Y-72259500D01*
X166997544Y-72296976D01*
X166997541Y-72296976D01*
X166997541Y-72296977D01*
X166807364Y-72370651D01*
X166807357Y-72370655D01*
X166633960Y-72478017D01*
X166633958Y-72478019D01*
X166483237Y-72615418D01*
X166360327Y-72778178D01*
X166269422Y-72960739D01*
X166269417Y-72960752D01*
X166213602Y-73156917D01*
X166194785Y-73359999D01*
X166194785Y-73360000D01*
X142740580Y-73360000D01*
X142739673Y-73358179D01*
X142616764Y-73195421D01*
X142616762Y-73195418D01*
X142466041Y-73058019D01*
X142466039Y-73058017D01*
X142292642Y-72950655D01*
X142292635Y-72950651D01*
X142197546Y-72913814D01*
X142102456Y-72876976D01*
X141901976Y-72839500D01*
X141698024Y-72839500D01*
X141497544Y-72876976D01*
X141497541Y-72876976D01*
X141497541Y-72876977D01*
X141307364Y-72950651D01*
X141307357Y-72950655D01*
X141133960Y-73058017D01*
X141133958Y-73058019D01*
X140983237Y-73195418D01*
X140860327Y-73358178D01*
X140769422Y-73540739D01*
X140769417Y-73540752D01*
X140713602Y-73736917D01*
X140694785Y-73939999D01*
X140694785Y-73940000D01*
X90295790Y-73940000D01*
X90167642Y-73860655D01*
X90167635Y-73860651D01*
X90072546Y-73823814D01*
X89977456Y-73786976D01*
X89776976Y-73749500D01*
X89573024Y-73749500D01*
X89372544Y-73786976D01*
X89372541Y-73786976D01*
X89372541Y-73786977D01*
X89182364Y-73860651D01*
X89182357Y-73860655D01*
X89008960Y-73968017D01*
X89008958Y-73968019D01*
X88858237Y-74105418D01*
X88735327Y-74268178D01*
X88644422Y-74450739D01*
X88644417Y-74450752D01*
X88588602Y-74646917D01*
X88569785Y-74849999D01*
X88569785Y-74850000D01*
X60200500Y-74850000D01*
X60200500Y-71000002D01*
X63395034Y-71000002D01*
X63414858Y-71226599D01*
X63414860Y-71226610D01*
X63473730Y-71446317D01*
X63473734Y-71446326D01*
X63569865Y-71652481D01*
X63569866Y-71652483D01*
X63620973Y-71725471D01*
X63620974Y-71725472D01*
X64302046Y-71044399D01*
X64314835Y-71125148D01*
X64372359Y-71238045D01*
X64461955Y-71327641D01*
X64574852Y-71385165D01*
X64655599Y-71397953D01*
X63974526Y-72079025D01*
X63974526Y-72079026D01*
X64047512Y-72130131D01*
X64047516Y-72130133D01*
X64253673Y-72226265D01*
X64253682Y-72226269D01*
X64473389Y-72285139D01*
X64473400Y-72285141D01*
X64699998Y-72304966D01*
X64700002Y-72304966D01*
X64926599Y-72285141D01*
X64926610Y-72285139D01*
X65146317Y-72226269D01*
X65146331Y-72226264D01*
X65352478Y-72130136D01*
X65425472Y-72079025D01*
X64744401Y-71397953D01*
X64825148Y-71385165D01*
X64938045Y-71327641D01*
X65027641Y-71238045D01*
X65085165Y-71125148D01*
X65097953Y-71044400D01*
X65779025Y-71725472D01*
X65830134Y-71652481D01*
X65863117Y-71581748D01*
X65909289Y-71529308D01*
X65976482Y-71510155D01*
X66043363Y-71530370D01*
X66088699Y-71583534D01*
X66099500Y-71634150D01*
X66099500Y-71844856D01*
X66099502Y-71844882D01*
X66102413Y-71869987D01*
X66102415Y-71869991D01*
X66147793Y-71972764D01*
X66147794Y-71972765D01*
X66227235Y-72052206D01*
X66330009Y-72097585D01*
X66355135Y-72100500D01*
X68044864Y-72100499D01*
X68044879Y-72100497D01*
X68044882Y-72100497D01*
X68069987Y-72097586D01*
X68069988Y-72097585D01*
X68069991Y-72097585D01*
X68172765Y-72052206D01*
X68252206Y-71972765D01*
X68297585Y-71869991D01*
X68300500Y-71844865D01*
X68300499Y-70909999D01*
X71521127Y-70909999D01*
X71521128Y-70910000D01*
X72484314Y-70910000D01*
X72472359Y-70921955D01*
X72414835Y-71034852D01*
X72395014Y-71160000D01*
X72414835Y-71285148D01*
X72472359Y-71398045D01*
X72484314Y-71410000D01*
X71521128Y-71410000D01*
X71573730Y-71606317D01*
X71573734Y-71606326D01*
X71669865Y-71812482D01*
X71800342Y-71998820D01*
X71961179Y-72159657D01*
X72147517Y-72290134D01*
X72353673Y-72386265D01*
X72353682Y-72386269D01*
X72549999Y-72438872D01*
X72550000Y-72438871D01*
X72550000Y-71475686D01*
X72561955Y-71487641D01*
X72674852Y-71545165D01*
X72768519Y-71560000D01*
X72831481Y-71560000D01*
X72925148Y-71545165D01*
X73038045Y-71487641D01*
X73050000Y-71475686D01*
X73050000Y-72438872D01*
X73246317Y-72386269D01*
X73246326Y-72386265D01*
X73452482Y-72290134D01*
X73638820Y-72159657D01*
X73799657Y-71998820D01*
X73930134Y-71812482D01*
X74026265Y-71606326D01*
X74026269Y-71606317D01*
X74078872Y-71410000D01*
X73115686Y-71410000D01*
X73127641Y-71398045D01*
X73177598Y-71300000D01*
X91444722Y-71300000D01*
X91463762Y-71456818D01*
X91511820Y-71583534D01*
X91519780Y-71604523D01*
X91609517Y-71734530D01*
X91727760Y-71839283D01*
X91867635Y-71912696D01*
X91922369Y-71926186D01*
X91980377Y-71958902D01*
X92536063Y-72514588D01*
X92564324Y-72558298D01*
X92619780Y-72704523D01*
X92709517Y-72834530D01*
X92827760Y-72939283D01*
X92827762Y-72939284D01*
X92967634Y-73012696D01*
X93121014Y-73050500D01*
X93121015Y-73050500D01*
X93278985Y-73050500D01*
X93432365Y-73012696D01*
X93465129Y-72995500D01*
X93572240Y-72939283D01*
X93690483Y-72834530D01*
X93721319Y-72789856D01*
X113279500Y-72789856D01*
X113279502Y-72789882D01*
X113282413Y-72814987D01*
X113282415Y-72814991D01*
X113327793Y-72917764D01*
X113327794Y-72917765D01*
X113407235Y-72997206D01*
X113510009Y-73042585D01*
X113535135Y-73045500D01*
X115324864Y-73045499D01*
X115324879Y-73045497D01*
X115324882Y-73045497D01*
X115349987Y-73042586D01*
X115349988Y-73042585D01*
X115349991Y-73042585D01*
X115452765Y-72997206D01*
X115532206Y-72917765D01*
X115577585Y-72814991D01*
X115580500Y-72789865D01*
X115580499Y-72105005D01*
X115600183Y-72037969D01*
X115652987Y-71992214D01*
X115722146Y-71982270D01*
X115785702Y-72011295D01*
X115823476Y-72070073D01*
X115827970Y-72093564D01*
X115829244Y-72107311D01*
X115887596Y-72312392D01*
X115887596Y-72312394D01*
X115982632Y-72503253D01*
X116073369Y-72623407D01*
X116111128Y-72673407D01*
X116268698Y-72817052D01*
X116449981Y-72929298D01*
X116648802Y-73006321D01*
X116858390Y-73045500D01*
X116858392Y-73045500D01*
X117071608Y-73045500D01*
X117071610Y-73045500D01*
X117281198Y-73006321D01*
X117480019Y-72929298D01*
X117661302Y-72817052D01*
X117818872Y-72673407D01*
X117947366Y-72503255D01*
X117979425Y-72438871D01*
X118042403Y-72312394D01*
X118042403Y-72312393D01*
X118042405Y-72312389D01*
X118100756Y-72107310D01*
X118120429Y-71895000D01*
X118100756Y-71682690D01*
X118042405Y-71477611D01*
X118042403Y-71477606D01*
X118042403Y-71477605D01*
X117947367Y-71286746D01*
X117818872Y-71116593D01*
X117787113Y-71087641D01*
X117661302Y-70972948D01*
X117480019Y-70860702D01*
X117480017Y-70860701D01*
X117350950Y-70810701D01*
X117281198Y-70783679D01*
X117071610Y-70744500D01*
X116858390Y-70744500D01*
X116648802Y-70783679D01*
X116648799Y-70783679D01*
X116648799Y-70783680D01*
X116449982Y-70860701D01*
X116449980Y-70860702D01*
X116268699Y-70972947D01*
X116111127Y-71116593D01*
X115982632Y-71286746D01*
X115887596Y-71477605D01*
X115887596Y-71477607D01*
X115829244Y-71682688D01*
X115827970Y-71696437D01*
X115802182Y-71761374D01*
X115745381Y-71802060D01*
X115675600Y-71805578D01*
X115614994Y-71770812D01*
X115582806Y-71708798D01*
X115580499Y-71684993D01*
X115580499Y-71000143D01*
X115580499Y-71000136D01*
X115580497Y-71000117D01*
X115577586Y-70975012D01*
X115577585Y-70975010D01*
X115577585Y-70975009D01*
X115532206Y-70872235D01*
X115452765Y-70792794D01*
X115432124Y-70783680D01*
X115349992Y-70747415D01*
X115324865Y-70744500D01*
X113535143Y-70744500D01*
X113535117Y-70744502D01*
X113510012Y-70747413D01*
X113510008Y-70747415D01*
X113407235Y-70792793D01*
X113327794Y-70872234D01*
X113282415Y-70975006D01*
X113282415Y-70975008D01*
X113279500Y-71000131D01*
X113279500Y-72789856D01*
X93721319Y-72789856D01*
X93780220Y-72704523D01*
X93836237Y-72556818D01*
X93855278Y-72400000D01*
X93851715Y-72370651D01*
X93836237Y-72243181D01*
X93793363Y-72130133D01*
X93780220Y-72095477D01*
X93690483Y-71965470D01*
X93572240Y-71860717D01*
X93572238Y-71860716D01*
X93572237Y-71860715D01*
X93432367Y-71787304D01*
X93377626Y-71773812D01*
X93319621Y-71741096D01*
X92763937Y-71185412D01*
X92735676Y-71141702D01*
X92707191Y-71066593D01*
X92680220Y-70995477D01*
X92590483Y-70865470D01*
X92472240Y-70760717D01*
X92472238Y-70760716D01*
X92472237Y-70760715D01*
X92332365Y-70687303D01*
X92178986Y-70649500D01*
X92178985Y-70649500D01*
X92021015Y-70649500D01*
X92021014Y-70649500D01*
X91867634Y-70687303D01*
X91727762Y-70760715D01*
X91609516Y-70865471D01*
X91519781Y-70995475D01*
X91519780Y-70995476D01*
X91463762Y-71143181D01*
X91444722Y-71299999D01*
X91444722Y-71300000D01*
X73177598Y-71300000D01*
X73185165Y-71285148D01*
X73204986Y-71160000D01*
X73185165Y-71034852D01*
X73127641Y-70921955D01*
X73115686Y-70910000D01*
X74078872Y-70910000D01*
X74078872Y-70909999D01*
X74026269Y-70713681D01*
X74026265Y-70713673D01*
X73931291Y-70509999D01*
X226321127Y-70509999D01*
X226321128Y-70510000D01*
X227284314Y-70510000D01*
X227272359Y-70521955D01*
X227214835Y-70634852D01*
X227195014Y-70760000D01*
X227214835Y-70885148D01*
X227272359Y-70998045D01*
X227284314Y-71010000D01*
X226321128Y-71010000D01*
X226373730Y-71206317D01*
X226373734Y-71206326D01*
X226469865Y-71412482D01*
X226600342Y-71598820D01*
X226761179Y-71759657D01*
X226947517Y-71890134D01*
X227153673Y-71986265D01*
X227153682Y-71986269D01*
X227349999Y-72038872D01*
X227350000Y-72038871D01*
X227350000Y-71075686D01*
X227361955Y-71087641D01*
X227474852Y-71145165D01*
X227568519Y-71160000D01*
X227631481Y-71160000D01*
X227725148Y-71145165D01*
X227838045Y-71087641D01*
X227850000Y-71075686D01*
X227850000Y-72038872D01*
X228046317Y-71986269D01*
X228046326Y-71986265D01*
X228252482Y-71890134D01*
X228438820Y-71759657D01*
X228599657Y-71598820D01*
X228730134Y-71412482D01*
X228826265Y-71206326D01*
X228826269Y-71206317D01*
X228878872Y-71010000D01*
X227915686Y-71010000D01*
X227927641Y-70998045D01*
X227985165Y-70885148D01*
X228004986Y-70760000D01*
X227985165Y-70634852D01*
X227927641Y-70521955D01*
X227915686Y-70510000D01*
X228878872Y-70510000D01*
X228878872Y-70509999D01*
X228876193Y-70500000D01*
X231677165Y-70500000D01*
X231695982Y-70703082D01*
X231751797Y-70899247D01*
X231751802Y-70899260D01*
X231842707Y-71081821D01*
X231965617Y-71244581D01*
X232116338Y-71381980D01*
X232116340Y-71381982D01*
X232157347Y-71407372D01*
X232289743Y-71489348D01*
X232479924Y-71563024D01*
X232680404Y-71600500D01*
X232680406Y-71600500D01*
X232884354Y-71600500D01*
X232884356Y-71600500D01*
X233084836Y-71563024D01*
X233275017Y-71489348D01*
X233448421Y-71381981D01*
X233599144Y-71244579D01*
X233722053Y-71081821D01*
X233747380Y-71030958D01*
X233794882Y-70979721D01*
X233862545Y-70962299D01*
X233928886Y-70984224D01*
X233972841Y-71038535D01*
X233982380Y-71086229D01*
X233982380Y-71347844D01*
X233988781Y-71407372D01*
X233988783Y-71407379D01*
X234039025Y-71542086D01*
X234039029Y-71542093D01*
X234125189Y-71657187D01*
X234125192Y-71657190D01*
X234240286Y-71743350D01*
X234240293Y-71743354D01*
X234375000Y-71793596D01*
X234375007Y-71793598D01*
X234434535Y-71799999D01*
X234434552Y-71800000D01*
X235032380Y-71800000D01*
X235032380Y-70815686D01*
X235044335Y-70827641D01*
X235157232Y-70885165D01*
X235250899Y-70900000D01*
X235313861Y-70900000D01*
X235407528Y-70885165D01*
X235520425Y-70827641D01*
X235532380Y-70815686D01*
X235532380Y-71800000D01*
X236130208Y-71800000D01*
X236130224Y-71799999D01*
X236189752Y-71793598D01*
X236189759Y-71793596D01*
X236324466Y-71743354D01*
X236324473Y-71743350D01*
X236439567Y-71657190D01*
X236439570Y-71657187D01*
X236525730Y-71542093D01*
X236525734Y-71542086D01*
X236575976Y-71407379D01*
X236575978Y-71407372D01*
X236582379Y-71347844D01*
X236582380Y-71347827D01*
X236582380Y-70750000D01*
X235598066Y-70750000D01*
X235610021Y-70738045D01*
X235667545Y-70625148D01*
X235687366Y-70500000D01*
X235667545Y-70374852D01*
X235610021Y-70261955D01*
X235598066Y-70250000D01*
X236582380Y-70250000D01*
X236582380Y-69652172D01*
X236582379Y-69652155D01*
X236575978Y-69592627D01*
X236575976Y-69592620D01*
X236525734Y-69457913D01*
X236525730Y-69457906D01*
X236439570Y-69342812D01*
X236439567Y-69342809D01*
X236324473Y-69256649D01*
X236324466Y-69256645D01*
X236189759Y-69206403D01*
X236189752Y-69206401D01*
X236130224Y-69200000D01*
X235532380Y-69200000D01*
X235532380Y-70184314D01*
X235520425Y-70172359D01*
X235407528Y-70114835D01*
X235313861Y-70100000D01*
X235250899Y-70100000D01*
X235157232Y-70114835D01*
X235044335Y-70172359D01*
X235032380Y-70184314D01*
X235032380Y-69200000D01*
X234434535Y-69200000D01*
X234375007Y-69206401D01*
X234375000Y-69206403D01*
X234240293Y-69256645D01*
X234240286Y-69256649D01*
X234125192Y-69342809D01*
X234125189Y-69342812D01*
X234039029Y-69457906D01*
X234039025Y-69457913D01*
X233988783Y-69592620D01*
X233988781Y-69592627D01*
X233982380Y-69652155D01*
X233982380Y-69913770D01*
X233962695Y-69980809D01*
X233909891Y-70026564D01*
X233840733Y-70036508D01*
X233777177Y-70007483D01*
X233747380Y-69969042D01*
X233729798Y-69933734D01*
X233722053Y-69918179D01*
X233663084Y-69840091D01*
X233599142Y-69755418D01*
X233448421Y-69618019D01*
X233448419Y-69618017D01*
X233275022Y-69510655D01*
X233275015Y-69510651D01*
X233138863Y-69457906D01*
X233084836Y-69436976D01*
X232884356Y-69399500D01*
X232680404Y-69399500D01*
X232479924Y-69436976D01*
X232479921Y-69436976D01*
X232479921Y-69436977D01*
X232289744Y-69510651D01*
X232289737Y-69510655D01*
X232116340Y-69618017D01*
X232116338Y-69618019D01*
X231965617Y-69755418D01*
X231842707Y-69918178D01*
X231751802Y-70100739D01*
X231751797Y-70100752D01*
X231695982Y-70296917D01*
X231677165Y-70499999D01*
X231677165Y-70500000D01*
X228876193Y-70500000D01*
X228826269Y-70313682D01*
X228826265Y-70313673D01*
X228730134Y-70107517D01*
X228599657Y-69921179D01*
X228438820Y-69760342D01*
X228252482Y-69629865D01*
X228046328Y-69533734D01*
X227850000Y-69481127D01*
X227850000Y-70444314D01*
X227838045Y-70432359D01*
X227725148Y-70374835D01*
X227631481Y-70360000D01*
X227568519Y-70360000D01*
X227474852Y-70374835D01*
X227361955Y-70432359D01*
X227350000Y-70444314D01*
X227350000Y-69481127D01*
X227153671Y-69533734D01*
X226947517Y-69629865D01*
X226761179Y-69760342D01*
X226600342Y-69921179D01*
X226469865Y-70107517D01*
X226373734Y-70313673D01*
X226373730Y-70313682D01*
X226321127Y-70509999D01*
X73931291Y-70509999D01*
X73930134Y-70507517D01*
X73799657Y-70321179D01*
X73638820Y-70160342D01*
X73452482Y-70029865D01*
X73246328Y-69933734D01*
X73050000Y-69881127D01*
X73050000Y-70844314D01*
X73038045Y-70832359D01*
X72925148Y-70774835D01*
X72831481Y-70760000D01*
X72768519Y-70760000D01*
X72674852Y-70774835D01*
X72561955Y-70832359D01*
X72550000Y-70844314D01*
X72550000Y-69881127D01*
X72353671Y-69933734D01*
X72147517Y-70029865D01*
X71961179Y-70160342D01*
X71800342Y-70321179D01*
X71669865Y-70507517D01*
X71573734Y-70713673D01*
X71573731Y-70713681D01*
X71521127Y-70909999D01*
X68300499Y-70909999D01*
X68300499Y-70155136D01*
X68299275Y-70144579D01*
X68297586Y-70130012D01*
X68297585Y-70130010D01*
X68297585Y-70130009D01*
X68252206Y-70027235D01*
X68172765Y-69947794D01*
X68112488Y-69921179D01*
X68069992Y-69902415D01*
X68044865Y-69899500D01*
X66355143Y-69899500D01*
X66355117Y-69899502D01*
X66330012Y-69902413D01*
X66330008Y-69902415D01*
X66227235Y-69947793D01*
X66147794Y-70027234D01*
X66102415Y-70130006D01*
X66102415Y-70130008D01*
X66099500Y-70155131D01*
X66099500Y-70365847D01*
X66079815Y-70432886D01*
X66027011Y-70478641D01*
X65957853Y-70488585D01*
X65894297Y-70459560D01*
X65863118Y-70418252D01*
X65830133Y-70347516D01*
X65830131Y-70347512D01*
X65779026Y-70274526D01*
X65779025Y-70274526D01*
X65097953Y-70955598D01*
X65085165Y-70874852D01*
X65027641Y-70761955D01*
X64938045Y-70672359D01*
X64825148Y-70614835D01*
X64744400Y-70602046D01*
X65425472Y-69920974D01*
X65425471Y-69920973D01*
X65352483Y-69869866D01*
X65352481Y-69869865D01*
X65146326Y-69773734D01*
X65146317Y-69773730D01*
X64926610Y-69714860D01*
X64926599Y-69714858D01*
X64700002Y-69695034D01*
X64699998Y-69695034D01*
X64473400Y-69714858D01*
X64473389Y-69714860D01*
X64253682Y-69773730D01*
X64253673Y-69773734D01*
X64047513Y-69869868D01*
X63974527Y-69920972D01*
X63974526Y-69920973D01*
X64655600Y-70602046D01*
X64574852Y-70614835D01*
X64461955Y-70672359D01*
X64372359Y-70761955D01*
X64314835Y-70874852D01*
X64302046Y-70955599D01*
X63620973Y-70274526D01*
X63620972Y-70274527D01*
X63569868Y-70347513D01*
X63473734Y-70553673D01*
X63473730Y-70553682D01*
X63414860Y-70773389D01*
X63414858Y-70773400D01*
X63395034Y-70999997D01*
X63395034Y-71000002D01*
X60200500Y-71000002D01*
X60200500Y-68380000D01*
X94869785Y-68380000D01*
X94888602Y-68583082D01*
X94944417Y-68779247D01*
X94944422Y-68779260D01*
X95035327Y-68961821D01*
X95158237Y-69124581D01*
X95308958Y-69261980D01*
X95308960Y-69261982D01*
X95408141Y-69323392D01*
X95482363Y-69369348D01*
X95672544Y-69443024D01*
X95873024Y-69480500D01*
X95873026Y-69480500D01*
X96076974Y-69480500D01*
X96076976Y-69480500D01*
X96277456Y-69443024D01*
X96375608Y-69405000D01*
X140819785Y-69405000D01*
X140838602Y-69608082D01*
X140894417Y-69804247D01*
X140894422Y-69804260D01*
X140985327Y-69986821D01*
X141108237Y-70149581D01*
X141258958Y-70286980D01*
X141258960Y-70286982D01*
X141314191Y-70321179D01*
X141432363Y-70394348D01*
X141622544Y-70468024D01*
X141823024Y-70505500D01*
X141823026Y-70505500D01*
X142026974Y-70505500D01*
X142026976Y-70505500D01*
X142227456Y-70468024D01*
X142417637Y-70394348D01*
X142591041Y-70286981D01*
X142741764Y-70149579D01*
X142864673Y-69986821D01*
X142955582Y-69804250D01*
X143011397Y-69608083D01*
X143030215Y-69405000D01*
X145819785Y-69405000D01*
X145838602Y-69608082D01*
X145894417Y-69804247D01*
X145894422Y-69804260D01*
X145985327Y-69986821D01*
X146108237Y-70149581D01*
X146258958Y-70286980D01*
X146258960Y-70286982D01*
X146314191Y-70321179D01*
X146432363Y-70394348D01*
X146622544Y-70468024D01*
X146823024Y-70505500D01*
X146823026Y-70505500D01*
X147026974Y-70505500D01*
X147026976Y-70505500D01*
X147227456Y-70468024D01*
X147417637Y-70394348D01*
X147591041Y-70286981D01*
X147741764Y-70149579D01*
X147864673Y-69986821D01*
X147955582Y-69804250D01*
X148011397Y-69608083D01*
X148030215Y-69405000D01*
X148029752Y-69400000D01*
X150994785Y-69400000D01*
X151013602Y-69603082D01*
X151069417Y-69799247D01*
X151069422Y-69799260D01*
X151160327Y-69981821D01*
X151283237Y-70144581D01*
X151433958Y-70281980D01*
X151433960Y-70281982D01*
X151485143Y-70313673D01*
X151607363Y-70389348D01*
X151797544Y-70463024D01*
X151998024Y-70500500D01*
X151998026Y-70500500D01*
X152201974Y-70500500D01*
X152201976Y-70500500D01*
X152402456Y-70463024D01*
X152592637Y-70389348D01*
X152766041Y-70281981D01*
X152916764Y-70144579D01*
X153039673Y-69981821D01*
X153130582Y-69799250D01*
X153186397Y-69603083D01*
X153205215Y-69400000D01*
X166234785Y-69400000D01*
X166253602Y-69603082D01*
X166309417Y-69799247D01*
X166309422Y-69799260D01*
X166400327Y-69981821D01*
X166523237Y-70144581D01*
X166673958Y-70281980D01*
X166673960Y-70281982D01*
X166725143Y-70313673D01*
X166847363Y-70389348D01*
X167037544Y-70463024D01*
X167238024Y-70500500D01*
X167238026Y-70500500D01*
X167441974Y-70500500D01*
X167441976Y-70500500D01*
X167642456Y-70463024D01*
X167832637Y-70389348D01*
X168006041Y-70281981D01*
X168156764Y-70144579D01*
X168279673Y-69981821D01*
X168370582Y-69799250D01*
X168426397Y-69603083D01*
X168445215Y-69400000D01*
X168431931Y-69256645D01*
X168426397Y-69196917D01*
X168372005Y-69005752D01*
X168370582Y-69000750D01*
X168279673Y-68818179D01*
X168213461Y-68730500D01*
X168156762Y-68655418D01*
X168006041Y-68518019D01*
X168006039Y-68518017D01*
X167832642Y-68410655D01*
X167832635Y-68410651D01*
X167655365Y-68341977D01*
X167642456Y-68336976D01*
X167441976Y-68299500D01*
X167238024Y-68299500D01*
X167037544Y-68336976D01*
X167037541Y-68336976D01*
X167037541Y-68336977D01*
X166847364Y-68410651D01*
X166847357Y-68410655D01*
X166673960Y-68518017D01*
X166673958Y-68518019D01*
X166523237Y-68655418D01*
X166400327Y-68818178D01*
X166309422Y-69000739D01*
X166309417Y-69000752D01*
X166253602Y-69196917D01*
X166234785Y-69399999D01*
X166234785Y-69400000D01*
X153205215Y-69400000D01*
X153191931Y-69256645D01*
X153186397Y-69196917D01*
X153132005Y-69005752D01*
X153130582Y-69000750D01*
X153039673Y-68818179D01*
X152973461Y-68730500D01*
X152916762Y-68655418D01*
X152766041Y-68518019D01*
X152766039Y-68518017D01*
X152592642Y-68410655D01*
X152592635Y-68410651D01*
X152415365Y-68341977D01*
X152402456Y-68336976D01*
X152201976Y-68299500D01*
X151998024Y-68299500D01*
X151797544Y-68336976D01*
X151797541Y-68336976D01*
X151797541Y-68336977D01*
X151607364Y-68410651D01*
X151607357Y-68410655D01*
X151433960Y-68518017D01*
X151433958Y-68518019D01*
X151283237Y-68655418D01*
X151160327Y-68818178D01*
X151069422Y-69000739D01*
X151069417Y-69000752D01*
X151013602Y-69196917D01*
X150994785Y-69399999D01*
X150994785Y-69400000D01*
X148029752Y-69400000D01*
X148026911Y-69369348D01*
X148011397Y-69201917D01*
X147989392Y-69124579D01*
X147955582Y-69005750D01*
X147953093Y-69000752D01*
X147911272Y-68916764D01*
X147864673Y-68823179D01*
X147741764Y-68660421D01*
X147741762Y-68660418D01*
X147591041Y-68523019D01*
X147591039Y-68523017D01*
X147417642Y-68415655D01*
X147417635Y-68415651D01*
X147311615Y-68374579D01*
X147227456Y-68341976D01*
X147026976Y-68304500D01*
X146823024Y-68304500D01*
X146622544Y-68341976D01*
X146622541Y-68341976D01*
X146622541Y-68341977D01*
X146432364Y-68415651D01*
X146432357Y-68415655D01*
X146258960Y-68523017D01*
X146258958Y-68523019D01*
X146108237Y-68660418D01*
X145985327Y-68823178D01*
X145894422Y-69005739D01*
X145894417Y-69005752D01*
X145838602Y-69201917D01*
X145819785Y-69404999D01*
X145819785Y-69405000D01*
X143030215Y-69405000D01*
X143026911Y-69369348D01*
X143011397Y-69201917D01*
X142989392Y-69124579D01*
X142955582Y-69005750D01*
X142953093Y-69000752D01*
X142911272Y-68916764D01*
X142864673Y-68823179D01*
X142741764Y-68660421D01*
X142741762Y-68660418D01*
X142591041Y-68523019D01*
X142591039Y-68523017D01*
X142417642Y-68415655D01*
X142417635Y-68415651D01*
X142311615Y-68374579D01*
X142227456Y-68341976D01*
X142026976Y-68304500D01*
X141823024Y-68304500D01*
X141622544Y-68341976D01*
X141622541Y-68341976D01*
X141622541Y-68341977D01*
X141432364Y-68415651D01*
X141432357Y-68415655D01*
X141258960Y-68523017D01*
X141258958Y-68523019D01*
X141108237Y-68660418D01*
X140985327Y-68823178D01*
X140894422Y-69005739D01*
X140894417Y-69005752D01*
X140838602Y-69201917D01*
X140819785Y-69404999D01*
X140819785Y-69405000D01*
X96375608Y-69405000D01*
X96467637Y-69369348D01*
X96641041Y-69261981D01*
X96791764Y-69124579D01*
X96914673Y-68961821D01*
X97005582Y-68779250D01*
X97061397Y-68583083D01*
X97080215Y-68380000D01*
X97061397Y-68176917D01*
X97005582Y-67980750D01*
X96914673Y-67798179D01*
X96832980Y-67690000D01*
X134169785Y-67690000D01*
X134188602Y-67893082D01*
X134244417Y-68089247D01*
X134244422Y-68089260D01*
X134335327Y-68271821D01*
X134458237Y-68434581D01*
X134608958Y-68571980D01*
X134608960Y-68571982D01*
X134626889Y-68583083D01*
X134782363Y-68679348D01*
X134972544Y-68753024D01*
X135173024Y-68790500D01*
X135173026Y-68790500D01*
X135376974Y-68790500D01*
X135376976Y-68790500D01*
X135577456Y-68753024D01*
X135767637Y-68679348D01*
X135941041Y-68571981D01*
X136091764Y-68434579D01*
X136214673Y-68271821D01*
X136305582Y-68089250D01*
X136361397Y-67893083D01*
X136380215Y-67690000D01*
X136374655Y-67630000D01*
X208894785Y-67630000D01*
X208913602Y-67833082D01*
X208969417Y-68029247D01*
X208969422Y-68029260D01*
X209060327Y-68211821D01*
X209183237Y-68374581D01*
X209333958Y-68511980D01*
X209333960Y-68511982D01*
X209351786Y-68523019D01*
X209507363Y-68619348D01*
X209697544Y-68693024D01*
X209898024Y-68730500D01*
X209898026Y-68730500D01*
X210101974Y-68730500D01*
X210101976Y-68730500D01*
X210302456Y-68693024D01*
X210492637Y-68619348D01*
X210666041Y-68511981D01*
X210794122Y-68395219D01*
X210816762Y-68374581D01*
X210816764Y-68374579D01*
X210939673Y-68211821D01*
X211030582Y-68029250D01*
X211086397Y-67833083D01*
X211105215Y-67630000D01*
X211086397Y-67426917D01*
X211030582Y-67230750D01*
X210939673Y-67048179D01*
X210816764Y-66885421D01*
X210816762Y-66885418D01*
X210666041Y-66748019D01*
X210666039Y-66748017D01*
X210492642Y-66640655D01*
X210492635Y-66640651D01*
X210397546Y-66603814D01*
X210302456Y-66566976D01*
X210101976Y-66529500D01*
X209898024Y-66529500D01*
X209697544Y-66566976D01*
X209697541Y-66566976D01*
X209697541Y-66566977D01*
X209507364Y-66640651D01*
X209507357Y-66640655D01*
X209333960Y-66748017D01*
X209333958Y-66748019D01*
X209183237Y-66885418D01*
X209060327Y-67048178D01*
X208969422Y-67230739D01*
X208969417Y-67230752D01*
X208913602Y-67426917D01*
X208894785Y-67629999D01*
X208894785Y-67630000D01*
X136374655Y-67630000D01*
X136361397Y-67486917D01*
X136305582Y-67290750D01*
X136299980Y-67279500D01*
X136261272Y-67201764D01*
X136214673Y-67108179D01*
X136091764Y-66945421D01*
X136091762Y-66945418D01*
X135941041Y-66808019D01*
X135941039Y-66808017D01*
X135767642Y-66700655D01*
X135767635Y-66700651D01*
X135672546Y-66663814D01*
X135577456Y-66626976D01*
X135376976Y-66589500D01*
X135173024Y-66589500D01*
X134972544Y-66626976D01*
X134972541Y-66626976D01*
X134972541Y-66626977D01*
X134782364Y-66700651D01*
X134782357Y-66700655D01*
X134608960Y-66808017D01*
X134608958Y-66808019D01*
X134458237Y-66945418D01*
X134335327Y-67108178D01*
X134244422Y-67290739D01*
X134244417Y-67290752D01*
X134188602Y-67486917D01*
X134169785Y-67689999D01*
X134169785Y-67690000D01*
X96832980Y-67690000D01*
X96791764Y-67635421D01*
X96791762Y-67635418D01*
X96641041Y-67498019D01*
X96641039Y-67498017D01*
X96467642Y-67390655D01*
X96467635Y-67390651D01*
X96372546Y-67353814D01*
X96277456Y-67316976D01*
X96076976Y-67279500D01*
X95873024Y-67279500D01*
X95672544Y-67316976D01*
X95672541Y-67316976D01*
X95672541Y-67316977D01*
X95482364Y-67390651D01*
X95482357Y-67390655D01*
X95308960Y-67498017D01*
X95308958Y-67498019D01*
X95158237Y-67635418D01*
X95035327Y-67798178D01*
X94944422Y-67980739D01*
X94944417Y-67980752D01*
X94888602Y-68176917D01*
X94869785Y-68379999D01*
X94869785Y-68380000D01*
X60200500Y-68380000D01*
X60200500Y-59000000D01*
X126594785Y-59000000D01*
X126613602Y-59203082D01*
X126669417Y-59399247D01*
X126669422Y-59399260D01*
X126760327Y-59581821D01*
X126883237Y-59744581D01*
X127033958Y-59881980D01*
X127033960Y-59881982D01*
X127133141Y-59943392D01*
X127207363Y-59989348D01*
X127397544Y-60063024D01*
X127598024Y-60100500D01*
X127598026Y-60100500D01*
X127801974Y-60100500D01*
X127801976Y-60100500D01*
X128002456Y-60063024D01*
X128192637Y-59989348D01*
X128366041Y-59881981D01*
X128516764Y-59744579D01*
X128639673Y-59581821D01*
X128730582Y-59399250D01*
X128786397Y-59203083D01*
X128805215Y-59000000D01*
X131594785Y-59000000D01*
X131613602Y-59203082D01*
X131669417Y-59399247D01*
X131669422Y-59399260D01*
X131760327Y-59581821D01*
X131883237Y-59744581D01*
X132033958Y-59881980D01*
X132033960Y-59881982D01*
X132133141Y-59943392D01*
X132207363Y-59989348D01*
X132397544Y-60063024D01*
X132598024Y-60100500D01*
X132598026Y-60100500D01*
X132801974Y-60100500D01*
X132801976Y-60100500D01*
X133002456Y-60063024D01*
X133192637Y-59989348D01*
X133366041Y-59881981D01*
X133516764Y-59744579D01*
X133639673Y-59581821D01*
X133730582Y-59399250D01*
X133786397Y-59203083D01*
X133805215Y-59000000D01*
X136134785Y-59000000D01*
X136153602Y-59203082D01*
X136209417Y-59399247D01*
X136209422Y-59399260D01*
X136300327Y-59581821D01*
X136423237Y-59744581D01*
X136573958Y-59881980D01*
X136573960Y-59881982D01*
X136673141Y-59943392D01*
X136747363Y-59989348D01*
X136937544Y-60063024D01*
X137138024Y-60100500D01*
X137138026Y-60100500D01*
X137341974Y-60100500D01*
X137341976Y-60100500D01*
X137542456Y-60063024D01*
X137732637Y-59989348D01*
X137906041Y-59881981D01*
X138056764Y-59744579D01*
X138179673Y-59581821D01*
X138270582Y-59399250D01*
X138326397Y-59203083D01*
X138345215Y-59000000D01*
X151374785Y-59000000D01*
X151393602Y-59203082D01*
X151449417Y-59399247D01*
X151449422Y-59399260D01*
X151540327Y-59581821D01*
X151663237Y-59744581D01*
X151813958Y-59881980D01*
X151813960Y-59881982D01*
X151913141Y-59943392D01*
X151987363Y-59989348D01*
X152177544Y-60063024D01*
X152378024Y-60100500D01*
X152378026Y-60100500D01*
X152581974Y-60100500D01*
X152581976Y-60100500D01*
X152782456Y-60063024D01*
X152972637Y-59989348D01*
X153146041Y-59881981D01*
X153296764Y-59744579D01*
X153419673Y-59581821D01*
X153510582Y-59399250D01*
X153566397Y-59203083D01*
X153585215Y-59000000D01*
X158794785Y-59000000D01*
X158813602Y-59203082D01*
X158869417Y-59399247D01*
X158869422Y-59399260D01*
X158960327Y-59581821D01*
X159083237Y-59744581D01*
X159233958Y-59881980D01*
X159233960Y-59881982D01*
X159333141Y-59943392D01*
X159407363Y-59989348D01*
X159597544Y-60063024D01*
X159798024Y-60100500D01*
X159798026Y-60100500D01*
X160001974Y-60100500D01*
X160001976Y-60100500D01*
X160202456Y-60063024D01*
X160392637Y-59989348D01*
X160566041Y-59881981D01*
X160716764Y-59744579D01*
X160839673Y-59581821D01*
X160930582Y-59399250D01*
X160986397Y-59203083D01*
X161005215Y-59000000D01*
X174034785Y-59000000D01*
X174053602Y-59203082D01*
X174109417Y-59399247D01*
X174109422Y-59399260D01*
X174200327Y-59581821D01*
X174323237Y-59744581D01*
X174473958Y-59881980D01*
X174473960Y-59881982D01*
X174573141Y-59943392D01*
X174647363Y-59989348D01*
X174837544Y-60063024D01*
X175038024Y-60100500D01*
X175038026Y-60100500D01*
X175241974Y-60100500D01*
X175241976Y-60100500D01*
X175442456Y-60063024D01*
X175632637Y-59989348D01*
X175806041Y-59881981D01*
X175956764Y-59744579D01*
X176079673Y-59581821D01*
X176170582Y-59399250D01*
X176226397Y-59203083D01*
X176245215Y-59000000D01*
X191344785Y-59000000D01*
X191363602Y-59203082D01*
X191419417Y-59399247D01*
X191419422Y-59399260D01*
X191510327Y-59581821D01*
X191633237Y-59744581D01*
X191783958Y-59881980D01*
X191783960Y-59881982D01*
X191883141Y-59943392D01*
X191957363Y-59989348D01*
X192147544Y-60063024D01*
X192348024Y-60100500D01*
X192348026Y-60100500D01*
X192551974Y-60100500D01*
X192551976Y-60100500D01*
X192752456Y-60063024D01*
X192942637Y-59989348D01*
X193116041Y-59881981D01*
X193266764Y-59744579D01*
X193389673Y-59581821D01*
X193480582Y-59399250D01*
X193536397Y-59203083D01*
X193555215Y-59000000D01*
X196344785Y-59000000D01*
X196363602Y-59203082D01*
X196419417Y-59399247D01*
X196419422Y-59399260D01*
X196510327Y-59581821D01*
X196633237Y-59744581D01*
X196783958Y-59881980D01*
X196783960Y-59881982D01*
X196883141Y-59943392D01*
X196957363Y-59989348D01*
X197147544Y-60063024D01*
X197348024Y-60100500D01*
X197348026Y-60100500D01*
X197551974Y-60100500D01*
X197551976Y-60100500D01*
X197752456Y-60063024D01*
X197942637Y-59989348D01*
X198116041Y-59881981D01*
X198266764Y-59744579D01*
X198389673Y-59581821D01*
X198480582Y-59399250D01*
X198536397Y-59203083D01*
X198555215Y-59000000D01*
X199544785Y-59000000D01*
X199563602Y-59203082D01*
X199619417Y-59399247D01*
X199619422Y-59399260D01*
X199710327Y-59581821D01*
X199833237Y-59744581D01*
X199983958Y-59881980D01*
X199983960Y-59881982D01*
X200083141Y-59943392D01*
X200157363Y-59989348D01*
X200347544Y-60063024D01*
X200548024Y-60100500D01*
X200548026Y-60100500D01*
X200751974Y-60100500D01*
X200751976Y-60100500D01*
X200952456Y-60063024D01*
X201142637Y-59989348D01*
X201316041Y-59881981D01*
X201466764Y-59744579D01*
X201589673Y-59581821D01*
X201680582Y-59399250D01*
X201736397Y-59203083D01*
X201755215Y-59000000D01*
X214784785Y-59000000D01*
X214803602Y-59203082D01*
X214859417Y-59399247D01*
X214859422Y-59399260D01*
X214950327Y-59581821D01*
X215073237Y-59744581D01*
X215223958Y-59881980D01*
X215223960Y-59881982D01*
X215323141Y-59943392D01*
X215397363Y-59989348D01*
X215587544Y-60063024D01*
X215788024Y-60100500D01*
X215788026Y-60100500D01*
X215991974Y-60100500D01*
X215991976Y-60100500D01*
X216192456Y-60063024D01*
X216382637Y-59989348D01*
X216556041Y-59881981D01*
X216706764Y-59744579D01*
X216829673Y-59581821D01*
X216920582Y-59399250D01*
X216976397Y-59203083D01*
X216995215Y-59000000D01*
X216976397Y-58796917D01*
X216920582Y-58600750D01*
X216829673Y-58418179D01*
X216706764Y-58255421D01*
X216706762Y-58255418D01*
X216556041Y-58118019D01*
X216556039Y-58118017D01*
X216382642Y-58010655D01*
X216382635Y-58010651D01*
X216287546Y-57973814D01*
X216192456Y-57936976D01*
X215991976Y-57899500D01*
X215788024Y-57899500D01*
X215587544Y-57936976D01*
X215587541Y-57936976D01*
X215587541Y-57936977D01*
X215397364Y-58010651D01*
X215397357Y-58010655D01*
X215223960Y-58118017D01*
X215223958Y-58118019D01*
X215073237Y-58255418D01*
X214950327Y-58418178D01*
X214859422Y-58600739D01*
X214859417Y-58600752D01*
X214803602Y-58796917D01*
X214784785Y-58999999D01*
X214784785Y-59000000D01*
X201755215Y-59000000D01*
X201736397Y-58796917D01*
X201680582Y-58600750D01*
X201589673Y-58418179D01*
X201466764Y-58255421D01*
X201466762Y-58255418D01*
X201316041Y-58118019D01*
X201316039Y-58118017D01*
X201142642Y-58010655D01*
X201142635Y-58010651D01*
X201047546Y-57973814D01*
X200952456Y-57936976D01*
X200751976Y-57899500D01*
X200548024Y-57899500D01*
X200347544Y-57936976D01*
X200347541Y-57936976D01*
X200347541Y-57936977D01*
X200157364Y-58010651D01*
X200157357Y-58010655D01*
X199983960Y-58118017D01*
X199983958Y-58118019D01*
X199833237Y-58255418D01*
X199710327Y-58418178D01*
X199619422Y-58600739D01*
X199619417Y-58600752D01*
X199563602Y-58796917D01*
X199544785Y-58999999D01*
X199544785Y-59000000D01*
X198555215Y-59000000D01*
X198536397Y-58796917D01*
X198480582Y-58600750D01*
X198389673Y-58418179D01*
X198266764Y-58255421D01*
X198266762Y-58255418D01*
X198116041Y-58118019D01*
X198116039Y-58118017D01*
X197942642Y-58010655D01*
X197942635Y-58010651D01*
X197847546Y-57973814D01*
X197752456Y-57936976D01*
X197551976Y-57899500D01*
X197348024Y-57899500D01*
X197147544Y-57936976D01*
X197147541Y-57936976D01*
X197147541Y-57936977D01*
X196957364Y-58010651D01*
X196957357Y-58010655D01*
X196783960Y-58118017D01*
X196783958Y-58118019D01*
X196633237Y-58255418D01*
X196510327Y-58418178D01*
X196419422Y-58600739D01*
X196419417Y-58600752D01*
X196363602Y-58796917D01*
X196344785Y-58999999D01*
X196344785Y-59000000D01*
X193555215Y-59000000D01*
X193536397Y-58796917D01*
X193480582Y-58600750D01*
X193389673Y-58418179D01*
X193266764Y-58255421D01*
X193266762Y-58255418D01*
X193116041Y-58118019D01*
X193116039Y-58118017D01*
X192942642Y-58010655D01*
X192942635Y-58010651D01*
X192847546Y-57973814D01*
X192752456Y-57936976D01*
X192551976Y-57899500D01*
X192348024Y-57899500D01*
X192147544Y-57936976D01*
X192147541Y-57936976D01*
X192147541Y-57936977D01*
X191957364Y-58010651D01*
X191957357Y-58010655D01*
X191783960Y-58118017D01*
X191783958Y-58118019D01*
X191633237Y-58255418D01*
X191510327Y-58418178D01*
X191419422Y-58600739D01*
X191419417Y-58600752D01*
X191363602Y-58796917D01*
X191344785Y-58999999D01*
X191344785Y-59000000D01*
X176245215Y-59000000D01*
X176226397Y-58796917D01*
X176170582Y-58600750D01*
X176079673Y-58418179D01*
X175956764Y-58255421D01*
X175956762Y-58255418D01*
X175806041Y-58118019D01*
X175806039Y-58118017D01*
X175632642Y-58010655D01*
X175632635Y-58010651D01*
X175537546Y-57973814D01*
X175442456Y-57936976D01*
X175241976Y-57899500D01*
X175038024Y-57899500D01*
X174837544Y-57936976D01*
X174837541Y-57936976D01*
X174837541Y-57936977D01*
X174647364Y-58010651D01*
X174647357Y-58010655D01*
X174473960Y-58118017D01*
X174473958Y-58118019D01*
X174323237Y-58255418D01*
X174200327Y-58418178D01*
X174109422Y-58600739D01*
X174109417Y-58600752D01*
X174053602Y-58796917D01*
X174034785Y-58999999D01*
X174034785Y-59000000D01*
X161005215Y-59000000D01*
X160986397Y-58796917D01*
X160930582Y-58600750D01*
X160839673Y-58418179D01*
X160716764Y-58255421D01*
X160716762Y-58255418D01*
X160566041Y-58118019D01*
X160566039Y-58118017D01*
X160392642Y-58010655D01*
X160392635Y-58010651D01*
X160297546Y-57973814D01*
X160202456Y-57936976D01*
X160001976Y-57899500D01*
X159798024Y-57899500D01*
X159597544Y-57936976D01*
X159597541Y-57936976D01*
X159597541Y-57936977D01*
X159407364Y-58010651D01*
X159407357Y-58010655D01*
X159233960Y-58118017D01*
X159233958Y-58118019D01*
X159083237Y-58255418D01*
X158960327Y-58418178D01*
X158869422Y-58600739D01*
X158869417Y-58600752D01*
X158813602Y-58796917D01*
X158794785Y-58999999D01*
X158794785Y-59000000D01*
X153585215Y-59000000D01*
X153566397Y-58796917D01*
X153510582Y-58600750D01*
X153419673Y-58418179D01*
X153296764Y-58255421D01*
X153296762Y-58255418D01*
X153146041Y-58118019D01*
X153146039Y-58118017D01*
X152972642Y-58010655D01*
X152972635Y-58010651D01*
X152877546Y-57973814D01*
X152782456Y-57936976D01*
X152581976Y-57899500D01*
X152378024Y-57899500D01*
X152177544Y-57936976D01*
X152177541Y-57936976D01*
X152177541Y-57936977D01*
X151987364Y-58010651D01*
X151987357Y-58010655D01*
X151813960Y-58118017D01*
X151813958Y-58118019D01*
X151663237Y-58255418D01*
X151540327Y-58418178D01*
X151449422Y-58600739D01*
X151449417Y-58600752D01*
X151393602Y-58796917D01*
X151374785Y-58999999D01*
X151374785Y-59000000D01*
X138345215Y-59000000D01*
X138326397Y-58796917D01*
X138270582Y-58600750D01*
X138179673Y-58418179D01*
X138056764Y-58255421D01*
X138056762Y-58255418D01*
X137906041Y-58118019D01*
X137906039Y-58118017D01*
X137732642Y-58010655D01*
X137732635Y-58010651D01*
X137637546Y-57973814D01*
X137542456Y-57936976D01*
X137341976Y-57899500D01*
X137138024Y-57899500D01*
X136937544Y-57936976D01*
X136937541Y-57936976D01*
X136937541Y-57936977D01*
X136747364Y-58010651D01*
X136747357Y-58010655D01*
X136573960Y-58118017D01*
X136573958Y-58118019D01*
X136423237Y-58255418D01*
X136300327Y-58418178D01*
X136209422Y-58600739D01*
X136209417Y-58600752D01*
X136153602Y-58796917D01*
X136134785Y-58999999D01*
X136134785Y-59000000D01*
X133805215Y-59000000D01*
X133786397Y-58796917D01*
X133730582Y-58600750D01*
X133639673Y-58418179D01*
X133516764Y-58255421D01*
X133516762Y-58255418D01*
X133366041Y-58118019D01*
X133366039Y-58118017D01*
X133192642Y-58010655D01*
X133192635Y-58010651D01*
X133097546Y-57973814D01*
X133002456Y-57936976D01*
X132801976Y-57899500D01*
X132598024Y-57899500D01*
X132397544Y-57936976D01*
X132397541Y-57936976D01*
X132397541Y-57936977D01*
X132207364Y-58010651D01*
X132207357Y-58010655D01*
X132033960Y-58118017D01*
X132033958Y-58118019D01*
X131883237Y-58255418D01*
X131760327Y-58418178D01*
X131669422Y-58600739D01*
X131669417Y-58600752D01*
X131613602Y-58796917D01*
X131594785Y-58999999D01*
X131594785Y-59000000D01*
X128805215Y-59000000D01*
X128786397Y-58796917D01*
X128730582Y-58600750D01*
X128639673Y-58418179D01*
X128516764Y-58255421D01*
X128516762Y-58255418D01*
X128366041Y-58118019D01*
X128366039Y-58118017D01*
X128192642Y-58010655D01*
X128192635Y-58010651D01*
X128097546Y-57973814D01*
X128002456Y-57936976D01*
X127801976Y-57899500D01*
X127598024Y-57899500D01*
X127397544Y-57936976D01*
X127397541Y-57936976D01*
X127397541Y-57936977D01*
X127207364Y-58010651D01*
X127207357Y-58010655D01*
X127033960Y-58118017D01*
X127033958Y-58118019D01*
X126883237Y-58255418D01*
X126760327Y-58418178D01*
X126669422Y-58600739D01*
X126669417Y-58600752D01*
X126613602Y-58796917D01*
X126594785Y-58999999D01*
X126594785Y-59000000D01*
X60200500Y-59000000D01*
X60200500Y-52212003D01*
X64549500Y-52212003D01*
X64577712Y-52507463D01*
X64589804Y-52634093D01*
X64589806Y-52634105D01*
X64670045Y-53050423D01*
X64670049Y-53050440D01*
X64789500Y-53457256D01*
X64789504Y-53457268D01*
X64947088Y-53850893D01*
X64947090Y-53850897D01*
X64947092Y-53850901D01*
X65141383Y-54227773D01*
X65217669Y-54346477D01*
X65370614Y-54584465D01*
X65370619Y-54584471D01*
X65632722Y-54917763D01*
X65632731Y-54917772D01*
X65925323Y-55224633D01*
X66245762Y-55502295D01*
X66245775Y-55502306D01*
X66591134Y-55748235D01*
X66591142Y-55748241D01*
X66591149Y-55748245D01*
X66958350Y-55960248D01*
X67344040Y-56136387D01*
X67455136Y-56174837D01*
X67744714Y-56275062D01*
X67744720Y-56275063D01*
X67744727Y-56275066D01*
X68156782Y-56375029D01*
X68576473Y-56435372D01*
X68830507Y-56447473D01*
X68894046Y-56450500D01*
X68894050Y-56450500D01*
X69105954Y-56450500D01*
X69166466Y-56447617D01*
X69423527Y-56435372D01*
X69843218Y-56375029D01*
X70255273Y-56275066D01*
X70655960Y-56136387D01*
X71041650Y-55960248D01*
X71408851Y-55748245D01*
X71430653Y-55732719D01*
X71754224Y-55502306D01*
X71754227Y-55502303D01*
X71754236Y-55502297D01*
X72074679Y-55224631D01*
X72367278Y-54917763D01*
X72629381Y-54584471D01*
X72858617Y-54227774D01*
X73052908Y-53850901D01*
X73210496Y-53457267D01*
X73329952Y-53050435D01*
X73410196Y-52634090D01*
X73450500Y-52212003D01*
X226549500Y-52212003D01*
X226577712Y-52507463D01*
X226589804Y-52634093D01*
X226589806Y-52634105D01*
X226670045Y-53050423D01*
X226670049Y-53050440D01*
X226789500Y-53457256D01*
X226789504Y-53457268D01*
X226947088Y-53850893D01*
X226947090Y-53850897D01*
X226947092Y-53850901D01*
X227141383Y-54227773D01*
X227217669Y-54346477D01*
X227370614Y-54584465D01*
X227370619Y-54584471D01*
X227632722Y-54917763D01*
X227632731Y-54917772D01*
X227925323Y-55224633D01*
X228245762Y-55502295D01*
X228245775Y-55502306D01*
X228591134Y-55748235D01*
X228591142Y-55748241D01*
X228591149Y-55748245D01*
X228958350Y-55960248D01*
X229344040Y-56136387D01*
X229455136Y-56174837D01*
X229744714Y-56275062D01*
X229744720Y-56275063D01*
X229744727Y-56275066D01*
X230156782Y-56375029D01*
X230576473Y-56435372D01*
X230830507Y-56447473D01*
X230894046Y-56450500D01*
X230894050Y-56450500D01*
X231105954Y-56450500D01*
X231166466Y-56447617D01*
X231423527Y-56435372D01*
X231843218Y-56375029D01*
X232255273Y-56275066D01*
X232655960Y-56136387D01*
X233041650Y-55960248D01*
X233408851Y-55748245D01*
X233430653Y-55732719D01*
X233754224Y-55502306D01*
X233754227Y-55502303D01*
X233754236Y-55502297D01*
X234074679Y-55224631D01*
X234367278Y-54917763D01*
X234629381Y-54584471D01*
X234858617Y-54227774D01*
X235052908Y-53850901D01*
X235210496Y-53457267D01*
X235329952Y-53050435D01*
X235410196Y-52634090D01*
X235450500Y-52212003D01*
X235450500Y-51787997D01*
X235410196Y-51365910D01*
X235329952Y-50949565D01*
X235210496Y-50542733D01*
X235052908Y-50149099D01*
X234858617Y-49772227D01*
X234734557Y-49579186D01*
X234629385Y-49415534D01*
X234367285Y-49082246D01*
X234367278Y-49082237D01*
X234074679Y-48775369D01*
X233907760Y-48630733D01*
X233754237Y-48497704D01*
X233754224Y-48497693D01*
X233408865Y-48251764D01*
X233408857Y-48251758D01*
X233041654Y-48039754D01*
X232655969Y-47863617D01*
X232655967Y-47863616D01*
X232655960Y-47863613D01*
X232655952Y-47863610D01*
X232655944Y-47863607D01*
X232255285Y-47724937D01*
X232255274Y-47724934D01*
X231843219Y-47624971D01*
X231423530Y-47564628D01*
X231423531Y-47564628D01*
X231105954Y-47549500D01*
X231105950Y-47549500D01*
X230894050Y-47549500D01*
X230894046Y-47549500D01*
X230576468Y-47564628D01*
X230156780Y-47624971D01*
X229744725Y-47724934D01*
X229744714Y-47724937D01*
X229344055Y-47863607D01*
X229344030Y-47863617D01*
X228958345Y-48039754D01*
X228591142Y-48251758D01*
X228591134Y-48251764D01*
X228245775Y-48497693D01*
X228245762Y-48497704D01*
X227925323Y-48775366D01*
X227632731Y-49082227D01*
X227632714Y-49082246D01*
X227370610Y-49415540D01*
X227370608Y-49415543D01*
X227141387Y-49772218D01*
X227141383Y-49772225D01*
X226947087Y-50149108D01*
X226789504Y-50542731D01*
X226789500Y-50542743D01*
X226670049Y-50949559D01*
X226670045Y-50949576D01*
X226589806Y-51365894D01*
X226589804Y-51365906D01*
X226573682Y-51534744D01*
X226549500Y-51787997D01*
X226549500Y-52212003D01*
X73450500Y-52212003D01*
X73450500Y-51787997D01*
X73410196Y-51365910D01*
X73329952Y-50949565D01*
X73210496Y-50542733D01*
X73052908Y-50149099D01*
X72858617Y-49772227D01*
X72734557Y-49579186D01*
X72629385Y-49415534D01*
X72367285Y-49082246D01*
X72367278Y-49082237D01*
X72074679Y-48775369D01*
X71907760Y-48630733D01*
X71754237Y-48497704D01*
X71754224Y-48497693D01*
X71408865Y-48251764D01*
X71408857Y-48251758D01*
X71041654Y-48039754D01*
X70655969Y-47863617D01*
X70655967Y-47863616D01*
X70655960Y-47863613D01*
X70655952Y-47863610D01*
X70655944Y-47863607D01*
X70255285Y-47724937D01*
X70255274Y-47724934D01*
X69843219Y-47624971D01*
X69423530Y-47564628D01*
X69423531Y-47564628D01*
X69105954Y-47549500D01*
X69105950Y-47549500D01*
X68894050Y-47549500D01*
X68894046Y-47549500D01*
X68576468Y-47564628D01*
X68156780Y-47624971D01*
X67744725Y-47724934D01*
X67744714Y-47724937D01*
X67344055Y-47863607D01*
X67344030Y-47863617D01*
X66958345Y-48039754D01*
X66591142Y-48251758D01*
X66591134Y-48251764D01*
X66245775Y-48497693D01*
X66245762Y-48497704D01*
X65925323Y-48775366D01*
X65632731Y-49082227D01*
X65632714Y-49082246D01*
X65370610Y-49415540D01*
X65370608Y-49415543D01*
X65141387Y-49772218D01*
X65141383Y-49772225D01*
X64947087Y-50149108D01*
X64789504Y-50542731D01*
X64789500Y-50542743D01*
X64670049Y-50949559D01*
X64670045Y-50949576D01*
X64589806Y-51365894D01*
X64589804Y-51365906D01*
X64573682Y-51534744D01*
X64549500Y-51787997D01*
X64549500Y-52212003D01*
X60200500Y-52212003D01*
X60200500Y-52000000D01*
X60219274Y-51426509D01*
X60219537Y-51422475D01*
X60275583Y-50853435D01*
X60276111Y-50849434D01*
X60369251Y-50285291D01*
X60370033Y-50281360D01*
X60499880Y-49724477D01*
X60500918Y-49720603D01*
X60666906Y-49173408D01*
X60668197Y-49169606D01*
X60869615Y-48634455D01*
X60871151Y-48630746D01*
X61107149Y-48109887D01*
X61108902Y-48106332D01*
X61378467Y-47602011D01*
X61380466Y-47598549D01*
X61682441Y-47112935D01*
X61684640Y-47109645D01*
X62017727Y-46644822D01*
X62020164Y-46641647D01*
X62382910Y-46199640D01*
X62385565Y-46196614D01*
X62776454Y-45779265D01*
X62779265Y-45776454D01*
X63196614Y-45385565D01*
X63199640Y-45382910D01*
X63641647Y-45020164D01*
X63644822Y-45017727D01*
X64109645Y-44684640D01*
X64112935Y-44682441D01*
X64598549Y-44380466D01*
X64602011Y-44378467D01*
X65106332Y-44108902D01*
X65109887Y-44107149D01*
X65630746Y-43871151D01*
X65634455Y-43869615D01*
X66169606Y-43668197D01*
X66173408Y-43666906D01*
X66720603Y-43500918D01*
X66724477Y-43499880D01*
X67281360Y-43370033D01*
X67285291Y-43369251D01*
X67849444Y-43276109D01*
X67853435Y-43275583D01*
X68422475Y-43219537D01*
X68426509Y-43219274D01*
X69000000Y-43200500D01*
X69039882Y-43200500D01*
X230960118Y-43200500D01*
X231000000Y-43200500D01*
X231573490Y-43219274D01*
G37*
%TD.AperFunction*%
%TD*%
M02*
