%TF.GenerationSoftware,KiCad,Pcbnew,7.0.9*%
%TF.CreationDate,2024-02-16T00:25:04-03:00*%
%TF.ProjectId,main-board,6d61696e-2d62-46f6-9172-642e6b696361,0.1*%
%TF.SameCoordinates,Original*%
%TF.FileFunction,Soldermask,Bot*%
%TF.FilePolarity,Negative*%
%FSLAX46Y46*%
G04 Gerber Fmt 4.6, Leading zero omitted, Abs format (unit mm)*
G04 Created by KiCad (PCBNEW 7.0.9) date 2024-02-16 00:25:04*
%MOMM*%
%LPD*%
G01*
G04 APERTURE LIST*
%ADD10C,1.600000*%
%ADD11O,1.600000X1.600000*%
%ADD12R,1.800000X1.800000*%
%ADD13C,1.800000*%
%ADD14R,1.700000X1.700000*%
%ADD15O,1.700000X1.700000*%
%ADD16R,1.600000X1.600000*%
%ADD17C,8.400000*%
G04 APERTURE END LIST*
D10*
%TO.C,R2*%
X159900000Y-59000000D03*
D11*
X175140000Y-59000000D03*
%TD*%
D10*
%TO.C,C15*%
X232950000Y-82600000D03*
X235450000Y-82600000D03*
%TD*%
D12*
%TO.C,D4*%
X227632500Y-94180000D03*
D13*
X227632500Y-91640000D03*
%TD*%
D10*
%TO.C,C13*%
X232550000Y-113400000D03*
X235050000Y-113400000D03*
%TD*%
D12*
%TO.C,D1*%
X72800000Y-100620000D03*
D13*
X72800000Y-103160000D03*
%TD*%
D14*
%TO.C,SW1*%
X183225000Y-102800000D03*
D15*
X185765000Y-102800000D03*
%TD*%
D10*
%TO.C,C4*%
X192450000Y-59000000D03*
X197450000Y-59000000D03*
%TD*%
%TO.C,R4*%
X200650000Y-59000000D03*
D11*
X215890000Y-59000000D03*
%TD*%
D10*
%TO.C,R10*%
X152100000Y-69400000D03*
D11*
X167340000Y-69400000D03*
%TD*%
D10*
%TO.C,C1*%
X89675000Y-77350000D03*
X89675000Y-74850000D03*
%TD*%
D14*
%TO.C,U1*%
X106395000Y-81175000D03*
D15*
X106395000Y-78635000D03*
X106395000Y-76095000D03*
D14*
X114430000Y-71895000D03*
D15*
X116965000Y-71895000D03*
D14*
X124995000Y-76095000D03*
D15*
X124995000Y-78635000D03*
X124995000Y-81175000D03*
%TD*%
D16*
%TO.C,C14*%
X232717621Y-124800000D03*
D10*
X235217621Y-124800000D03*
%TD*%
D17*
%TO.C,H4*%
X69000000Y-52000000D03*
%TD*%
D10*
%TO.C,R8*%
X193470000Y-145350000D03*
D11*
X178230000Y-145350000D03*
%TD*%
D10*
%TO.C,C8*%
X141925000Y-69405000D03*
X146925000Y-69405000D03*
%TD*%
%TO.C,R11*%
X175120000Y-131000000D03*
D11*
X159880000Y-131000000D03*
%TD*%
D10*
%TO.C,R13*%
X167300000Y-88600000D03*
D11*
X167300000Y-73360000D03*
%TD*%
D14*
%TO.C,J5*%
X155900000Y-131000000D03*
%TD*%
D10*
%TO.C,R16*%
X72800000Y-86400000D03*
D11*
X72800000Y-71160000D03*
%TD*%
D12*
%TO.C,D3*%
X227632500Y-103640000D03*
D13*
X227632500Y-101100000D03*
%TD*%
D10*
%TO.C,C6*%
X174900000Y-145350000D03*
X174900000Y-150350000D03*
%TD*%
%TO.C,R18*%
X227600000Y-86000000D03*
D11*
X227600000Y-70760000D03*
%TD*%
D12*
%TO.C,D2*%
X72800000Y-91160000D03*
D13*
X72800000Y-93700000D03*
%TD*%
D10*
%TO.C,R5*%
X210000000Y-82870000D03*
D11*
X210000000Y-67630000D03*
%TD*%
D14*
%TO.C,C5*%
X116800000Y-106625000D03*
D15*
X114260000Y-106625000D03*
%TD*%
D14*
%TO.C,J3*%
X168000000Y-145350000D03*
%TD*%
D15*
%TO.C,J4*%
X68000000Y-100660000D03*
D14*
X64500000Y-97160000D03*
D15*
X68000000Y-93660000D03*
%TD*%
D16*
%TO.C,C10*%
X64600000Y-123800000D03*
D10*
X67100000Y-123800000D03*
%TD*%
%TO.C,C2*%
X127700000Y-59000000D03*
X132700000Y-59000000D03*
%TD*%
%TO.C,R6*%
X107980000Y-100600000D03*
D11*
X123220000Y-100600000D03*
%TD*%
D14*
%TO.C,U3*%
X175300000Y-122040000D03*
D15*
X175300000Y-119500000D03*
D14*
X181845000Y-114100000D03*
D15*
X184385000Y-114100000D03*
X186925000Y-114100000D03*
X193500000Y-119500000D03*
D14*
X193500000Y-122040000D03*
%TD*%
D10*
%TO.C,R7*%
X108280000Y-89900000D03*
D11*
X123520000Y-89900000D03*
%TD*%
D15*
%TO.C,J6*%
X232000000Y-94165000D03*
D14*
X235500000Y-97665000D03*
D15*
X232000000Y-101165000D03*
%TD*%
D10*
%TO.C,R14*%
X183900000Y-91100000D03*
D11*
X199140000Y-91100000D03*
%TD*%
D10*
%TO.C,R1*%
X137240000Y-59000000D03*
D11*
X152480000Y-59000000D03*
%TD*%
D17*
%TO.C,H1*%
X231000000Y-52000000D03*
%TD*%
D10*
%TO.C,R9*%
X193520000Y-131000000D03*
D11*
X178280000Y-131000000D03*
%TD*%
D14*
%TO.C,U2*%
X175200000Y-81125000D03*
D15*
X175200000Y-78585000D03*
X175200000Y-76045000D03*
D14*
X183235000Y-71845000D03*
D15*
X185770000Y-71845000D03*
D14*
X193800000Y-76045000D03*
D15*
X193800000Y-78585000D03*
X193800000Y-81125000D03*
%TD*%
D16*
%TO.C,C12*%
X67200000Y-71000000D03*
D10*
X64700000Y-71000000D03*
%TD*%
%TO.C,C9*%
X67000000Y-111400000D03*
X64500000Y-111400000D03*
%TD*%
%TO.C,R12*%
X135275000Y-67690000D03*
D11*
X135275000Y-82930000D03*
%TD*%
D10*
%TO.C,R3*%
X95975000Y-83620000D03*
D11*
X95975000Y-68380000D03*
%TD*%
D10*
%TO.C,C3*%
X216200000Y-76500000D03*
X216200000Y-74000000D03*
%TD*%
%TO.C,C7*%
X141800000Y-76440000D03*
X141800000Y-73940000D03*
%TD*%
D16*
%TO.C,C16*%
X235282380Y-70500000D03*
D10*
X232782380Y-70500000D03*
%TD*%
%TO.C,R15*%
X72800000Y-108300000D03*
D11*
X72800000Y-123540000D03*
%TD*%
D17*
%TO.C,H3*%
X69000000Y-145000000D03*
%TD*%
D10*
%TO.C,C11*%
X67000000Y-82600000D03*
X64500000Y-82600000D03*
%TD*%
D14*
%TO.C,J1*%
X171950000Y-102800000D03*
%TD*%
%TO.C,J2*%
X196800000Y-102850000D03*
%TD*%
D10*
%TO.C,R17*%
X227632500Y-109400000D03*
D11*
X227632500Y-124640000D03*
%TD*%
D17*
%TO.C,H2*%
X231000000Y-145000000D03*
%TD*%
M02*
