M48
; DRILL file {KiCad 7.0.11} date Fri 16 Aug 2024 12:00:01 AM -03
; FORMAT={-:-/ absolute / metric / decimal}
; #@! TF.CreationDate,2024-08-16T00:00:01-03:00
; #@! TF.GenerationSoftware,Kicad,Pcbnew,7.0.11
; #@! TF.FileFunction,MixedPlating,1,2
FMAT,2
METRIC
; #@! TA.AperFunction,Plated,PTH,ViaDrill
T1C0.400
; #@! TA.AperFunction,Plated,PTH,ViaDrill
T2C0.800
; #@! TA.AperFunction,Plated,PTH,ComponentDrill
T3C0.800
; #@! TA.AperFunction,Plated,PTH,ComponentDrill
T4C0.900
; #@! TA.AperFunction,Plated,PTH,ComponentDrill
T5C0.980
; #@! TA.AperFunction,Plated,PTH,ComponentDrill
T6C1.000
; #@! TA.AperFunction,Plated,PTH,ComponentDrill
T7C1.200
; #@! TA.AperFunction,Plated,PTH,ComponentDrill
T8C6.100
; #@! TA.AperFunction,NonPlated,NPTH,ComponentDrill
T9C5.300
%
G90
G05
T1
X61.85Y-97.05
X61.85Y-112.2
X62.24Y-61.42
X62.24Y-69.04
X62.24Y-76.66
X62.24Y-84.28
X62.24Y-124.92
X62.24Y-137.62
X62.24Y-145.24
X64.78Y-94.44
X64.78Y-109.68
X64.78Y-132.54
X67.32Y-63.96
X67.32Y-71.58
X67.32Y-79.2
X67.32Y-142.7
X69.86Y-56.34
X69.86Y-96.98
X69.86Y-112.22
X69.86Y-135.08
X69.86Y-147.78
X72.4Y-61.42
X72.4Y-69.04
X72.4Y-130.0
X72.4Y-140.16
X74.94Y-79.2
X74.94Y-94.44
X74.94Y-109.68
X74.94Y-124.92
X74.94Y-150.32
X77.48Y-56.34
X77.48Y-63.96
X77.48Y-99.52
X77.48Y-132.54
X80.02Y-74.12
X80.02Y-81.74
X80.02Y-89.36
X80.02Y-104.6
X80.02Y-112.22
X80.02Y-119.84
X82.56Y-140.16
X85.1Y-56.34
X85.1Y-71.58
X85.1Y-84.28
X85.1Y-91.9
X85.1Y-99.52
X85.1Y-107.14
X85.1Y-114.76
X85.1Y-122.38
X85.1Y-150.32
X87.64Y-66.5
X90.18Y-79.2
X92.72Y-56.34
X92.72Y-84.28
X92.72Y-91.9
X92.72Y-99.52
X92.72Y-107.14
X92.72Y-114.76
X92.72Y-122.38
X92.72Y-132.54
X92.72Y-150.32
X95.26Y-66.5
X95.26Y-74.12
X95.26Y-127.46
X95.26Y-137.62
X95.26Y-145.24
X97.4Y-133.0
X97.8Y-79.2
X97.8Y-86.82
X97.8Y-96.98
X97.8Y-104.6
X97.8Y-112.22
X98.25Y-123.6
X100.34Y-56.34
X100.34Y-71.58
X100.34Y-147.78
X100.5Y-152.25
X102.88Y-81.74
X102.88Y-91.9
X102.88Y-107.14
X103.35Y-126.15
X104.8Y-146.5
X105.42Y-74.12
X105.42Y-86.82
X105.42Y-96.98
X106.25Y-134.1
X106.9Y-140.85
X107.96Y-56.34
X107.96Y-79.2
X108.7Y-152.1
X109.85Y-96.45
X110.05Y-117.3
X110.5Y-104.6
X111.85Y-146.95
X113.04Y-74.12
X113.04Y-81.74
X113.04Y-99.52
X113.36Y-127.7
X114.75Y-135.4
X115.05Y-97.85
X115.58Y-56.34
X115.58Y-86.82
X116.05Y-152.5
X116.2Y-140.7
X117.3Y-91.9
X118.12Y-76.66
X118.5Y-149.4
X118.77Y-130.08
X120.6Y-91.9
X120.66Y-81.74
X120.66Y-94.44
X120.66Y-102.06
X121.45Y-141.3
X123.2Y-56.34
X123.2Y-74.12
X123.2Y-86.82
X124.55Y-118.6
X125.7Y-146.7
X125.74Y-79.2
X125.74Y-96.98
X125.74Y-104.6
X125.74Y-112.22
X125.95Y-152.35
X128.28Y-84.28
X128.28Y-91.9
X130.25Y-130.95
X130.82Y-56.34
X130.82Y-74.12
X130.82Y-99.52
X130.82Y-107.14
X130.82Y-114.76
X133.36Y-79.2
X133.36Y-86.82
X133.36Y-94.44
X133.36Y-119.84
X133.36Y-147.78
X135.05Y-151.85
X135.9Y-102.06
X135.9Y-109.68
X135.9Y-124.92
X135.9Y-132.54
X135.9Y-140.16
X138.44Y-56.34
X138.44Y-74.12
X138.44Y-84.28
X138.44Y-91.9
X138.44Y-114.76
X138.44Y-145.24
X140.98Y-79.2
X140.98Y-96.98
X140.98Y-107.14
X140.98Y-119.84
X140.98Y-127.46
X140.98Y-135.08
X140.98Y-150.32
X143.52Y-86.82
X143.52Y-102.06
X143.52Y-112.22
X143.52Y-140.16
X146.06Y-56.34
X146.06Y-74.12
X146.06Y-81.74
X146.06Y-91.9
X146.06Y-117.3
X146.06Y-124.92
X146.06Y-132.54
X146.06Y-145.24
X148.6Y-96.98
X148.6Y-104.6
X148.6Y-137.62
X148.6Y-150.32
X151.14Y-79.2
X151.14Y-86.82
X151.14Y-109.68
X151.14Y-119.84
X151.14Y-127.46
X153.68Y-56.34
X153.68Y-74.12
X153.68Y-91.9
X153.68Y-99.52
X153.68Y-114.76
X153.68Y-132.54
X153.68Y-140.16
X156.22Y-81.74
X156.22Y-107.14
X156.22Y-122.38
X158.76Y-86.82
X158.76Y-96.98
X158.76Y-112.22
X158.76Y-127.46
X158.76Y-135.08
X161.3Y-56.34
X161.3Y-69.04
X161.3Y-76.66
X161.3Y-102.06
X161.3Y-117.3
X161.3Y-142.7
X161.3Y-150.32
X163.84Y-89.36
X163.84Y-122.38
X163.84Y-130.0
X166.38Y-71.58
X166.38Y-81.74
X166.38Y-96.98
X166.38Y-112.22
X166.38Y-137.62
X168.92Y-56.34
X168.92Y-76.66
X168.92Y-102.06
X168.92Y-117.3
X171.46Y-86.82
X171.46Y-124.92
X171.46Y-132.54
X174.0Y-71.58
X174.0Y-79.2
X174.0Y-91.9
X174.0Y-99.52
X174.0Y-140.16
X176.54Y-56.34
X176.54Y-119.84
X176.54Y-150.32
X176.93Y-112.33
X179.08Y-61.42
X179.08Y-74.12
X179.08Y-81.74
X179.08Y-127.46
X179.08Y-135.08
X179.08Y-142.7
X181.62Y-96.98
X181.62Y-112.22
X181.62Y-122.38
X184.16Y-58.88
X184.16Y-71.58
X184.16Y-79.2
X184.16Y-102.06
X184.16Y-117.3
X184.16Y-130.0
X184.16Y-140.16
X186.7Y-124.92
X186.7Y-135.08
X189.24Y-74.12
X189.24Y-81.74
X191.78Y-61.42
X191.78Y-96.98
X191.78Y-109.68
X191.78Y-117.3
X191.78Y-127.46
X191.78Y-137.62
X191.78Y-145.24
X194.32Y-79.2
X194.32Y-91.9
X194.32Y-122.38
X194.32Y-132.54
X194.32Y-150.32
X196.86Y-86.82
X196.86Y-99.52
X196.86Y-112.22
X196.86Y-140.16
X199.4Y-61.42
X199.4Y-71.58
X199.4Y-81.74
X199.4Y-117.3
X199.4Y-124.92
X201.94Y-96.98
X201.94Y-130.0
X202.3Y-92.75
X204.48Y-74.12
X204.48Y-102.06
X204.48Y-109.68
X204.48Y-119.84
X204.48Y-135.08
X204.95Y-90.3
X206.8Y-88.85
X207.02Y-61.42
X207.02Y-79.2
X207.02Y-86.82
X207.02Y-94.44
X207.02Y-114.76
X207.02Y-124.92
X207.02Y-140.16
X207.02Y-147.78
X209.56Y-99.52
X209.56Y-107.14
X212.1Y-56.34
X212.1Y-63.96
X212.1Y-71.58
X212.1Y-81.74
X212.1Y-89.36
X212.1Y-112.22
X212.1Y-119.84
X212.1Y-127.46
X212.1Y-135.08
X212.1Y-142.7
X212.1Y-150.32
X214.64Y-76.66
X214.64Y-94.44
X214.64Y-102.06
X217.18Y-66.5
X217.18Y-84.28
X217.18Y-107.14
X217.18Y-114.76
X217.18Y-122.38
X217.18Y-130.0
X217.18Y-137.62
X219.72Y-58.88
X219.72Y-71.58
X219.72Y-79.2
X219.72Y-89.36
X219.72Y-96.98
X219.72Y-142.7
X219.72Y-150.32
T2
X80.4Y-123.15
X87.0Y-132.45
X87.75Y-128.55
X91.6Y-128.55
X184.3Y-67.4
X196.65Y-71.6
T3
X70.0Y-78.782
X70.0Y-81.282
X70.0Y-127.3
X70.0Y-129.8
X74.09Y-138.3
X78.1Y-95.28
X78.1Y-102.9
X78.1Y-105.28
X78.1Y-112.9
X81.71Y-138.3
X84.65Y-138.35
X89.02Y-84.195
X89.02Y-86.695
X89.77Y-94.195
X92.02Y-81.635
X92.02Y-89.255
X92.27Y-94.195
X92.27Y-138.35
X101.65Y-100.945
X109.27Y-100.945
X116.32Y-101.035
X118.77Y-89.195
X121.27Y-89.195
X123.94Y-101.035
X124.02Y-85.135
X124.02Y-92.755
X127.02Y-87.885
X127.02Y-90.385
X129.59Y-76.95
X137.21Y-76.95
X143.0Y-104.0
X150.62Y-104.0
X153.3Y-96.68
X153.3Y-104.3
X158.03Y-130.85
X161.35Y-94.255
X161.4Y-120.6
X163.3Y-77.39
X163.3Y-85.01
X163.85Y-94.255
X163.9Y-120.6
X165.65Y-130.85
X167.9Y-130.85
X175.52Y-130.85
X186.29Y-101.005
X187.53Y-59.85
X190.35Y-89.255
X190.4Y-120.6
X190.65Y-123.04
X190.65Y-130.66
X192.85Y-89.255
X192.9Y-120.6
X193.91Y-101.005
X195.15Y-59.85
X197.35Y-85.005
X197.35Y-92.625
X198.03Y-59.85
X200.35Y-87.755
X200.35Y-90.255
X205.65Y-59.85
X206.0Y-77.3
X206.0Y-84.92
T4
X74.125Y-142.1
X76.665Y-142.1
X78.1Y-88.29
X78.1Y-90.83
X78.1Y-117.9
X78.1Y-120.44
X89.6Y-142.1
X92.14Y-142.1
X187.61Y-63.65
X190.15Y-63.65
X203.15Y-63.65
X205.69Y-63.65
T5
X80.6Y-142.1
X80.6Y-147.5
X83.1Y-142.1
X83.1Y-147.5
X85.6Y-142.1
X85.6Y-147.5
X194.15Y-63.75
X194.15Y-69.15
X196.65Y-63.75
X196.65Y-69.15
X199.15Y-63.75
X199.15Y-69.15
T6
X96.27Y-89.195
X96.27Y-91.735
X96.27Y-94.275
X104.23Y-104.445
X104.305Y-84.995
X106.77Y-104.445
X106.84Y-84.995
X114.87Y-89.195
X114.87Y-91.735
X114.87Y-94.275
X155.0Y-130.85
X167.15Y-110.45
X167.8Y-89.3
X167.8Y-91.84
X167.8Y-94.38
X167.95Y-120.6
X167.95Y-123.14
X174.495Y-115.2
X175.625Y-110.45
X175.835Y-85.1
X177.035Y-115.2
X178.165Y-110.45
X178.37Y-85.1
X179.575Y-115.2
X186.15Y-120.6
X186.15Y-123.14
X186.4Y-89.3
X186.4Y-91.84
X186.4Y-94.38
X187.1Y-110.45
X208.05Y-131.3
T7
X104.39Y-76.95
X126.89Y-76.95
X137.3Y-81.55
X137.3Y-104.05
X166.3Y-77.29
X188.8Y-77.29
X201.0Y-110.5
X201.0Y-133.0
T8
X70.0Y-89.3
X70.0Y-104.29
X70.0Y-119.27
X155.8Y-146.0
X170.8Y-146.0
X185.8Y-146.0
X200.8Y-146.0
T9
X65.6Y-59.6
X65.6Y-148.4
X216.2Y-59.6
X216.2Y-148.4
M30
