M48
; DRILL file {KiCad 7.0.9} date Fri 16 Feb 2024 12:24:47 AM -03
; FORMAT={-:-/ absolute / metric / decimal}
; #@! TF.CreationDate,2024-02-16T00:24:47-03:00
; #@! TF.GenerationSoftware,Kicad,Pcbnew,7.0.9
; #@! TF.FileFunction,MixedPlating,1,2
FMAT,2
METRIC
; #@! TA.AperFunction,Plated,PTH,ViaDrill
T1C0.300
; #@! TA.AperFunction,Plated,PTH,ComponentDrill
T2C0.800
; #@! TA.AperFunction,Plated,PTH,ComponentDrill
T3C0.900
; #@! TA.AperFunction,Plated,PTH,ComponentDrill
T4C1.000
; #@! TA.AperFunction,NonPlated,NPTH,ComponentDrill
T5C8.400
%
G90
G05
T1
X92.1Y-71.3
X93.2Y-72.4
X215.5Y-95.9
X216.9Y-97.3
T2
X64.5Y-82.6
X64.5Y-111.4
X64.6Y-123.8
X64.7Y-71.0
X67.0Y-82.6
X67.0Y-111.4
X67.1Y-123.8
X67.2Y-71.0
X72.8Y-71.16
X72.8Y-86.4
X72.8Y-108.3
X72.8Y-123.54
X89.675Y-74.85
X89.675Y-77.35
X95.975Y-68.38
X95.975Y-83.62
X107.98Y-100.6
X108.28Y-89.9
X123.22Y-100.6
X123.52Y-89.9
X127.7Y-59.0
X132.7Y-59.0
X135.275Y-67.69
X135.275Y-82.93
X137.24Y-59.0
X141.8Y-73.94
X141.8Y-76.44
X141.925Y-69.405
X146.925Y-69.405
X152.1Y-69.4
X152.48Y-59.0
X159.88Y-131.0
X159.9Y-59.0
X167.3Y-73.36
X167.3Y-88.6
X167.34Y-69.4
X174.9Y-145.35
X174.9Y-150.35
X175.12Y-131.0
X175.14Y-59.0
X178.23Y-145.35
X178.28Y-131.0
X183.9Y-91.1
X192.45Y-59.0
X193.47Y-145.35
X193.52Y-131.0
X197.45Y-59.0
X199.14Y-91.1
X200.65Y-59.0
X210.0Y-67.63
X210.0Y-82.87
X215.89Y-59.0
X216.2Y-74.0
X216.2Y-76.5
X227.6Y-70.76
X227.6Y-86.0
X227.632Y-109.4
X227.632Y-124.64
X232.55Y-113.4
X232.718Y-124.8
X232.782Y-70.5
X232.95Y-82.6
X235.05Y-113.4
X235.218Y-124.8
X235.282Y-70.5
X235.45Y-82.6
T3
X72.8Y-91.16
X72.8Y-93.7
X72.8Y-100.62
X72.8Y-103.16
X227.632Y-91.64
X227.632Y-94.18
X227.632Y-101.1
X227.632Y-103.64
T4
X64.5Y-97.16
X68.0Y-93.66
X68.0Y-100.66
X106.395Y-76.095
X106.395Y-78.635
X106.395Y-81.175
X114.26Y-106.625
X114.43Y-71.895
X116.8Y-106.625
X116.965Y-71.895
X124.995Y-76.095
X124.995Y-78.635
X124.995Y-81.175
X155.9Y-131.0
X168.0Y-145.35
X171.95Y-102.8
X175.2Y-76.045
X175.2Y-78.585
X175.2Y-81.125
X175.3Y-119.5
X175.3Y-122.04
X181.845Y-114.1
X183.225Y-102.8
X183.235Y-71.845
X184.385Y-114.1
X185.765Y-102.8
X185.77Y-71.845
X186.925Y-114.1
X193.5Y-119.5
X193.5Y-122.04
X193.8Y-76.045
X193.8Y-78.585
X193.8Y-81.125
X196.8Y-102.85
X232.0Y-94.165
X232.0Y-101.165
X235.5Y-97.665
T5
X69.0Y-52.0
X69.0Y-145.0
X231.0Y-52.0
X231.0Y-145.0
T0
M30
