%TF.GenerationSoftware,KiCad,Pcbnew,7.0.9*%
%TF.CreationDate,2024-02-16T00:25:04-03:00*%
%TF.ProjectId,main-board,6d61696e-2d62-46f6-9172-642e6b696361,0.1*%
%TF.SameCoordinates,Original*%
%TF.FileFunction,Legend,Bot*%
%TF.FilePolarity,Positive*%
%FSLAX46Y46*%
G04 Gerber Fmt 4.6, Leading zero omitted, Abs format (unit mm)*
G04 Created by KiCad (PCBNEW 7.0.9) date 2024-02-16 00:25:04*
%MOMM*%
%LPD*%
G01*
G04 APERTURE LIST*
%ADD10C,0.300000*%
G04 APERTURE END LIST*
D10*
X218945489Y-134099638D02*
X218564536Y-134099638D01*
X218564536Y-134099638D02*
X218374060Y-134194876D01*
X218374060Y-134194876D02*
X218183584Y-134385352D01*
X218183584Y-134385352D02*
X218088346Y-134766304D01*
X218088346Y-134766304D02*
X218088346Y-135432971D01*
X218088346Y-135432971D02*
X218183584Y-135813923D01*
X218183584Y-135813923D02*
X218374060Y-136004400D01*
X218374060Y-136004400D02*
X218564536Y-136099638D01*
X218564536Y-136099638D02*
X218945489Y-136099638D01*
X218945489Y-136099638D02*
X219135965Y-136004400D01*
X219135965Y-136004400D02*
X219326441Y-135813923D01*
X219326441Y-135813923D02*
X219421679Y-135432971D01*
X219421679Y-135432971D02*
X219421679Y-134766304D01*
X219421679Y-134766304D02*
X219326441Y-134385352D01*
X219326441Y-134385352D02*
X219135965Y-134194876D01*
X219135965Y-134194876D02*
X218945489Y-134099638D01*
X217231203Y-136099638D02*
X217231203Y-134766304D01*
X217231203Y-135147257D02*
X217135965Y-134956780D01*
X217135965Y-134956780D02*
X217040727Y-134861542D01*
X217040727Y-134861542D02*
X216850251Y-134766304D01*
X216850251Y-134766304D02*
X216659774Y-134766304D01*
X215993108Y-136099638D02*
X215993108Y-134766304D01*
X215993108Y-134099638D02*
X216088346Y-134194876D01*
X216088346Y-134194876D02*
X215993108Y-134290114D01*
X215993108Y-134290114D02*
X215897870Y-134194876D01*
X215897870Y-134194876D02*
X215993108Y-134099638D01*
X215993108Y-134099638D02*
X215993108Y-134290114D01*
X214183584Y-134766304D02*
X214183584Y-136385352D01*
X214183584Y-136385352D02*
X214278822Y-136575828D01*
X214278822Y-136575828D02*
X214374060Y-136671066D01*
X214374060Y-136671066D02*
X214564537Y-136766304D01*
X214564537Y-136766304D02*
X214850251Y-136766304D01*
X214850251Y-136766304D02*
X215040727Y-136671066D01*
X214183584Y-136004400D02*
X214374060Y-136099638D01*
X214374060Y-136099638D02*
X214755013Y-136099638D01*
X214755013Y-136099638D02*
X214945489Y-136004400D01*
X214945489Y-136004400D02*
X215040727Y-135909161D01*
X215040727Y-135909161D02*
X215135965Y-135718685D01*
X215135965Y-135718685D02*
X215135965Y-135147257D01*
X215135965Y-135147257D02*
X215040727Y-134956780D01*
X215040727Y-134956780D02*
X214945489Y-134861542D01*
X214945489Y-134861542D02*
X214755013Y-134766304D01*
X214755013Y-134766304D02*
X214374060Y-134766304D01*
X214374060Y-134766304D02*
X214183584Y-134861542D01*
X213231203Y-136099638D02*
X213231203Y-134766304D01*
X213231203Y-134099638D02*
X213326441Y-134194876D01*
X213326441Y-134194876D02*
X213231203Y-134290114D01*
X213231203Y-134290114D02*
X213135965Y-134194876D01*
X213135965Y-134194876D02*
X213231203Y-134099638D01*
X213231203Y-134099638D02*
X213231203Y-134290114D01*
X212278822Y-134766304D02*
X212278822Y-136099638D01*
X212278822Y-134956780D02*
X212183584Y-134861542D01*
X212183584Y-134861542D02*
X211993108Y-134766304D01*
X211993108Y-134766304D02*
X211707393Y-134766304D01*
X211707393Y-134766304D02*
X211516917Y-134861542D01*
X211516917Y-134861542D02*
X211421679Y-135052019D01*
X211421679Y-135052019D02*
X211421679Y-136099638D01*
X209612155Y-136099638D02*
X209612155Y-135052019D01*
X209612155Y-135052019D02*
X209707393Y-134861542D01*
X209707393Y-134861542D02*
X209897869Y-134766304D01*
X209897869Y-134766304D02*
X210278822Y-134766304D01*
X210278822Y-134766304D02*
X210469298Y-134861542D01*
X209612155Y-136004400D02*
X209802631Y-136099638D01*
X209802631Y-136099638D02*
X210278822Y-136099638D01*
X210278822Y-136099638D02*
X210469298Y-136004400D01*
X210469298Y-136004400D02*
X210564536Y-135813923D01*
X210564536Y-135813923D02*
X210564536Y-135623447D01*
X210564536Y-135623447D02*
X210469298Y-135432971D01*
X210469298Y-135432971D02*
X210278822Y-135337733D01*
X210278822Y-135337733D02*
X209802631Y-135337733D01*
X209802631Y-135337733D02*
X209612155Y-135242495D01*
X208374060Y-136099638D02*
X208564536Y-136004400D01*
X208564536Y-136004400D02*
X208659774Y-135813923D01*
X208659774Y-135813923D02*
X208659774Y-134099638D01*
X206088345Y-136099638D02*
X206088345Y-134099638D01*
X206088345Y-134099638D02*
X205612155Y-134099638D01*
X205612155Y-134099638D02*
X205326440Y-134194876D01*
X205326440Y-134194876D02*
X205135964Y-134385352D01*
X205135964Y-134385352D02*
X205040726Y-134575828D01*
X205040726Y-134575828D02*
X204945488Y-134956780D01*
X204945488Y-134956780D02*
X204945488Y-135242495D01*
X204945488Y-135242495D02*
X205040726Y-135623447D01*
X205040726Y-135623447D02*
X205135964Y-135813923D01*
X205135964Y-135813923D02*
X205326440Y-136004400D01*
X205326440Y-136004400D02*
X205612155Y-136099638D01*
X205612155Y-136099638D02*
X206088345Y-136099638D01*
X203326440Y-136004400D02*
X203516916Y-136099638D01*
X203516916Y-136099638D02*
X203897869Y-136099638D01*
X203897869Y-136099638D02*
X204088345Y-136004400D01*
X204088345Y-136004400D02*
X204183583Y-135813923D01*
X204183583Y-135813923D02*
X204183583Y-135052019D01*
X204183583Y-135052019D02*
X204088345Y-134861542D01*
X204088345Y-134861542D02*
X203897869Y-134766304D01*
X203897869Y-134766304D02*
X203516916Y-134766304D01*
X203516916Y-134766304D02*
X203326440Y-134861542D01*
X203326440Y-134861542D02*
X203231202Y-135052019D01*
X203231202Y-135052019D02*
X203231202Y-135242495D01*
X203231202Y-135242495D02*
X204183583Y-135432971D01*
X202469297Y-136004400D02*
X202278821Y-136099638D01*
X202278821Y-136099638D02*
X201897869Y-136099638D01*
X201897869Y-136099638D02*
X201707392Y-136004400D01*
X201707392Y-136004400D02*
X201612154Y-135813923D01*
X201612154Y-135813923D02*
X201612154Y-135718685D01*
X201612154Y-135718685D02*
X201707392Y-135528209D01*
X201707392Y-135528209D02*
X201897869Y-135432971D01*
X201897869Y-135432971D02*
X202183583Y-135432971D01*
X202183583Y-135432971D02*
X202374059Y-135337733D01*
X202374059Y-135337733D02*
X202469297Y-135147257D01*
X202469297Y-135147257D02*
X202469297Y-135052019D01*
X202469297Y-135052019D02*
X202374059Y-134861542D01*
X202374059Y-134861542D02*
X202183583Y-134766304D01*
X202183583Y-134766304D02*
X201897869Y-134766304D01*
X201897869Y-134766304D02*
X201707392Y-134861542D01*
X200755011Y-136099638D02*
X200755011Y-134766304D01*
X200755011Y-134099638D02*
X200850249Y-134194876D01*
X200850249Y-134194876D02*
X200755011Y-134290114D01*
X200755011Y-134290114D02*
X200659773Y-134194876D01*
X200659773Y-134194876D02*
X200755011Y-134099638D01*
X200755011Y-134099638D02*
X200755011Y-134290114D01*
X198945487Y-134766304D02*
X198945487Y-136385352D01*
X198945487Y-136385352D02*
X199040725Y-136575828D01*
X199040725Y-136575828D02*
X199135963Y-136671066D01*
X199135963Y-136671066D02*
X199326440Y-136766304D01*
X199326440Y-136766304D02*
X199612154Y-136766304D01*
X199612154Y-136766304D02*
X199802630Y-136671066D01*
X198945487Y-136004400D02*
X199135963Y-136099638D01*
X199135963Y-136099638D02*
X199516916Y-136099638D01*
X199516916Y-136099638D02*
X199707392Y-136004400D01*
X199707392Y-136004400D02*
X199802630Y-135909161D01*
X199802630Y-135909161D02*
X199897868Y-135718685D01*
X199897868Y-135718685D02*
X199897868Y-135147257D01*
X199897868Y-135147257D02*
X199802630Y-134956780D01*
X199802630Y-134956780D02*
X199707392Y-134861542D01*
X199707392Y-134861542D02*
X199516916Y-134766304D01*
X199516916Y-134766304D02*
X199135963Y-134766304D01*
X199135963Y-134766304D02*
X198945487Y-134861542D01*
X197993106Y-134766304D02*
X197993106Y-136099638D01*
X197993106Y-134956780D02*
X197897868Y-134861542D01*
X197897868Y-134861542D02*
X197707392Y-134766304D01*
X197707392Y-134766304D02*
X197421677Y-134766304D01*
X197421677Y-134766304D02*
X197231201Y-134861542D01*
X197231201Y-134861542D02*
X197135963Y-135052019D01*
X197135963Y-135052019D02*
X197135963Y-136099638D01*
X194945486Y-134766304D02*
X194183582Y-134766304D01*
X194659772Y-136099638D02*
X194659772Y-134385352D01*
X194659772Y-134385352D02*
X194564534Y-134194876D01*
X194564534Y-134194876D02*
X194374058Y-134099638D01*
X194374058Y-134099638D02*
X194183582Y-134099638D01*
X193516915Y-136099638D02*
X193516915Y-134766304D01*
X193516915Y-135147257D02*
X193421677Y-134956780D01*
X193421677Y-134956780D02*
X193326439Y-134861542D01*
X193326439Y-134861542D02*
X193135963Y-134766304D01*
X193135963Y-134766304D02*
X192945486Y-134766304D01*
X191993106Y-136099638D02*
X192183582Y-136004400D01*
X192183582Y-136004400D02*
X192278820Y-135909161D01*
X192278820Y-135909161D02*
X192374058Y-135718685D01*
X192374058Y-135718685D02*
X192374058Y-135147257D01*
X192374058Y-135147257D02*
X192278820Y-134956780D01*
X192278820Y-134956780D02*
X192183582Y-134861542D01*
X192183582Y-134861542D02*
X191993106Y-134766304D01*
X191993106Y-134766304D02*
X191707391Y-134766304D01*
X191707391Y-134766304D02*
X191516915Y-134861542D01*
X191516915Y-134861542D02*
X191421677Y-134956780D01*
X191421677Y-134956780D02*
X191326439Y-135147257D01*
X191326439Y-135147257D02*
X191326439Y-135718685D01*
X191326439Y-135718685D02*
X191421677Y-135909161D01*
X191421677Y-135909161D02*
X191516915Y-136004400D01*
X191516915Y-136004400D02*
X191707391Y-136099638D01*
X191707391Y-136099638D02*
X191993106Y-136099638D01*
X190469296Y-136099638D02*
X190469296Y-134766304D01*
X190469296Y-134956780D02*
X190374058Y-134861542D01*
X190374058Y-134861542D02*
X190183582Y-134766304D01*
X190183582Y-134766304D02*
X189897867Y-134766304D01*
X189897867Y-134766304D02*
X189707391Y-134861542D01*
X189707391Y-134861542D02*
X189612153Y-135052019D01*
X189612153Y-135052019D02*
X189612153Y-136099638D01*
X189612153Y-135052019D02*
X189516915Y-134861542D01*
X189516915Y-134861542D02*
X189326439Y-134766304D01*
X189326439Y-134766304D02*
X189040725Y-134766304D01*
X189040725Y-134766304D02*
X188850248Y-134861542D01*
X188850248Y-134861542D02*
X188755010Y-135052019D01*
X188755010Y-135052019D02*
X188755010Y-136099638D01*
X187802629Y-135909161D02*
X187707391Y-136004400D01*
X187707391Y-136004400D02*
X187802629Y-136099638D01*
X187802629Y-136099638D02*
X187897867Y-136004400D01*
X187897867Y-136004400D02*
X187802629Y-135909161D01*
X187802629Y-135909161D02*
X187802629Y-136099638D01*
X187802629Y-134861542D02*
X187707391Y-134956780D01*
X187707391Y-134956780D02*
X187802629Y-135052019D01*
X187802629Y-135052019D02*
X187897867Y-134956780D01*
X187897867Y-134956780D02*
X187802629Y-134861542D01*
X187802629Y-134861542D02*
X187802629Y-135052019D01*
X184374057Y-134099638D02*
X185326438Y-134099638D01*
X185326438Y-134099638D02*
X185421676Y-135052019D01*
X185421676Y-135052019D02*
X185326438Y-134956780D01*
X185326438Y-134956780D02*
X185135962Y-134861542D01*
X185135962Y-134861542D02*
X184659771Y-134861542D01*
X184659771Y-134861542D02*
X184469295Y-134956780D01*
X184469295Y-134956780D02*
X184374057Y-135052019D01*
X184374057Y-135052019D02*
X184278819Y-135242495D01*
X184278819Y-135242495D02*
X184278819Y-135718685D01*
X184278819Y-135718685D02*
X184374057Y-135909161D01*
X184374057Y-135909161D02*
X184469295Y-136004400D01*
X184469295Y-136004400D02*
X184659771Y-136099638D01*
X184659771Y-136099638D02*
X185135962Y-136099638D01*
X185135962Y-136099638D02*
X185326438Y-136004400D01*
X185326438Y-136004400D02*
X185421676Y-135909161D01*
X183421676Y-135337733D02*
X181897867Y-135337733D01*
X181231200Y-134766304D02*
X180469296Y-134766304D01*
X180945486Y-134099638D02*
X180945486Y-135813923D01*
X180945486Y-135813923D02*
X180850248Y-136004400D01*
X180850248Y-136004400D02*
X180659772Y-136099638D01*
X180659772Y-136099638D02*
X180469296Y-136099638D01*
X179802629Y-136099638D02*
X179802629Y-134099638D01*
X178945486Y-136099638D02*
X178945486Y-135052019D01*
X178945486Y-135052019D02*
X179040724Y-134861542D01*
X179040724Y-134861542D02*
X179231200Y-134766304D01*
X179231200Y-134766304D02*
X179516915Y-134766304D01*
X179516915Y-134766304D02*
X179707391Y-134861542D01*
X179707391Y-134861542D02*
X179802629Y-134956780D01*
X176469295Y-135052019D02*
X175802628Y-135052019D01*
X175516914Y-136099638D02*
X176469295Y-136099638D01*
X176469295Y-136099638D02*
X176469295Y-134099638D01*
X176469295Y-134099638D02*
X175516914Y-134099638D01*
X174850247Y-136099638D02*
X173802628Y-134766304D01*
X174850247Y-134766304D02*
X173802628Y-136099638D01*
X173040723Y-134766304D02*
X173040723Y-136766304D01*
X173040723Y-134861542D02*
X172850247Y-134766304D01*
X172850247Y-134766304D02*
X172469294Y-134766304D01*
X172469294Y-134766304D02*
X172278818Y-134861542D01*
X172278818Y-134861542D02*
X172183580Y-134956780D01*
X172183580Y-134956780D02*
X172088342Y-135147257D01*
X172088342Y-135147257D02*
X172088342Y-135718685D01*
X172088342Y-135718685D02*
X172183580Y-135909161D01*
X172183580Y-135909161D02*
X172278818Y-136004400D01*
X172278818Y-136004400D02*
X172469294Y-136099638D01*
X172469294Y-136099638D02*
X172850247Y-136099638D01*
X172850247Y-136099638D02*
X173040723Y-136004400D01*
X170469294Y-136004400D02*
X170659770Y-136099638D01*
X170659770Y-136099638D02*
X171040723Y-136099638D01*
X171040723Y-136099638D02*
X171231199Y-136004400D01*
X171231199Y-136004400D02*
X171326437Y-135813923D01*
X171326437Y-135813923D02*
X171326437Y-135052019D01*
X171326437Y-135052019D02*
X171231199Y-134861542D01*
X171231199Y-134861542D02*
X171040723Y-134766304D01*
X171040723Y-134766304D02*
X170659770Y-134766304D01*
X170659770Y-134766304D02*
X170469294Y-134861542D01*
X170469294Y-134861542D02*
X170374056Y-135052019D01*
X170374056Y-135052019D02*
X170374056Y-135242495D01*
X170374056Y-135242495D02*
X171326437Y-135432971D01*
X169516913Y-136099638D02*
X169516913Y-134766304D01*
X169516913Y-135147257D02*
X169421675Y-134956780D01*
X169421675Y-134956780D02*
X169326437Y-134861542D01*
X169326437Y-134861542D02*
X169135961Y-134766304D01*
X169135961Y-134766304D02*
X168945484Y-134766304D01*
X168278818Y-136099638D02*
X168278818Y-134766304D01*
X168278818Y-134099638D02*
X168374056Y-134194876D01*
X168374056Y-134194876D02*
X168278818Y-134290114D01*
X168278818Y-134290114D02*
X168183580Y-134194876D01*
X168183580Y-134194876D02*
X168278818Y-134099638D01*
X168278818Y-134099638D02*
X168278818Y-134290114D01*
X167326437Y-136099638D02*
X167326437Y-134766304D01*
X167326437Y-134956780D02*
X167231199Y-134861542D01*
X167231199Y-134861542D02*
X167040723Y-134766304D01*
X167040723Y-134766304D02*
X166755008Y-134766304D01*
X166755008Y-134766304D02*
X166564532Y-134861542D01*
X166564532Y-134861542D02*
X166469294Y-135052019D01*
X166469294Y-135052019D02*
X166469294Y-136099638D01*
X166469294Y-135052019D02*
X166374056Y-134861542D01*
X166374056Y-134861542D02*
X166183580Y-134766304D01*
X166183580Y-134766304D02*
X165897866Y-134766304D01*
X165897866Y-134766304D02*
X165707389Y-134861542D01*
X165707389Y-134861542D02*
X165612151Y-135052019D01*
X165612151Y-135052019D02*
X165612151Y-136099638D01*
X163897865Y-136004400D02*
X164088341Y-136099638D01*
X164088341Y-136099638D02*
X164469294Y-136099638D01*
X164469294Y-136099638D02*
X164659770Y-136004400D01*
X164659770Y-136004400D02*
X164755008Y-135813923D01*
X164755008Y-135813923D02*
X164755008Y-135052019D01*
X164755008Y-135052019D02*
X164659770Y-134861542D01*
X164659770Y-134861542D02*
X164469294Y-134766304D01*
X164469294Y-134766304D02*
X164088341Y-134766304D01*
X164088341Y-134766304D02*
X163897865Y-134861542D01*
X163897865Y-134861542D02*
X163802627Y-135052019D01*
X163802627Y-135052019D02*
X163802627Y-135242495D01*
X163802627Y-135242495D02*
X164755008Y-135432971D01*
X162945484Y-134766304D02*
X162945484Y-136099638D01*
X162945484Y-134956780D02*
X162850246Y-134861542D01*
X162850246Y-134861542D02*
X162659770Y-134766304D01*
X162659770Y-134766304D02*
X162374055Y-134766304D01*
X162374055Y-134766304D02*
X162183579Y-134861542D01*
X162183579Y-134861542D02*
X162088341Y-135052019D01*
X162088341Y-135052019D02*
X162088341Y-136099638D01*
X161421674Y-134766304D02*
X160659770Y-134766304D01*
X161135960Y-134099638D02*
X161135960Y-135813923D01*
X161135960Y-135813923D02*
X161040722Y-136004400D01*
X161040722Y-136004400D02*
X160850246Y-136099638D01*
X160850246Y-136099638D02*
X160659770Y-136099638D01*
X159135960Y-136099638D02*
X159135960Y-135052019D01*
X159135960Y-135052019D02*
X159231198Y-134861542D01*
X159231198Y-134861542D02*
X159421674Y-134766304D01*
X159421674Y-134766304D02*
X159802627Y-134766304D01*
X159802627Y-134766304D02*
X159993103Y-134861542D01*
X159135960Y-136004400D02*
X159326436Y-136099638D01*
X159326436Y-136099638D02*
X159802627Y-136099638D01*
X159802627Y-136099638D02*
X159993103Y-136004400D01*
X159993103Y-136004400D02*
X160088341Y-135813923D01*
X160088341Y-135813923D02*
X160088341Y-135623447D01*
X160088341Y-135623447D02*
X159993103Y-135432971D01*
X159993103Y-135432971D02*
X159802627Y-135337733D01*
X159802627Y-135337733D02*
X159326436Y-135337733D01*
X159326436Y-135337733D02*
X159135960Y-135242495D01*
X157897865Y-136099638D02*
X158088341Y-136004400D01*
X158088341Y-136004400D02*
X158183579Y-135813923D01*
X158183579Y-135813923D02*
X158183579Y-134099638D01*
X155612150Y-136099638D02*
X155612150Y-134099638D01*
X155612150Y-134099638D02*
X154850245Y-134099638D01*
X154850245Y-134099638D02*
X154659769Y-134194876D01*
X154659769Y-134194876D02*
X154564531Y-134290114D01*
X154564531Y-134290114D02*
X154469293Y-134480590D01*
X154469293Y-134480590D02*
X154469293Y-134766304D01*
X154469293Y-134766304D02*
X154564531Y-134956780D01*
X154564531Y-134956780D02*
X154659769Y-135052019D01*
X154659769Y-135052019D02*
X154850245Y-135147257D01*
X154850245Y-135147257D02*
X155612150Y-135147257D01*
X153612150Y-136099638D02*
X153612150Y-134099638D01*
X152755007Y-136099638D02*
X152755007Y-135052019D01*
X152755007Y-135052019D02*
X152850245Y-134861542D01*
X152850245Y-134861542D02*
X153040721Y-134766304D01*
X153040721Y-134766304D02*
X153326436Y-134766304D01*
X153326436Y-134766304D02*
X153516912Y-134861542D01*
X153516912Y-134861542D02*
X153612150Y-134956780D01*
X151993102Y-134766304D02*
X151516912Y-136099638D01*
X151040721Y-134766304D02*
X151516912Y-136099638D01*
X151516912Y-136099638D02*
X151707388Y-136575828D01*
X151707388Y-136575828D02*
X151802626Y-136671066D01*
X151802626Y-136671066D02*
X151993102Y-136766304D01*
X150374054Y-136004400D02*
X150183578Y-136099638D01*
X150183578Y-136099638D02*
X149802626Y-136099638D01*
X149802626Y-136099638D02*
X149612149Y-136004400D01*
X149612149Y-136004400D02*
X149516911Y-135813923D01*
X149516911Y-135813923D02*
X149516911Y-135718685D01*
X149516911Y-135718685D02*
X149612149Y-135528209D01*
X149612149Y-135528209D02*
X149802626Y-135432971D01*
X149802626Y-135432971D02*
X150088340Y-135432971D01*
X150088340Y-135432971D02*
X150278816Y-135337733D01*
X150278816Y-135337733D02*
X150374054Y-135147257D01*
X150374054Y-135147257D02*
X150374054Y-135052019D01*
X150374054Y-135052019D02*
X150278816Y-134861542D01*
X150278816Y-134861542D02*
X150088340Y-134766304D01*
X150088340Y-134766304D02*
X149802626Y-134766304D01*
X149802626Y-134766304D02*
X149612149Y-134861542D01*
X148659768Y-136099638D02*
X148659768Y-134766304D01*
X148659768Y-134099638D02*
X148755006Y-134194876D01*
X148755006Y-134194876D02*
X148659768Y-134290114D01*
X148659768Y-134290114D02*
X148564530Y-134194876D01*
X148564530Y-134194876D02*
X148659768Y-134099638D01*
X148659768Y-134099638D02*
X148659768Y-134290114D01*
X146850244Y-136004400D02*
X147040720Y-136099638D01*
X147040720Y-136099638D02*
X147421673Y-136099638D01*
X147421673Y-136099638D02*
X147612149Y-136004400D01*
X147612149Y-136004400D02*
X147707387Y-135909161D01*
X147707387Y-135909161D02*
X147802625Y-135718685D01*
X147802625Y-135718685D02*
X147802625Y-135147257D01*
X147802625Y-135147257D02*
X147707387Y-134956780D01*
X147707387Y-134956780D02*
X147612149Y-134861542D01*
X147612149Y-134861542D02*
X147421673Y-134766304D01*
X147421673Y-134766304D02*
X147040720Y-134766304D01*
X147040720Y-134766304D02*
X146850244Y-134861542D01*
X146088339Y-136004400D02*
X145897863Y-136099638D01*
X145897863Y-136099638D02*
X145516911Y-136099638D01*
X145516911Y-136099638D02*
X145326434Y-136004400D01*
X145326434Y-136004400D02*
X145231196Y-135813923D01*
X145231196Y-135813923D02*
X145231196Y-135718685D01*
X145231196Y-135718685D02*
X145326434Y-135528209D01*
X145326434Y-135528209D02*
X145516911Y-135432971D01*
X145516911Y-135432971D02*
X145802625Y-135432971D01*
X145802625Y-135432971D02*
X145993101Y-135337733D01*
X145993101Y-135337733D02*
X146088339Y-135147257D01*
X146088339Y-135147257D02*
X146088339Y-135052019D01*
X146088339Y-135052019D02*
X145993101Y-134861542D01*
X145993101Y-134861542D02*
X145802625Y-134766304D01*
X145802625Y-134766304D02*
X145516911Y-134766304D01*
X145516911Y-134766304D02*
X145326434Y-134861542D01*
X142469291Y-134099638D02*
X142088338Y-134099638D01*
X142088338Y-134099638D02*
X141897862Y-134194876D01*
X141897862Y-134194876D02*
X141707386Y-134385352D01*
X141707386Y-134385352D02*
X141612148Y-134766304D01*
X141612148Y-134766304D02*
X141612148Y-135432971D01*
X141612148Y-135432971D02*
X141707386Y-135813923D01*
X141707386Y-135813923D02*
X141897862Y-136004400D01*
X141897862Y-136004400D02*
X142088338Y-136099638D01*
X142088338Y-136099638D02*
X142469291Y-136099638D01*
X142469291Y-136099638D02*
X142659767Y-136004400D01*
X142659767Y-136004400D02*
X142850243Y-135813923D01*
X142850243Y-135813923D02*
X142945481Y-135432971D01*
X142945481Y-135432971D02*
X142945481Y-134766304D01*
X142945481Y-134766304D02*
X142850243Y-134385352D01*
X142850243Y-134385352D02*
X142659767Y-134194876D01*
X142659767Y-134194876D02*
X142469291Y-134099638D01*
X140469291Y-136099638D02*
X140659767Y-136004400D01*
X140659767Y-136004400D02*
X140755005Y-135813923D01*
X140755005Y-135813923D02*
X140755005Y-134099638D01*
X139897862Y-134766304D02*
X139421672Y-136099638D01*
X138945481Y-134766304D02*
X139421672Y-136099638D01*
X139421672Y-136099638D02*
X139612148Y-136575828D01*
X139612148Y-136575828D02*
X139707386Y-136671066D01*
X139707386Y-136671066D02*
X139897862Y-136766304D01*
X138183576Y-136099638D02*
X138183576Y-134766304D01*
X138183576Y-134956780D02*
X138088338Y-134861542D01*
X138088338Y-134861542D02*
X137897862Y-134766304D01*
X137897862Y-134766304D02*
X137612147Y-134766304D01*
X137612147Y-134766304D02*
X137421671Y-134861542D01*
X137421671Y-134861542D02*
X137326433Y-135052019D01*
X137326433Y-135052019D02*
X137326433Y-136099638D01*
X137326433Y-135052019D02*
X137231195Y-134861542D01*
X137231195Y-134861542D02*
X137040719Y-134766304D01*
X137040719Y-134766304D02*
X136755005Y-134766304D01*
X136755005Y-134766304D02*
X136564528Y-134861542D01*
X136564528Y-134861542D02*
X136469290Y-135052019D01*
X136469290Y-135052019D02*
X136469290Y-136099638D01*
X135516909Y-134766304D02*
X135516909Y-136766304D01*
X135516909Y-134861542D02*
X135326433Y-134766304D01*
X135326433Y-134766304D02*
X134945480Y-134766304D01*
X134945480Y-134766304D02*
X134755004Y-134861542D01*
X134755004Y-134861542D02*
X134659766Y-134956780D01*
X134659766Y-134956780D02*
X134564528Y-135147257D01*
X134564528Y-135147257D02*
X134564528Y-135718685D01*
X134564528Y-135718685D02*
X134659766Y-135909161D01*
X134659766Y-135909161D02*
X134755004Y-136004400D01*
X134755004Y-136004400D02*
X134945480Y-136099638D01*
X134945480Y-136099638D02*
X135326433Y-136099638D01*
X135326433Y-136099638D02*
X135516909Y-136004400D01*
X133707385Y-136099638D02*
X133707385Y-134766304D01*
X133707385Y-134099638D02*
X133802623Y-134194876D01*
X133802623Y-134194876D02*
X133707385Y-134290114D01*
X133707385Y-134290114D02*
X133612147Y-134194876D01*
X133612147Y-134194876D02*
X133707385Y-134099638D01*
X133707385Y-134099638D02*
X133707385Y-134290114D01*
X131897861Y-136099638D02*
X131897861Y-135052019D01*
X131897861Y-135052019D02*
X131993099Y-134861542D01*
X131993099Y-134861542D02*
X132183575Y-134766304D01*
X132183575Y-134766304D02*
X132564528Y-134766304D01*
X132564528Y-134766304D02*
X132755004Y-134861542D01*
X131897861Y-136004400D02*
X132088337Y-136099638D01*
X132088337Y-136099638D02*
X132564528Y-136099638D01*
X132564528Y-136099638D02*
X132755004Y-136004400D01*
X132755004Y-136004400D02*
X132850242Y-135813923D01*
X132850242Y-135813923D02*
X132850242Y-135623447D01*
X132850242Y-135623447D02*
X132755004Y-135432971D01*
X132755004Y-135432971D02*
X132564528Y-135337733D01*
X132564528Y-135337733D02*
X132088337Y-135337733D01*
X132088337Y-135337733D02*
X131897861Y-135242495D01*
X130088337Y-136099638D02*
X130088337Y-134099638D01*
X130088337Y-136004400D02*
X130278813Y-136099638D01*
X130278813Y-136099638D02*
X130659766Y-136099638D01*
X130659766Y-136099638D02*
X130850242Y-136004400D01*
X130850242Y-136004400D02*
X130945480Y-135909161D01*
X130945480Y-135909161D02*
X131040718Y-135718685D01*
X131040718Y-135718685D02*
X131040718Y-135147257D01*
X131040718Y-135147257D02*
X130945480Y-134956780D01*
X130945480Y-134956780D02*
X130850242Y-134861542D01*
X130850242Y-134861542D02*
X130659766Y-134766304D01*
X130659766Y-134766304D02*
X130278813Y-134766304D01*
X130278813Y-134766304D02*
X130088337Y-134861542D01*
X127040717Y-136861542D02*
X127135956Y-136766304D01*
X127135956Y-136766304D02*
X127326432Y-136480590D01*
X127326432Y-136480590D02*
X127421670Y-136290114D01*
X127421670Y-136290114D02*
X127516908Y-136004400D01*
X127516908Y-136004400D02*
X127612146Y-135528209D01*
X127612146Y-135528209D02*
X127612146Y-135147257D01*
X127612146Y-135147257D02*
X127516908Y-134671066D01*
X127516908Y-134671066D02*
X127421670Y-134385352D01*
X127421670Y-134385352D02*
X127326432Y-134194876D01*
X127326432Y-134194876D02*
X127135956Y-133909161D01*
X127135956Y-133909161D02*
X127040717Y-133813923D01*
X126374051Y-134290114D02*
X126278813Y-134194876D01*
X126278813Y-134194876D02*
X126088337Y-134099638D01*
X126088337Y-134099638D02*
X125612146Y-134099638D01*
X125612146Y-134099638D02*
X125421670Y-134194876D01*
X125421670Y-134194876D02*
X125326432Y-134290114D01*
X125326432Y-134290114D02*
X125231194Y-134480590D01*
X125231194Y-134480590D02*
X125231194Y-134671066D01*
X125231194Y-134671066D02*
X125326432Y-134956780D01*
X125326432Y-134956780D02*
X126469289Y-136099638D01*
X126469289Y-136099638D02*
X125231194Y-136099638D01*
X123993099Y-134099638D02*
X123802622Y-134099638D01*
X123802622Y-134099638D02*
X123612146Y-134194876D01*
X123612146Y-134194876D02*
X123516908Y-134290114D01*
X123516908Y-134290114D02*
X123421670Y-134480590D01*
X123421670Y-134480590D02*
X123326432Y-134861542D01*
X123326432Y-134861542D02*
X123326432Y-135337733D01*
X123326432Y-135337733D02*
X123421670Y-135718685D01*
X123421670Y-135718685D02*
X123516908Y-135909161D01*
X123516908Y-135909161D02*
X123612146Y-136004400D01*
X123612146Y-136004400D02*
X123802622Y-136099638D01*
X123802622Y-136099638D02*
X123993099Y-136099638D01*
X123993099Y-136099638D02*
X124183575Y-136004400D01*
X124183575Y-136004400D02*
X124278813Y-135909161D01*
X124278813Y-135909161D02*
X124374051Y-135718685D01*
X124374051Y-135718685D02*
X124469289Y-135337733D01*
X124469289Y-135337733D02*
X124469289Y-134861542D01*
X124469289Y-134861542D02*
X124374051Y-134480590D01*
X124374051Y-134480590D02*
X124278813Y-134290114D01*
X124278813Y-134290114D02*
X124183575Y-134194876D01*
X124183575Y-134194876D02*
X123993099Y-134099638D01*
X121421670Y-136099638D02*
X122564527Y-136099638D01*
X121993099Y-136099638D02*
X121993099Y-134099638D01*
X121993099Y-134099638D02*
X122183575Y-134385352D01*
X122183575Y-134385352D02*
X122374051Y-134575828D01*
X122374051Y-134575828D02*
X122564527Y-134671066D01*
X120755003Y-134099638D02*
X119421670Y-134099638D01*
X119421670Y-134099638D02*
X120278813Y-136099638D01*
X118850241Y-136861542D02*
X118755003Y-136766304D01*
X118755003Y-136766304D02*
X118564527Y-136480590D01*
X118564527Y-136480590D02*
X118469289Y-136290114D01*
X118469289Y-136290114D02*
X118374051Y-136004400D01*
X118374051Y-136004400D02*
X118278813Y-135528209D01*
X118278813Y-135528209D02*
X118278813Y-135147257D01*
X118278813Y-135147257D02*
X118374051Y-134671066D01*
X118374051Y-134671066D02*
X118469289Y-134385352D01*
X118469289Y-134385352D02*
X118564527Y-134194876D01*
X118564527Y-134194876D02*
X118755003Y-133909161D01*
X118755003Y-133909161D02*
X118850241Y-133813923D01*
X219421679Y-138748209D02*
X218469298Y-138748209D01*
X219612155Y-139319638D02*
X218945489Y-137319638D01*
X218945489Y-137319638D02*
X218278822Y-139319638D01*
X216755012Y-139319638D02*
X216755012Y-137319638D01*
X216755012Y-139224400D02*
X216945488Y-139319638D01*
X216945488Y-139319638D02*
X217326441Y-139319638D01*
X217326441Y-139319638D02*
X217516917Y-139224400D01*
X217516917Y-139224400D02*
X217612155Y-139129161D01*
X217612155Y-139129161D02*
X217707393Y-138938685D01*
X217707393Y-138938685D02*
X217707393Y-138367257D01*
X217707393Y-138367257D02*
X217612155Y-138176780D01*
X217612155Y-138176780D02*
X217516917Y-138081542D01*
X217516917Y-138081542D02*
X217326441Y-137986304D01*
X217326441Y-137986304D02*
X216945488Y-137986304D01*
X216945488Y-137986304D02*
X216755012Y-138081542D01*
X214945488Y-139319638D02*
X214945488Y-138272019D01*
X214945488Y-138272019D02*
X215040726Y-138081542D01*
X215040726Y-138081542D02*
X215231202Y-137986304D01*
X215231202Y-137986304D02*
X215612155Y-137986304D01*
X215612155Y-137986304D02*
X215802631Y-138081542D01*
X214945488Y-139224400D02*
X215135964Y-139319638D01*
X215135964Y-139319638D02*
X215612155Y-139319638D01*
X215612155Y-139319638D02*
X215802631Y-139224400D01*
X215802631Y-139224400D02*
X215897869Y-139033923D01*
X215897869Y-139033923D02*
X215897869Y-138843447D01*
X215897869Y-138843447D02*
X215802631Y-138652971D01*
X215802631Y-138652971D02*
X215612155Y-138557733D01*
X215612155Y-138557733D02*
X215135964Y-138557733D01*
X215135964Y-138557733D02*
X214945488Y-138462495D01*
X213993107Y-137986304D02*
X213993107Y-139986304D01*
X213993107Y-138081542D02*
X213802631Y-137986304D01*
X213802631Y-137986304D02*
X213421678Y-137986304D01*
X213421678Y-137986304D02*
X213231202Y-138081542D01*
X213231202Y-138081542D02*
X213135964Y-138176780D01*
X213135964Y-138176780D02*
X213040726Y-138367257D01*
X213040726Y-138367257D02*
X213040726Y-138938685D01*
X213040726Y-138938685D02*
X213135964Y-139129161D01*
X213135964Y-139129161D02*
X213231202Y-139224400D01*
X213231202Y-139224400D02*
X213421678Y-139319638D01*
X213421678Y-139319638D02*
X213802631Y-139319638D01*
X213802631Y-139319638D02*
X213993107Y-139224400D01*
X212469297Y-137986304D02*
X211707393Y-137986304D01*
X212183583Y-137319638D02*
X212183583Y-139033923D01*
X212183583Y-139033923D02*
X212088345Y-139224400D01*
X212088345Y-139224400D02*
X211897869Y-139319638D01*
X211897869Y-139319638D02*
X211707393Y-139319638D01*
X210278821Y-139224400D02*
X210469297Y-139319638D01*
X210469297Y-139319638D02*
X210850250Y-139319638D01*
X210850250Y-139319638D02*
X211040726Y-139224400D01*
X211040726Y-139224400D02*
X211135964Y-139033923D01*
X211135964Y-139033923D02*
X211135964Y-138272019D01*
X211135964Y-138272019D02*
X211040726Y-138081542D01*
X211040726Y-138081542D02*
X210850250Y-137986304D01*
X210850250Y-137986304D02*
X210469297Y-137986304D01*
X210469297Y-137986304D02*
X210278821Y-138081542D01*
X210278821Y-138081542D02*
X210183583Y-138272019D01*
X210183583Y-138272019D02*
X210183583Y-138462495D01*
X210183583Y-138462495D02*
X211135964Y-138652971D01*
X208469297Y-139319638D02*
X208469297Y-137319638D01*
X208469297Y-139224400D02*
X208659773Y-139319638D01*
X208659773Y-139319638D02*
X209040726Y-139319638D01*
X209040726Y-139319638D02*
X209231202Y-139224400D01*
X209231202Y-139224400D02*
X209326440Y-139129161D01*
X209326440Y-139129161D02*
X209421678Y-138938685D01*
X209421678Y-138938685D02*
X209421678Y-138367257D01*
X209421678Y-138367257D02*
X209326440Y-138176780D01*
X209326440Y-138176780D02*
X209231202Y-138081542D01*
X209231202Y-138081542D02*
X209040726Y-137986304D01*
X209040726Y-137986304D02*
X208659773Y-137986304D01*
X208659773Y-137986304D02*
X208469297Y-138081542D01*
X205993106Y-139319638D02*
X205993106Y-137319638D01*
X205993106Y-138081542D02*
X205802630Y-137986304D01*
X205802630Y-137986304D02*
X205421677Y-137986304D01*
X205421677Y-137986304D02*
X205231201Y-138081542D01*
X205231201Y-138081542D02*
X205135963Y-138176780D01*
X205135963Y-138176780D02*
X205040725Y-138367257D01*
X205040725Y-138367257D02*
X205040725Y-138938685D01*
X205040725Y-138938685D02*
X205135963Y-139129161D01*
X205135963Y-139129161D02*
X205231201Y-139224400D01*
X205231201Y-139224400D02*
X205421677Y-139319638D01*
X205421677Y-139319638D02*
X205802630Y-139319638D01*
X205802630Y-139319638D02*
X205993106Y-139224400D01*
X204374058Y-137986304D02*
X203897868Y-139319638D01*
X203421677Y-137986304D02*
X203897868Y-139319638D01*
X203897868Y-139319638D02*
X204088344Y-139795828D01*
X204088344Y-139795828D02*
X204183582Y-139891066D01*
X204183582Y-139891066D02*
X204374058Y-139986304D01*
X202659772Y-139129161D02*
X202564534Y-139224400D01*
X202564534Y-139224400D02*
X202659772Y-139319638D01*
X202659772Y-139319638D02*
X202755010Y-139224400D01*
X202755010Y-139224400D02*
X202659772Y-139129161D01*
X202659772Y-139129161D02*
X202659772Y-139319638D01*
X202659772Y-138081542D02*
X202564534Y-138176780D01*
X202564534Y-138176780D02*
X202659772Y-138272019D01*
X202659772Y-138272019D02*
X202755010Y-138176780D01*
X202755010Y-138176780D02*
X202659772Y-138081542D01*
X202659772Y-138081542D02*
X202659772Y-138272019D01*
X199040724Y-139129161D02*
X199135962Y-139224400D01*
X199135962Y-139224400D02*
X199421676Y-139319638D01*
X199421676Y-139319638D02*
X199612152Y-139319638D01*
X199612152Y-139319638D02*
X199897867Y-139224400D01*
X199897867Y-139224400D02*
X200088343Y-139033923D01*
X200088343Y-139033923D02*
X200183581Y-138843447D01*
X200183581Y-138843447D02*
X200278819Y-138462495D01*
X200278819Y-138462495D02*
X200278819Y-138176780D01*
X200278819Y-138176780D02*
X200183581Y-137795828D01*
X200183581Y-137795828D02*
X200088343Y-137605352D01*
X200088343Y-137605352D02*
X199897867Y-137414876D01*
X199897867Y-137414876D02*
X199612152Y-137319638D01*
X199612152Y-137319638D02*
X199421676Y-137319638D01*
X199421676Y-137319638D02*
X199135962Y-137414876D01*
X199135962Y-137414876D02*
X199040724Y-137510114D01*
X197326438Y-139319638D02*
X197326438Y-138272019D01*
X197326438Y-138272019D02*
X197421676Y-138081542D01*
X197421676Y-138081542D02*
X197612152Y-137986304D01*
X197612152Y-137986304D02*
X197993105Y-137986304D01*
X197993105Y-137986304D02*
X198183581Y-138081542D01*
X197326438Y-139224400D02*
X197516914Y-139319638D01*
X197516914Y-139319638D02*
X197993105Y-139319638D01*
X197993105Y-139319638D02*
X198183581Y-139224400D01*
X198183581Y-139224400D02*
X198278819Y-139033923D01*
X198278819Y-139033923D02*
X198278819Y-138843447D01*
X198278819Y-138843447D02*
X198183581Y-138652971D01*
X198183581Y-138652971D02*
X197993105Y-138557733D01*
X197993105Y-138557733D02*
X197516914Y-138557733D01*
X197516914Y-138557733D02*
X197326438Y-138462495D01*
X196374057Y-139319638D02*
X196374057Y-137986304D01*
X196374057Y-138367257D02*
X196278819Y-138176780D01*
X196278819Y-138176780D02*
X196183581Y-138081542D01*
X196183581Y-138081542D02*
X195993105Y-137986304D01*
X195993105Y-137986304D02*
X195802628Y-137986304D01*
X194850248Y-139319638D02*
X195040724Y-139224400D01*
X195040724Y-139224400D02*
X195135962Y-139033923D01*
X195135962Y-139033923D02*
X195135962Y-137319638D01*
X193802629Y-139319638D02*
X193993105Y-139224400D01*
X193993105Y-139224400D02*
X194088343Y-139129161D01*
X194088343Y-139129161D02*
X194183581Y-138938685D01*
X194183581Y-138938685D02*
X194183581Y-138367257D01*
X194183581Y-138367257D02*
X194088343Y-138176780D01*
X194088343Y-138176780D02*
X193993105Y-138081542D01*
X193993105Y-138081542D02*
X193802629Y-137986304D01*
X193802629Y-137986304D02*
X193516914Y-137986304D01*
X193516914Y-137986304D02*
X193326438Y-138081542D01*
X193326438Y-138081542D02*
X193231200Y-138176780D01*
X193231200Y-138176780D02*
X193135962Y-138367257D01*
X193135962Y-138367257D02*
X193135962Y-138938685D01*
X193135962Y-138938685D02*
X193231200Y-139129161D01*
X193231200Y-139129161D02*
X193326438Y-139224400D01*
X193326438Y-139224400D02*
X193516914Y-139319638D01*
X193516914Y-139319638D02*
X193802629Y-139319638D01*
X192374057Y-139224400D02*
X192183581Y-139319638D01*
X192183581Y-139319638D02*
X191802629Y-139319638D01*
X191802629Y-139319638D02*
X191612152Y-139224400D01*
X191612152Y-139224400D02*
X191516914Y-139033923D01*
X191516914Y-139033923D02*
X191516914Y-138938685D01*
X191516914Y-138938685D02*
X191612152Y-138748209D01*
X191612152Y-138748209D02*
X191802629Y-138652971D01*
X191802629Y-138652971D02*
X192088343Y-138652971D01*
X192088343Y-138652971D02*
X192278819Y-138557733D01*
X192278819Y-138557733D02*
X192374057Y-138367257D01*
X192374057Y-138367257D02*
X192374057Y-138272019D01*
X192374057Y-138272019D02*
X192278819Y-138081542D01*
X192278819Y-138081542D02*
X192088343Y-137986304D01*
X192088343Y-137986304D02*
X191802629Y-137986304D01*
X191802629Y-137986304D02*
X191612152Y-138081542D01*
X189421675Y-137319638D02*
X188755009Y-139319638D01*
X188755009Y-139319638D02*
X188088342Y-137319638D01*
X186659770Y-139224400D02*
X186850246Y-139319638D01*
X186850246Y-139319638D02*
X187231199Y-139319638D01*
X187231199Y-139319638D02*
X187421675Y-139224400D01*
X187421675Y-139224400D02*
X187516913Y-139033923D01*
X187516913Y-139033923D02*
X187516913Y-138272019D01*
X187516913Y-138272019D02*
X187421675Y-138081542D01*
X187421675Y-138081542D02*
X187231199Y-137986304D01*
X187231199Y-137986304D02*
X186850246Y-137986304D01*
X186850246Y-137986304D02*
X186659770Y-138081542D01*
X186659770Y-138081542D02*
X186564532Y-138272019D01*
X186564532Y-138272019D02*
X186564532Y-138462495D01*
X186564532Y-138462495D02*
X187516913Y-138652971D01*
X185707389Y-139319638D02*
X185707389Y-137986304D01*
X185707389Y-138367257D02*
X185612151Y-138176780D01*
X185612151Y-138176780D02*
X185516913Y-138081542D01*
X185516913Y-138081542D02*
X185326437Y-137986304D01*
X185326437Y-137986304D02*
X185135960Y-137986304D01*
X183612151Y-139319638D02*
X183612151Y-138272019D01*
X183612151Y-138272019D02*
X183707389Y-138081542D01*
X183707389Y-138081542D02*
X183897865Y-137986304D01*
X183897865Y-137986304D02*
X184278818Y-137986304D01*
X184278818Y-137986304D02*
X184469294Y-138081542D01*
X183612151Y-139224400D02*
X183802627Y-139319638D01*
X183802627Y-139319638D02*
X184278818Y-139319638D01*
X184278818Y-139319638D02*
X184469294Y-139224400D01*
X184469294Y-139224400D02*
X184564532Y-139033923D01*
X184564532Y-139033923D02*
X184564532Y-138843447D01*
X184564532Y-138843447D02*
X184469294Y-138652971D01*
X184469294Y-138652971D02*
X184278818Y-138557733D01*
X184278818Y-138557733D02*
X183802627Y-138557733D01*
X183802627Y-138557733D02*
X183612151Y-138462495D01*
X182755008Y-139224400D02*
X182564532Y-139319638D01*
X182564532Y-139319638D02*
X182183580Y-139319638D01*
X182183580Y-139319638D02*
X181993103Y-139224400D01*
X181993103Y-139224400D02*
X181897865Y-139033923D01*
X181897865Y-139033923D02*
X181897865Y-138938685D01*
X181897865Y-138938685D02*
X181993103Y-138748209D01*
X181993103Y-138748209D02*
X182183580Y-138652971D01*
X182183580Y-138652971D02*
X182469294Y-138652971D01*
X182469294Y-138652971D02*
X182659770Y-138557733D01*
X182659770Y-138557733D02*
X182755008Y-138367257D01*
X182755008Y-138367257D02*
X182755008Y-138272019D01*
X182755008Y-138272019D02*
X182659770Y-138081542D01*
X182659770Y-138081542D02*
X182469294Y-137986304D01*
X182469294Y-137986304D02*
X182183580Y-137986304D01*
X182183580Y-137986304D02*
X181993103Y-138081542D01*
X178945483Y-140081542D02*
X179040722Y-139986304D01*
X179040722Y-139986304D02*
X179231198Y-139700590D01*
X179231198Y-139700590D02*
X179326436Y-139510114D01*
X179326436Y-139510114D02*
X179421674Y-139224400D01*
X179421674Y-139224400D02*
X179516912Y-138748209D01*
X179516912Y-138748209D02*
X179516912Y-138367257D01*
X179516912Y-138367257D02*
X179421674Y-137891066D01*
X179421674Y-137891066D02*
X179326436Y-137605352D01*
X179326436Y-137605352D02*
X179231198Y-137414876D01*
X179231198Y-137414876D02*
X179040722Y-137129161D01*
X179040722Y-137129161D02*
X178945483Y-137033923D01*
X176945484Y-138367257D02*
X177040722Y-138272019D01*
X177040722Y-138272019D02*
X177231198Y-138176780D01*
X177231198Y-138176780D02*
X177421674Y-138176780D01*
X177421674Y-138176780D02*
X177612150Y-138272019D01*
X177612150Y-138272019D02*
X177707389Y-138367257D01*
X177707389Y-138367257D02*
X177802627Y-138557733D01*
X177802627Y-138557733D02*
X177802627Y-138748209D01*
X177802627Y-138748209D02*
X177707389Y-138938685D01*
X177707389Y-138938685D02*
X177612150Y-139033923D01*
X177612150Y-139033923D02*
X177421674Y-139129161D01*
X177421674Y-139129161D02*
X177231198Y-139129161D01*
X177231198Y-139129161D02*
X177040722Y-139033923D01*
X177040722Y-139033923D02*
X176945484Y-138938685D01*
X176945484Y-138176780D02*
X176945484Y-138938685D01*
X176945484Y-138938685D02*
X176850246Y-139033923D01*
X176850246Y-139033923D02*
X176755008Y-139033923D01*
X176755008Y-139033923D02*
X176564531Y-138938685D01*
X176564531Y-138938685D02*
X176469293Y-138748209D01*
X176469293Y-138748209D02*
X176469293Y-138272019D01*
X176469293Y-138272019D02*
X176659770Y-137986304D01*
X176659770Y-137986304D02*
X176945484Y-137795828D01*
X176945484Y-137795828D02*
X177326436Y-137700590D01*
X177326436Y-137700590D02*
X177707389Y-137795828D01*
X177707389Y-137795828D02*
X177993103Y-137986304D01*
X177993103Y-137986304D02*
X178183579Y-138272019D01*
X178183579Y-138272019D02*
X178278817Y-138652971D01*
X178278817Y-138652971D02*
X178183579Y-139033923D01*
X178183579Y-139033923D02*
X177993103Y-139319638D01*
X177993103Y-139319638D02*
X177707389Y-139510114D01*
X177707389Y-139510114D02*
X177326436Y-139605352D01*
X177326436Y-139605352D02*
X176945484Y-139510114D01*
X176945484Y-139510114D02*
X176659770Y-139319638D01*
X174469293Y-139129161D02*
X174564531Y-139224400D01*
X174564531Y-139224400D02*
X174850245Y-139319638D01*
X174850245Y-139319638D02*
X175040721Y-139319638D01*
X175040721Y-139319638D02*
X175326436Y-139224400D01*
X175326436Y-139224400D02*
X175516912Y-139033923D01*
X175516912Y-139033923D02*
X175612150Y-138843447D01*
X175612150Y-138843447D02*
X175707388Y-138462495D01*
X175707388Y-138462495D02*
X175707388Y-138176780D01*
X175707388Y-138176780D02*
X175612150Y-137795828D01*
X175612150Y-137795828D02*
X175516912Y-137605352D01*
X175516912Y-137605352D02*
X175326436Y-137414876D01*
X175326436Y-137414876D02*
X175040721Y-137319638D01*
X175040721Y-137319638D02*
X174850245Y-137319638D01*
X174850245Y-137319638D02*
X174564531Y-137414876D01*
X174564531Y-137414876D02*
X174469293Y-137510114D01*
X172755007Y-139319638D02*
X172755007Y-138272019D01*
X172755007Y-138272019D02*
X172850245Y-138081542D01*
X172850245Y-138081542D02*
X173040721Y-137986304D01*
X173040721Y-137986304D02*
X173421674Y-137986304D01*
X173421674Y-137986304D02*
X173612150Y-138081542D01*
X172755007Y-139224400D02*
X172945483Y-139319638D01*
X172945483Y-139319638D02*
X173421674Y-139319638D01*
X173421674Y-139319638D02*
X173612150Y-139224400D01*
X173612150Y-139224400D02*
X173707388Y-139033923D01*
X173707388Y-139033923D02*
X173707388Y-138843447D01*
X173707388Y-138843447D02*
X173612150Y-138652971D01*
X173612150Y-138652971D02*
X173421674Y-138557733D01*
X173421674Y-138557733D02*
X172945483Y-138557733D01*
X172945483Y-138557733D02*
X172755007Y-138462495D01*
X171802626Y-139319638D02*
X171802626Y-137986304D01*
X171802626Y-138367257D02*
X171707388Y-138176780D01*
X171707388Y-138176780D02*
X171612150Y-138081542D01*
X171612150Y-138081542D02*
X171421674Y-137986304D01*
X171421674Y-137986304D02*
X171231197Y-137986304D01*
X170278817Y-139319638D02*
X170469293Y-139224400D01*
X170469293Y-139224400D02*
X170564531Y-139033923D01*
X170564531Y-139033923D02*
X170564531Y-137319638D01*
X169231198Y-139319638D02*
X169421674Y-139224400D01*
X169421674Y-139224400D02*
X169516912Y-139129161D01*
X169516912Y-139129161D02*
X169612150Y-138938685D01*
X169612150Y-138938685D02*
X169612150Y-138367257D01*
X169612150Y-138367257D02*
X169516912Y-138176780D01*
X169516912Y-138176780D02*
X169421674Y-138081542D01*
X169421674Y-138081542D02*
X169231198Y-137986304D01*
X169231198Y-137986304D02*
X168945483Y-137986304D01*
X168945483Y-137986304D02*
X168755007Y-138081542D01*
X168755007Y-138081542D02*
X168659769Y-138176780D01*
X168659769Y-138176780D02*
X168564531Y-138367257D01*
X168564531Y-138367257D02*
X168564531Y-138938685D01*
X168564531Y-138938685D02*
X168659769Y-139129161D01*
X168659769Y-139129161D02*
X168755007Y-139224400D01*
X168755007Y-139224400D02*
X168945483Y-139319638D01*
X168945483Y-139319638D02*
X169231198Y-139319638D01*
X167802626Y-139224400D02*
X167612150Y-139319638D01*
X167612150Y-139319638D02*
X167231198Y-139319638D01*
X167231198Y-139319638D02*
X167040721Y-139224400D01*
X167040721Y-139224400D02*
X166945483Y-139033923D01*
X166945483Y-139033923D02*
X166945483Y-138938685D01*
X166945483Y-138938685D02*
X167040721Y-138748209D01*
X167040721Y-138748209D02*
X167231198Y-138652971D01*
X167231198Y-138652971D02*
X167516912Y-138652971D01*
X167516912Y-138652971D02*
X167707388Y-138557733D01*
X167707388Y-138557733D02*
X167802626Y-138367257D01*
X167802626Y-138367257D02*
X167802626Y-138272019D01*
X167802626Y-138272019D02*
X167707388Y-138081542D01*
X167707388Y-138081542D02*
X167516912Y-137986304D01*
X167516912Y-137986304D02*
X167231198Y-137986304D01*
X167231198Y-137986304D02*
X167040721Y-138081542D01*
X164945483Y-139129161D02*
X165040721Y-139224400D01*
X165040721Y-139224400D02*
X165326435Y-139319638D01*
X165326435Y-139319638D02*
X165516911Y-139319638D01*
X165516911Y-139319638D02*
X165802626Y-139224400D01*
X165802626Y-139224400D02*
X165993102Y-139033923D01*
X165993102Y-139033923D02*
X166088340Y-138843447D01*
X166088340Y-138843447D02*
X166183578Y-138462495D01*
X166183578Y-138462495D02*
X166183578Y-138176780D01*
X166183578Y-138176780D02*
X166088340Y-137795828D01*
X166088340Y-137795828D02*
X165993102Y-137605352D01*
X165993102Y-137605352D02*
X165802626Y-137414876D01*
X165802626Y-137414876D02*
X165516911Y-137319638D01*
X165516911Y-137319638D02*
X165326435Y-137319638D01*
X165326435Y-137319638D02*
X165040721Y-137414876D01*
X165040721Y-137414876D02*
X164945483Y-137510114D01*
X164088340Y-139319638D02*
X164088340Y-137986304D01*
X164088340Y-138367257D02*
X163993102Y-138176780D01*
X163993102Y-138176780D02*
X163897864Y-138081542D01*
X163897864Y-138081542D02*
X163707388Y-137986304D01*
X163707388Y-137986304D02*
X163516911Y-137986304D01*
X161993102Y-139319638D02*
X161993102Y-138272019D01*
X161993102Y-138272019D02*
X162088340Y-138081542D01*
X162088340Y-138081542D02*
X162278816Y-137986304D01*
X162278816Y-137986304D02*
X162659769Y-137986304D01*
X162659769Y-137986304D02*
X162850245Y-138081542D01*
X161993102Y-139224400D02*
X162183578Y-139319638D01*
X162183578Y-139319638D02*
X162659769Y-139319638D01*
X162659769Y-139319638D02*
X162850245Y-139224400D01*
X162850245Y-139224400D02*
X162945483Y-139033923D01*
X162945483Y-139033923D02*
X162945483Y-138843447D01*
X162945483Y-138843447D02*
X162850245Y-138652971D01*
X162850245Y-138652971D02*
X162659769Y-138557733D01*
X162659769Y-138557733D02*
X162183578Y-138557733D01*
X162183578Y-138557733D02*
X161993102Y-138462495D01*
X161231197Y-137986304D02*
X160755007Y-139319638D01*
X160755007Y-139319638D02*
X160278816Y-137986304D01*
X158755006Y-139224400D02*
X158945482Y-139319638D01*
X158945482Y-139319638D02*
X159326435Y-139319638D01*
X159326435Y-139319638D02*
X159516911Y-139224400D01*
X159516911Y-139224400D02*
X159612149Y-139033923D01*
X159612149Y-139033923D02*
X159612149Y-138272019D01*
X159612149Y-138272019D02*
X159516911Y-138081542D01*
X159516911Y-138081542D02*
X159326435Y-137986304D01*
X159326435Y-137986304D02*
X158945482Y-137986304D01*
X158945482Y-137986304D02*
X158755006Y-138081542D01*
X158755006Y-138081542D02*
X158659768Y-138272019D01*
X158659768Y-138272019D02*
X158659768Y-138462495D01*
X158659768Y-138462495D02*
X159612149Y-138652971D01*
X157802625Y-139319638D02*
X157802625Y-137986304D01*
X157802625Y-137319638D02*
X157897863Y-137414876D01*
X157897863Y-137414876D02*
X157802625Y-137510114D01*
X157802625Y-137510114D02*
X157707387Y-137414876D01*
X157707387Y-137414876D02*
X157802625Y-137319638D01*
X157802625Y-137319638D02*
X157802625Y-137510114D01*
X156850244Y-139319638D02*
X156850244Y-137986304D01*
X156850244Y-138367257D02*
X156755006Y-138176780D01*
X156755006Y-138176780D02*
X156659768Y-138081542D01*
X156659768Y-138081542D02*
X156469292Y-137986304D01*
X156469292Y-137986304D02*
X156278815Y-137986304D01*
X155326435Y-139319638D02*
X155516911Y-139224400D01*
X155516911Y-139224400D02*
X155612149Y-139129161D01*
X155612149Y-139129161D02*
X155707387Y-138938685D01*
X155707387Y-138938685D02*
X155707387Y-138367257D01*
X155707387Y-138367257D02*
X155612149Y-138176780D01*
X155612149Y-138176780D02*
X155516911Y-138081542D01*
X155516911Y-138081542D02*
X155326435Y-137986304D01*
X155326435Y-137986304D02*
X155040720Y-137986304D01*
X155040720Y-137986304D02*
X154850244Y-138081542D01*
X154850244Y-138081542D02*
X154755006Y-138176780D01*
X154755006Y-138176780D02*
X154659768Y-138367257D01*
X154659768Y-138367257D02*
X154659768Y-138938685D01*
X154659768Y-138938685D02*
X154755006Y-139129161D01*
X154755006Y-139129161D02*
X154850244Y-139224400D01*
X154850244Y-139224400D02*
X155040720Y-139319638D01*
X155040720Y-139319638D02*
X155326435Y-139319638D01*
X152278815Y-138557733D02*
X150755006Y-138557733D01*
X148374053Y-137510114D02*
X148278815Y-137414876D01*
X148278815Y-137414876D02*
X148088339Y-137319638D01*
X148088339Y-137319638D02*
X147612148Y-137319638D01*
X147612148Y-137319638D02*
X147421672Y-137414876D01*
X147421672Y-137414876D02*
X147326434Y-137510114D01*
X147326434Y-137510114D02*
X147231196Y-137700590D01*
X147231196Y-137700590D02*
X147231196Y-137891066D01*
X147231196Y-137891066D02*
X147326434Y-138176780D01*
X147326434Y-138176780D02*
X148469291Y-139319638D01*
X148469291Y-139319638D02*
X147231196Y-139319638D01*
X145993101Y-137319638D02*
X145802624Y-137319638D01*
X145802624Y-137319638D02*
X145612148Y-137414876D01*
X145612148Y-137414876D02*
X145516910Y-137510114D01*
X145516910Y-137510114D02*
X145421672Y-137700590D01*
X145421672Y-137700590D02*
X145326434Y-138081542D01*
X145326434Y-138081542D02*
X145326434Y-138557733D01*
X145326434Y-138557733D02*
X145421672Y-138938685D01*
X145421672Y-138938685D02*
X145516910Y-139129161D01*
X145516910Y-139129161D02*
X145612148Y-139224400D01*
X145612148Y-139224400D02*
X145802624Y-139319638D01*
X145802624Y-139319638D02*
X145993101Y-139319638D01*
X145993101Y-139319638D02*
X146183577Y-139224400D01*
X146183577Y-139224400D02*
X146278815Y-139129161D01*
X146278815Y-139129161D02*
X146374053Y-138938685D01*
X146374053Y-138938685D02*
X146469291Y-138557733D01*
X146469291Y-138557733D02*
X146469291Y-138081542D01*
X146469291Y-138081542D02*
X146374053Y-137700590D01*
X146374053Y-137700590D02*
X146278815Y-137510114D01*
X146278815Y-137510114D02*
X146183577Y-137414876D01*
X146183577Y-137414876D02*
X145993101Y-137319638D01*
X144564529Y-137510114D02*
X144469291Y-137414876D01*
X144469291Y-137414876D02*
X144278815Y-137319638D01*
X144278815Y-137319638D02*
X143802624Y-137319638D01*
X143802624Y-137319638D02*
X143612148Y-137414876D01*
X143612148Y-137414876D02*
X143516910Y-137510114D01*
X143516910Y-137510114D02*
X143421672Y-137700590D01*
X143421672Y-137700590D02*
X143421672Y-137891066D01*
X143421672Y-137891066D02*
X143516910Y-138176780D01*
X143516910Y-138176780D02*
X144659767Y-139319638D01*
X144659767Y-139319638D02*
X143421672Y-139319638D01*
X141707386Y-137986304D02*
X141707386Y-139319638D01*
X142183577Y-137224400D02*
X142659767Y-138652971D01*
X142659767Y-138652971D02*
X141421672Y-138652971D01*
X140850243Y-140081542D02*
X140755005Y-139986304D01*
X140755005Y-139986304D02*
X140564529Y-139700590D01*
X140564529Y-139700590D02*
X140469291Y-139510114D01*
X140469291Y-139510114D02*
X140374053Y-139224400D01*
X140374053Y-139224400D02*
X140278815Y-138748209D01*
X140278815Y-138748209D02*
X140278815Y-138367257D01*
X140278815Y-138367257D02*
X140374053Y-137891066D01*
X140374053Y-137891066D02*
X140469291Y-137605352D01*
X140469291Y-137605352D02*
X140564529Y-137414876D01*
X140564529Y-137414876D02*
X140755005Y-137129161D01*
X140755005Y-137129161D02*
X140850243Y-137033923D01*
X218278822Y-140634876D02*
X218469298Y-140539638D01*
X218469298Y-140539638D02*
X218755012Y-140539638D01*
X218755012Y-140539638D02*
X219040727Y-140634876D01*
X219040727Y-140634876D02*
X219231203Y-140825352D01*
X219231203Y-140825352D02*
X219326441Y-141015828D01*
X219326441Y-141015828D02*
X219421679Y-141396780D01*
X219421679Y-141396780D02*
X219421679Y-141682495D01*
X219421679Y-141682495D02*
X219326441Y-142063447D01*
X219326441Y-142063447D02*
X219231203Y-142253923D01*
X219231203Y-142253923D02*
X219040727Y-142444400D01*
X219040727Y-142444400D02*
X218755012Y-142539638D01*
X218755012Y-142539638D02*
X218564536Y-142539638D01*
X218564536Y-142539638D02*
X218278822Y-142444400D01*
X218278822Y-142444400D02*
X218183584Y-142349161D01*
X218183584Y-142349161D02*
X218183584Y-141682495D01*
X218183584Y-141682495D02*
X218564536Y-141682495D01*
X217326441Y-142539638D02*
X217326441Y-141206304D01*
X217326441Y-140539638D02*
X217421679Y-140634876D01*
X217421679Y-140634876D02*
X217326441Y-140730114D01*
X217326441Y-140730114D02*
X217231203Y-140634876D01*
X217231203Y-140634876D02*
X217326441Y-140539638D01*
X217326441Y-140539638D02*
X217326441Y-140730114D01*
X216659774Y-141206304D02*
X215897870Y-141206304D01*
X216374060Y-140539638D02*
X216374060Y-142253923D01*
X216374060Y-142253923D02*
X216278822Y-142444400D01*
X216278822Y-142444400D02*
X216088346Y-142539638D01*
X216088346Y-142539638D02*
X215897870Y-142539638D01*
X215231203Y-142539638D02*
X215231203Y-140539638D01*
X215231203Y-141492019D02*
X214088346Y-141492019D01*
X214088346Y-142539638D02*
X214088346Y-140539638D01*
X212278822Y-141206304D02*
X212278822Y-142539638D01*
X213135965Y-141206304D02*
X213135965Y-142253923D01*
X213135965Y-142253923D02*
X213040727Y-142444400D01*
X213040727Y-142444400D02*
X212850251Y-142539638D01*
X212850251Y-142539638D02*
X212564536Y-142539638D01*
X212564536Y-142539638D02*
X212374060Y-142444400D01*
X212374060Y-142444400D02*
X212278822Y-142349161D01*
X211326441Y-142539638D02*
X211326441Y-140539638D01*
X211326441Y-141301542D02*
X211135965Y-141206304D01*
X211135965Y-141206304D02*
X210755012Y-141206304D01*
X210755012Y-141206304D02*
X210564536Y-141301542D01*
X210564536Y-141301542D02*
X210469298Y-141396780D01*
X210469298Y-141396780D02*
X210374060Y-141587257D01*
X210374060Y-141587257D02*
X210374060Y-142158685D01*
X210374060Y-142158685D02*
X210469298Y-142349161D01*
X210469298Y-142349161D02*
X210564536Y-142444400D01*
X210564536Y-142444400D02*
X210755012Y-142539638D01*
X210755012Y-142539638D02*
X211135965Y-142539638D01*
X211135965Y-142539638D02*
X211326441Y-142444400D01*
X209516917Y-142349161D02*
X209421679Y-142444400D01*
X209421679Y-142444400D02*
X209516917Y-142539638D01*
X209516917Y-142539638D02*
X209612155Y-142444400D01*
X209612155Y-142444400D02*
X209516917Y-142349161D01*
X209516917Y-142349161D02*
X209516917Y-142539638D01*
X209516917Y-141301542D02*
X209421679Y-141396780D01*
X209421679Y-141396780D02*
X209516917Y-141492019D01*
X209516917Y-141492019D02*
X209612155Y-141396780D01*
X209612155Y-141396780D02*
X209516917Y-141301542D01*
X209516917Y-141301542D02*
X209516917Y-141492019D01*
X207040726Y-142539638D02*
X207040726Y-140539638D01*
X206183583Y-142539638D02*
X206183583Y-141492019D01*
X206183583Y-141492019D02*
X206278821Y-141301542D01*
X206278821Y-141301542D02*
X206469297Y-141206304D01*
X206469297Y-141206304D02*
X206755012Y-141206304D01*
X206755012Y-141206304D02*
X206945488Y-141301542D01*
X206945488Y-141301542D02*
X207040726Y-141396780D01*
X205516916Y-141206304D02*
X204755012Y-141206304D01*
X205231202Y-140539638D02*
X205231202Y-142253923D01*
X205231202Y-142253923D02*
X205135964Y-142444400D01*
X205135964Y-142444400D02*
X204945488Y-142539638D01*
X204945488Y-142539638D02*
X204755012Y-142539638D01*
X204374059Y-141206304D02*
X203612155Y-141206304D01*
X204088345Y-140539638D02*
X204088345Y-142253923D01*
X204088345Y-142253923D02*
X203993107Y-142444400D01*
X203993107Y-142444400D02*
X203802631Y-142539638D01*
X203802631Y-142539638D02*
X203612155Y-142539638D01*
X202945488Y-141206304D02*
X202945488Y-143206304D01*
X202945488Y-141301542D02*
X202755012Y-141206304D01*
X202755012Y-141206304D02*
X202374059Y-141206304D01*
X202374059Y-141206304D02*
X202183583Y-141301542D01*
X202183583Y-141301542D02*
X202088345Y-141396780D01*
X202088345Y-141396780D02*
X201993107Y-141587257D01*
X201993107Y-141587257D02*
X201993107Y-142158685D01*
X201993107Y-142158685D02*
X202088345Y-142349161D01*
X202088345Y-142349161D02*
X202183583Y-142444400D01*
X202183583Y-142444400D02*
X202374059Y-142539638D01*
X202374059Y-142539638D02*
X202755012Y-142539638D01*
X202755012Y-142539638D02*
X202945488Y-142444400D01*
X201231202Y-142444400D02*
X201040726Y-142539638D01*
X201040726Y-142539638D02*
X200659774Y-142539638D01*
X200659774Y-142539638D02*
X200469297Y-142444400D01*
X200469297Y-142444400D02*
X200374059Y-142253923D01*
X200374059Y-142253923D02*
X200374059Y-142158685D01*
X200374059Y-142158685D02*
X200469297Y-141968209D01*
X200469297Y-141968209D02*
X200659774Y-141872971D01*
X200659774Y-141872971D02*
X200945488Y-141872971D01*
X200945488Y-141872971D02*
X201135964Y-141777733D01*
X201135964Y-141777733D02*
X201231202Y-141587257D01*
X201231202Y-141587257D02*
X201231202Y-141492019D01*
X201231202Y-141492019D02*
X201135964Y-141301542D01*
X201135964Y-141301542D02*
X200945488Y-141206304D01*
X200945488Y-141206304D02*
X200659774Y-141206304D01*
X200659774Y-141206304D02*
X200469297Y-141301542D01*
X199516916Y-142349161D02*
X199421678Y-142444400D01*
X199421678Y-142444400D02*
X199516916Y-142539638D01*
X199516916Y-142539638D02*
X199612154Y-142444400D01*
X199612154Y-142444400D02*
X199516916Y-142349161D01*
X199516916Y-142349161D02*
X199516916Y-142539638D01*
X199516916Y-141301542D02*
X199421678Y-141396780D01*
X199421678Y-141396780D02*
X199516916Y-141492019D01*
X199516916Y-141492019D02*
X199612154Y-141396780D01*
X199612154Y-141396780D02*
X199516916Y-141301542D01*
X199516916Y-141301542D02*
X199516916Y-141492019D01*
X197135964Y-140444400D02*
X198850249Y-143015828D01*
X195040726Y-140444400D02*
X196755011Y-143015828D01*
X193516916Y-141206304D02*
X193516916Y-142825352D01*
X193516916Y-142825352D02*
X193612154Y-143015828D01*
X193612154Y-143015828D02*
X193707392Y-143111066D01*
X193707392Y-143111066D02*
X193897869Y-143206304D01*
X193897869Y-143206304D02*
X194183583Y-143206304D01*
X194183583Y-143206304D02*
X194374059Y-143111066D01*
X193516916Y-142444400D02*
X193707392Y-142539638D01*
X193707392Y-142539638D02*
X194088345Y-142539638D01*
X194088345Y-142539638D02*
X194278821Y-142444400D01*
X194278821Y-142444400D02*
X194374059Y-142349161D01*
X194374059Y-142349161D02*
X194469297Y-142158685D01*
X194469297Y-142158685D02*
X194469297Y-141587257D01*
X194469297Y-141587257D02*
X194374059Y-141396780D01*
X194374059Y-141396780D02*
X194278821Y-141301542D01*
X194278821Y-141301542D02*
X194088345Y-141206304D01*
X194088345Y-141206304D02*
X193707392Y-141206304D01*
X193707392Y-141206304D02*
X193516916Y-141301542D01*
X192564535Y-142539638D02*
X192564535Y-141206304D01*
X192564535Y-140539638D02*
X192659773Y-140634876D01*
X192659773Y-140634876D02*
X192564535Y-140730114D01*
X192564535Y-140730114D02*
X192469297Y-140634876D01*
X192469297Y-140634876D02*
X192564535Y-140539638D01*
X192564535Y-140539638D02*
X192564535Y-140730114D01*
X191897868Y-141206304D02*
X191135964Y-141206304D01*
X191612154Y-140539638D02*
X191612154Y-142253923D01*
X191612154Y-142253923D02*
X191516916Y-142444400D01*
X191516916Y-142444400D02*
X191326440Y-142539638D01*
X191326440Y-142539638D02*
X191135964Y-142539638D01*
X190469297Y-142539638D02*
X190469297Y-140539638D01*
X189612154Y-142539638D02*
X189612154Y-141492019D01*
X189612154Y-141492019D02*
X189707392Y-141301542D01*
X189707392Y-141301542D02*
X189897868Y-141206304D01*
X189897868Y-141206304D02*
X190183583Y-141206304D01*
X190183583Y-141206304D02*
X190374059Y-141301542D01*
X190374059Y-141301542D02*
X190469297Y-141396780D01*
X187802630Y-141206304D02*
X187802630Y-142539638D01*
X188659773Y-141206304D02*
X188659773Y-142253923D01*
X188659773Y-142253923D02*
X188564535Y-142444400D01*
X188564535Y-142444400D02*
X188374059Y-142539638D01*
X188374059Y-142539638D02*
X188088344Y-142539638D01*
X188088344Y-142539638D02*
X187897868Y-142444400D01*
X187897868Y-142444400D02*
X187802630Y-142349161D01*
X186850249Y-142539638D02*
X186850249Y-140539638D01*
X186850249Y-141301542D02*
X186659773Y-141206304D01*
X186659773Y-141206304D02*
X186278820Y-141206304D01*
X186278820Y-141206304D02*
X186088344Y-141301542D01*
X186088344Y-141301542D02*
X185993106Y-141396780D01*
X185993106Y-141396780D02*
X185897868Y-141587257D01*
X185897868Y-141587257D02*
X185897868Y-142158685D01*
X185897868Y-142158685D02*
X185993106Y-142349161D01*
X185993106Y-142349161D02*
X186088344Y-142444400D01*
X186088344Y-142444400D02*
X186278820Y-142539638D01*
X186278820Y-142539638D02*
X186659773Y-142539638D01*
X186659773Y-142539638D02*
X186850249Y-142444400D01*
X185040725Y-142349161D02*
X184945487Y-142444400D01*
X184945487Y-142444400D02*
X185040725Y-142539638D01*
X185040725Y-142539638D02*
X185135963Y-142444400D01*
X185135963Y-142444400D02*
X185040725Y-142349161D01*
X185040725Y-142349161D02*
X185040725Y-142539638D01*
X183231201Y-142444400D02*
X183421677Y-142539638D01*
X183421677Y-142539638D02*
X183802630Y-142539638D01*
X183802630Y-142539638D02*
X183993106Y-142444400D01*
X183993106Y-142444400D02*
X184088344Y-142349161D01*
X184088344Y-142349161D02*
X184183582Y-142158685D01*
X184183582Y-142158685D02*
X184183582Y-141587257D01*
X184183582Y-141587257D02*
X184088344Y-141396780D01*
X184088344Y-141396780D02*
X183993106Y-141301542D01*
X183993106Y-141301542D02*
X183802630Y-141206304D01*
X183802630Y-141206304D02*
X183421677Y-141206304D01*
X183421677Y-141206304D02*
X183231201Y-141301542D01*
X182088344Y-142539638D02*
X182278820Y-142444400D01*
X182278820Y-142444400D02*
X182374058Y-142349161D01*
X182374058Y-142349161D02*
X182469296Y-142158685D01*
X182469296Y-142158685D02*
X182469296Y-141587257D01*
X182469296Y-141587257D02*
X182374058Y-141396780D01*
X182374058Y-141396780D02*
X182278820Y-141301542D01*
X182278820Y-141301542D02*
X182088344Y-141206304D01*
X182088344Y-141206304D02*
X181802629Y-141206304D01*
X181802629Y-141206304D02*
X181612153Y-141301542D01*
X181612153Y-141301542D02*
X181516915Y-141396780D01*
X181516915Y-141396780D02*
X181421677Y-141587257D01*
X181421677Y-141587257D02*
X181421677Y-142158685D01*
X181421677Y-142158685D02*
X181516915Y-142349161D01*
X181516915Y-142349161D02*
X181612153Y-142444400D01*
X181612153Y-142444400D02*
X181802629Y-142539638D01*
X181802629Y-142539638D02*
X182088344Y-142539638D01*
X180564534Y-142539638D02*
X180564534Y-141206304D01*
X180564534Y-141396780D02*
X180469296Y-141301542D01*
X180469296Y-141301542D02*
X180278820Y-141206304D01*
X180278820Y-141206304D02*
X179993105Y-141206304D01*
X179993105Y-141206304D02*
X179802629Y-141301542D01*
X179802629Y-141301542D02*
X179707391Y-141492019D01*
X179707391Y-141492019D02*
X179707391Y-142539638D01*
X179707391Y-141492019D02*
X179612153Y-141301542D01*
X179612153Y-141301542D02*
X179421677Y-141206304D01*
X179421677Y-141206304D02*
X179135963Y-141206304D01*
X179135963Y-141206304D02*
X178945486Y-141301542D01*
X178945486Y-141301542D02*
X178850248Y-141492019D01*
X178850248Y-141492019D02*
X178850248Y-142539638D01*
X176469296Y-140444400D02*
X178183581Y-143015828D01*
X174659772Y-142349161D02*
X174755010Y-142444400D01*
X174755010Y-142444400D02*
X175040724Y-142539638D01*
X175040724Y-142539638D02*
X175231200Y-142539638D01*
X175231200Y-142539638D02*
X175516915Y-142444400D01*
X175516915Y-142444400D02*
X175707391Y-142253923D01*
X175707391Y-142253923D02*
X175802629Y-142063447D01*
X175802629Y-142063447D02*
X175897867Y-141682495D01*
X175897867Y-141682495D02*
X175897867Y-141396780D01*
X175897867Y-141396780D02*
X175802629Y-141015828D01*
X175802629Y-141015828D02*
X175707391Y-140825352D01*
X175707391Y-140825352D02*
X175516915Y-140634876D01*
X175516915Y-140634876D02*
X175231200Y-140539638D01*
X175231200Y-140539638D02*
X175040724Y-140539638D01*
X175040724Y-140539638D02*
X174755010Y-140634876D01*
X174755010Y-140634876D02*
X174659772Y-140730114D01*
X172945486Y-142539638D02*
X172945486Y-141492019D01*
X172945486Y-141492019D02*
X173040724Y-141301542D01*
X173040724Y-141301542D02*
X173231200Y-141206304D01*
X173231200Y-141206304D02*
X173612153Y-141206304D01*
X173612153Y-141206304D02*
X173802629Y-141301542D01*
X172945486Y-142444400D02*
X173135962Y-142539638D01*
X173135962Y-142539638D02*
X173612153Y-142539638D01*
X173612153Y-142539638D02*
X173802629Y-142444400D01*
X173802629Y-142444400D02*
X173897867Y-142253923D01*
X173897867Y-142253923D02*
X173897867Y-142063447D01*
X173897867Y-142063447D02*
X173802629Y-141872971D01*
X173802629Y-141872971D02*
X173612153Y-141777733D01*
X173612153Y-141777733D02*
X173135962Y-141777733D01*
X173135962Y-141777733D02*
X172945486Y-141682495D01*
X171993105Y-142539638D02*
X171993105Y-141206304D01*
X171993105Y-141587257D02*
X171897867Y-141396780D01*
X171897867Y-141396780D02*
X171802629Y-141301542D01*
X171802629Y-141301542D02*
X171612153Y-141206304D01*
X171612153Y-141206304D02*
X171421676Y-141206304D01*
X170469296Y-142539638D02*
X170659772Y-142444400D01*
X170659772Y-142444400D02*
X170755010Y-142253923D01*
X170755010Y-142253923D02*
X170755010Y-140539638D01*
X169421677Y-142539638D02*
X169612153Y-142444400D01*
X169612153Y-142444400D02*
X169707391Y-142349161D01*
X169707391Y-142349161D02*
X169802629Y-142158685D01*
X169802629Y-142158685D02*
X169802629Y-141587257D01*
X169802629Y-141587257D02*
X169707391Y-141396780D01*
X169707391Y-141396780D02*
X169612153Y-141301542D01*
X169612153Y-141301542D02*
X169421677Y-141206304D01*
X169421677Y-141206304D02*
X169135962Y-141206304D01*
X169135962Y-141206304D02*
X168945486Y-141301542D01*
X168945486Y-141301542D02*
X168850248Y-141396780D01*
X168850248Y-141396780D02*
X168755010Y-141587257D01*
X168755010Y-141587257D02*
X168755010Y-142158685D01*
X168755010Y-142158685D02*
X168850248Y-142349161D01*
X168850248Y-142349161D02*
X168945486Y-142444400D01*
X168945486Y-142444400D02*
X169135962Y-142539638D01*
X169135962Y-142539638D02*
X169421677Y-142539638D01*
X167993105Y-142444400D02*
X167802629Y-142539638D01*
X167802629Y-142539638D02*
X167421677Y-142539638D01*
X167421677Y-142539638D02*
X167231200Y-142444400D01*
X167231200Y-142444400D02*
X167135962Y-142253923D01*
X167135962Y-142253923D02*
X167135962Y-142158685D01*
X167135962Y-142158685D02*
X167231200Y-141968209D01*
X167231200Y-141968209D02*
X167421677Y-141872971D01*
X167421677Y-141872971D02*
X167707391Y-141872971D01*
X167707391Y-141872971D02*
X167897867Y-141777733D01*
X167897867Y-141777733D02*
X167993105Y-141587257D01*
X167993105Y-141587257D02*
X167993105Y-141492019D01*
X167993105Y-141492019D02*
X167897867Y-141301542D01*
X167897867Y-141301542D02*
X167707391Y-141206304D01*
X167707391Y-141206304D02*
X167421677Y-141206304D01*
X167421677Y-141206304D02*
X167231200Y-141301542D01*
X165135962Y-142349161D02*
X165231200Y-142444400D01*
X165231200Y-142444400D02*
X165516914Y-142539638D01*
X165516914Y-142539638D02*
X165707390Y-142539638D01*
X165707390Y-142539638D02*
X165993105Y-142444400D01*
X165993105Y-142444400D02*
X166183581Y-142253923D01*
X166183581Y-142253923D02*
X166278819Y-142063447D01*
X166278819Y-142063447D02*
X166374057Y-141682495D01*
X166374057Y-141682495D02*
X166374057Y-141396780D01*
X166374057Y-141396780D02*
X166278819Y-141015828D01*
X166278819Y-141015828D02*
X166183581Y-140825352D01*
X166183581Y-140825352D02*
X165993105Y-140634876D01*
X165993105Y-140634876D02*
X165707390Y-140539638D01*
X165707390Y-140539638D02*
X165516914Y-140539638D01*
X165516914Y-140539638D02*
X165231200Y-140634876D01*
X165231200Y-140634876D02*
X165135962Y-140730114D01*
X164278819Y-142539638D02*
X164278819Y-141206304D01*
X164278819Y-141587257D02*
X164183581Y-141396780D01*
X164183581Y-141396780D02*
X164088343Y-141301542D01*
X164088343Y-141301542D02*
X163897867Y-141206304D01*
X163897867Y-141206304D02*
X163707390Y-141206304D01*
X162183581Y-142539638D02*
X162183581Y-141492019D01*
X162183581Y-141492019D02*
X162278819Y-141301542D01*
X162278819Y-141301542D02*
X162469295Y-141206304D01*
X162469295Y-141206304D02*
X162850248Y-141206304D01*
X162850248Y-141206304D02*
X163040724Y-141301542D01*
X162183581Y-142444400D02*
X162374057Y-142539638D01*
X162374057Y-142539638D02*
X162850248Y-142539638D01*
X162850248Y-142539638D02*
X163040724Y-142444400D01*
X163040724Y-142444400D02*
X163135962Y-142253923D01*
X163135962Y-142253923D02*
X163135962Y-142063447D01*
X163135962Y-142063447D02*
X163040724Y-141872971D01*
X163040724Y-141872971D02*
X162850248Y-141777733D01*
X162850248Y-141777733D02*
X162374057Y-141777733D01*
X162374057Y-141777733D02*
X162183581Y-141682495D01*
X161421676Y-141206304D02*
X160945486Y-142539638D01*
X160945486Y-142539638D02*
X160469295Y-141206304D01*
X158945485Y-142444400D02*
X159135961Y-142539638D01*
X159135961Y-142539638D02*
X159516914Y-142539638D01*
X159516914Y-142539638D02*
X159707390Y-142444400D01*
X159707390Y-142444400D02*
X159802628Y-142253923D01*
X159802628Y-142253923D02*
X159802628Y-141492019D01*
X159802628Y-141492019D02*
X159707390Y-141301542D01*
X159707390Y-141301542D02*
X159516914Y-141206304D01*
X159516914Y-141206304D02*
X159135961Y-141206304D01*
X159135961Y-141206304D02*
X158945485Y-141301542D01*
X158945485Y-141301542D02*
X158850247Y-141492019D01*
X158850247Y-141492019D02*
X158850247Y-141682495D01*
X158850247Y-141682495D02*
X159802628Y-141872971D01*
X157993104Y-142539638D02*
X157993104Y-141206304D01*
X157993104Y-140539638D02*
X158088342Y-140634876D01*
X158088342Y-140634876D02*
X157993104Y-140730114D01*
X157993104Y-140730114D02*
X157897866Y-140634876D01*
X157897866Y-140634876D02*
X157993104Y-140539638D01*
X157993104Y-140539638D02*
X157993104Y-140730114D01*
X157040723Y-142539638D02*
X157040723Y-141206304D01*
X157040723Y-141587257D02*
X156945485Y-141396780D01*
X156945485Y-141396780D02*
X156850247Y-141301542D01*
X156850247Y-141301542D02*
X156659771Y-141206304D01*
X156659771Y-141206304D02*
X156469294Y-141206304D01*
X155516914Y-142539638D02*
X155707390Y-142444400D01*
X155707390Y-142444400D02*
X155802628Y-142349161D01*
X155802628Y-142349161D02*
X155897866Y-142158685D01*
X155897866Y-142158685D02*
X155897866Y-141587257D01*
X155897866Y-141587257D02*
X155802628Y-141396780D01*
X155802628Y-141396780D02*
X155707390Y-141301542D01*
X155707390Y-141301542D02*
X155516914Y-141206304D01*
X155516914Y-141206304D02*
X155231199Y-141206304D01*
X155231199Y-141206304D02*
X155040723Y-141301542D01*
X155040723Y-141301542D02*
X154945485Y-141396780D01*
X154945485Y-141396780D02*
X154850247Y-141587257D01*
X154850247Y-141587257D02*
X154850247Y-142158685D01*
X154850247Y-142158685D02*
X154945485Y-142349161D01*
X154945485Y-142349161D02*
X155040723Y-142444400D01*
X155040723Y-142444400D02*
X155231199Y-142539638D01*
X155231199Y-142539638D02*
X155516914Y-142539638D01*
X152564533Y-140444400D02*
X154278818Y-143015828D01*
X151135961Y-142444400D02*
X151326437Y-142539638D01*
X151326437Y-142539638D02*
X151707390Y-142539638D01*
X151707390Y-142539638D02*
X151897866Y-142444400D01*
X151897866Y-142444400D02*
X151993104Y-142253923D01*
X151993104Y-142253923D02*
X151993104Y-141492019D01*
X151993104Y-141492019D02*
X151897866Y-141301542D01*
X151897866Y-141301542D02*
X151707390Y-141206304D01*
X151707390Y-141206304D02*
X151326437Y-141206304D01*
X151326437Y-141206304D02*
X151135961Y-141301542D01*
X151135961Y-141301542D02*
X151040723Y-141492019D01*
X151040723Y-141492019D02*
X151040723Y-141682495D01*
X151040723Y-141682495D02*
X151993104Y-141872971D01*
X150183580Y-142539638D02*
X150183580Y-141206304D01*
X150183580Y-140539638D02*
X150278818Y-140634876D01*
X150278818Y-140634876D02*
X150183580Y-140730114D01*
X150183580Y-140730114D02*
X150088342Y-140634876D01*
X150088342Y-140634876D02*
X150183580Y-140539638D01*
X150183580Y-140539638D02*
X150183580Y-140730114D01*
X149231199Y-141206304D02*
X149231199Y-142539638D01*
X149231199Y-141396780D02*
X149135961Y-141301542D01*
X149135961Y-141301542D02*
X148945485Y-141206304D01*
X148945485Y-141206304D02*
X148659770Y-141206304D01*
X148659770Y-141206304D02*
X148469294Y-141301542D01*
X148469294Y-141301542D02*
X148374056Y-141492019D01*
X148374056Y-141492019D02*
X148374056Y-142539638D01*
X147516913Y-142444400D02*
X147326437Y-142539638D01*
X147326437Y-142539638D02*
X146945485Y-142539638D01*
X146945485Y-142539638D02*
X146755008Y-142444400D01*
X146755008Y-142444400D02*
X146659770Y-142253923D01*
X146659770Y-142253923D02*
X146659770Y-142158685D01*
X146659770Y-142158685D02*
X146755008Y-141968209D01*
X146755008Y-141968209D02*
X146945485Y-141872971D01*
X146945485Y-141872971D02*
X147231199Y-141872971D01*
X147231199Y-141872971D02*
X147421675Y-141777733D01*
X147421675Y-141777733D02*
X147516913Y-141587257D01*
X147516913Y-141587257D02*
X147516913Y-141492019D01*
X147516913Y-141492019D02*
X147421675Y-141301542D01*
X147421675Y-141301542D02*
X147231199Y-141206304D01*
X147231199Y-141206304D02*
X146945485Y-141206304D01*
X146945485Y-141206304D02*
X146755008Y-141301542D01*
X146088341Y-141206304D02*
X145326437Y-141206304D01*
X145802627Y-140539638D02*
X145802627Y-142253923D01*
X145802627Y-142253923D02*
X145707389Y-142444400D01*
X145707389Y-142444400D02*
X145516913Y-142539638D01*
X145516913Y-142539638D02*
X145326437Y-142539638D01*
X143897865Y-142444400D02*
X144088341Y-142539638D01*
X144088341Y-142539638D02*
X144469294Y-142539638D01*
X144469294Y-142539638D02*
X144659770Y-142444400D01*
X144659770Y-142444400D02*
X144755008Y-142253923D01*
X144755008Y-142253923D02*
X144755008Y-141492019D01*
X144755008Y-141492019D02*
X144659770Y-141301542D01*
X144659770Y-141301542D02*
X144469294Y-141206304D01*
X144469294Y-141206304D02*
X144088341Y-141206304D01*
X144088341Y-141206304D02*
X143897865Y-141301542D01*
X143897865Y-141301542D02*
X143802627Y-141492019D01*
X143802627Y-141492019D02*
X143802627Y-141682495D01*
X143802627Y-141682495D02*
X144755008Y-141872971D01*
X142945484Y-142539638D02*
X142945484Y-141206304D01*
X142945484Y-140539638D02*
X143040722Y-140634876D01*
X143040722Y-140634876D02*
X142945484Y-140730114D01*
X142945484Y-140730114D02*
X142850246Y-140634876D01*
X142850246Y-140634876D02*
X142945484Y-140539638D01*
X142945484Y-140539638D02*
X142945484Y-140730114D01*
X141993103Y-141206304D02*
X141993103Y-142539638D01*
X141993103Y-141396780D02*
X141897865Y-141301542D01*
X141897865Y-141301542D02*
X141707389Y-141206304D01*
X141707389Y-141206304D02*
X141421674Y-141206304D01*
X141421674Y-141206304D02*
X141231198Y-141301542D01*
X141231198Y-141301542D02*
X141135960Y-141492019D01*
X141135960Y-141492019D02*
X141135960Y-142539638D01*
X140183579Y-141777733D02*
X138659770Y-141777733D01*
X137707389Y-142539638D02*
X137707389Y-140539638D01*
X137707389Y-141301542D02*
X137516913Y-141206304D01*
X137516913Y-141206304D02*
X137135960Y-141206304D01*
X137135960Y-141206304D02*
X136945484Y-141301542D01*
X136945484Y-141301542D02*
X136850246Y-141396780D01*
X136850246Y-141396780D02*
X136755008Y-141587257D01*
X136755008Y-141587257D02*
X136755008Y-142158685D01*
X136755008Y-142158685D02*
X136850246Y-142349161D01*
X136850246Y-142349161D02*
X136945484Y-142444400D01*
X136945484Y-142444400D02*
X137135960Y-142539638D01*
X137135960Y-142539638D02*
X137516913Y-142539638D01*
X137516913Y-142539638D02*
X137707389Y-142444400D01*
X135612151Y-142539638D02*
X135802627Y-142444400D01*
X135802627Y-142444400D02*
X135897865Y-142349161D01*
X135897865Y-142349161D02*
X135993103Y-142158685D01*
X135993103Y-142158685D02*
X135993103Y-141587257D01*
X135993103Y-141587257D02*
X135897865Y-141396780D01*
X135897865Y-141396780D02*
X135802627Y-141301542D01*
X135802627Y-141301542D02*
X135612151Y-141206304D01*
X135612151Y-141206304D02*
X135326436Y-141206304D01*
X135326436Y-141206304D02*
X135135960Y-141301542D01*
X135135960Y-141301542D02*
X135040722Y-141396780D01*
X135040722Y-141396780D02*
X134945484Y-141587257D01*
X134945484Y-141587257D02*
X134945484Y-142158685D01*
X134945484Y-142158685D02*
X135040722Y-142349161D01*
X135040722Y-142349161D02*
X135135960Y-142444400D01*
X135135960Y-142444400D02*
X135326436Y-142539638D01*
X135326436Y-142539638D02*
X135612151Y-142539638D01*
X133802627Y-142539638D02*
X133993103Y-142444400D01*
X133993103Y-142444400D02*
X134088341Y-142253923D01*
X134088341Y-142253923D02*
X134088341Y-140539638D01*
X133326436Y-141206304D02*
X132564532Y-141206304D01*
X133040722Y-140539638D02*
X133040722Y-142253923D01*
X133040722Y-142253923D02*
X132945484Y-142444400D01*
X132945484Y-142444400D02*
X132755008Y-142539638D01*
X132755008Y-142539638D02*
X132564532Y-142539638D01*
X132088341Y-141206304D02*
X131040722Y-141206304D01*
X131040722Y-141206304D02*
X132088341Y-142539638D01*
X132088341Y-142539638D02*
X131040722Y-142539638D01*
X130278817Y-142539638D02*
X130278817Y-141206304D01*
X130278817Y-141396780D02*
X130183579Y-141301542D01*
X130183579Y-141301542D02*
X129993103Y-141206304D01*
X129993103Y-141206304D02*
X129707388Y-141206304D01*
X129707388Y-141206304D02*
X129516912Y-141301542D01*
X129516912Y-141301542D02*
X129421674Y-141492019D01*
X129421674Y-141492019D02*
X129421674Y-142539638D01*
X129421674Y-141492019D02*
X129326436Y-141301542D01*
X129326436Y-141301542D02*
X129135960Y-141206304D01*
X129135960Y-141206304D02*
X128850246Y-141206304D01*
X128850246Y-141206304D02*
X128659769Y-141301542D01*
X128659769Y-141301542D02*
X128564531Y-141492019D01*
X128564531Y-141492019D02*
X128564531Y-142539638D01*
X126755007Y-142539638D02*
X126755007Y-141492019D01*
X126755007Y-141492019D02*
X126850245Y-141301542D01*
X126850245Y-141301542D02*
X127040721Y-141206304D01*
X127040721Y-141206304D02*
X127421674Y-141206304D01*
X127421674Y-141206304D02*
X127612150Y-141301542D01*
X126755007Y-142444400D02*
X126945483Y-142539638D01*
X126945483Y-142539638D02*
X127421674Y-142539638D01*
X127421674Y-142539638D02*
X127612150Y-142444400D01*
X127612150Y-142444400D02*
X127707388Y-142253923D01*
X127707388Y-142253923D02*
X127707388Y-142063447D01*
X127707388Y-142063447D02*
X127612150Y-141872971D01*
X127612150Y-141872971D02*
X127421674Y-141777733D01*
X127421674Y-141777733D02*
X126945483Y-141777733D01*
X126945483Y-141777733D02*
X126755007Y-141682495D01*
X125802626Y-141206304D02*
X125802626Y-142539638D01*
X125802626Y-141396780D02*
X125707388Y-141301542D01*
X125707388Y-141301542D02*
X125516912Y-141206304D01*
X125516912Y-141206304D02*
X125231197Y-141206304D01*
X125231197Y-141206304D02*
X125040721Y-141301542D01*
X125040721Y-141301542D02*
X124945483Y-141492019D01*
X124945483Y-141492019D02*
X124945483Y-142539638D01*
X123993102Y-141206304D02*
X123993102Y-142539638D01*
X123993102Y-141396780D02*
X123897864Y-141301542D01*
X123897864Y-141301542D02*
X123707388Y-141206304D01*
X123707388Y-141206304D02*
X123421673Y-141206304D01*
X123421673Y-141206304D02*
X123231197Y-141301542D01*
X123231197Y-141301542D02*
X123135959Y-141492019D01*
X123135959Y-141492019D02*
X123135959Y-142539638D01*
M02*
