%TF.GenerationSoftware,KiCad,Pcbnew,7.0.11*%
%TF.CreationDate,2024-08-15T23:16:24-03:00*%
%TF.ProjectId,tension-multiplier,74656e73-696f-46e2-9d6d-756c7469706c,0.1*%
%TF.SameCoordinates,Original*%
%TF.FileFunction,Copper,L2,Bot*%
%TF.FilePolarity,Positive*%
%FSLAX46Y46*%
G04 Gerber Fmt 4.6, Leading zero omitted, Abs format (unit mm)*
G04 Created by KiCad (PCBNEW 7.0.11) date 2024-08-15 23:16:24*
%MOMM*%
%LPD*%
G01*
G04 APERTURE LIST*
%TA.AperFunction,ComponentPad*%
%ADD10R,1.700000X1.700000*%
%TD*%
%TA.AperFunction,ComponentPad*%
%ADD11O,1.700000X1.700000*%
%TD*%
%TA.AperFunction,ViaPad*%
%ADD12C,0.800000*%
%TD*%
%TA.AperFunction,Conductor*%
%ADD13C,0.500000*%
%TD*%
G04 APERTURE END LIST*
D10*
%TO.P,J1,1,Pin_1*%
%TO.N,Net-(J1-Pin_1)*%
X152025000Y-82300000D03*
D11*
%TO.P,J1,2,Pin_2*%
%TO.N,GND*%
X149485000Y-82300000D03*
%TO.P,J1,3,Pin_3*%
%TO.N,Net-(J1-Pin_3)*%
X146945000Y-82300000D03*
%TD*%
D10*
%TO.P,J3,1,Pin_1*%
%TO.N,Net-(J3-Pin_1)*%
X140400000Y-90240000D03*
D11*
%TO.P,J3,2,Pin_2*%
%TO.N,-9V*%
X140400000Y-87700000D03*
%TD*%
D10*
%TO.P,J2,1,Pin_1*%
%TO.N,Net-(J2-Pin_1)*%
X158600000Y-90240000D03*
D11*
%TO.P,J2,2,Pin_2*%
%TO.N,+9V*%
X158600000Y-87700000D03*
%TD*%
D12*
%TO.N,GND*%
X144250000Y-85630000D03*
X153610000Y-92000000D03*
X139990000Y-82230000D03*
X158930000Y-81810000D03*
X141080000Y-94720000D03*
X157680000Y-94760000D03*
X155760000Y-85590000D03*
X146550000Y-91930000D03*
%TD*%
D13*
%TO.N,GND*%
X149700000Y-82115000D02*
X149485000Y-81900000D01*
%TD*%
%TA.AperFunction,Conductor*%
%TO.N,GND*%
G36*
X158003472Y-80200695D02*
G01*
X158306503Y-80217713D01*
X158320301Y-80219267D01*
X158616080Y-80269522D01*
X158629636Y-80272616D01*
X158917927Y-80355672D01*
X158931051Y-80360265D01*
X159208222Y-80475072D01*
X159220744Y-80481101D01*
X159423184Y-80592986D01*
X159483328Y-80626227D01*
X159495102Y-80633625D01*
X159739789Y-80807239D01*
X159750657Y-80815907D01*
X159974352Y-81015815D01*
X159984184Y-81025647D01*
X160184092Y-81249342D01*
X160192763Y-81260214D01*
X160366374Y-81504897D01*
X160373772Y-81516671D01*
X160518894Y-81779248D01*
X160524927Y-81791777D01*
X160639734Y-82068948D01*
X160644327Y-82082072D01*
X160727383Y-82370363D01*
X160730477Y-82383920D01*
X160780730Y-82679688D01*
X160782287Y-82693506D01*
X160799305Y-82996527D01*
X160799500Y-83003480D01*
X160799500Y-92996519D01*
X160799305Y-93003472D01*
X160782287Y-93306493D01*
X160780730Y-93320311D01*
X160730477Y-93616079D01*
X160727383Y-93629636D01*
X160644327Y-93917927D01*
X160639734Y-93931051D01*
X160524927Y-94208222D01*
X160518894Y-94220751D01*
X160373772Y-94483328D01*
X160366374Y-94495102D01*
X160192763Y-94739785D01*
X160184092Y-94750657D01*
X159984184Y-94974352D01*
X159974352Y-94984184D01*
X159750657Y-95184092D01*
X159739785Y-95192763D01*
X159495102Y-95366374D01*
X159483328Y-95373772D01*
X159220751Y-95518894D01*
X159208222Y-95524927D01*
X158931051Y-95639734D01*
X158917927Y-95644327D01*
X158629636Y-95727383D01*
X158616079Y-95730477D01*
X158320311Y-95780730D01*
X158306493Y-95782287D01*
X158003472Y-95799305D01*
X157996519Y-95799500D01*
X141003481Y-95799500D01*
X140996528Y-95799305D01*
X140693506Y-95782287D01*
X140679688Y-95780730D01*
X140383920Y-95730477D01*
X140370363Y-95727383D01*
X140082072Y-95644327D01*
X140068948Y-95639734D01*
X139791777Y-95524927D01*
X139779248Y-95518894D01*
X139516671Y-95373772D01*
X139504897Y-95366374D01*
X139260214Y-95192763D01*
X139249342Y-95184092D01*
X139025647Y-94984184D01*
X139015815Y-94974352D01*
X138815907Y-94750657D01*
X138807236Y-94739785D01*
X138633625Y-94495102D01*
X138626227Y-94483328D01*
X138481105Y-94220751D01*
X138475072Y-94208222D01*
X138360265Y-93931051D01*
X138355672Y-93917927D01*
X138272616Y-93629636D01*
X138269522Y-93616079D01*
X138250030Y-93501356D01*
X138219267Y-93320301D01*
X138217713Y-93306503D01*
X138200695Y-93003472D01*
X138200500Y-92996519D01*
X138200500Y-87700002D01*
X139144723Y-87700002D01*
X139163793Y-87917975D01*
X139163793Y-87917979D01*
X139220422Y-88129322D01*
X139220424Y-88129326D01*
X139220425Y-88129330D01*
X139266661Y-88228484D01*
X139312897Y-88327638D01*
X139312898Y-88327639D01*
X139438402Y-88506877D01*
X139593123Y-88661598D01*
X139739263Y-88763926D01*
X139782887Y-88818502D01*
X139790081Y-88888000D01*
X139758558Y-88950355D01*
X139698328Y-88985769D01*
X139668140Y-88989500D01*
X139518482Y-88989500D01*
X139437519Y-89002323D01*
X139424696Y-89004354D01*
X139311658Y-89061950D01*
X139311657Y-89061951D01*
X139311652Y-89061954D01*
X139221954Y-89151652D01*
X139221951Y-89151657D01*
X139164352Y-89264698D01*
X139149500Y-89358475D01*
X139149500Y-91121517D01*
X139160292Y-91189657D01*
X139164354Y-91215304D01*
X139221950Y-91328342D01*
X139221952Y-91328344D01*
X139221954Y-91328347D01*
X139311652Y-91418045D01*
X139311654Y-91418046D01*
X139311658Y-91418050D01*
X139424694Y-91475645D01*
X139424698Y-91475647D01*
X139518475Y-91490499D01*
X139518481Y-91490500D01*
X141281518Y-91490499D01*
X141375304Y-91475646D01*
X141488342Y-91418050D01*
X141578050Y-91328342D01*
X141635646Y-91215304D01*
X141635646Y-91215302D01*
X141635647Y-91215301D01*
X141650499Y-91121524D01*
X141650500Y-91121519D01*
X141650499Y-89358482D01*
X141635646Y-89264696D01*
X141578050Y-89151658D01*
X141578046Y-89151654D01*
X141578045Y-89151652D01*
X141488347Y-89061954D01*
X141488344Y-89061952D01*
X141488342Y-89061950D01*
X141411517Y-89022805D01*
X141375301Y-89004352D01*
X141281524Y-88989500D01*
X141131862Y-88989500D01*
X141064823Y-88969815D01*
X141019068Y-88917011D01*
X141009124Y-88847853D01*
X141038149Y-88784297D01*
X141060734Y-88763928D01*
X141206877Y-88661598D01*
X141361598Y-88506877D01*
X141487102Y-88327639D01*
X141579575Y-88129330D01*
X141636207Y-87917977D01*
X141655277Y-87700002D01*
X157344723Y-87700002D01*
X157363793Y-87917975D01*
X157363793Y-87917979D01*
X157420422Y-88129322D01*
X157420424Y-88129326D01*
X157420425Y-88129330D01*
X157466661Y-88228484D01*
X157512897Y-88327638D01*
X157512898Y-88327639D01*
X157638402Y-88506877D01*
X157793123Y-88661598D01*
X157939263Y-88763926D01*
X157982887Y-88818502D01*
X157990081Y-88888000D01*
X157958558Y-88950355D01*
X157898328Y-88985769D01*
X157868140Y-88989500D01*
X157718482Y-88989500D01*
X157637519Y-89002323D01*
X157624696Y-89004354D01*
X157511658Y-89061950D01*
X157511657Y-89061951D01*
X157511652Y-89061954D01*
X157421954Y-89151652D01*
X157421951Y-89151657D01*
X157364352Y-89264698D01*
X157349500Y-89358475D01*
X157349500Y-91121517D01*
X157360292Y-91189657D01*
X157364354Y-91215304D01*
X157421950Y-91328342D01*
X157421952Y-91328344D01*
X157421954Y-91328347D01*
X157511652Y-91418045D01*
X157511654Y-91418046D01*
X157511658Y-91418050D01*
X157624694Y-91475645D01*
X157624698Y-91475647D01*
X157718475Y-91490499D01*
X157718481Y-91490500D01*
X159481518Y-91490499D01*
X159575304Y-91475646D01*
X159688342Y-91418050D01*
X159778050Y-91328342D01*
X159835646Y-91215304D01*
X159835646Y-91215302D01*
X159835647Y-91215301D01*
X159850499Y-91121524D01*
X159850500Y-91121519D01*
X159850499Y-89358482D01*
X159835646Y-89264696D01*
X159778050Y-89151658D01*
X159778046Y-89151654D01*
X159778045Y-89151652D01*
X159688347Y-89061954D01*
X159688344Y-89061952D01*
X159688342Y-89061950D01*
X159611517Y-89022805D01*
X159575301Y-89004352D01*
X159481524Y-88989500D01*
X159331862Y-88989500D01*
X159264823Y-88969815D01*
X159219068Y-88917011D01*
X159209124Y-88847853D01*
X159238149Y-88784297D01*
X159260734Y-88763928D01*
X159406877Y-88661598D01*
X159561598Y-88506877D01*
X159687102Y-88327639D01*
X159779575Y-88129330D01*
X159836207Y-87917977D01*
X159855277Y-87700000D01*
X159836207Y-87482023D01*
X159779575Y-87270670D01*
X159687102Y-87072362D01*
X159687100Y-87072359D01*
X159687099Y-87072357D01*
X159561599Y-86893124D01*
X159561596Y-86893121D01*
X159406877Y-86738402D01*
X159227639Y-86612898D01*
X159227640Y-86612898D01*
X159227638Y-86612897D01*
X159128484Y-86566661D01*
X159029330Y-86520425D01*
X159029326Y-86520424D01*
X159029322Y-86520422D01*
X158817977Y-86463793D01*
X158600002Y-86444723D01*
X158599998Y-86444723D01*
X158454682Y-86457436D01*
X158382023Y-86463793D01*
X158382020Y-86463793D01*
X158170677Y-86520422D01*
X158170668Y-86520426D01*
X157972361Y-86612898D01*
X157972357Y-86612900D01*
X157793121Y-86738402D01*
X157638402Y-86893121D01*
X157512900Y-87072357D01*
X157512898Y-87072361D01*
X157420426Y-87270668D01*
X157420422Y-87270677D01*
X157363793Y-87482020D01*
X157363793Y-87482024D01*
X157344723Y-87699997D01*
X157344723Y-87700002D01*
X141655277Y-87700002D01*
X141655277Y-87700000D01*
X141636207Y-87482023D01*
X141579575Y-87270670D01*
X141487102Y-87072362D01*
X141487100Y-87072359D01*
X141487099Y-87072357D01*
X141361599Y-86893124D01*
X141361596Y-86893121D01*
X141206877Y-86738402D01*
X141027639Y-86612898D01*
X141027640Y-86612898D01*
X141027638Y-86612897D01*
X140928484Y-86566661D01*
X140829330Y-86520425D01*
X140829326Y-86520424D01*
X140829322Y-86520422D01*
X140617977Y-86463793D01*
X140400002Y-86444723D01*
X140399998Y-86444723D01*
X140254682Y-86457436D01*
X140182023Y-86463793D01*
X140182020Y-86463793D01*
X139970677Y-86520422D01*
X139970668Y-86520426D01*
X139772361Y-86612898D01*
X139772357Y-86612900D01*
X139593121Y-86738402D01*
X139438402Y-86893121D01*
X139312900Y-87072357D01*
X139312898Y-87072361D01*
X139220426Y-87270668D01*
X139220422Y-87270677D01*
X139163793Y-87482020D01*
X139163793Y-87482024D01*
X139144723Y-87699997D01*
X139144723Y-87700002D01*
X138200500Y-87700002D01*
X138200500Y-83003480D01*
X138200695Y-82996527D01*
X138206445Y-82894134D01*
X138217713Y-82693494D01*
X138219267Y-82679700D01*
X138269523Y-82383915D01*
X138272616Y-82370363D01*
X138292888Y-82300000D01*
X145689723Y-82300000D01*
X145708081Y-82509844D01*
X145708793Y-82517975D01*
X145708793Y-82517979D01*
X145765422Y-82729322D01*
X145765424Y-82729326D01*
X145765425Y-82729330D01*
X145791235Y-82784680D01*
X145857897Y-82927638D01*
X145882998Y-82963486D01*
X145983402Y-83106877D01*
X146138123Y-83261598D01*
X146317361Y-83387102D01*
X146515670Y-83479575D01*
X146727023Y-83536207D01*
X146909926Y-83552208D01*
X146944998Y-83555277D01*
X146945000Y-83555277D01*
X146945002Y-83555277D01*
X146973254Y-83552805D01*
X147162977Y-83536207D01*
X147374330Y-83479575D01*
X147572639Y-83387102D01*
X147751877Y-83261598D01*
X147906598Y-83106877D01*
X148032102Y-82927639D01*
X148047726Y-82894132D01*
X148093896Y-82841695D01*
X148161090Y-82822543D01*
X148227971Y-82842758D01*
X148272489Y-82894134D01*
X148311399Y-82977578D01*
X148446894Y-83171082D01*
X148613917Y-83338105D01*
X148807421Y-83473600D01*
X149021507Y-83573429D01*
X149021516Y-83573433D01*
X149235000Y-83630634D01*
X149235000Y-82735501D01*
X149342685Y-82784680D01*
X149449237Y-82800000D01*
X149520763Y-82800000D01*
X149627315Y-82784680D01*
X149735000Y-82735501D01*
X149735000Y-83630633D01*
X149948483Y-83573433D01*
X149948492Y-83573429D01*
X150162578Y-83473600D01*
X150356082Y-83338105D01*
X150523108Y-83171079D01*
X150550741Y-83131616D01*
X150605318Y-83087991D01*
X150674816Y-83080797D01*
X150737171Y-83112320D01*
X150772585Y-83172550D01*
X150774789Y-83183339D01*
X150789354Y-83275304D01*
X150846950Y-83388342D01*
X150846952Y-83388344D01*
X150846954Y-83388347D01*
X150936652Y-83478045D01*
X150936654Y-83478046D01*
X150936658Y-83478050D01*
X151049694Y-83535645D01*
X151049698Y-83535647D01*
X151143475Y-83550499D01*
X151143481Y-83550500D01*
X152906518Y-83550499D01*
X153000304Y-83535646D01*
X153113342Y-83478050D01*
X153203050Y-83388342D01*
X153260646Y-83275304D01*
X153260646Y-83275302D01*
X153260647Y-83275301D01*
X153275499Y-83181524D01*
X153275500Y-83181519D01*
X153275499Y-81418482D01*
X153260646Y-81324696D01*
X153203050Y-81211658D01*
X153203046Y-81211654D01*
X153203045Y-81211652D01*
X153113347Y-81121954D01*
X153113344Y-81121952D01*
X153113342Y-81121950D01*
X153036517Y-81082805D01*
X153000301Y-81064352D01*
X152906524Y-81049500D01*
X151143482Y-81049500D01*
X151062519Y-81062323D01*
X151049696Y-81064354D01*
X150936658Y-81121950D01*
X150936657Y-81121951D01*
X150936652Y-81121954D01*
X150846954Y-81211652D01*
X150846951Y-81211657D01*
X150846950Y-81211658D01*
X150827751Y-81249337D01*
X150789352Y-81324698D01*
X150789352Y-81324699D01*
X150774788Y-81416656D01*
X150744859Y-81479791D01*
X150685547Y-81516722D01*
X150615684Y-81515724D01*
X150557452Y-81477114D01*
X150550740Y-81468382D01*
X150523109Y-81428922D01*
X150523108Y-81428920D01*
X150356082Y-81261894D01*
X150162578Y-81126399D01*
X149948492Y-81026570D01*
X149948486Y-81026567D01*
X149735000Y-80969364D01*
X149735000Y-81864498D01*
X149627315Y-81815320D01*
X149520763Y-81800000D01*
X149449237Y-81800000D01*
X149342685Y-81815320D01*
X149235000Y-81864498D01*
X149235000Y-80969364D01*
X149234999Y-80969364D01*
X149021513Y-81026567D01*
X149021507Y-81026570D01*
X148807422Y-81126399D01*
X148807420Y-81126400D01*
X148613926Y-81261886D01*
X148613920Y-81261891D01*
X148446891Y-81428920D01*
X148446886Y-81428926D01*
X148311400Y-81622420D01*
X148311399Y-81622422D01*
X148272489Y-81705866D01*
X148226317Y-81758305D01*
X148159123Y-81777457D01*
X148092242Y-81757241D01*
X148047725Y-81705866D01*
X148032102Y-81672362D01*
X148032100Y-81672359D01*
X148032099Y-81672357D01*
X147906599Y-81493124D01*
X147830131Y-81416656D01*
X147751877Y-81338402D01*
X147572639Y-81212898D01*
X147572640Y-81212898D01*
X147572638Y-81212897D01*
X147473484Y-81166661D01*
X147374330Y-81120425D01*
X147374326Y-81120424D01*
X147374322Y-81120422D01*
X147162977Y-81063793D01*
X146945002Y-81044723D01*
X146944998Y-81044723D01*
X146799682Y-81057436D01*
X146727023Y-81063793D01*
X146727020Y-81063793D01*
X146515677Y-81120422D01*
X146515670Y-81120424D01*
X146515670Y-81120425D01*
X146512391Y-81121954D01*
X146317361Y-81212898D01*
X146317357Y-81212900D01*
X146138121Y-81338402D01*
X145983402Y-81493121D01*
X145857900Y-81672357D01*
X145857898Y-81672361D01*
X145765426Y-81870668D01*
X145765422Y-81870677D01*
X145708793Y-82082020D01*
X145708793Y-82082023D01*
X145689723Y-82300000D01*
X138292888Y-82300000D01*
X138355673Y-82082068D01*
X138360265Y-82068948D01*
X138401581Y-81969202D01*
X138475075Y-81791768D01*
X138481097Y-81779262D01*
X138626230Y-81516665D01*
X138633625Y-81504897D01*
X138807245Y-81260201D01*
X138815896Y-81249354D01*
X139015816Y-81025645D01*
X139025647Y-81015815D01*
X139249354Y-80815896D01*
X139260201Y-80807245D01*
X139504902Y-80633621D01*
X139516665Y-80626230D01*
X139779262Y-80481097D01*
X139791768Y-80475075D01*
X140068948Y-80360265D01*
X140082068Y-80355673D01*
X140370369Y-80272614D01*
X140383915Y-80269523D01*
X140679700Y-80219267D01*
X140693494Y-80217713D01*
X140996528Y-80200695D01*
X141003481Y-80200500D01*
X141039882Y-80200500D01*
X157960118Y-80200500D01*
X157996519Y-80200500D01*
X158003472Y-80200695D01*
G37*
%TD.AperFunction*%
%TD*%
M02*
