%TF.GenerationSoftware,KiCad,Pcbnew,7.0.11*%
%TF.CreationDate,2024-08-15T23:16:24-03:00*%
%TF.ProjectId,tension-multiplier,74656e73-696f-46e2-9d6d-756c7469706c,0.1*%
%TF.SameCoordinates,Original*%
%TF.FileFunction,Legend,Top*%
%TF.FilePolarity,Positive*%
%FSLAX46Y46*%
G04 Gerber Fmt 4.6, Leading zero omitted, Abs format (unit mm)*
G04 Created by KiCad (PCBNEW 7.0.11) date 2024-08-15 23:16:24*
%MOMM*%
%LPD*%
G01*
G04 APERTURE LIST*
%ADD10C,0.200000*%
%ADD11C,0.150000*%
%ADD12C,0.152400*%
G04 APERTURE END LIST*
D10*
X143822054Y-94181504D02*
X144298244Y-94181504D01*
X143726816Y-94467219D02*
X144060149Y-93467219D01*
X144060149Y-93467219D02*
X144393482Y-94467219D01*
X144726816Y-93800552D02*
X144726816Y-94467219D01*
X144726816Y-93895790D02*
X144774435Y-93848171D01*
X144774435Y-93848171D02*
X144869673Y-93800552D01*
X144869673Y-93800552D02*
X145012530Y-93800552D01*
X145012530Y-93800552D02*
X145107768Y-93848171D01*
X145107768Y-93848171D02*
X145155387Y-93943409D01*
X145155387Y-93943409D02*
X145155387Y-94467219D01*
X146060149Y-94467219D02*
X146060149Y-93943409D01*
X146060149Y-93943409D02*
X146012530Y-93848171D01*
X146012530Y-93848171D02*
X145917292Y-93800552D01*
X145917292Y-93800552D02*
X145726816Y-93800552D01*
X145726816Y-93800552D02*
X145631578Y-93848171D01*
X146060149Y-94419600D02*
X145964911Y-94467219D01*
X145964911Y-94467219D02*
X145726816Y-94467219D01*
X145726816Y-94467219D02*
X145631578Y-94419600D01*
X145631578Y-94419600D02*
X145583959Y-94324361D01*
X145583959Y-94324361D02*
X145583959Y-94229123D01*
X145583959Y-94229123D02*
X145631578Y-94133885D01*
X145631578Y-94133885D02*
X145726816Y-94086266D01*
X145726816Y-94086266D02*
X145964911Y-94086266D01*
X145964911Y-94086266D02*
X146060149Y-94038647D01*
X146679197Y-94467219D02*
X146583959Y-94419600D01*
X146583959Y-94419600D02*
X146536340Y-94324361D01*
X146536340Y-94324361D02*
X146536340Y-93467219D01*
X147203007Y-94467219D02*
X147107769Y-94419600D01*
X147107769Y-94419600D02*
X147060150Y-94371980D01*
X147060150Y-94371980D02*
X147012531Y-94276742D01*
X147012531Y-94276742D02*
X147012531Y-93991028D01*
X147012531Y-93991028D02*
X147060150Y-93895790D01*
X147060150Y-93895790D02*
X147107769Y-93848171D01*
X147107769Y-93848171D02*
X147203007Y-93800552D01*
X147203007Y-93800552D02*
X147345864Y-93800552D01*
X147345864Y-93800552D02*
X147441102Y-93848171D01*
X147441102Y-93848171D02*
X147488721Y-93895790D01*
X147488721Y-93895790D02*
X147536340Y-93991028D01*
X147536340Y-93991028D02*
X147536340Y-94276742D01*
X147536340Y-94276742D02*
X147488721Y-94371980D01*
X147488721Y-94371980D02*
X147441102Y-94419600D01*
X147441102Y-94419600D02*
X147345864Y-94467219D01*
X147345864Y-94467219D02*
X147203007Y-94467219D01*
X148393483Y-93800552D02*
X148393483Y-94610076D01*
X148393483Y-94610076D02*
X148345864Y-94705314D01*
X148345864Y-94705314D02*
X148298245Y-94752933D01*
X148298245Y-94752933D02*
X148203007Y-94800552D01*
X148203007Y-94800552D02*
X148060150Y-94800552D01*
X148060150Y-94800552D02*
X147964912Y-94752933D01*
X148393483Y-94419600D02*
X148298245Y-94467219D01*
X148298245Y-94467219D02*
X148107769Y-94467219D01*
X148107769Y-94467219D02*
X148012531Y-94419600D01*
X148012531Y-94419600D02*
X147964912Y-94371980D01*
X147964912Y-94371980D02*
X147917293Y-94276742D01*
X147917293Y-94276742D02*
X147917293Y-93991028D01*
X147917293Y-93991028D02*
X147964912Y-93895790D01*
X147964912Y-93895790D02*
X148012531Y-93848171D01*
X148012531Y-93848171D02*
X148107769Y-93800552D01*
X148107769Y-93800552D02*
X148298245Y-93800552D01*
X148298245Y-93800552D02*
X148393483Y-93848171D01*
X149631579Y-94467219D02*
X149631579Y-93467219D01*
X149631579Y-93467219D02*
X149964912Y-94181504D01*
X149964912Y-94181504D02*
X150298245Y-93467219D01*
X150298245Y-93467219D02*
X150298245Y-94467219D01*
X151203007Y-93800552D02*
X151203007Y-94467219D01*
X150774436Y-93800552D02*
X150774436Y-94324361D01*
X150774436Y-94324361D02*
X150822055Y-94419600D01*
X150822055Y-94419600D02*
X150917293Y-94467219D01*
X150917293Y-94467219D02*
X151060150Y-94467219D01*
X151060150Y-94467219D02*
X151155388Y-94419600D01*
X151155388Y-94419600D02*
X151203007Y-94371980D01*
X151822055Y-94467219D02*
X151726817Y-94419600D01*
X151726817Y-94419600D02*
X151679198Y-94324361D01*
X151679198Y-94324361D02*
X151679198Y-93467219D01*
X152060151Y-93800552D02*
X152441103Y-93800552D01*
X152203008Y-93467219D02*
X152203008Y-94324361D01*
X152203008Y-94324361D02*
X152250627Y-94419600D01*
X152250627Y-94419600D02*
X152345865Y-94467219D01*
X152345865Y-94467219D02*
X152441103Y-94467219D01*
X152774437Y-94467219D02*
X152774437Y-93800552D01*
X152774437Y-93467219D02*
X152726818Y-93514838D01*
X152726818Y-93514838D02*
X152774437Y-93562457D01*
X152774437Y-93562457D02*
X152822056Y-93514838D01*
X152822056Y-93514838D02*
X152774437Y-93467219D01*
X152774437Y-93467219D02*
X152774437Y-93562457D01*
X153250627Y-93800552D02*
X153250627Y-94800552D01*
X153250627Y-93848171D02*
X153345865Y-93800552D01*
X153345865Y-93800552D02*
X153536341Y-93800552D01*
X153536341Y-93800552D02*
X153631579Y-93848171D01*
X153631579Y-93848171D02*
X153679198Y-93895790D01*
X153679198Y-93895790D02*
X153726817Y-93991028D01*
X153726817Y-93991028D02*
X153726817Y-94276742D01*
X153726817Y-94276742D02*
X153679198Y-94371980D01*
X153679198Y-94371980D02*
X153631579Y-94419600D01*
X153631579Y-94419600D02*
X153536341Y-94467219D01*
X153536341Y-94467219D02*
X153345865Y-94467219D01*
X153345865Y-94467219D02*
X153250627Y-94419600D01*
X154298246Y-94467219D02*
X154203008Y-94419600D01*
X154203008Y-94419600D02*
X154155389Y-94324361D01*
X154155389Y-94324361D02*
X154155389Y-93467219D01*
X154679199Y-94467219D02*
X154679199Y-93800552D01*
X154679199Y-93467219D02*
X154631580Y-93514838D01*
X154631580Y-93514838D02*
X154679199Y-93562457D01*
X154679199Y-93562457D02*
X154726818Y-93514838D01*
X154726818Y-93514838D02*
X154679199Y-93467219D01*
X154679199Y-93467219D02*
X154679199Y-93562457D01*
X155536341Y-94419600D02*
X155441103Y-94467219D01*
X155441103Y-94467219D02*
X155250627Y-94467219D01*
X155250627Y-94467219D02*
X155155389Y-94419600D01*
X155155389Y-94419600D02*
X155107770Y-94324361D01*
X155107770Y-94324361D02*
X155107770Y-93943409D01*
X155107770Y-93943409D02*
X155155389Y-93848171D01*
X155155389Y-93848171D02*
X155250627Y-93800552D01*
X155250627Y-93800552D02*
X155441103Y-93800552D01*
X155441103Y-93800552D02*
X155536341Y-93848171D01*
X155536341Y-93848171D02*
X155583960Y-93943409D01*
X155583960Y-93943409D02*
X155583960Y-94038647D01*
X155583960Y-94038647D02*
X155107770Y-94133885D01*
X156012532Y-94467219D02*
X156012532Y-93800552D01*
X156012532Y-93991028D02*
X156060151Y-93895790D01*
X156060151Y-93895790D02*
X156107770Y-93848171D01*
X156107770Y-93848171D02*
X156203008Y-93800552D01*
X156203008Y-93800552D02*
X156298246Y-93800552D01*
D11*
X148938095Y-87754819D02*
X148938095Y-88564342D01*
X148938095Y-88564342D02*
X148985714Y-88659580D01*
X148985714Y-88659580D02*
X149033333Y-88707200D01*
X149033333Y-88707200D02*
X149128571Y-88754819D01*
X149128571Y-88754819D02*
X149319047Y-88754819D01*
X149319047Y-88754819D02*
X149414285Y-88707200D01*
X149414285Y-88707200D02*
X149461904Y-88659580D01*
X149461904Y-88659580D02*
X149509523Y-88564342D01*
X149509523Y-88564342D02*
X149509523Y-87754819D01*
X150509523Y-88754819D02*
X149938095Y-88754819D01*
X150223809Y-88754819D02*
X150223809Y-87754819D01*
X150223809Y-87754819D02*
X150128571Y-87897676D01*
X150128571Y-87897676D02*
X150033333Y-87992914D01*
X150033333Y-87992914D02*
X149938095Y-88040533D01*
D12*
%TO.C,U1*%
X147579100Y-90928900D02*
X151820900Y-90928900D01*
X151820900Y-85671100D02*
X147579100Y-85671100D01*
%TD*%
M02*
