%TF.GenerationSoftware,KiCad,Pcbnew,7.0.11*%
%TF.CreationDate,2024-08-15T23:16:24-03:00*%
%TF.ProjectId,tension-multiplier,74656e73-696f-46e2-9d6d-756c7469706c,0.1*%
%TF.SameCoordinates,Original*%
%TF.FileFunction,Copper,L1,Top*%
%TF.FilePolarity,Positive*%
%FSLAX46Y46*%
G04 Gerber Fmt 4.6, Leading zero omitted, Abs format (unit mm)*
G04 Created by KiCad (PCBNEW 7.0.11) date 2024-08-15 23:16:24*
%MOMM*%
%LPD*%
G01*
G04 APERTURE LIST*
%TA.AperFunction,SMDPad,CuDef*%
%ADD10R,1.969999X0.558000*%
%TD*%
%TA.AperFunction,ComponentPad*%
%ADD11R,1.700000X1.700000*%
%TD*%
%TA.AperFunction,ComponentPad*%
%ADD12O,1.700000X1.700000*%
%TD*%
%TA.AperFunction,ViaPad*%
%ADD13C,0.800000*%
%TD*%
%TA.AperFunction,Conductor*%
%ADD14C,0.500000*%
%TD*%
%TA.AperFunction,Conductor*%
%ADD15C,0.300000*%
%TD*%
%TA.AperFunction,Conductor*%
%ADD16C,0.800000*%
%TD*%
G04 APERTURE END LIST*
D10*
%TO.P,U1,1,Y1*%
%TO.N,Net-(J1-Pin_3)*%
X147236200Y-86395000D03*
%TO.P,U1,2,Y2*%
%TO.N,GND*%
X147236200Y-87665000D03*
%TO.P,U1,3,-VS*%
%TO.N,-9V*%
X147236200Y-88935000D03*
%TO.P,U1,4,Z*%
%TO.N,Net-(J3-Pin_1)*%
X147236200Y-90205000D03*
%TO.P,U1,5,W*%
%TO.N,Net-(J2-Pin_1)*%
X152163800Y-90205000D03*
%TO.P,U1,6,+VS*%
%TO.N,+9V*%
X152163800Y-88935000D03*
%TO.P,U1,7,X1*%
%TO.N,Net-(J1-Pin_1)*%
X152163800Y-87665000D03*
%TO.P,U1,8,X2*%
%TO.N,GND*%
X152163800Y-86395000D03*
%TD*%
D11*
%TO.P,J1,1,Pin_1*%
%TO.N,Net-(J1-Pin_1)*%
X152025000Y-82300000D03*
D12*
%TO.P,J1,2,Pin_2*%
%TO.N,GND*%
X149485000Y-82300000D03*
%TO.P,J1,3,Pin_3*%
%TO.N,Net-(J1-Pin_3)*%
X146945000Y-82300000D03*
%TD*%
D11*
%TO.P,J3,1,Pin_1*%
%TO.N,Net-(J3-Pin_1)*%
X140400000Y-90240000D03*
D12*
%TO.P,J3,2,Pin_2*%
%TO.N,-9V*%
X140400000Y-87700000D03*
%TD*%
D11*
%TO.P,J2,1,Pin_1*%
%TO.N,Net-(J2-Pin_1)*%
X158600000Y-90240000D03*
D12*
%TO.P,J2,2,Pin_2*%
%TO.N,+9V*%
X158600000Y-87700000D03*
%TD*%
D13*
%TO.N,GND*%
X144250000Y-85630000D03*
X153610000Y-92000000D03*
X139990000Y-82230000D03*
X158930000Y-81810000D03*
X141080000Y-94720000D03*
X157680000Y-94760000D03*
X155760000Y-85590000D03*
X146550000Y-91930000D03*
%TD*%
D14*
%TO.N,Net-(J1-Pin_1)*%
X152163800Y-87665000D02*
X153648799Y-87665000D01*
X153900000Y-84175000D02*
X152025000Y-82300000D01*
X153648799Y-87665000D02*
X153900000Y-87413799D01*
X153900000Y-87413799D02*
X153900000Y-84175000D01*
D15*
%TO.N,Net-(J1-Pin_3)*%
X147236200Y-82191200D02*
X146945000Y-81900000D01*
X147196200Y-81976200D02*
X147120000Y-81900000D01*
D14*
X147236200Y-86395000D02*
X147236200Y-82591200D01*
X147236200Y-82591200D02*
X146945000Y-82300000D01*
%TO.N,Net-(J2-Pin_1)*%
X158565000Y-90205000D02*
X158600000Y-90240000D01*
X152163800Y-90205000D02*
X158565000Y-90205000D01*
%TO.N,Net-(J3-Pin_1)*%
X140435000Y-90205000D02*
X140400000Y-90240000D01*
X147236200Y-90205000D02*
X140435000Y-90205000D01*
%TO.N,GND*%
X147236200Y-87665000D02*
X148735000Y-87665000D01*
D16*
%TO.N,-9V*%
X147236200Y-88935000D02*
X145451201Y-88935000D01*
X145451201Y-88935000D02*
X144216201Y-87700000D01*
X144216201Y-87700000D02*
X140400000Y-87700000D01*
%TO.N,+9V*%
X153948799Y-88935000D02*
X155183799Y-87700000D01*
X155183799Y-87700000D02*
X158600000Y-87700000D01*
X152163800Y-88935000D02*
X153948799Y-88935000D01*
%TD*%
%TA.AperFunction,Conductor*%
%TO.N,GND*%
G36*
X158003472Y-80200695D02*
G01*
X158306503Y-80217713D01*
X158320301Y-80219267D01*
X158616080Y-80269522D01*
X158629636Y-80272616D01*
X158917927Y-80355672D01*
X158931051Y-80360265D01*
X159208222Y-80475072D01*
X159220744Y-80481101D01*
X159423184Y-80592986D01*
X159483328Y-80626227D01*
X159495102Y-80633625D01*
X159739789Y-80807239D01*
X159750657Y-80815907D01*
X159974352Y-81015815D01*
X159984184Y-81025647D01*
X160184092Y-81249342D01*
X160192763Y-81260214D01*
X160366374Y-81504897D01*
X160373772Y-81516671D01*
X160518894Y-81779248D01*
X160524927Y-81791777D01*
X160639734Y-82068948D01*
X160644327Y-82082072D01*
X160727383Y-82370363D01*
X160730477Y-82383920D01*
X160780730Y-82679688D01*
X160782287Y-82693506D01*
X160799305Y-82996527D01*
X160799500Y-83003480D01*
X160799500Y-92996519D01*
X160799305Y-93003472D01*
X160782287Y-93306493D01*
X160780730Y-93320311D01*
X160730477Y-93616079D01*
X160727383Y-93629636D01*
X160644327Y-93917927D01*
X160639734Y-93931051D01*
X160524927Y-94208222D01*
X160518894Y-94220751D01*
X160373772Y-94483328D01*
X160366374Y-94495102D01*
X160192763Y-94739785D01*
X160184092Y-94750657D01*
X159984184Y-94974352D01*
X159974352Y-94984184D01*
X159750657Y-95184092D01*
X159739785Y-95192763D01*
X159495102Y-95366374D01*
X159483328Y-95373772D01*
X159220751Y-95518894D01*
X159208222Y-95524927D01*
X158931051Y-95639734D01*
X158917927Y-95644327D01*
X158629636Y-95727383D01*
X158616079Y-95730477D01*
X158320311Y-95780730D01*
X158306493Y-95782287D01*
X158003472Y-95799305D01*
X157996519Y-95799500D01*
X141003481Y-95799500D01*
X140996528Y-95799305D01*
X140693506Y-95782287D01*
X140679688Y-95780730D01*
X140383920Y-95730477D01*
X140370363Y-95727383D01*
X140082072Y-95644327D01*
X140068948Y-95639734D01*
X139791777Y-95524927D01*
X139779248Y-95518894D01*
X139516671Y-95373772D01*
X139504897Y-95366374D01*
X139260214Y-95192763D01*
X139249342Y-95184092D01*
X139025647Y-94984184D01*
X139015815Y-94974352D01*
X138815907Y-94750657D01*
X138807236Y-94739785D01*
X138633625Y-94495102D01*
X138626227Y-94483328D01*
X138481105Y-94220751D01*
X138475072Y-94208222D01*
X138360265Y-93931051D01*
X138355672Y-93917927D01*
X138272616Y-93629636D01*
X138269522Y-93616079D01*
X138250030Y-93501356D01*
X138219267Y-93320301D01*
X138217713Y-93306503D01*
X138200695Y-93003472D01*
X138200500Y-92996519D01*
X138200500Y-87700002D01*
X139144723Y-87700002D01*
X139163793Y-87917975D01*
X139163793Y-87917979D01*
X139220422Y-88129322D01*
X139220424Y-88129326D01*
X139220425Y-88129330D01*
X139222836Y-88134500D01*
X139312897Y-88327638D01*
X139323888Y-88343334D01*
X139438402Y-88506877D01*
X139593123Y-88661598D01*
X139739263Y-88763926D01*
X139782887Y-88818502D01*
X139790081Y-88888000D01*
X139758558Y-88950355D01*
X139698328Y-88985769D01*
X139668140Y-88989500D01*
X139518482Y-88989500D01*
X139437519Y-89002323D01*
X139424696Y-89004354D01*
X139311658Y-89061950D01*
X139311657Y-89061951D01*
X139311652Y-89061954D01*
X139221954Y-89151652D01*
X139221951Y-89151657D01*
X139164352Y-89264698D01*
X139149500Y-89358475D01*
X139149500Y-91121517D01*
X139160292Y-91189657D01*
X139164354Y-91215304D01*
X139221950Y-91328342D01*
X139221952Y-91328344D01*
X139221954Y-91328347D01*
X139311652Y-91418045D01*
X139311654Y-91418046D01*
X139311658Y-91418050D01*
X139424694Y-91475645D01*
X139424698Y-91475647D01*
X139518475Y-91490499D01*
X139518481Y-91490500D01*
X141281518Y-91490499D01*
X141375304Y-91475646D01*
X141488342Y-91418050D01*
X141578050Y-91328342D01*
X141635646Y-91215304D01*
X141635646Y-91215302D01*
X141635647Y-91215301D01*
X141650500Y-91121524D01*
X141650500Y-90979500D01*
X141670185Y-90912461D01*
X141722989Y-90866706D01*
X141774500Y-90855500D01*
X146068363Y-90855500D01*
X146116480Y-90867051D01*
X146116617Y-90866631D01*
X146121963Y-90868368D01*
X146124657Y-90869015D01*
X146125895Y-90869646D01*
X146125898Y-90869647D01*
X146219675Y-90884499D01*
X146219681Y-90884500D01*
X148252718Y-90884499D01*
X148346504Y-90869646D01*
X148459542Y-90812050D01*
X148549250Y-90722342D01*
X148606846Y-90609304D01*
X148606846Y-90609302D01*
X148606847Y-90609301D01*
X148621699Y-90515524D01*
X148621700Y-90515519D01*
X148621699Y-89894482D01*
X148606846Y-89800696D01*
X148549250Y-89687658D01*
X148549246Y-89687654D01*
X148549245Y-89687652D01*
X148519274Y-89657681D01*
X148485789Y-89596358D01*
X148490773Y-89526666D01*
X148519274Y-89482319D01*
X148549245Y-89452347D01*
X148549250Y-89452342D01*
X148606846Y-89339304D01*
X148606846Y-89339302D01*
X148606847Y-89339301D01*
X148618662Y-89264698D01*
X148621700Y-89245519D01*
X148621699Y-88624482D01*
X148606846Y-88530696D01*
X148560672Y-88440075D01*
X148547776Y-88371410D01*
X148573319Y-88308473D01*
X148573074Y-88308289D01*
X148573774Y-88307353D01*
X148574052Y-88306669D01*
X148575510Y-88305034D01*
X148664552Y-88186088D01*
X148664554Y-88186086D01*
X148714796Y-88051379D01*
X148714798Y-88051372D01*
X148721199Y-87991844D01*
X148721200Y-87991827D01*
X148721200Y-87915000D01*
X145751199Y-87915000D01*
X145744919Y-87921280D01*
X145683596Y-87954765D01*
X145613904Y-87949779D01*
X145569558Y-87921279D01*
X144718463Y-87070184D01*
X144718460Y-87070182D01*
X144686050Y-87049817D01*
X144674711Y-87041771D01*
X144644790Y-87017910D01*
X144610294Y-87001296D01*
X144598128Y-86994572D01*
X144565725Y-86974212D01*
X144565726Y-86974212D01*
X144558853Y-86971807D01*
X144529594Y-86961568D01*
X144516755Y-86956250D01*
X144482262Y-86939639D01*
X144444936Y-86931119D01*
X144431581Y-86927271D01*
X144395461Y-86914633D01*
X144395457Y-86914632D01*
X144395456Y-86914632D01*
X144375135Y-86912342D01*
X144357418Y-86910345D01*
X144343719Y-86908017D01*
X144306401Y-86899501D01*
X144306397Y-86899500D01*
X144306395Y-86899500D01*
X144306392Y-86899500D01*
X141419337Y-86899500D01*
X141352298Y-86879815D01*
X141331656Y-86863181D01*
X141206881Y-86738406D01*
X141206877Y-86738402D01*
X141027639Y-86612898D01*
X141027640Y-86612898D01*
X141027638Y-86612897D01*
X140928484Y-86566661D01*
X140829330Y-86520425D01*
X140829326Y-86520424D01*
X140829322Y-86520422D01*
X140617977Y-86463793D01*
X140400002Y-86444723D01*
X140399998Y-86444723D01*
X140254682Y-86457436D01*
X140182023Y-86463793D01*
X140182020Y-86463793D01*
X139970677Y-86520422D01*
X139970668Y-86520426D01*
X139772361Y-86612898D01*
X139772357Y-86612900D01*
X139593121Y-86738402D01*
X139438402Y-86893121D01*
X139312900Y-87072357D01*
X139312898Y-87072361D01*
X139220426Y-87270668D01*
X139220422Y-87270677D01*
X139163793Y-87482020D01*
X139163793Y-87482024D01*
X139144723Y-87699997D01*
X139144723Y-87700002D01*
X138200500Y-87700002D01*
X138200500Y-83003480D01*
X138200695Y-82996527D01*
X138206445Y-82894134D01*
X138217713Y-82693494D01*
X138219267Y-82679700D01*
X138269523Y-82383915D01*
X138272616Y-82370363D01*
X138292888Y-82300000D01*
X145689723Y-82300000D01*
X145708081Y-82509844D01*
X145708793Y-82517975D01*
X145708793Y-82517979D01*
X145765422Y-82729322D01*
X145765424Y-82729326D01*
X145765425Y-82729330D01*
X145791235Y-82784680D01*
X145857897Y-82927638D01*
X145882998Y-82963486D01*
X145983402Y-83106877D01*
X146138123Y-83261598D01*
X146317361Y-83387102D01*
X146512395Y-83478048D01*
X146514105Y-83478845D01*
X146566544Y-83525017D01*
X146585700Y-83591227D01*
X146585700Y-85591500D01*
X146566015Y-85658539D01*
X146513211Y-85704294D01*
X146461701Y-85715500D01*
X146219682Y-85715500D01*
X146138719Y-85728323D01*
X146125896Y-85730354D01*
X146012858Y-85787950D01*
X146012857Y-85787951D01*
X146012852Y-85787954D01*
X145923154Y-85877652D01*
X145923151Y-85877657D01*
X145865552Y-85990698D01*
X145850700Y-86084475D01*
X145850700Y-86705517D01*
X145861492Y-86773657D01*
X145865554Y-86799304D01*
X145911727Y-86889923D01*
X145924623Y-86958591D01*
X145899079Y-87021527D01*
X145899325Y-87021712D01*
X145898624Y-87022647D01*
X145898347Y-87023332D01*
X145896882Y-87024974D01*
X145807849Y-87143906D01*
X145807845Y-87143913D01*
X145757603Y-87278620D01*
X145757601Y-87278627D01*
X145751200Y-87338155D01*
X145751200Y-87415000D01*
X148721200Y-87415000D01*
X148721200Y-87338172D01*
X148721199Y-87338155D01*
X148714798Y-87278627D01*
X148714796Y-87278620D01*
X148664554Y-87143913D01*
X148664552Y-87143911D01*
X148573074Y-87021711D01*
X148575734Y-87019719D01*
X148549992Y-86972575D01*
X148554976Y-86902883D01*
X148560669Y-86889930D01*
X148606846Y-86799304D01*
X148606846Y-86799302D01*
X148606847Y-86799301D01*
X148621699Y-86705524D01*
X148621700Y-86705519D01*
X148621699Y-86145000D01*
X150678800Y-86145000D01*
X151913800Y-86145000D01*
X151913800Y-85616000D01*
X151130955Y-85616000D01*
X151071427Y-85622401D01*
X151071420Y-85622403D01*
X150936713Y-85672645D01*
X150936706Y-85672649D01*
X150821612Y-85758809D01*
X150821609Y-85758812D01*
X150735449Y-85873906D01*
X150735445Y-85873913D01*
X150685203Y-86008620D01*
X150685201Y-86008627D01*
X150678800Y-86068155D01*
X150678800Y-86145000D01*
X148621699Y-86145000D01*
X148621699Y-86084482D01*
X148606846Y-85990696D01*
X148549250Y-85877658D01*
X148549246Y-85877654D01*
X148549245Y-85877652D01*
X148459547Y-85787954D01*
X148459544Y-85787952D01*
X148459542Y-85787950D01*
X148382717Y-85748805D01*
X148346501Y-85730352D01*
X148252724Y-85715500D01*
X148252719Y-85715500D01*
X148010700Y-85715500D01*
X147943661Y-85695815D01*
X147897906Y-85643011D01*
X147886700Y-85591500D01*
X147886700Y-83174390D01*
X147906385Y-83107351D01*
X147909091Y-83103315D01*
X148032102Y-82927639D01*
X148047726Y-82894132D01*
X148093896Y-82841695D01*
X148161090Y-82822543D01*
X148227971Y-82842758D01*
X148272489Y-82894134D01*
X148311399Y-82977578D01*
X148446894Y-83171082D01*
X148613917Y-83338105D01*
X148807421Y-83473600D01*
X149021507Y-83573429D01*
X149021516Y-83573433D01*
X149235000Y-83630634D01*
X149235000Y-82735501D01*
X149342685Y-82784680D01*
X149449237Y-82800000D01*
X149520763Y-82800000D01*
X149627315Y-82784680D01*
X149735000Y-82735501D01*
X149735000Y-83630633D01*
X149948483Y-83573433D01*
X149948492Y-83573429D01*
X150162578Y-83473600D01*
X150356082Y-83338105D01*
X150523108Y-83171079D01*
X150550741Y-83131616D01*
X150605318Y-83087991D01*
X150674816Y-83080797D01*
X150737171Y-83112320D01*
X150772585Y-83172550D01*
X150774789Y-83183339D01*
X150789354Y-83275304D01*
X150846950Y-83388342D01*
X150846952Y-83388344D01*
X150846954Y-83388347D01*
X150936652Y-83478045D01*
X150936654Y-83478046D01*
X150936658Y-83478050D01*
X151028836Y-83525017D01*
X151049698Y-83535647D01*
X151143475Y-83550499D01*
X151143481Y-83550500D01*
X152304191Y-83550499D01*
X152371230Y-83570184D01*
X152391872Y-83586818D01*
X153213181Y-84408127D01*
X153246666Y-84469450D01*
X153249500Y-84495808D01*
X153249500Y-85492000D01*
X153229815Y-85559039D01*
X153177011Y-85604794D01*
X153125500Y-85616000D01*
X152413800Y-85616000D01*
X152413800Y-86521000D01*
X152394115Y-86588039D01*
X152341311Y-86633794D01*
X152289800Y-86645000D01*
X150678800Y-86645000D01*
X150678800Y-86721844D01*
X150685201Y-86781372D01*
X150685203Y-86781379D01*
X150735445Y-86916086D01*
X150735447Y-86916088D01*
X150826926Y-87038289D01*
X150824259Y-87040285D01*
X150849997Y-87087373D01*
X150845042Y-87157066D01*
X150839327Y-87170077D01*
X150793152Y-87260698D01*
X150778300Y-87354475D01*
X150778300Y-87975517D01*
X150789092Y-88043657D01*
X150793154Y-88069304D01*
X150850750Y-88182342D01*
X150850752Y-88182344D01*
X150850754Y-88182347D01*
X150880726Y-88212319D01*
X150914211Y-88273642D01*
X150909227Y-88343334D01*
X150880726Y-88387681D01*
X150850754Y-88417652D01*
X150850751Y-88417657D01*
X150793152Y-88530698D01*
X150778300Y-88624475D01*
X150778300Y-89245517D01*
X150789092Y-89313657D01*
X150793154Y-89339304D01*
X150850750Y-89452342D01*
X150850752Y-89452344D01*
X150850754Y-89452347D01*
X150880726Y-89482319D01*
X150914211Y-89543642D01*
X150909227Y-89613334D01*
X150880726Y-89657681D01*
X150850754Y-89687652D01*
X150850751Y-89687657D01*
X150793152Y-89800698D01*
X150778300Y-89894475D01*
X150778300Y-90515517D01*
X150789092Y-90583657D01*
X150793154Y-90609304D01*
X150850750Y-90722342D01*
X150850752Y-90722344D01*
X150850754Y-90722347D01*
X150940452Y-90812045D01*
X150940454Y-90812046D01*
X150940458Y-90812050D01*
X151047579Y-90866631D01*
X151053498Y-90869647D01*
X151147275Y-90884499D01*
X151147281Y-90884500D01*
X153180318Y-90884499D01*
X153274104Y-90869646D01*
X153275342Y-90869014D01*
X153278035Y-90868368D01*
X153283382Y-90866631D01*
X153283518Y-90867051D01*
X153331636Y-90855500D01*
X157225501Y-90855500D01*
X157292540Y-90875185D01*
X157338295Y-90927989D01*
X157349501Y-90979500D01*
X157349501Y-91121518D01*
X157364354Y-91215304D01*
X157421950Y-91328342D01*
X157421952Y-91328344D01*
X157421954Y-91328347D01*
X157511652Y-91418045D01*
X157511654Y-91418046D01*
X157511658Y-91418050D01*
X157624694Y-91475645D01*
X157624698Y-91475647D01*
X157718475Y-91490499D01*
X157718481Y-91490500D01*
X159481518Y-91490499D01*
X159575304Y-91475646D01*
X159688342Y-91418050D01*
X159778050Y-91328342D01*
X159835646Y-91215304D01*
X159835646Y-91215302D01*
X159835647Y-91215301D01*
X159850499Y-91121524D01*
X159850500Y-91121519D01*
X159850499Y-89358482D01*
X159835646Y-89264696D01*
X159778050Y-89151658D01*
X159778046Y-89151654D01*
X159778045Y-89151652D01*
X159688347Y-89061954D01*
X159688344Y-89061952D01*
X159688342Y-89061950D01*
X159611517Y-89022805D01*
X159575301Y-89004352D01*
X159481524Y-88989500D01*
X159331862Y-88989500D01*
X159264823Y-88969815D01*
X159219068Y-88917011D01*
X159209124Y-88847853D01*
X159238149Y-88784297D01*
X159260734Y-88763928D01*
X159406877Y-88661598D01*
X159561598Y-88506877D01*
X159687102Y-88327639D01*
X159779575Y-88129330D01*
X159836207Y-87917977D01*
X159855277Y-87700000D01*
X159836207Y-87482023D01*
X159779575Y-87270670D01*
X159687102Y-87072362D01*
X159687100Y-87072359D01*
X159687099Y-87072357D01*
X159561599Y-86893124D01*
X159531656Y-86863181D01*
X159406877Y-86738402D01*
X159227639Y-86612898D01*
X159227640Y-86612898D01*
X159227638Y-86612897D01*
X159128484Y-86566661D01*
X159029330Y-86520425D01*
X159029326Y-86520424D01*
X159029322Y-86520422D01*
X158817977Y-86463793D01*
X158600002Y-86444723D01*
X158599998Y-86444723D01*
X158454682Y-86457436D01*
X158382023Y-86463793D01*
X158382020Y-86463793D01*
X158170677Y-86520422D01*
X158170668Y-86520426D01*
X157972361Y-86612898D01*
X157972357Y-86612900D01*
X157793124Y-86738400D01*
X157750153Y-86781372D01*
X157668342Y-86863182D01*
X157607022Y-86896666D01*
X157580663Y-86899500D01*
X155273993Y-86899500D01*
X155093605Y-86899500D01*
X155086133Y-86901205D01*
X155056277Y-86908018D01*
X155042580Y-86910345D01*
X155004542Y-86914632D01*
X154968420Y-86927271D01*
X154955068Y-86931118D01*
X154920898Y-86938918D01*
X154917743Y-86939639D01*
X154917734Y-86939641D01*
X154883239Y-86956251D01*
X154870404Y-86961568D01*
X154834279Y-86974210D01*
X154834275Y-86974212D01*
X154801866Y-86994575D01*
X154789702Y-87001297D01*
X154755216Y-87017905D01*
X154751810Y-87020622D01*
X154687122Y-87047028D01*
X154618427Y-87034270D01*
X154567535Y-86986397D01*
X154550500Y-86923672D01*
X154550500Y-84260501D01*
X154552268Y-84244488D01*
X154552026Y-84244466D01*
X154552758Y-84236710D01*
X154552760Y-84236703D01*
X154550561Y-84166735D01*
X154550500Y-84162840D01*
X154550500Y-84134077D01*
X154550499Y-84134070D01*
X154549949Y-84129716D01*
X154549030Y-84118054D01*
X154547597Y-84072430D01*
X154541676Y-84052052D01*
X154537731Y-84033003D01*
X154535071Y-84011942D01*
X154518261Y-83969487D01*
X154514481Y-83958445D01*
X154501743Y-83914599D01*
X154490941Y-83896335D01*
X154482379Y-83878858D01*
X154481351Y-83876262D01*
X154474568Y-83859129D01*
X154447737Y-83822199D01*
X154441323Y-83812435D01*
X154418082Y-83773137D01*
X154418081Y-83773135D01*
X154403075Y-83758129D01*
X154390435Y-83743330D01*
X154377961Y-83726160D01*
X154342780Y-83697056D01*
X154334140Y-83689194D01*
X153311818Y-82666872D01*
X153278333Y-82605549D01*
X153275499Y-82579191D01*
X153275499Y-81418482D01*
X153275210Y-81416656D01*
X153260646Y-81324696D01*
X153203050Y-81211658D01*
X153203046Y-81211654D01*
X153203045Y-81211652D01*
X153113347Y-81121954D01*
X153113344Y-81121952D01*
X153113342Y-81121950D01*
X153036517Y-81082805D01*
X153000301Y-81064352D01*
X152906524Y-81049500D01*
X151143482Y-81049500D01*
X151062519Y-81062323D01*
X151049696Y-81064354D01*
X150936658Y-81121950D01*
X150936657Y-81121951D01*
X150936652Y-81121954D01*
X150846954Y-81211652D01*
X150846951Y-81211657D01*
X150846950Y-81211658D01*
X150827751Y-81249337D01*
X150789352Y-81324698D01*
X150789352Y-81324699D01*
X150774788Y-81416656D01*
X150744859Y-81479791D01*
X150685547Y-81516722D01*
X150615684Y-81515724D01*
X150557452Y-81477114D01*
X150550740Y-81468382D01*
X150523109Y-81428922D01*
X150523108Y-81428920D01*
X150356082Y-81261894D01*
X150162578Y-81126399D01*
X149948492Y-81026570D01*
X149948486Y-81026567D01*
X149735000Y-80969364D01*
X149735000Y-81864498D01*
X149627315Y-81815320D01*
X149520763Y-81800000D01*
X149449237Y-81800000D01*
X149342685Y-81815320D01*
X149235000Y-81864498D01*
X149235000Y-80969364D01*
X149234999Y-80969364D01*
X149021513Y-81026567D01*
X149021507Y-81026570D01*
X148807422Y-81126399D01*
X148807420Y-81126400D01*
X148613926Y-81261886D01*
X148613920Y-81261891D01*
X148446891Y-81428920D01*
X148446886Y-81428926D01*
X148311400Y-81622420D01*
X148311399Y-81622422D01*
X148272489Y-81705866D01*
X148226317Y-81758305D01*
X148159123Y-81777457D01*
X148092242Y-81757241D01*
X148047725Y-81705866D01*
X148032102Y-81672362D01*
X148032100Y-81672359D01*
X148032099Y-81672357D01*
X147906599Y-81493124D01*
X147830131Y-81416656D01*
X147751877Y-81338402D01*
X147572639Y-81212898D01*
X147572640Y-81212898D01*
X147572638Y-81212897D01*
X147473484Y-81166661D01*
X147374330Y-81120425D01*
X147374326Y-81120424D01*
X147374322Y-81120422D01*
X147162977Y-81063793D01*
X146945002Y-81044723D01*
X146944998Y-81044723D01*
X146799682Y-81057436D01*
X146727023Y-81063793D01*
X146727020Y-81063793D01*
X146515677Y-81120422D01*
X146515670Y-81120424D01*
X146515670Y-81120425D01*
X146512391Y-81121954D01*
X146317361Y-81212898D01*
X146317357Y-81212900D01*
X146138121Y-81338402D01*
X145983402Y-81493121D01*
X145857900Y-81672357D01*
X145857898Y-81672361D01*
X145765426Y-81870668D01*
X145765422Y-81870677D01*
X145708793Y-82082020D01*
X145708793Y-82082023D01*
X145689723Y-82300000D01*
X138292888Y-82300000D01*
X138355673Y-82082068D01*
X138360265Y-82068948D01*
X138401581Y-81969202D01*
X138475075Y-81791768D01*
X138481097Y-81779262D01*
X138626230Y-81516665D01*
X138633625Y-81504897D01*
X138807245Y-81260201D01*
X138815896Y-81249354D01*
X139015816Y-81025645D01*
X139025647Y-81015815D01*
X139249354Y-80815896D01*
X139260201Y-80807245D01*
X139504902Y-80633621D01*
X139516665Y-80626230D01*
X139779262Y-80481097D01*
X139791768Y-80475075D01*
X140068948Y-80360265D01*
X140082068Y-80355673D01*
X140370369Y-80272614D01*
X140383915Y-80269523D01*
X140679700Y-80219267D01*
X140693494Y-80217713D01*
X140996528Y-80200695D01*
X141003481Y-80200500D01*
X141039882Y-80200500D01*
X157960118Y-80200500D01*
X157996519Y-80200500D01*
X158003472Y-80200695D01*
G37*
%TD.AperFunction*%
%TD*%
M02*
