%TF.GenerationSoftware,KiCad,Pcbnew,7.0.11*%
%TF.CreationDate,2024-08-15T23:16:24-03:00*%
%TF.ProjectId,tension-multiplier,74656e73-696f-46e2-9d6d-756c7469706c,0.1*%
%TF.SameCoordinates,Original*%
%TF.FileFunction,Legend,Bot*%
%TF.FilePolarity,Positive*%
%FSLAX46Y46*%
G04 Gerber Fmt 4.6, Leading zero omitted, Abs format (unit mm)*
G04 Created by KiCad (PCBNEW 7.0.11) date 2024-08-15 23:16:24*
%MOMM*%
%LPD*%
G01*
G04 APERTURE LIST*
%ADD10C,0.200000*%
%ADD11C,0.150000*%
%ADD12C,0.120000*%
G04 APERTURE END LIST*
D10*
X153290326Y-84067219D02*
X153290326Y-84876742D01*
X153290326Y-84876742D02*
X153242707Y-84971980D01*
X153242707Y-84971980D02*
X153195088Y-85019600D01*
X153195088Y-85019600D02*
X153099850Y-85067219D01*
X153099850Y-85067219D02*
X152909374Y-85067219D01*
X152909374Y-85067219D02*
X152814136Y-85019600D01*
X152814136Y-85019600D02*
X152766517Y-84971980D01*
X152766517Y-84971980D02*
X152718898Y-84876742D01*
X152718898Y-84876742D02*
X152718898Y-84067219D01*
X152337945Y-85067219D02*
X151814136Y-84400552D01*
X152337945Y-84400552D02*
X151814136Y-85067219D01*
X143730326Y-89607219D02*
X143730326Y-90416742D01*
X143730326Y-90416742D02*
X143682707Y-90511980D01*
X143682707Y-90511980D02*
X143635088Y-90559600D01*
X143635088Y-90559600D02*
X143539850Y-90607219D01*
X143539850Y-90607219D02*
X143349374Y-90607219D01*
X143349374Y-90607219D02*
X143254136Y-90559600D01*
X143254136Y-90559600D02*
X143206517Y-90511980D01*
X143206517Y-90511980D02*
X143158898Y-90416742D01*
X143158898Y-90416742D02*
X143158898Y-89607219D01*
X142777945Y-89940552D02*
X142254136Y-89940552D01*
X142254136Y-89940552D02*
X142777945Y-90607219D01*
X142777945Y-90607219D02*
X142254136Y-90607219D01*
X143973183Y-87107219D02*
X143639850Y-88107219D01*
X143639850Y-88107219D02*
X143306517Y-87107219D01*
X142973183Y-87726266D02*
X142211279Y-87726266D01*
D11*
X153377506Y-93469819D02*
X153377506Y-94184104D01*
X153377506Y-94184104D02*
X153425125Y-94326961D01*
X153425125Y-94326961D02*
X153520363Y-94422200D01*
X153520363Y-94422200D02*
X153663220Y-94469819D01*
X153663220Y-94469819D02*
X153758458Y-94469819D01*
X152425125Y-94469819D02*
X152901315Y-94469819D01*
X152901315Y-94469819D02*
X152901315Y-93469819D01*
X151520363Y-94374580D02*
X151567982Y-94422200D01*
X151567982Y-94422200D02*
X151710839Y-94469819D01*
X151710839Y-94469819D02*
X151806077Y-94469819D01*
X151806077Y-94469819D02*
X151948934Y-94422200D01*
X151948934Y-94422200D02*
X152044172Y-94326961D01*
X152044172Y-94326961D02*
X152091791Y-94231723D01*
X152091791Y-94231723D02*
X152139410Y-94041247D01*
X152139410Y-94041247D02*
X152139410Y-93898390D01*
X152139410Y-93898390D02*
X152091791Y-93707914D01*
X152091791Y-93707914D02*
X152044172Y-93612676D01*
X152044172Y-93612676D02*
X151948934Y-93517438D01*
X151948934Y-93517438D02*
X151806077Y-93469819D01*
X151806077Y-93469819D02*
X151710839Y-93469819D01*
X151710839Y-93469819D02*
X151567982Y-93517438D01*
X151567982Y-93517438D02*
X151520363Y-93565057D01*
X150806077Y-93469819D02*
X150806077Y-94184104D01*
X150806077Y-94184104D02*
X150853696Y-94326961D01*
X150853696Y-94326961D02*
X150948934Y-94422200D01*
X150948934Y-94422200D02*
X151091791Y-94469819D01*
X151091791Y-94469819D02*
X151187029Y-94469819D01*
X149853696Y-94469819D02*
X150329886Y-94469819D01*
X150329886Y-94469819D02*
X150329886Y-93469819D01*
X148948934Y-94374580D02*
X148996553Y-94422200D01*
X148996553Y-94422200D02*
X149139410Y-94469819D01*
X149139410Y-94469819D02*
X149234648Y-94469819D01*
X149234648Y-94469819D02*
X149377505Y-94422200D01*
X149377505Y-94422200D02*
X149472743Y-94326961D01*
X149472743Y-94326961D02*
X149520362Y-94231723D01*
X149520362Y-94231723D02*
X149567981Y-94041247D01*
X149567981Y-94041247D02*
X149567981Y-93898390D01*
X149567981Y-93898390D02*
X149520362Y-93707914D01*
X149520362Y-93707914D02*
X149472743Y-93612676D01*
X149472743Y-93612676D02*
X149377505Y-93517438D01*
X149377505Y-93517438D02*
X149234648Y-93469819D01*
X149234648Y-93469819D02*
X149139410Y-93469819D01*
X149139410Y-93469819D02*
X148996553Y-93517438D01*
X148996553Y-93517438D02*
X148948934Y-93565057D01*
X148234648Y-93469819D02*
X148234648Y-94184104D01*
X148234648Y-94184104D02*
X148282267Y-94326961D01*
X148282267Y-94326961D02*
X148377505Y-94422200D01*
X148377505Y-94422200D02*
X148520362Y-94469819D01*
X148520362Y-94469819D02*
X148615600Y-94469819D01*
X147282267Y-94469819D02*
X147758457Y-94469819D01*
X147758457Y-94469819D02*
X147758457Y-93469819D01*
X146377505Y-94374580D02*
X146425124Y-94422200D01*
X146425124Y-94422200D02*
X146567981Y-94469819D01*
X146567981Y-94469819D02*
X146663219Y-94469819D01*
X146663219Y-94469819D02*
X146806076Y-94422200D01*
X146806076Y-94422200D02*
X146901314Y-94326961D01*
X146901314Y-94326961D02*
X146948933Y-94231723D01*
X146948933Y-94231723D02*
X146996552Y-94041247D01*
X146996552Y-94041247D02*
X146996552Y-93898390D01*
X146996552Y-93898390D02*
X146948933Y-93707914D01*
X146948933Y-93707914D02*
X146901314Y-93612676D01*
X146901314Y-93612676D02*
X146806076Y-93517438D01*
X146806076Y-93517438D02*
X146663219Y-93469819D01*
X146663219Y-93469819D02*
X146567981Y-93469819D01*
X146567981Y-93469819D02*
X146425124Y-93517438D01*
X146425124Y-93517438D02*
X146377505Y-93565057D01*
X145663219Y-93469819D02*
X145663219Y-94184104D01*
X145663219Y-94184104D02*
X145710838Y-94326961D01*
X145710838Y-94326961D02*
X145806076Y-94422200D01*
X145806076Y-94422200D02*
X145948933Y-94469819D01*
X145948933Y-94469819D02*
X146044171Y-94469819D01*
X144710838Y-94469819D02*
X145187028Y-94469819D01*
X145187028Y-94469819D02*
X145187028Y-93469819D01*
X143806076Y-94374580D02*
X143853695Y-94422200D01*
X143853695Y-94422200D02*
X143996552Y-94469819D01*
X143996552Y-94469819D02*
X144091790Y-94469819D01*
X144091790Y-94469819D02*
X144234647Y-94422200D01*
X144234647Y-94422200D02*
X144329885Y-94326961D01*
X144329885Y-94326961D02*
X144377504Y-94231723D01*
X144377504Y-94231723D02*
X144425123Y-94041247D01*
X144425123Y-94041247D02*
X144425123Y-93898390D01*
X144425123Y-93898390D02*
X144377504Y-93707914D01*
X144377504Y-93707914D02*
X144329885Y-93612676D01*
X144329885Y-93612676D02*
X144234647Y-93517438D01*
X144234647Y-93517438D02*
X144091790Y-93469819D01*
X144091790Y-93469819D02*
X143996552Y-93469819D01*
X143996552Y-93469819D02*
X143853695Y-93517438D01*
X143853695Y-93517438D02*
X143806076Y-93565057D01*
D10*
X156230326Y-89567219D02*
X156230326Y-90376742D01*
X156230326Y-90376742D02*
X156182707Y-90471980D01*
X156182707Y-90471980D02*
X156135088Y-90519600D01*
X156135088Y-90519600D02*
X156039850Y-90567219D01*
X156039850Y-90567219D02*
X155849374Y-90567219D01*
X155849374Y-90567219D02*
X155754136Y-90519600D01*
X155754136Y-90519600D02*
X155706517Y-90471980D01*
X155706517Y-90471980D02*
X155658898Y-90376742D01*
X155658898Y-90376742D02*
X155658898Y-89567219D01*
X155277945Y-89900552D02*
X155087469Y-90567219D01*
X155087469Y-90567219D02*
X154896993Y-90091028D01*
X154896993Y-90091028D02*
X154706517Y-90567219D01*
X154706517Y-90567219D02*
X154516041Y-89900552D01*
X156573183Y-87107219D02*
X156239850Y-88107219D01*
X156239850Y-88107219D02*
X155906517Y-87107219D01*
X155573183Y-87726266D02*
X154811279Y-87726266D01*
X155192231Y-88107219D02*
X155192231Y-87345314D01*
X146790326Y-84067219D02*
X146790326Y-84876742D01*
X146790326Y-84876742D02*
X146742707Y-84971980D01*
X146742707Y-84971980D02*
X146695088Y-85019600D01*
X146695088Y-85019600D02*
X146599850Y-85067219D01*
X146599850Y-85067219D02*
X146409374Y-85067219D01*
X146409374Y-85067219D02*
X146314136Y-85019600D01*
X146314136Y-85019600D02*
X146266517Y-84971980D01*
X146266517Y-84971980D02*
X146218898Y-84876742D01*
X146218898Y-84876742D02*
X146218898Y-84067219D01*
X145837945Y-84400552D02*
X145599850Y-85067219D01*
X145361755Y-84400552D02*
X145599850Y-85067219D01*
X145599850Y-85067219D02*
X145695088Y-85305314D01*
X145695088Y-85305314D02*
X145742707Y-85352933D01*
X145742707Y-85352933D02*
X145837945Y-85400552D01*
X150266517Y-84114838D02*
X150361755Y-84067219D01*
X150361755Y-84067219D02*
X150504612Y-84067219D01*
X150504612Y-84067219D02*
X150647469Y-84114838D01*
X150647469Y-84114838D02*
X150742707Y-84210076D01*
X150742707Y-84210076D02*
X150790326Y-84305314D01*
X150790326Y-84305314D02*
X150837945Y-84495790D01*
X150837945Y-84495790D02*
X150837945Y-84638647D01*
X150837945Y-84638647D02*
X150790326Y-84829123D01*
X150790326Y-84829123D02*
X150742707Y-84924361D01*
X150742707Y-84924361D02*
X150647469Y-85019600D01*
X150647469Y-85019600D02*
X150504612Y-85067219D01*
X150504612Y-85067219D02*
X150409374Y-85067219D01*
X150409374Y-85067219D02*
X150266517Y-85019600D01*
X150266517Y-85019600D02*
X150218898Y-84971980D01*
X150218898Y-84971980D02*
X150218898Y-84638647D01*
X150218898Y-84638647D02*
X150409374Y-84638647D01*
X149790326Y-85067219D02*
X149790326Y-84067219D01*
X149790326Y-84067219D02*
X149218898Y-85067219D01*
X149218898Y-85067219D02*
X149218898Y-84067219D01*
X148742707Y-85067219D02*
X148742707Y-84067219D01*
X148742707Y-84067219D02*
X148504612Y-84067219D01*
X148504612Y-84067219D02*
X148361755Y-84114838D01*
X148361755Y-84114838D02*
X148266517Y-84210076D01*
X148266517Y-84210076D02*
X148218898Y-84305314D01*
X148218898Y-84305314D02*
X148171279Y-84495790D01*
X148171279Y-84495790D02*
X148171279Y-84638647D01*
X148171279Y-84638647D02*
X148218898Y-84829123D01*
X148218898Y-84829123D02*
X148266517Y-84924361D01*
X148266517Y-84924361D02*
X148361755Y-85019600D01*
X148361755Y-85019600D02*
X148504612Y-85067219D01*
X148504612Y-85067219D02*
X148742707Y-85067219D01*
X153807219Y-81966666D02*
X154521504Y-81966666D01*
X154521504Y-81966666D02*
X154664361Y-81919047D01*
X154664361Y-81919047D02*
X154759600Y-81823809D01*
X154759600Y-81823809D02*
X154807219Y-81680952D01*
X154807219Y-81680952D02*
X154807219Y-81585714D01*
X154807219Y-82966666D02*
X154807219Y-82395238D01*
X154807219Y-82680952D02*
X153807219Y-82680952D01*
X153807219Y-82680952D02*
X153950076Y-82585714D01*
X153950076Y-82585714D02*
X154045314Y-82490476D01*
X154045314Y-82490476D02*
X154092933Y-82395238D01*
X140733333Y-92192219D02*
X140733333Y-92906504D01*
X140733333Y-92906504D02*
X140780952Y-93049361D01*
X140780952Y-93049361D02*
X140876190Y-93144600D01*
X140876190Y-93144600D02*
X141019047Y-93192219D01*
X141019047Y-93192219D02*
X141114285Y-93192219D01*
X140352380Y-92192219D02*
X139733333Y-92192219D01*
X139733333Y-92192219D02*
X140066666Y-92573171D01*
X140066666Y-92573171D02*
X139923809Y-92573171D01*
X139923809Y-92573171D02*
X139828571Y-92620790D01*
X139828571Y-92620790D02*
X139780952Y-92668409D01*
X139780952Y-92668409D02*
X139733333Y-92763647D01*
X139733333Y-92763647D02*
X139733333Y-93001742D01*
X139733333Y-93001742D02*
X139780952Y-93096980D01*
X139780952Y-93096980D02*
X139828571Y-93144600D01*
X139828571Y-93144600D02*
X139923809Y-93192219D01*
X139923809Y-93192219D02*
X140209523Y-93192219D01*
X140209523Y-93192219D02*
X140304761Y-93144600D01*
X140304761Y-93144600D02*
X140352380Y-93096980D01*
X158933333Y-92192219D02*
X158933333Y-92906504D01*
X158933333Y-92906504D02*
X158980952Y-93049361D01*
X158980952Y-93049361D02*
X159076190Y-93144600D01*
X159076190Y-93144600D02*
X159219047Y-93192219D01*
X159219047Y-93192219D02*
X159314285Y-93192219D01*
X158504761Y-92287457D02*
X158457142Y-92239838D01*
X158457142Y-92239838D02*
X158361904Y-92192219D01*
X158361904Y-92192219D02*
X158123809Y-92192219D01*
X158123809Y-92192219D02*
X158028571Y-92239838D01*
X158028571Y-92239838D02*
X157980952Y-92287457D01*
X157980952Y-92287457D02*
X157933333Y-92382695D01*
X157933333Y-92382695D02*
X157933333Y-92477933D01*
X157933333Y-92477933D02*
X157980952Y-92620790D01*
X157980952Y-92620790D02*
X158552380Y-93192219D01*
X158552380Y-93192219D02*
X157933333Y-93192219D01*
D12*
%TO.C,J1*%
X145615000Y-83630000D02*
X145615000Y-80970000D01*
X150755000Y-83630000D02*
X145615000Y-83630000D01*
X150755000Y-83630000D02*
X150755000Y-80970000D01*
X152025000Y-83630000D02*
X153355000Y-83630000D01*
X153355000Y-83630000D02*
X153355000Y-82300000D01*
X150755000Y-80970000D02*
X145615000Y-80970000D01*
%TO.C,J3*%
X139070000Y-86370000D02*
X141730000Y-86370000D01*
X139070000Y-88970000D02*
X139070000Y-86370000D01*
X139070000Y-88970000D02*
X141730000Y-88970000D01*
X139070000Y-90240000D02*
X139070000Y-91570000D01*
X139070000Y-91570000D02*
X140400000Y-91570000D01*
X141730000Y-88970000D02*
X141730000Y-86370000D01*
%TO.C,J2*%
X157270000Y-86370000D02*
X159930000Y-86370000D01*
X157270000Y-88970000D02*
X157270000Y-86370000D01*
X157270000Y-88970000D02*
X159930000Y-88970000D01*
X157270000Y-90240000D02*
X157270000Y-91570000D01*
X157270000Y-91570000D02*
X158600000Y-91570000D01*
X159930000Y-88970000D02*
X159930000Y-86370000D01*
%TD*%
M02*
